<?xml version="1.0" encoding="utf-8"?>
<!-- Generator: Adobe Illustrator 26.5.0, SVG Export Plug-In . SVG Version: 6.00 Build 0)  -->
<svg version="1.1" id="Layer_1" xmlns="http://www.w3.org/2000/svg" xmlns:xlink="http://www.w3.org/1999/xlink" x="0px" y="0px"
	 viewBox="0 0 4500 1722.9" style="enable-background:new 0 0 4500 1722.9;" xml:space="preserve">
<style type="text/css">
	.st0{fill:none;stroke:#000000;stroke-width:17;stroke-miterlimit:10;}
	.st1{fill:none;stroke:#000000;stroke-width:18;stroke-miterlimit:10;}
	.st2{fill:none;stroke:#000000;stroke-width:13;stroke-miterlimit:10;}
</style>
<g>
	<path class="st0" d="M2265.75,1365.54c-56.47,0-113.17,1.57-169.63,0c-11.11-0.31-21.84-6.17-21.84-16.64c0-11.32,0-22.65,0-33.97
		c0-38.38,0-76.76,0-115.14c0-26.73,0-53.45,0-80.18c-2.19,4.98-4.39,9.97-6.58,14.95c65.91,0,131.8,0,197.71,0
		c9.26,0,18.52,0,27.8,0c-2.19-4.98-4.39-9.97-6.58-14.95c0,71.84,0,143.65,0,215.49c0,5.27,0.35,10.7,0,15.95
		C2286.08,1359.25,2274.9,1365.14,2265.75,1365.54c-9.42,0.4-9.07,30.29,0,29.9c26.46-1.12,34.04-26.44,34.04-48.77
		c0-16.21,0-32.42,0-48.63c0-47.64,0-95.3,0-142.95c0-11.84,0-23.67,0-35.51c0-3.72-0.85-14.95-6.58-14.95
		c-65.91,0-131.8,0-197.71,0c-9.26,0-18.52,0-27.8,0c-5.74,0-6.58,11.51-6.58,14.95c0,63.32,0,126.61,0,189.93
		c0,24.87-6.76,67.79,19.08,81.98c9.69,5.34,21.7,3.92,32.38,3.92c17.78,0,35.56,0,53.35,0c33.27,0,66.55,0,99.81,0
		C2274.96,1395.44,2275.05,1365.54,2265.75,1365.54z"/>
</g>
<path class="st1" d="M2516.98,688.35c0-173.08-150.36-313.42-335.93-313.69c-184.09-0.29-335.14,138.73-337.08,310.32
	c-0.92,80.56,30.76,154.19,83.5,210.2c38.07,40.44,59.29,92.64,58.48,146.44c-0.02,1.33-0.02,2.66-0.02,3.99
	c0.81,98.71,87.3,179.29,193.2,179.94c108.06,0.67,195.89-80.77,195.89-181.36c0-0.85,0-1.68-0.02-2.51
	c-0.79-54.14,20.75-106.26,58.96-147.04C2485.65,839.5,2516.98,767.34,2516.98,688.35z"/>
<g>
	<g>
		<path d="M2107.95,640.98c0.12,1.37,0.59,8.95,0.36,4.22c0.16,3.28,0.26,6.55,0.31,9.83c0.03,2.63,0.03,5.25-0.02,7.9
			c-0.03,1.68-0.14,3.34-0.16,4.99c-0.07,4.49,0.59-5.06,0.05-0.79c-0.59,4.72-0.88,9.47-1.61,14.19c-0.45,2.99-1.11,5.53-0.07,0.83
			c-0.55,2.51-1.04,5.01-1.64,7.52c-3.68,15.48-9.4,30.36-13.7,45.66c-13.57,48.25-12.03,101.52-0.21,149.96
			c4.58,18.73,11.66,36.67,20.51,53.76c7.47,14.43,15.29,28.56,21.03,43.81c0.36,0.95,0.69,1.9,1.04,2.87
			c-0.12-0.33-1.23-3.84-0.4-1.09c0.74,2.45,1.5,4.89,2.18,7.36c0.62,2.23,1.19,4.49,1.73,6.74c0.4,1.69,2.13,9.92,1.23,5.12
			c1.12,6,1.94,12.06,2.61,18.11c0.35,3.08,0.64,6.17,0.9,9.26c0.12,1.54,0.26,3.09,0.36,4.63c-0.28-4.2,0,0.5,0.05,2.3
			c0.19,5.74,0.14,11.46,0,17.21c-0.16,6.08,0.48-4.22-0.09,1.57c-0.29,2.96-0.55,5.89-0.93,8.83c-0.28,2.07-0.6,4.15-0.92,6.22
			c-0.78,5.39,1.02-4.44-0.12,0.71c-0.95,4.27-1.92,8.52-3.08,12.74c-4.77,17.45-11.47,34.32-15.22,52.05
			c-6.32,29.83-6.88,59.77-4.37,90.08c0.55,6.65,5.58,26.89,16.17,20.88c10.66-6.05,10.01-26.97,9.19-36.77
			c-0.12-1.37-0.59-8.95-0.36-4.22c-0.16-3.28-0.26-6.55-0.31-9.83c-0.03-2.63-0.03-5.25,0.02-7.9c0.03-1.68,0.14-3.34,0.16-5.01
			c0.07-4.49-0.59,5.06-0.05,0.8c0.59-4.72,0.88-9.47,1.61-14.19c0.45-2.99,1.11-5.53,0.07-0.83c0.55-2.51,1.04-5.01,1.64-7.52
			c3.68-15.48,9.4-30.36,13.7-45.66c13.57-48.25,12.03-101.52,0.21-149.98c-4.58-18.73-11.66-36.67-20.51-53.76
			c-7.47-14.43-15.29-28.56-21.03-43.81c-0.36-0.95-0.69-1.9-1.04-2.87c0.12,0.33,1.23,3.84,0.4,1.09c-0.74-2.45-1.5-4.89-2.18-7.36
			c-0.62-2.23-1.19-4.49-1.73-6.74c-0.4-1.69-2.13-9.92-1.23-5.12c-1.12-6-1.94-12.06-2.61-18.11c-0.35-3.08-0.64-6.17-0.9-9.26
			c-0.12-1.54-0.26-3.09-0.36-4.63c0.28,4.2,0-0.5-0.05-2.3c-0.19-5.74-0.14-11.46,0-17.21c0.16-6.08-0.48,4.22,0.09-1.57
			c0.29-2.96,0.55-5.89,0.93-8.83c0.28-2.07,0.6-4.15,0.92-6.22c0.78-5.39-1.02,4.44,0.12-0.71c0.95-4.27,1.92-8.52,3.08-12.74
			c4.77-17.45,11.47-34.32,15.22-52.05c6.32-29.83,6.88-59.77,4.37-90.08c-0.55-6.65-5.58-26.89-16.17-20.88
			C2106.48,610.24,2107.14,631.18,2107.95,640.98L2107.95,640.98z"/>
	</g>
	<g>
		<path d="M2227.6,625.08c-2.16,26.01-2.57,52.34,2.09,78.13c3.23,17.89,8.55,34.82,14,52.12c2.45,7.81,4.61,15.67,6.41,23.67
			c1.23,5.48-0.05-1.11,0.16,0.64c0.29,2.42,0.76,4.82,1.07,7.24c0.28,2.18,0.52,4.37,0.73,6.57c0.1,1.14,0.14,2.3,0.29,3.42
			c0.54,4.32-0.19-7.43,0,0.41c0.14,5.27,0.19,10.52,0.05,15.79c-0.05,1.9-0.14,3.8-0.22,5.7c0.03-0.66,0.35-4.08,0-0.47
			c-0.35,3.63-0.59,7.24-0.97,10.87c-0.66,6.13-1.49,12.23-2.54,18.3c-0.57,3.27,0.02-0.26,0.14-0.78
			c-0.35,1.62-0.67,3.23-1.04,4.84c-0.6,2.68-1.26,5.34-1.97,7.98c-0.67,2.49-1.45,4.96-2.16,7.45c-1.33,4.65,1.05-2.51-0.6,1.85
			c-1.61,4.22-3.23,8.43-5.06,12.56c-3.23,7.31-6.91,14.41-10.66,21.46c-8.54,16.12-16.19,32.16-21.89,49.53
			c-15.71,47.88-17.94,103.2-7.24,152.35c3.85,17.7,10.58,34.53,15.26,51.98c1.23,4.56,2.19,9.16,3.23,13.77
			c-1.26-5.63-0.17-0.85,0.21,1.87c0.41,2.85,0.76,5.72,1.05,8.61c0.26,2.54,0.47,8.55,0.29,2.51c0.09,3.37,0.24,6.74,0.26,10.11
			c0.02,3.66-0.09,7.31-0.21,10.96c0,0.16-0.24,4.91-0.07,1.88c0.17-3.06-0.45,5.48-0.43,5.2c-0.86,10.33-1.68,30.64,9.19,36.77
			c10.7,6.03,15.67-14.77,16.17-20.88c2.16-26.01,2.57-52.34-2.09-78.14c-3.23-17.89-8.55-34.82-14-52.12
			c-2.45-7.81-4.61-15.67-6.41-23.67c-1.23-5.48,0.05,1.11-0.16-0.64c-0.29-2.42-0.76-4.82-1.07-7.24
			c-0.28-2.18-0.52-4.37-0.73-6.57c-0.1-1.14-0.14-2.3-0.29-3.42c-0.54-4.32,0.19,7.43,0-0.41c-0.14-5.27-0.19-10.52-0.05-15.79
			c0.05-1.9,0.14-3.8,0.22-5.7c-0.03,0.66-0.35,4.08,0,0.47c0.35-3.63,0.59-7.24,0.97-10.87c0.66-6.13,1.49-12.23,2.54-18.3
			c0.57-3.27-0.02,0.26-0.14,0.78c0.35-1.62,0.67-3.23,1.04-4.84c0.6-2.68,1.26-5.34,1.97-7.98c0.67-2.49,1.45-4.96,2.16-7.45
			c1.33-4.65-1.05,2.51,0.6-1.85c1.61-4.22,3.23-8.43,5.06-12.56c3.23-7.31,6.91-14.41,10.66-21.46
			c8.54-16.12,16.19-32.16,21.89-49.53c15.71-47.88,17.94-103.2,7.24-152.35c-3.85-17.7-10.58-34.53-15.26-51.98
			c-1.23-4.56-2.19-9.16-3.23-13.77c1.26,5.63,0.17,0.85-0.21-1.87c-0.41-2.85-0.76-5.72-1.05-8.61c-0.26-2.54-0.47-8.55-0.29-2.51
			c-0.09-3.37-0.24-6.74-0.26-10.11c-0.02-3.66,0.09-7.31,0.21-10.96c0-0.16,0.24-4.91,0.07-1.88c-0.17,3.06,0.45-5.48,0.43-5.2
			c0.86-10.33,1.68-30.64-9.19-36.77C2233.09,598.18,2228.12,618.98,2227.6,625.08L2227.6,625.08z"/>
	</g>
</g>
<g>
	<path class="st2" d="M2075.49,1324.01c22.4,1.59,45.79-2.07,67.58-6.67c54.97-11.6,106.5-35.74,151.86-68.69
		c5.11-3.72,5.29-12.77,4.6-18.39c-0.33-2.7-3.02-14.12-8.09-10.44c-44.88,32.59-95.87,56.87-150.36,68.03
		c-21.19,4.34-43.88,7.81-65.6,6.26C2066.7,1293.5,2065.87,1323.34,2075.49,1324.01L2075.49,1324.01z"/>
</g>
</svg>
