<?xml version="1.0" encoding="utf-8"?>
<!-- Generator: Adobe Illustrator 26.5.0, SVG Export Plug-In . SVG Version: 6.00 Build 0)  -->
<svg version="1.1" id="project_coordination" xmlns="http://www.w3.org/2000/svg" xmlns:xlink="http://www.w3.org/1999/xlink"
	 x="0px" y="0px" viewBox="0 0 5200 3100" style="enable-background:new 0 0 5200 3100;" xml:space="preserve">
<style type="text/css">
	.st0{fill:#0F86A1;}
</style>
<g>
	<path d="M1936.59,1486.62c-47.1,13.84-98.64,16-146.05,2.19c-42.47-12.37-81.55-37.19-107.21-68.23
		c-15.06-18.22-22.84-31.23-31.34-52.75c-1.11-2.81-2.16-5.65-3.15-8.5c1.64,4.68-0.06-0.15-0.3-0.96
		c-1.7-5.87-3.26-11.77-4.52-17.74c-1.06-5.03-1.93-10.1-2.62-15.19c0.94,7-0.24-3.21-0.28-3.79c-0.24-3.14-0.42-6.28-0.53-9.42
		c-0.76-21.79,1.82-40.56,8.9-61.1c7.69-22.33,17.14-39.38,32.37-58.98c28.29-36.4,70.83-63.99,116.93-78.89
		c42.99-13.89,89.71-20.34,134.47-27.34c75.25-11.77,151.55-18.93,225.52-36.95c76.08-18.53,144.93-52.18,206.97-97.05
		c42.06-30.42,80.45-65.09,116.59-101.46c22.5-22.64,44.13-46.02,65.15-69.85c15.44-17.5,35.45-32.16,54.34-46.36
		c31.91-23.99,62.51-43.34,99.57-60.88c16-7.57,32.44-14.34,49.29-20.09c7.59-2.59,15.25-4.98,22.99-7.14
		c3.95-1.1,7.92-2.15,11.9-3.13c1.79-0.44,3.58-0.85,5.38-1.28c5.54-1.34-0.64,0.06,3.59-0.81c29.56-6.04,59.93-8.6,90.17-6.89
		c6.49,0.37,12.97,0.93,19.42,1.69c3.83,0.45,7.64,0.99,11.45,1.55c1.05,0.16,4.51,0.76-0.43-0.09c2.5,0.43,5,0.89,7.5,1.39
		c13.55,2.67,26.9,6.23,39.93,10.62c12.89,4.34,25.46,9.5,37.62,15.39c5.52,2.67,10.93,5.52,16.3,8.46
		c5.51,3.02-4.56-2.71,0.84,0.48c1.31,0.78,2.63,1.55,3.94,2.34c3.4,2.05,6.77,4.15,10.09,6.31c22.85,14.86,43.06,32.32,62.1,51.2
		c1,0.99,3.43,3.69-0.93-0.98c1.25,1.35,2.52,2.68,3.77,4.03c2.08,2.26,4.13,4.54,6.16,6.85c4.68,5.32,9.2,10.76,13.57,16.31
		c8.43,10.69,16.3,21.77,23.6,33.17c1.84,2.87,3.64,5.75,5.4,8.66c1.09,1.8,6.27,10.87,1.92,3.12c3.34,5.95,6.63,11.92,9.73,17.99
		c6.23,12.19,11.87,24.63,16.91,37.29c2.53,6.35,4.91,12.75,7.14,19.2c0.5,1.46,0.91,2.98,1.5,4.41c1.64,4.03-2.35-7.71-0.49-1.5
		c1.07,3.56,2.21,7.11,3.24,10.68c3.79,13.1,6.97,26.36,9.51,39.73c1.27,6.68,2.38,13.38,3.32,20.1c0.17,1.22,0.31,2.45,0.5,3.67
		c1.04,6.83-0.82-8.13-0.14-1.26c0.36,3.67,0.79,7.34,1.1,11.02c1.16,13.44,1.67,26.94,1.47,40.43c-0.04,3.06-0.12,6.11-0.24,9.16
		c-0.12,3.14,1,15.12-0.11,4.16c0.64,6.36-1.17,13.65-1.97,19.99c-1.67,13.24-4.06,26.39-7.2,39.39c-0.87,3.61-2.89,10.41-0.64,2.77
		c-1.03,3.49-1.99,6.99-3.07,10.47c-1.98,6.36-4.15,12.68-6.51,18.93c-2.26,5.96-4.69,11.86-7.3,17.7c-1.37,3.06-2.78,6.1-4.25,9.11
		c-0.67,1.37-1.36,2.73-2.03,4.1c-0.6,1.22,2.95-5.38-0.41,0.68c-6.57,11.86-13.56,23.43-21.53,34.53
		c-3.83,5.33-7.83,10.55-12.01,15.65c-1,1.22-2.04,2.41-3.03,3.64c-4.09,5.08,3.96-4.25-0.49,0.58c-2.6,2.82-5.13,5.68-7.78,8.46
		c-9.89,10.36-20.52,20.1-31.81,29.13c-5.26,4.21-10.66,8.28-16.19,12.19c-3.37,2.38-6.8,4.68-10.24,6.97
		c-1.16,0.77-2.33,1.52-3.5,2.27c4.85-3.09-2.73,1.63-3.58,2.14c-28.31,16.93-59.1,30.09-91.02,39.88
		c-7.88,2.42-15.83,4.63-23.84,6.65c-12.28,3.1-25.08,3.01-38.05,3.18c-29.43,0.38-58.85-1.97-87.96-5.9
		c-117.55-15.83-230.2-57.32-349.41-63.71c-28.78-1.54-57.73-0.83-86.26,3.18c-29.13,4.09-64.57,9.34-87.8,27.04
		c-44.37,33.82-82.97,75.44-105.23,125.1c-35.71,79.68-14.27,171.77,55.43,228.86c69.92,57.27,171.31,72.04,260.16,53.51
		c27.21-5.67,53.62-13.66,78.91-24.65c24.18-10.5,44.03-25.09,65.96-38.89c39.63-24.95,82.54-46.54,126.62-64.24
		c85.29-34.24,187.04-59.61,279.47-36.97c43.89,10.75,80.64,31.52,110.96,62.94c11.3,11.71,26.86-1.92,30.92-12.34
		c6.01-15.43,2.17-32.22-9.35-44.16c-68.15-70.62-171.83-88.28-269.01-74.63c-101.33,14.23-198.62,54.33-283.42,107.21
		c-20.76,12.95-39.83,27.25-62.43,37.32c-23.99,10.7-49.43,19.43-75.47,24.63c-45.81,9.14-94.8,9.61-140.08-1.92
		c-41.48-10.56-75.54-27.77-105.05-56.33c-5.82-5.63,1.86,2.13-1.39-1.39c-1.42-1.53-2.81-3.09-4.17-4.67
		c-2.96-3.45-5.78-7-8.45-10.65c-2.65-3.63-5.06-7.37-7.46-11.14c-4.26-6.72,2.37,5.2-1.03-1.92c-1.03-2.17-2.19-4.28-3.2-6.45
		c-1.86-3.99-3.44-8.06-5.01-12.16c-1.76-4.56,1.91,7.25-0.1-0.25c-0.62-2.31-1.29-4.6-1.85-6.93c-0.94-3.91-1.59-7.83-2.29-11.78
		c-1.43-8.09,0.24,7.21-0.06-1.03c-0.09-2.44-0.32-4.88-0.38-7.33c-0.06-2.47,0.04-4.94,0-7.41c-0.13-8.4-1,7.05,0.03-1.38
		c0.52-4.25,1-8.48,1.77-12.7c0.47-2.59,1.08-5.14,1.61-7.71c1.73-8.32-1.22,3.75,0.33-1.28c1.77-5.76,3.73-11.46,6.04-17.05
		c7.11-17.26,20.14-37.6,35.29-55.1c8.36-9.66,17.64-18.71,27.18-27.37c10.41-9.44,22.01-21.58,34.9-27.62
		c25.35-11.89,58.78-15.24,86.65-17.2c120.69-8.46,237.35,32.86,354.02,54.55c29.92,5.56,60.08,10.28,90.48,12.81
		c29.58,2.46,63.06,5.24,92.13-1.46c34-7.84,67.2-19.16,98.17-34.47c57.3-28.32,106.33-69.65,140.72-121.04
		c66.81-99.82,76.17-227.65,43.74-339.6c-31.75-109.64-101.97-212.93-210.46-268.86c-51.22-26.4-110.59-39.1-169.04-36.46
		c-70.43,3.18-138.44,27.21-198.14,61.28c-39.14,22.34-75.68,48.54-109.61,77.32c-23.43,19.87-42.25,44.6-63.31,66.68
		c-19.86,20.82-40.35,41.12-61.7,60.62c-63.61,58.1-132.23,106.54-216.06,135.66c-68.58,23.82-136.99,31.77-210.98,42.08
		c-42.71,5.95-85.35,12.39-127.62,20.66c-25.65,5.01-51.82,9.71-76.62,17.72c-25.45,8.22-48.95,20.21-70.91,34.67
		c-92.32,60.78-135.12,170.67-113.63,273.17c19.57,93.35,94.73,174.3,195.3,196.76c51.81,11.57,104,8.09,154.61-6.78
		C1977.9,1540.76,1969.13,1477.06,1936.59,1486.62L1936.59,1486.62z"/>
</g>
<ellipse class="st0" cx="2239.66" cy="989.16" rx="197.45" ry="184.12"/>
<polygon class="st0" points="3354.57,1108.21 3097.9,1430.07 2953.61,1080.08 "/>
</svg>
