<?xml version="1.0" encoding="utf-8"?>
<!-- Generator: Adobe Illustrator 26.5.0, SVG Export Plug-In . SVG Version: 6.00 Build 0)  -->
<svg version="1.1" id="Layer_1" xmlns="http://www.w3.org/2000/svg" xmlns:xlink="http://www.w3.org/1999/xlink" x="0px" y="0px"
	 viewBox="0 0 5200 3100" style="enable-background:new 0 0 5200 3100;" xml:space="preserve">
<style type="text/css">
	.st0{fill:none;}
	.st1{clip-path:url(#SVGID_00000084519730287502306220000004930317090541863324_);}
	.st2{clip-path:url(#SVGID_00000084519730287502306220000004930317090541863324_);fill:#BF6325;}
	.st3{fill:#FFFFFF;}
	.st4{clip-path:url(#SVGID_00000084519730287502306220000004930317090541863324_);fill:#FDC854;}
	.st5{stroke:#000000;stroke-width:11;stroke-miterlimit:10;}
	.st6{fill:none;stroke:#000000;stroke-width:11;stroke-miterlimit:10;}
	.st7{fill:#0F86A1;stroke:#000000;stroke-width:10;stroke-miterlimit:10;}
	.st8{fill:none;stroke:#000000;stroke-width:10;stroke-miterlimit:10;}
</style>
<path class="st0" d="M4583.05,2025.69H1660.88c-15.7,0-28.43-9.75-28.43-21.77V413.87c0-12.03,12.73-21.77,28.43-21.77h2922.18
	c15.7,0,28.43,9.75,28.43,21.77v1590.05C4611.48,2015.94,4598.76,2025.69,4583.05,2025.69z"/>
<g>
	<path d="M1659.42,778.83c97.4,0,194.79,0,292.19,0c233.83,0,467.66,0,701.49,0c281.7,0,563.4,0,845.1,0c243.64,0,487.27,0,730.91,0
		c81.16,0,162.31,0,243.47,0c37.39,0,76.5,0.84,113.78,0c1.67-0.04,3.41,0,5.09,0c38.5,0,38.89-31.57,0-31.57
		c-97.4,0-194.79,0-292.19,0c-233.83,0-467.66,0-701.49,0c-281.7,0-563.4,0-845.1,0c-243.64,0-487.27,0-730.91,0
		c-81.16,0-162.31,0-243.47,0c-37.39,0-76.5-0.84-113.78,0c-1.67,0.04-3.41,0-5.09,0C1620.92,747.26,1620.53,778.83,1659.42,778.83
		L1659.42,778.83z"/>
</g>
<g>
	<defs>
		<path id="SVGID_1_" d="M4586.6,2009.96H1635.27c-7.65,0-13.86-6.2-13.86-13.86V390.22c0-7.65,6.2-13.86,13.86-13.86H4586.6
			c7.65,0,13.86,6.2,13.86,13.86v1605.88C4600.45,2003.76,4594.25,2009.96,4586.6,2009.96z"/>
	</defs>
	<clipPath id="SVGID_00000077308764788481077900000008853386677932405668_">
		<use xlink:href="#SVGID_1_"  style="overflow:visible;"/>
	</clipPath>
	<path style="clip-path:url(#SVGID_00000077308764788481077900000008853386677932405668_);" d="M6649.57,1481.88
		c0,0-462.31-74.56-494.96-58.37c-32.65,16.19-44.97,264.97-23.3,297.06c21.68,32.09,490.62,149.25,490.62,149.25L6649.57,1481.88z"
		/>
	<path style="clip-path:url(#SVGID_00000077308764788481077900000008853386677932405668_);fill:#BF6325;" d="M2254.62,3475.51
		c0,0,635.09-610.53,1266.48-638.52s1125.33,787.9,1125.33,787.9L2254.62,3475.51z"/>
	<g style="clip-path:url(#SVGID_00000077308764788481077900000008853386677932405668_);">
		<path d="M-534.01,823.6c95.81-7.54,190.32-25.42,279.47-53.4c44.24-13.88,87.02-31.03,133.26-40.86
			c30.06-6.39,84-13.89,96.46,16.54c6.23,15.22,4.67,32.89,5.01,48.6c0.42,19.49,0.09,39-0.98,58.48
			c-1.8,32.64-3.59,67.13-19.45,97.85c-15.52,30.06-47.73,49.13-84.76,62.81c-42.15,15.57-86.98,27.32-130.5,40.42
			c-108.65,32.69-217.29,65.38-325.94,98.07c-15.81,4.76-10.27,35.31,8.03,29.8c102.29-30.78,204.59-61.56,306.88-92.33
			c47.36-14.25,95.81-27.26,142.09-43.47c40.12-14.05,77.32-33.7,98.22-64.33c21.5-31.51,27.05-67.13,30.06-102.12
			c3.48-40.32,5.94-81.79,1.03-122.1c-2.09-17.15-7.13-34.78-22.76-47.85c-13.8-11.54-33.22-16.39-53.26-17.03
			c-22.1-0.71-44.41,3.64-65.4,8.48c-24.12,5.56-47.38,13.03-70.42,20.77c-52.37,17.59-104.76,34.09-159.86,46.1
			c-55.01,11.99-111.31,20.06-168.19,24.54C-553.1,793.98-551.65,824.99-534.01,823.6L-534.01,823.6z"/>
	</g>
	<g style="clip-path:url(#SVGID_00000077308764788481077900000008853386677932405668_);">
		<path class="st3" d="M3840.48,2467.28c180.6,81.69,361.2,163.37,541.8,245.06c51.6,23.34,103.2,46.68,154.8,70.02
			c8.45,3.82,15.05-6.45,16.02-11.15c1.52-7.33-1.38-15.06-9.9-18.92c-180.6-81.69-361.2-163.37-541.8-245.06
			c-51.6-23.34-103.2-46.68-154.8-70.02c-8.45-3.82-15.05,6.45-16.02,11.15C3829.06,2455.69,3831.95,2463.42,3840.48,2467.28
			L3840.48,2467.28z"/>
	</g>
	<g style="clip-path:url(#SVGID_00000077308764788481077900000008853386677932405668_);">
		<path class="st3" d="M6693.1,1211.82c-75.23-13.25-150.67-25.8-226.31-37.63c-38.15-5.96-76.34-11.74-114.58-17.34
			c-15.88-2.32-33.96-6.89-50.25-5.53c-17.06,1.43-27.79,10.14-33.87,21.94c-6.46,12.53-9.29,26.81-12.45,40
			c-3.4,14.25-5.89,28.63-7.45,43.07c-1.54,14.32-2.4,28.69-2.28,43.06c0.11,13.94-1.29,30.49,5.29,43.68
			c6.47,12.95,21.6,17.29,37.11,22.25c17.38,5.55,34.83,10.97,52.35,16.26c34.43,10.39,69.13,20.26,104.07,29.6
			c79.69,21.32,160.63,39.86,242.47,55.68c19.23,3.72,22.49-26.9,6.11-30.06c-132.85-25.68-263.26-58.61-389.9-98.68
			c-7.47-2.36-15-4.65-22.37-7.18c-6.37-2.19-7.07-2.83-7.48-8.08c-1.02-12.97-1.31-25.96-0.84-38.95
			c0.95-26.08,5.41-52.09,12.68-77.57c2.15-7.54,2.99-21.06,14.72-23.57c14.42-3.09,33.82,2.37,47.93,4.44
			c34.94,5.12,69.85,10.39,104.71,15.82c78.28,12.18,156.35,25.15,234.2,38.86C6706.36,1245.29,6709.49,1214.7,6693.1,1211.82
			L6693.1,1211.82z"/>
	</g>
	<path style="clip-path:url(#SVGID_00000077308764788481077900000008853386677932405668_);fill:#FDC854;" d="M-816.35,1319.07
		c0,0,542.83-276.2,680.41-226.48c137.59,49.72,45.21,161.06,142.11,166.95s217.49-7.13,220.59,87.9
		c3.1,95.04,19.58,190.33-42.97,237.76c-62.55,47.43-761.49,601.8-952.57,459.31S-1012.92,1499.03-816.35,1319.07z"/>
	<g style="clip-path:url(#SVGID_00000077308764788481077900000008853386677932405668_);">
		<path d="M-575.33,1381.38c-203.59,85.78-402.2,178.46-595,277.8c-54.9,28.28-109.34,57.08-163.31,86.4
			c-13.53,7.35-3.78,36.36,14.29,26.55c188.5-102.4,382.96-198.34,582.62-287.47c56.08-25.03,112.57-49.52,169.43-73.48
			C-552.34,1404.87-558.68,1374.36-575.33,1381.38L-575.33,1381.38z"/>
	</g>
	<g style="clip-path:url(#SVGID_00000077308764788481077900000008853386677932405668_);">
		<path class="st5" d="M3263.07,2166.33c2.6-323.32,5.15-659.68,7.63-1008.69c0.71-99.21,1.41-199.46,2.1-300.67
			c0.16-22.77,0.03-103.01-0.18-72.94c-2.45,356.06-4.96,699.82-7.53,1030.52c-0.73,94.01-1.47,186.94-2.2,278.85
			C3262.72,2114.08,3262.84,2193.91,3263.07,2166.33L3263.07,2166.33z"/>
	</g>
</g>
<g>
	<path d="M4583.05,2010.06c-19.42,0-38.84,0-58.26,0c-53.65,0-107.31,0-160.96,0c-80.99,0-161.98,0-242.96,0
		c-101.42,0-202.84,0-304.25,0c-115.43,0-230.86,0-346.28,0c-121.08,0-242.17,0-363.25,0c-121.77,0-243.54,0-365.31,0
		c-113.62,0-227.25,0-340.87,0c-100.39,0-200.77,0-301.16,0c-78.93,0-157.86,0-236.8,0c-51.01,0-102.03,0-153.04,0
		c-12.85,0-25.69,0-38.54,0c-2.92,0-5.88,0.11-8.8,0c-0.53-0.02-1.06,0.03-1.58,0c-3.68-0.2-7.03-0.52-10.42-1.78
		c-4.23-1.57-7.12-3.87-9.53-6.94c-0.27-0.35,0.57,3.2,0.4,2.49c-1.37-5.61,0-12.43,0-18.1c0-15.8,0-31.61,0-47.41
		c0-55.32,0-110.64,0-165.96c0-78.33,0-156.67,0-235c0-90.88,0-181.76,0-272.64c0-92.96,0-185.91,0-278.87
		c0-84.56,0-169.13,0-253.69c0-65.7,0-131.41,0-197.11c0-36.38,0-72.75,0-109.13c0-3.27,0.28-6.62,0-9.88
		c-0.05-0.59-0.14-1.37,0-1.96c0.27-1.19-0.7,2.75-0.4,2.37c4.49-5.83,11.25-8.27,19.86-8.72c5.31-0.28,10.76,0,16.08,0
		c38.02,0,76.05,0,114.07,0c68.68,0,137.36,0,206.04,0c92.44,0,184.87,0,277.31,0c109.29,0,218.58,0,327.87,0
		c119.24,0,238.48,0,357.72,0c122.28,0,244.57,0,366.85,0c118.43,0,236.86,0,355.28,0c107.67,0,215.34,0,323,0
		c90.32,0,180.65,0,270.97,0c65.12,0,130.24,0,195.36,0c34.03,0,68.07,0,102.1,0c2.7,0,5.43-0.1,8.12,0c0.44,0.02,0.89-0.02,1.34,0
		c7.02,0.36,11.11,1.87,16.52,5.16c3.15,1.91,3.8,4.72,2.97,1.17c1.4,5.95,0,13.09,0,19.1c0,40.59,0,81.18,0,121.77
		c0,68.55,0,137.11,0,205.66c0,86.14,0,172.28,0,258.42c0,93.26,0,186.52,0,279.78c0,89.91,0,179.83,0,269.74
		c0,76.1,0,152.19,0,228.29c0,51.81,0,103.62,0,155.44c0,13.13,0,26.26,0,39.39c0,3.25-0.23,6.56,0,9.8c0.05,0.64,0.13,1.44,0,2.08
		c-0.02,0.12,0.03,0.25,0,0.37c1.24-4.93-2.02,0.57-4.46,2.18C4593.83,2008.86,4588.44,2009.78,4583.05,2010.06
		c-13,0.67-12.19,31.89,0,31.27c47.77-2.46,37.41-58.08,37.41-83.92c0-50.89,0-101.78,0-152.67c0-76,0-152,0-228
		c0-90.76,0-181.52,0-272.29c0-94.04,0-188.08,0-282.12c0-86.93,0-173.86,0-260.8c0-69.33,0-138.66,0-207.98
		c0-40.41,0-80.82,0-121.22c0-6.12,0.22-12.27,0-18.39c-0.65-17.97-11.51-36.42-37.74-37.48c-2.05-0.08-4.14,0-6.19,0
		c-31.8,0-63.6,0-95.4,0c-64.55,0-129.1,0-193.65,0c-89.69,0-179.37,0-269.06,0c-107.95,0-215.9,0-323.85,0
		c-119.63,0-239.26,0-358.89,0c-123.26,0-246.52,0-369.78,0c-120.28,0-240.56,0-360.84,0c-110.64,0-221.27,0-331.91,0
		c-93.01,0-186.03,0-279.04,0c-68.79,0-137.58,0-206.36,0c-37.57,0-75.13,0-112.7,0c-7.11,0-14.76-0.5-21.73,0.78
		c-27.44,5.04-29.86,27.82-29.86,45.78c0,35.02,0,70.05,0,105.07c0,65.24,0,130.47,0,195.71c0,85.16,0,170.31,0,255.47
		c0,93.63,0,187.27,0,280.9c0,91.7,0,183.39,0,275.09c0,79.31,0,158.62,0,237.93c0,55.53,0,111.06,0,166.59
		c0,21.35-0.72,42.78,0,64.13c0.61,18.12,11.69,36.35,37.95,37.43c2.2,0.09,4.44,0,6.64,0c11.77,0,23.54,0,35.32,0
		c49.49,0,98.98,0,148.46,0c78.26,0,156.52,0,234.78,0c100.39,0,200.79,0,301.18,0c114.63,0,229.26,0,343.89,0
		c122.65,0,245.31,0,367.96,0c122.6,0,245.2,0,367.8,0c116.4,0,232.79,0,349.19,0c102.16,0,204.33,0,306.49,0
		c81.35,0,162.69,0,244.04,0c53.6,0,107.21,0,160.81,0c18.36,0,36.73,0,55.09,0C4595.64,2041.33,4595.77,2010.06,4583.05,2010.06z"
		/>
</g>
<circle class="st6" cx="2049.12" cy="584.99" r="127.15"/>
<circle class="st6" cx="1915.22" cy="1805.89" r="133.9"/>
<circle class="st6" cx="3530.23" cy="1805.89" r="127.15"/>
<g>
	<path class="st5" d="M3940.74,2024.45c2.34-290.29,4.62-592.29,6.85-905.66c0.63-89.08,1.26-179.08,1.89-269.96
		c0.14-20.45,0.03-92.49-0.16-65.49c-2.2,319.68-4.45,628.33-6.76,925.25c-0.66,84.4-1.32,167.84-1.98,250.36
		C3940.43,1977.54,3940.54,2049.21,3940.74,2024.45L3940.74,2024.45z"/>
</g>
<rect x="2672.11" y="894.57" class="st7" width="428" height="744.83"/>
<rect x="2262.88" y="1067.49" class="st8" width="266" height="399"/>
<rect x="4180.74" y="1621.88" transform="matrix(-1.836970e-16 1 -1 -1.836970e-16 6121.7949 -2399.9644)" class="st8" width="160.28" height="478.07"/>
<rect x="3774.67" y="21.77" transform="matrix(-1.836970e-16 1 -1 -1.836970e-16 4475.9419 -3305.9717)" class="st7" width="232.56" height="1126.44"/>
</svg>
