<?xml version="1.0" encoding="utf-8"?>
<!-- Generator: Adobe Illustrator 26.5.0, SVG Export Plug-In . SVG Version: 6.00 Build 0)  -->
<svg version="1.1" id="Layer_1" xmlns="http://www.w3.org/2000/svg" xmlns:xlink="http://www.w3.org/1999/xlink" x="0px" y="0px"
	 viewBox="0 0 4500 4000" style="enable-background:new 0 0 4500 4000;" xml:space="preserve">
<style type="text/css">
	.st0{fill:#FFFFFF;}
</style>
<g>
	<path d="M1885.31,2194.5c1.01-1.43,2.13-2.79,3.25-4.13c1.27-1.51,2.58-2.99,3.93-4.44c0.77-0.83,1.56-1.65,2.36-2.46
		c0.48-0.48,0.96-0.96,1.45-1.44c0.44-0.43,0.4-0.39-0.11,0.11c0.32-0.3,0.64-0.6,0.97-0.9c9.87-9,21.44-16.9,34.35-20.76
		c7.59-2.27,15.72-3.02,23.6-2.33c4.14,0.37,8.29,1.12,12.29,2.3c-1.98-0.59,0.36,0.14,0.82,0.34c0.83,0.36,1.65,0.7,2.45,1.13
		c1.27,0.67,2.41,1.48,3.57,2.31c0.64,0.46,2.41,2.42,0.43,0.25c0.52,0.57,1.06,1.11,1.55,1.71c0.44,0.54,0.83,1.11,1.25,1.66
		c1.16,1.56,0.62,1.45-0.05-0.27c0.28,0.71,0.71,1.45,1.05,2.13c1.61,3.26-0.07-0.45-0.05-0.45c0.21,0.05,0.61,2.19,0.68,2.41
		c0.73,2.68-0.4,0.13-0.19-1.23c-0.1,0.68,0.24,1.94,0.34,2.63c0.46,3.32,0.03-4.29-0.06-0.89c-0.02,0.94-0.05,1.9-0.03,2.84
		c0.04,2.31,0.48-4.63,0.05-1.25c-0.13,1-0.24,2-0.37,3c-0.05,0.41-0.14,0.81-0.19,1.22c-0.31,2.5,0.87-3.58,0.23-1.28
		c-0.56,2-0.94,4.03-1.54,6.02c-0.32,1.07-1.72,4.18-0.09,0.39c-0.51,1.18-0.89,2.43-1.37,3.62c-0.82,2.03-1.72,4.03-2.69,6
		c-0.5,1.02-1.01,2.03-1.55,3.03c-0.3,0.57-0.61,1.12-0.92,1.69c-0.43,0.78,1.16-1.86-0.16,0.25
		c-12.71,20.42-28.78,35.19-49.81,47.07c-31.68,17.9-68.16,24.13-104.23,22.98c-9.51-0.3-9.95,31.11,0,31.42
		c60.05,1.9,126.78-19.07,159.99-72.66c12.63-20.38,19.8-44.75,14.94-68.7c-1.78-8.79-5.63-17.06-12.46-23.01
		c-8.82-7.68-23.14-8.99-34.22-8.15c-26.16,1.98-51.44,19.59-66.42,40.69c-4.13,5.82-4.25,14.83-2.48,21.49
		C1876.88,2192.73,1881.12,2200.4,1885.31,2194.5L1885.31,2194.5z"/>
</g>
<g>
	<path class="st0" d="M1901.3,2114.02c0,59.58-61.81,236.44-227.93,233.08c-170.98-3.46-227.93-173.5-227.93-233.08
		c0-59.58,102.05-44.7,227.93-44.7S1901.3,2054.44,1901.3,2114.02z"/>
	<g>
		<path d="M1896.11,2114.02c0,1.1-0.03,2.2-0.06,3.3c-0.01,0.43,0.16,1.56-0.08,1.87c0.55-0.71,0.22-3.03,0.03-0.64
			c-0.22,2.79-0.5,5.57-0.86,8.35c-0.39,2.96-0.89,5.9-1.38,8.84c-0.32,1.92,0.5-2.42-0.06,0.29c-0.14,0.7-0.28,1.41-0.42,2.11
			c-0.34,1.69-0.71,3.37-1.09,5.04c-1.63,7.15-3.57,14.23-5.77,21.22c-0.56,1.77-1.13,3.53-1.72,5.29
			c-0.35,1.06,0.06-0.18,0.11-0.33c-0.19,0.55-0.38,1.1-0.57,1.65c-0.34,0.97-0.69,1.94-1.03,2.91c-1.43,3.97-2.95,7.92-4.55,11.83
			c-13.73,33.67-33.13,64.92-58.97,90.86c-29.06,29.17-66.62,49.38-107.35,56.02c-45.55,7.43-94.34,0.41-135.37-20.88
			c-34.74-18.02-63.17-45.71-84.5-78.32c-9.5-14.52-17.39-29.72-24.12-45.99c-1.54-3.73-3.01-7.5-4.41-11.29
			c-0.65-1.78-1.28-3.56-1.9-5.34c-0.37-1.06,0.07,0.2,0.12,0.35c-0.18-0.54-0.36-1.08-0.54-1.62c-0.31-0.94-0.61-1.88-0.91-2.82
			c-2.23-6.98-4.19-14.05-5.83-21.19c-0.36-1.57-0.71-3.14-1.04-4.71c-0.17-0.83-0.34-1.65-0.51-2.48
			c-0.09-0.46-0.59-3.09-0.27-1.38c0.33,1.81-0.15-0.9-0.23-1.32c-0.11-0.67-0.23-1.34-0.33-2.01c-0.26-1.62-0.5-3.25-0.72-4.88
			c-0.37-2.73-0.67-5.46-0.9-8.21c-0.05-0.57-0.09-1.15-0.13-1.72c-0.2-2.55,0.03,1.06,0.03,0.63c0.01-1.23-0.11-2.47-0.13-3.7
			c-0.02-1.12,0.17-5.08-0.09-1.97c0.08-0.93,0.22-1.86,0.28-2.79c0.18-2.54-0.53,1.46,0.17-0.97c0.2-0.71,0.38-1.44,0.57-2.15
			c0.29-1.07-0.22,0.59-0.24,0.65c0.16-0.44,0.32-0.91,0.51-1.34c0.29-0.65,0.58-1.3,0.87-1.95c0.19-0.42,0.42-0.85,0.64-1.25
			c-0.37,0.67-0.42,0.69,0.01,0.03c3.69-5.69,8.04-9.15,14.28-12.42c16.18-8.48,35.76-10.08,53.67-11.2
			c26.24-1.64,52.61-0.96,78.87-0.41c31.83,0.66,63.65,1.33,95.49,0.95c29.61-0.35,59.21-1.4,88.83-1.5
			c22.92-0.08,46.24,0.04,68.87,4.11c14.04,2.52,30.54,7.28,38.82,18.74c0.48,0.66,0.93,1.34,1.36,2.04c0.5,0.8-0.12-0.22-0.17-0.33
			c0.22,0.41,0.45,0.83,0.64,1.25c0.29,0.65,0.58,1.3,0.87,1.95c0.19,0.43,0.35,0.9,0.51,1.34c-0.02-0.06-0.53-1.72-0.24-0.65
			c0.19,0.72,0.37,1.44,0.57,2.15c0.73,2.55,0-1.34,0.11,0.57c0.05,0.78,0.16,1.6,0.27,2.37
			C1896.36,2114.71,1896.09,2110.75,1896.11,2114.02c0.03,3.16,0.61,11.62,5.18,11.78c4.47,0.16,5.21-9.18,5.18-11.78
			c-0.14-17.44-6.17-33.97-21.55-43.38c-15.95-9.76-36.34-12.04-54.59-13.44c-27.04-2.07-54.28-1.36-81.37-0.8
			c-32.93,0.68-65.86,1.4-98.8,0.99c-30.78-0.38-61.55-1.52-92.33-1.5c-23.27,0.01-47.17,0.2-70,5.21
			c-15.19,3.33-31.53,9.26-40.08,23.19c-8.58,13.99-8.23,30.93-6.49,46.7c3.5,31.66,13.96,63.01,28.06,91.46
			c17.7,35.71,42.32,68.22,74.13,92.51c37.28,28.48,83.18,42.99,129.9,43.93c45.72,0.92,90.67-12.83,127.2-40.5
			c32.15-24.35,56.9-57.22,74.99-93.04c14.62-28.97,25.68-60.82,29.7-93.12c0.75-6.03,1.21-12.13,1.22-18.21
			c0.01-3.15-0.63-11.62-5.18-11.78C1896.81,2102.08,1896.12,2111.42,1896.11,2114.02z"/>
	</g>
</g>
<g>
	<ellipse class="st0" cx="1673.37" cy="2114.02" rx="227.93" ry="87.06"/>
	<g>
		<path d="M1896.11,2114.02c-0.04,3.39,0.37-2.24-0.08,1.11c-0.41,3.05,0.57-1.44-0.18,1.02c-0.18,0.59-1.18,3.79-0.32,1.41
			c-0.46,1.27-0.98,2.52-1.56,3.74c-1.24,2.62-1.16,2.46-3.05,5.15c-1.59,2.27-3.36,4.41-5.24,6.45
			c-8.46,9.15-19.57,15.95-30.57,21.61c-32.63,16.79-69.59,24.95-105.71,29.84c-45.26,6.12-91.51,6.63-136.92,1.82
			c-37.81-4-76.32-11.4-111.2-27.02c-12.44-5.57-24.64-12.28-35-21.22c-4.03-3.48-7.68-7.42-10.71-11.81
			c-0.67-0.97-1.32-1.96-1.91-2.97c0.69,1.18-0.85-1.7-1.07-2.18c-0.41-0.89-0.77-1.81-1.14-2.72c-0.9-2.2,0.38,1.42-0.01-0.02
			c-0.22-0.8-0.4-1.64-0.65-2.42c-0.51-1.59,0.26,2.05-0.1-0.68c-0.44-3.35-0.05,2.28-0.08-1.11c-0.03-3.23-0.58,1.85,0.04-0.75
			c0.13-0.56,0.17-1.19,0.25-1.75c-0.2,1.55-0.37,1.56,0.06,0.03c0.13-0.46,0.26-0.92,0.38-1.38c0.58-2.28-0.55,1.37-0.01-0.02
			c0.4-1.03,0.8-2.06,1.27-3.06c0.19-0.42,1.75-3.35,1.07-2.18c0.66-1.13,1.38-2.23,2.14-3.3c6.78-9.67,16.47-16.87,26.49-22.89
			c30-18.02,65.33-26.93,99.53-32.66c44.48-7.46,90.09-9.04,135.05-5.72c39.54,2.92,79.74,9.43,116.88,23.73
			c13.79,5.31,27.36,11.75,39.41,20.38c4.7,3.37,9.2,7.05,13.09,11.35c3.51,3.89,6.27,7.84,7.87,11.29c0.52,1.11,0.98,2.25,1.4,3.4
			c-0.72-2.01,0,0.22,0.24,1.06c0.86,3.04-0.19-1.73,0.27,1.37C1896.52,2116.2,1896.08,2110.66,1896.11,2114.02
			c0.03,3.16,0.6,11.62,5.18,11.78c4.46,0.16,5.21-9.18,5.18-11.78c-0.3-28.23-20.35-47.56-43.58-60.52
			c-33.22-18.52-72.02-27.43-109.36-32.79c-47.7-6.85-96.58-7.39-144.46-2.03c-39.28,4.4-79.63,12.57-115.49,29.78
			c-23.59,11.32-47.93,28.55-52.56,56.09c-4.65,27.62,11.53,49.85,33.56,64.39c29.94,19.76,66.78,29.37,101.68,35.65
			c47.37,8.53,96.18,10.27,144.13,6.42c41-3.29,82.68-10.57,120.91-26.2c23.87-9.76,52.05-24.82,61.55-50.59
			c2.4-6.51,3.55-13.27,3.62-20.2c0.03-3.15-0.65-11.62-5.18-11.78C1896.79,2102.08,1896.14,2111.42,1896.11,2114.02z"/>
	</g>
</g>
<path d="M1673.23,2189.87c-135.31,0-201.51-43.48-198.93-45.24c38.98-26.63,113.53-44.63,199.07-44.63
	c85.33,0,159.71,17.91,198.77,44.43C1875.07,2146.41,1804.46,2189.87,1673.23,2189.87z"/>
</svg>
