<?xml version="1.0" encoding="utf-8"?>
<!-- Generator: Adobe Illustrator 26.5.0, SVG Export Plug-In . SVG Version: 6.00 Build 0)  -->
<svg version="1.1" id="Calque_1" xmlns="http://www.w3.org/2000/svg" xmlns:xlink="http://www.w3.org/1999/xlink" x="0px" y="0px"
	 viewBox="0 0 5900 2115.08" style="enable-background:new 0 0 5900 2115.08;" xml:space="preserve">
<style type="text/css">
	.st0{fill:none;stroke:#000000;stroke-width:18;stroke-miterlimit:10;}
</style>
<g id="background">
</g>
<g id="star_cloud_3_">
	<g>
		<g>
			<path d="M2999.52,939.11l26.87,68.06c2.32,5.94,9.04,9.94,16.67,9.94h86.88c16.97,0,23.99,17.86,10.3,26.07l-70.31,42.09
				c-6.11,3.66-8.69,10.19-6.36,16.12l26.87,68.06c5.25,13.3-13.23,24.34-26.92,16.12l-70.31-42.09c-6.11-3.66-14.45-3.66-20.56,0
				l-70.31,42.09c-13.74,8.21-32.18-2.82-26.92-16.12l26.87-68.06c2.32-5.94-0.2-12.46-6.36-16.12l-70.31-42.09
				c-13.74-8.21-6.67-26.07,10.3-26.07h86.88c7.58,0,14.3-4.01,16.67-9.94l26.87-68.06
				C2971.44,925.85,2994.27,925.85,2999.52,939.11z"/>
		</g>
	</g>
</g>
<g>
	<path class="st0" d="M3151.51,817.73c-108.7,17.46-508.29-13.11-669.72,0s-189.72,68.45-294.63,380.56
		c-104.96,312.1-230.08,617.87-60.56,634.84c169.51,16.97,1414,17.46,1506.89-4.3c50.46-11.82,186.18-467.86,293.42-838.02
		c23.89-82.55-31.82-166.93-111.98-169.36C3597.82,814.76,3227.33,805.56,3151.51,817.73z"/>
</g>
<g>
	<path d="M3573.68,1015.18c-49.2-15.38-107.84-10.24-158.7-8.8c-39.8,5.05-97.64-12.07-111.58,37.79
		c-64.05,183.75-137.04,365.42-195.98,550.46c-28.79,0.15-57.53,0.3-86.22,0.35c0,0-5.1,14.39,35.16-95.71
		c10.3-55.15,98.75-172.57,5.3-191.42c-47.63-9.35-98.65-6.68-146.89-5.24c-30.51,0.89-85.11-7.57-102.59,22.55
		c-60.26,166.49-33.74,100.65-86.27,269.61c-21.32,0-68.24,0-89.51,0.05c76.93-343.71,244.57-475.62-131.48-420.47
		c-41.02,6.03-46.77,57.87-57.78,89.03c-34.9,110.35-76.27,219.71-102.69,332.28c-48.89,0.2-97.84,0.64-146.73,0.64
		c-16.31,0-16.47,51.79,0,51.79c128.85-0.05,283.27-1.14,412.12-1.39c283.77,1.29,696.59-4.6,980.11,7.72
		c15.51,1.19,17.07-50.5,0-51.79c-20-1.48-168.6-2.72-188.66-3.76c64.76-165.75,128.4-331.89,190.02-498.77
		C3602.42,1069.39,3614.8,1028.04,3573.68,1015.18z M3579.99,1048.77C3579.39,1049.26,3580.05,1048.07,3579.99,1048.77
		L3579.99,1048.77z"/>
</g>
</svg>
