<?xml version="1.0" encoding="utf-8"?>
<!-- Generator: Adobe Illustrator 16.0.0, SVG Export Plug-In . SVG Version: 6.00 Build 0)  -->
<!DOCTYPE svg PUBLIC "-//W3C//DTD SVG 1.1//EN" "http://www.w3.org/Graphics/SVG/1.1/DTD/svg11.dtd">
<svg version="1.1" id="Calque_1" xmlns="http://www.w3.org/2000/svg" xmlns:xlink="http://www.w3.org/1999/xlink" x="0px" y="0px"
	 width="386px" height="80px" viewBox="0 0 386 80" enable-background="new 0 0 386 80" xml:space="preserve">
<path fill="#1E1E1E" d="M112.401,62.859c7.674,0,12.986-4.133,14.56-11.412h-5.181c-1.181,4.592-4.46,6.952-9.379,6.952
	c-6.82,0-10.558-5.247-10.952-12.133h26.233c0-11.215-5.443-19.084-15.608-19.084c-9.641,0-16.068,8.001-16.068,17.838
	C96.006,54.857,102.039,62.859,112.401,62.859z M112.074,31.379c6.099,0,9.575,4.132,9.902,10.886H101.58
	C102.367,36.101,105.778,31.379,112.074,31.379z"/>
<path fill="#1E1E1E" d="M146.386,62.924c7.805,0,13.379-3.475,13.379-10.296c0-7.804-5.705-9.313-12.526-10.69
	c-5.837-1.18-9.116-1.901-9.116-5.574c0-2.689,1.968-4.854,6.821-4.854c5.049,0,7.476,1.968,8.001,6.427h5.443
	c-0.787-6.624-4.919-10.625-13.313-10.625c-7.87,0-12.199,3.673-12.199,9.313c0,7.411,5.968,8.788,12.658,10.165
	c6.23,1.313,8.853,2.295,8.853,6.1c0,3.148-2.295,5.574-7.869,5.574c-5.05,0-8.985-1.64-9.707-7.542h-5.443
	C131.893,58.53,137.074,62.924,146.386,62.924z"/>
<path fill="#1E1E1E" d="M187.804,61.941h6.231l-14.56-21.708l12.986-12.198h-6.755l-14.888,14.494V15.049h-5.312v46.892h5.312
	V48.365l4.985-4.723L187.804,61.941z"/>
<path fill="#1E1E1E" d="M198.249,61.941h5.312V28.035h-5.312V61.941z M198.249,21.607h5.312v-6.558h-5.312V21.607z"/>
<path fill="#1E1E1E" d="M224.313,62.924c7.803,0,13.377-3.475,13.377-10.296c0-7.804-5.705-9.313-12.525-10.69
	c-5.837-1.18-9.116-1.901-9.116-5.574c0-2.689,1.968-4.854,6.821-4.854c5.05,0,7.477,1.968,8.001,6.427h5.442
	c-0.787-6.624-4.918-10.625-13.313-10.625c-7.87,0-12.197,3.673-12.197,9.313c0,7.411,5.967,8.788,12.656,10.165
	c6.23,1.313,8.854,2.295,8.854,6.1c0,3.148-2.295,5.574-7.869,5.574c-5.051,0-8.985-1.64-9.707-7.542h-5.443
	C209.818,58.53,214.999,62.924,224.313,62.924z"/>
<path fill="#1E1E1E" d="M256.286,62.924c7.804,0,13.378-3.475,13.378-10.296c0-7.804-5.705-9.313-12.525-10.69
	c-5.838-1.18-9.117-1.901-9.117-5.574c0-2.689,1.969-4.854,6.822-4.854c5.049,0,7.475,1.968,8,6.427h5.443
	c-0.787-6.624-4.919-10.625-13.313-10.625c-7.871,0-12.199,3.673-12.199,9.313c0,7.411,5.969,8.788,12.658,10.165
	c6.229,1.313,8.854,2.295,8.854,6.1c0,3.148-2.297,5.574-7.87,5.574c-5.05,0-8.985-1.64-9.706-7.542h-5.443
	C241.792,58.53,246.973,62.924,256.286,62.924z"/>
<path fill="#1E1E1E" d="M274.684,61.941h6.362v-6.493h-6.362V61.941z"/>
<path fill="#1E1E1E" d="M288.166,61.941h5.313V40.823c0-5.312,4.59-9.116,8.721-9.116c3.477,0,5.838,2.493,5.838,6.689v23.545h5.313
	V40.823c0-5.312,3.934-9.116,8.328-9.116c3.411,0,6.23,2.493,6.23,6.689v23.545h5.313V38.134c0-7.018-4.263-10.887-10.297-10.887
	c-4.131,0-8.197,2.164-10.361,6.034h-0.131c-1.443-3.935-4.723-6.034-8.854-6.034c-4.264,0-7.87,2.361-9.969,5.64h-0.131v-4.853
	h-5.313V61.941z"/>
<path fill="#1E1E1E" d="M355.385,62.859c7.672,0,12.984-4.133,14.559-11.412h-5.182c-1.18,4.592-4.459,6.952-9.377,6.952
	c-6.82,0-10.561-5.247-10.953-12.133h26.233c0-11.215-5.442-19.084-15.608-19.084c-9.641,0-16.068,8.001-16.068,17.838
	C338.988,54.857,345.021,62.859,355.385,62.859z M355.057,31.379c6.098,0,9.574,4.132,9.902,10.886h-20.396
	C345.35,36.101,348.76,31.379,355.057,31.379z"/>
<path fill="#1E1E1E" d="M11.818,46.676c1.674-3.453,4.995-5.307,8.794-5.307c10.879,0,18.02,8.871,18.02,19.315
	c0,2.536-0.5,5.049-1.47,7.392c-0.971,2.344-2.394,4.474-4.188,6.268c-1.794,1.793-3.924,3.217-6.268,4.188
	C24.363,79.501,21.851,80,19.314,80l0-4.215c1.983,0,3.947-0.391,5.78-1.148c1.832-0.76,3.497-1.871,4.9-3.273
	c1.402-1.402,2.515-3.067,3.274-4.899c0.373-0.901,0.657-1.833,0.85-2.784l-21.304-2.922l-0.458-1.133
	C10.302,54.543,10.185,50.045,11.818,46.676z M34.379,59.461c-0.514-7.955-6.03-13.877-13.766-13.877
	c-2.354,0-4.104,1.078-5.002,2.931c-0.857,1.769-1.091,4.573,0.23,8.403L34.379,59.461z"/>
<path fill="#1E1E1E" d="M35.357,0l35.355,27.128v35.239c0,4.01-2.889,9.625-8.788,10.7c-7.992,1.454-27.631,4.749-38.952,6.585
	C9.885,81.778,0,72.387,0,62.367V27.128L35.357,0z M4.215,29.207v33.16c0,7.234,7.368,14.865,18.081,13.125
	c11.316-1.834,30.922-5.125,38.873-6.571c3.406-0.622,5.329-4.038,5.329-6.554v-33.16L35.357,5.313L4.215,29.207z"/>
<path fill="#1E1E1E" d="M23.695,45.908c0,0,0,0,0.545-2.035s0.546-2.035,0.546-2.035l5.375,1.441
	c3.245,0.869,7.604,2.039,12.061,3.235c8.908,2.392,18.221,4.894,19.791,5.323c1.619,0.443,3.79,1.16,5.559,2.673
	c1.872,1.602,3.14,3.961,3.14,7.298h-4.215c0-2.126-0.744-3.307-1.665-4.095c-1.024-0.876-2.428-1.397-3.934-1.812
	c-1.555-0.426-10.85-2.924-19.768-5.316c-4.457-1.197-8.815-2.365-12.06-3.236L23.695,45.908z"/>
</svg>
