<svg width="386" height="80" viewBox="0 0 386 80" fill="none" xmlns="http://www.w3.org/2000/svg">
<rect width="386" height="80" fill="#E5E5E5"/>
<path d="M112.401 62.8589C120.075 62.8589 125.387 58.7272 126.961 51.4475H121.78C120.599 56.0383 117.32 58.3993 112.401 58.3993C105.581 58.3993 101.843 53.1527 101.449 46.2665H127.682C127.682 35.0519 122.239 27.1821 112.074 27.1821C102.433 27.1821 96.0059 35.1831 96.0059 45.0205C96.0059 54.8578 102.039 62.8589 112.401 62.8589ZM112.074 31.3793C118.173 31.3793 121.649 35.511 121.976 42.266H101.58C102.367 36.1013 105.778 31.3793 112.074 31.3793Z" fill="#1E1E1E"/>
<path d="M146.386 62.9245C154.191 62.9245 159.765 59.4486 159.765 52.628C159.765 44.8237 154.06 43.3153 147.239 41.9381C141.402 40.7576 138.123 40.0362 138.123 36.3636C138.123 33.6747 140.091 31.5105 144.944 31.5105C149.993 31.5105 152.42 33.478 152.945 37.9376H158.388C157.601 31.3137 153.469 27.3132 145.075 27.3132C137.205 27.3132 132.876 30.9858 132.876 36.6259C132.876 44.0367 138.844 45.414 145.534 46.7912C151.764 48.1028 154.387 49.0866 154.387 52.8904C154.387 56.0383 152.092 58.4649 146.518 58.4649C141.468 58.4649 137.533 56.8253 136.811 50.9229H131.368C131.893 58.5304 137.074 62.9245 146.386 62.9245Z" fill="#1E1E1E"/>
<path d="M187.804 61.9407H194.035L179.475 40.233L192.461 28.0346H185.706L170.818 42.5283V15.0493H165.506V61.9407H170.818V48.3652L175.803 43.6432L187.804 61.9407Z" fill="#1E1E1E"/>
<path d="M198.249 61.9407H203.561V28.0346H198.249V61.9407ZM198.249 21.6076H203.561V15.0493H198.249V21.6076Z" fill="#1E1E1E"/>
<path d="M224.312 62.9245C232.116 62.9245 237.69 59.4486 237.69 52.628C237.69 44.8237 231.985 43.3153 225.164 41.9381C219.327 40.7576 216.048 40.0362 216.048 36.3636C216.048 33.6747 218.016 31.5105 222.869 31.5105C227.919 31.5105 230.345 33.478 230.87 37.9376H236.313C235.526 31.3137 231.395 27.3132 223 27.3132C215.13 27.3132 210.802 30.9858 210.802 36.6259C210.802 44.0367 216.77 45.414 223.459 46.7912C229.689 48.1028 232.313 49.0866 232.313 52.8904C232.313 56.0383 230.017 58.4649 224.443 58.4649C219.393 58.4649 215.458 56.8253 214.737 50.9229H209.293C209.818 58.5304 214.999 62.9245 224.312 62.9245Z" fill="#1E1E1E"/>
<path d="M256.286 62.9245C264.09 62.9245 269.664 59.4486 269.664 52.628C269.664 44.8237 263.959 43.3153 257.138 41.9381C251.301 40.7576 248.022 40.0362 248.022 36.3636C248.022 33.6747 249.99 31.5105 254.843 31.5105C259.893 31.5105 262.319 33.478 262.844 37.9376H268.287C267.5 31.3137 263.368 27.3132 254.974 27.3132C247.104 27.3132 242.776 30.9858 242.776 36.6259C242.776 44.0367 248.744 45.414 255.433 46.7912C261.663 48.1028 264.287 49.0866 264.287 52.8904C264.287 56.0383 261.991 58.4649 256.417 58.4649C251.367 58.4649 247.432 56.8253 246.711 50.9229H241.267C241.792 58.5304 246.973 62.9245 256.286 62.9245Z" fill="#1E1E1E"/>
<path d="M274.684 61.9407H281.046V55.4481H274.684V61.9407Z" fill="#1E1E1E"/>
<path d="M288.166 61.9407H293.478V40.8232C293.478 35.511 298.069 31.7072 302.2 31.7072C305.676 31.7072 308.037 34.1994 308.037 38.3966V61.9407H313.349V40.8232C313.349 35.511 317.284 31.7072 321.678 31.7072C325.089 31.7072 327.909 34.1994 327.909 38.3966V61.9407H333.221V38.1343C333.221 31.117 328.958 27.2476 322.924 27.2476C318.793 27.2476 314.727 29.4119 312.562 33.2812H312.431C310.989 29.3463 307.709 27.2476 303.578 27.2476C299.315 27.2476 295.708 29.6086 293.609 32.8877H293.478V28.0346H288.166V61.9407Z" fill="#1E1E1E"/>
<path d="M355.384 62.8589C363.057 62.8589 368.369 58.7272 369.943 51.4475H364.762C363.582 56.0383 360.303 58.3993 355.384 58.3993C348.564 58.3993 344.825 53.1527 344.432 46.2665H370.665C370.665 35.0519 365.222 27.1821 355.056 27.1821C345.416 27.1821 338.989 35.1831 338.989 45.0205C338.989 54.8578 345.022 62.8589 355.384 62.8589ZM355.056 31.3793C361.155 31.3793 364.631 35.511 364.959 42.266H344.563C345.35 36.1013 348.76 31.3793 355.056 31.3793Z" fill="#1E1E1E"/>
<path fill-rule="evenodd" clip-rule="evenodd" d="M11.8182 46.676C13.4923 43.2229 16.8135 41.3689 20.6129 41.3689C31.4917 41.3689 38.633 50.2409 38.633 60.6844C38.633 63.2213 38.1333 65.7332 37.1624 68.0769C36.1915 70.4206 34.7685 72.55 32.9745 74.3437C31.1806 76.1374 29.0509 77.5601 26.7071 78.5306C24.3632 79.5011 21.8512 80.0004 19.3144 80L19.315 75.7851C21.2983 75.7854 23.2622 75.395 25.0946 74.6363C26.9269 73.8776 28.5919 72.7653 29.9944 71.3631C31.3969 69.9608 32.5094 68.296 33.2684 66.4638C33.6415 65.5631 33.9256 64.6307 34.1181 63.6798L12.814 60.7574L12.3563 59.6254C10.3017 54.5429 10.1849 50.0447 11.8182 46.676ZM34.3789 59.4612C33.8653 51.5066 28.3489 45.5838 20.6129 45.5838C18.2585 45.5838 16.5091 46.6619 15.6108 48.5148C14.7536 50.2829 14.5194 53.0874 15.8413 56.9183L34.3789 59.4612Z" fill="#1E1E1E"/>
<path fill-rule="evenodd" clip-rule="evenodd" d="M35.3575 0L70.7122 27.1285V62.3676C70.7122 66.377 67.8239 71.9915 61.9242 73.0674C53.9319 74.5211 34.2934 77.817 22.972 79.6524C9.8848 81.7785 0 72.3872 0 62.3676V27.1285L35.3575 0ZM4.21491 29.2071V62.3676C4.21491 69.601 11.5831 77.2324 22.2961 75.492C33.6118 73.6576 53.2179 70.3669 61.169 68.9207C64.5753 68.2989 66.4973 64.8827 66.4973 62.3676V29.2071L35.3574 5.31269L4.21491 29.2071Z" fill="#1E1E1E"/>
<path fill-rule="evenodd" clip-rule="evenodd" d="M23.6953 45.9083C23.6951 45.9082 23.6949 45.9082 24.2407 43.8726C24.7865 41.8371 24.7867 41.8371 24.7869 41.8372L30.1621 43.2787C33.407 44.1491 37.766 45.3185 42.2227 46.5147C51.1307 48.9056 60.4434 51.4075 62.0131 51.838C63.632 52.282 65.8029 52.998 67.5715 54.5109C69.4439 56.1125 70.7116 58.4716 70.7116 61.8085H66.4966C66.4966 59.6828 65.7523 58.5013 64.8317 57.7139C63.8073 56.8376 62.4039 56.3158 60.8982 55.9028C59.3432 55.4763 50.0484 52.9792 41.1301 50.5855C36.6737 49.3894 32.3149 48.2201 29.0702 47.3497L23.6953 45.9083Z" fill="#1E1E1E"/>
<rect x="-19.5" y="-219.5" width="425" height="456" rx="4.5" stroke="#7B61FF" stroke-dasharray="10 5"/>
</svg>
