<?xml version="1.0" standalone="no"?>
<!DOCTYPE svg PUBLIC "-//W3C//DTD SVG 20010904//EN"
 "http://www.w3.org/TR/2001/REC-SVG-20010904/DTD/svg10.dtd">
<svg version="1.0" xmlns="http://www.w3.org/2000/svg"
 width="272.000000pt" height="57.000000pt" viewBox="0 0 272.000000 57.000000"
 preserveAspectRatio="xMidYMid meet">

<g transform="translate(0.000000,57.000000) scale(0.100000,-0.100000)"
fill="#000000" stroke="none">
<path d="M123 457 l-122 -92 0 -132 c-1 -143 5 -171 45 -208 23 -21 37 -25 92
-25 83 0 300 37 329 56 29 18 35 55 31 193 l-3 115 -120 92 c-66 51 -122 93
-125 93 -3 0 -60 -41 -127 -92z m242 -28 l105 -81 0 -84 c0 -77 -2 -85 -17
-80 -103 30 -288 76 -306 76 -43 0 -67 -27 -67 -74 0 -24 6 -48 12 -54 7 -5
43 -13 81 -17 37 -3 67 -9 67 -11 0 -19 -33 -62 -55 -72 -51 -23 -122 -5 -145
37 -5 11 -10 78 -10 150 l0 130 102 80 c57 44 109 80 116 81 7 0 60 -36 117
-81z m-154 -228 c16 -16 29 -38 29 -49 0 -17 -5 -18 -47 -11 -27 4 -55 8 -64
8 -9 1 -19 11 -22 23 -16 60 53 80 104 29z m240 -51 c10 -6 19 -19 19 -28 0
-37 -24 -52 -110 -67 -121 -21 -124 -21 -104 10 16 25 16 90 0 127 -7 15 2 14
84 -7 50 -14 100 -30 111 -35z"/>
<path d="M1170 285 c0 -140 2 -165 15 -165 11 0 15 11 15 43 0 32 6 49 21 63
13 12 23 14 27 8 4 -6 22 -34 41 -62 21 -33 40 -52 53 -52 22 0 22 -1 -34 82
-21 31 -38 60 -38 65 0 4 19 27 42 50 35 36 39 43 22 43 -11 0 -42 -22 -69
-50 -27 -27 -53 -50 -57 -50 -4 0 -8 43 -8 95 0 78 -3 95 -15 95 -13 0 -15
-25 -15 -165z"/>
<path d="M1400 425 c0 -16 6 -25 15 -25 9 0 15 9 15 25 0 16 -6 25 -15 25 -9
0 -15 -9 -15 -25z"/>
<path d="M719 332 c-25 -23 -33 -38 -36 -78 -9 -90 47 -153 125 -140 37 6 82
40 82 63 0 21 -21 15 -46 -12 -13 -14 -34 -25 -47 -25 -34 0 -77 36 -77 66 0
24 1 24 90 24 100 0 102 2 76 64 -29 70 -110 89 -167 38z m121 -22 c38 -38 27
-50 -50 -50 -75 0 -83 7 -54 48 20 29 76 30 104 2z"/>
<path d="M962 344 c-18 -12 -22 -24 -20 -52 3 -40 15 -48 98 -73 38 -12 45
-18 45 -39 0 -46 -100 -54 -112 -10 -6 23 -43 27 -43 6 0 -31 56 -66 105 -66
59 0 102 49 85 95 -11 30 -29 41 -87 55 -53 12 -72 32 -52 56 18 22 76 18 89
-6 12 -22 40 -27 40 -7 -1 49 -98 76 -148 41z"/>
<path d="M1400 240 c0 -100 3 -120 15 -120 13 0 15 20 15 120 0 100 -2 120
-15 120 -12 0 -15 -20 -15 -120z"/>
<path d="M1512 344 c-18 -12 -22 -24 -20 -52 3 -40 15 -48 98 -73 49 -15 61
-37 35 -63 -25 -24 -72 -20 -99 9 -37 39 -60 30 -36 -15 22 -41 129 -50 165
-14 20 21 19 77 -2 96 -10 9 -42 21 -71 28 -30 7 -56 19 -59 26 -15 41 76 63
97 24 12 -23 40 -27 40 -6 0 45 -102 73 -148 40z"/>
<path d="M1736 339 c-49 -39 -22 -92 58 -112 56 -15 77 -37 60 -64 -18 -29
-70 -28 -99 1 -26 26 -55 35 -55 17 0 -6 11 -23 24 -38 21 -24 31 -28 79 -28
62 0 97 22 97 62 0 41 -18 62 -63 73 -73 19 -89 28 -85 53 4 32 71 38 90 8 13
-22 48 -29 48 -11 0 6 -11 22 -25 35 -31 32 -91 34 -129 4z"/>
<path d="M2037 353 c-4 -3 -7 -57 -7 -120 0 -106 1 -113 20 -113 18 0 20 7 20
85 0 72 3 88 20 105 23 23 50 26 68 8 8 -8 12 -46 12 -105 0 -86 1 -93 20 -93
18 0 20 7 20 88 0 95 13 122 56 122 37 0 44 -20 44 -117 0 -86 1 -93 20 -93
19 0 20 7 20 94 0 79 -3 97 -21 120 -25 32 -66 34 -101 6 -25 -19 -26 -19 -43
0 -21 24 -62 26 -92 5 -19 -13 -22 -13 -27 0 -6 16 -18 19 -29 8z"/>
<path d="M2444 341 c-76 -46 -68 -178 13 -216 48 -23 95 -13 129 28 21 25 24
33 11 35 -8 2 -27 -8 -41 -22 -14 -15 -37 -26 -51 -26 -31 0 -75 41 -75 70 0
19 6 20 91 20 l92 0 -6 38 c-13 78 -95 115 -163 73z m110 -33 c29 -41 21 -48
-54 -48 -38 0 -70 3 -70 6 0 11 23 49 34 56 24 16 75 8 90 -14z"/>
<path d="M1940 140 c0 -13 7 -20 20 -20 13 0 20 7 20 20 0 13 -7 20 -20 20
-13 0 -20 -7 -20 -20z"/>
</g>
</svg>
