<?xml version="1.0" encoding="utf-8"?>
<!-- Generator: Adobe Illustrator 26.5.0, SVG Export Plug-In . SVG Version: 6.00 Build 0)  -->
<svg version="1.1" id="interior_decor" xmlns="http://www.w3.org/2000/svg" xmlns:xlink="http://www.w3.org/1999/xlink" x="0px"
	 y="0px" viewBox="0 0 5200 3100" style="enable-background:new 0 0 5200 3100;" xml:space="preserve">
<style type="text/css">
	.st0{fill:none;}
	.st1{fill:#005F4E;}
	.st2{fill:#FFFFFF;}
	.st3{fill:#3518AD;}
	.st4{fill:#FFC28A;}
</style>
<rect id="bg" class="st0" width="5200" height="3100"/>
<g id="interior_decor_2_">
	<g id="man_cloud">
		<g>
			<path class="st1" d="M2097.11,317.77c-10.63,0.53-256.82-6.49-452.92-6.78c-100.58-0.15-187.99,1.47-223.67,6.78
				c-84.66,12.61-646.17-56.29-710.34,139.98c-22.63,47.76-46.44,110.96-76.95,195.05c-80.25,221.14-126.78,348.32-147.9,482.4
				c-5.09,32.3,27.24,95.39,194.72,101.93c100.03,3.91,219.71,2.52,344.24,2.88c80.67,0.24,163.4,0.22,244.23-0.07
				c302.14-1.06,577.58-5.82,618.81-14.77c56.45-12.26,229.23-468.42,336.2-811.32C2223.51,413.85,2255.85,309.86,2097.11,317.77z"
				/>
		</g>
		<g>
			<path d="M2008.94,424.49c0,0,41.51,44.65,15.99,102.67c-25.52,58.01-158.85,46.02-176.96,38.12c0,0-52.78-21.66-104.67-33.01
				c-105.77-23.14-161.68,37.85-173.13,71.65c-11.46,33.8,0.26,66.06,11.46,101.97c11.19,35.91-40.09,39.51-40.09,39.51
				s-28.43,100.8-25.99,127.96c2.44,27.16-16.99,82.62-43.48,53.93c-26.42-28.62-84.42-155.25-123.54-181.3
				c-39.12-26.05-47.13-54.66-64.83-109.71c-17.7-55.05,22.87-63.71,40.8-91.29c17.92-27.57-7.57-90.33,4.9-122
				c12.47-31.67,68.03-17.28,91.8-19.22c23.77-1.93,24.79-34.71,62.44-73.38c4.16-4.28,12.82-14.8,17.05-17.85
				c26.71-0.7,196.34-1.5,225.77-1.56h13.21c0,0,57.91-7.69,129.8,4.58c12.47,0.08,32.6,7.2,37.75,8.68
				c38.8,11.43,77.29,31.25,107.22,64.74C2014.6,408.72,2008.94,424.49,2008.94,424.49z"/>
		</g>
		<g id="face_81_">
			<path class="st2" d="M1695.34,1152.73c2.03-15.03,20.86-133.74,30.3-129.08c21.14,10.42,48.56,19.62,71.86,10.92
				c20-7.47,34.15-30.03,45.19-46.99c28.06-43.09,53-92.26,54.9-144.56c1.14-31.44-9.47-60.32-20.46-89.29
				c-6.14-16.19-8.18-28.04-5.32-45.11c2.27-13.56,4.6-27.37,3.56-41.17c-2.62-35.07-38.19-110.45-43.98-112.7
				c-0.25-0.25-0.48-0.33-0.71-0.27c-74.99-29.07-168.98-53.98-233.72,6.21c-24.51,22.78-36.07,51.91-32.48,85.61
				c1.33,12.5,4.48,24.72,7.97,36.76c4.5,15.52,15.77,36.01-0.13,48.19c-8.49,6.5-20.26,9.44-30.79,10.27
				c-0.39,0.03-0.7,0.29-0.96,0.63c-18.61-8.7-40.06-13.15-55.88-1.26c-18.89,14.19-23.27,44.75-21.34,66.64
				c0.44,4.96,1.99,10.93,4.45,17.47c23.75,38.73,20.7,35.65,20.7,35.65c-4.28,12.63-17.96,51.02-23.8,71.06
				c-26.45,90.74-41.57,179.42-41.57,179.42C1423.57,1113.07,1688.37,1204.38,1695.34,1152.73z"/>
			<g>
				<path d="M1726.92,1013.17c-24.89-10.19-46.86-26.58-65.09-46.23c-8.37-9.03-16.52-18.76-22.92-29.33c-2.6-4.3-5.9,1.5-6.54,3.9
					c-1.28,4.84-0.9,10.54,1.71,14.86c6.59,10.89,15.02,20.91,23.69,30.16c18.81,20.08,41.02,37.12,66.6,47.6
					C1731.23,1036.93,1732.91,1015.62,1726.92,1013.17L1726.92,1013.17z"/>
			</g>
			<g>
				<path d="M1870.17,638.92c-14.87,0.04-32.28,2.06-45.2,9.86c-13.59,8.2-22.23,21.47-25.29,36.95
					c-5.03,25.43,0.15,52.95,11.02,76.23c7.98,17.09,19.66,31.24,29.97,46.82c0.99,1.49,1.8,3.01,2.55,4.64
					c-0.04-0.08,1.14,2.86,0.57,1.37c0.17,0.58,0.33,1.16,0.46,1.76c-0.19-1.15-0.2-1.15-0.04-0.01c-0.01-0.4-0.03-0.8-0.04-1.2
					c-0.01,1.25,0.03,1.11,0.1-0.42c-0.13,0.97-0.13,1.07,0,0.29c0.16-0.77,0.12-0.68-0.1,0.26c0.77-1.87-0.28,0.58-0.41,0.75
					c0.51-0.72-1.1,1.43-1.31,1.67c-7.19,7.93-20.72,8.09-30.47,7.82c-6.59-0.18-6.86,21.54,0,21.73
					c10.01,0.27,21.57-0.4,30.16-6.21c7.23-4.88,10.63-12.85,11.39-21.34c1.73-19.19-10.16-32.46-20.45-47.03
					c-12.32-17.45-22.62-36.82-25.11-58.33c-1.92-16.61,1.03-31.01,14.74-41.45c13.16-10.03,31.27-12.37,47.44-12.41
					C1876.87,660.63,1876.92,638.9,1870.17,638.92L1870.17,638.92z"/>
			</g>
			<g>
				<path d="M1637.77,748.65c31.81-18.4,74.56-21.37,108.03-6.5c6.66,2.96,8.53-18.29,2.54-20.95
					c-24.51-10.89-51.46-12.69-77.48-6.65c-12.16,2.82-24.75,6.86-35.63,13.15C1629.45,731.05,1631.78,752.12,1637.77,748.65
					L1637.77,748.65z"/>
			</g>
			<g>
				<path d="M1758.71,671.02c-12.9-6.79-27.87-10.84-42.2-12.98c-29.53-4.43-59.54,1.86-83.31,20.39
					c-3.66,2.86-3.86,9.16-3.34,13.36c0.23,1.84,2.28,10.39,5.88,7.59c23.26-18.13,51.91-23.94,80.77-19.61
					c13.52,2.03,27.48,5.8,39.66,12.21C1762.37,695.23,1764.63,674.13,1758.71,671.02L1758.71,671.02z"/>
			</g>
			<g>
				<path d="M1709.07,730.04c6.29-0.07,13.02,8.79,13.01,19.03c-0.01,10.67-2.14,24.36-11.03,22.72
					c-8.89-1.65-10.86-16.54-11.52-23.42C1698.87,741.5,1702.81,730.11,1709.07,730.04z"/>
				<g>
					<path d="M1709.07,740.91c11.9,0.74,9.82,23.65,0.96,19.61c-2.13-0.97-3.27-3.01-4.05-5.11c-0.95-2.56-1.16-4.28-1.44-6.41
						c-0.15-1.12-0.45-2.38-0.4-3.51c-0.07,1.69-0.13,1.23,0.42,0.18C1705.65,743.54,1706.34,741.18,1709.07,740.91
						c7.01-0.71,6.32-22.37,0-21.73c-6.27,0.63-9.7,6.75-11.65,12.11c-2.54,6.98-3.12,14.27-2.33,21.62
						c1.02,9.52,3.52,25.97,14.37,29.31c13.54,4.17,16.55-17.59,17.13-26.32c0.56-8.46,0.19-17.08-3.5-24.88
						c-2.67-5.64-7.33-11.42-14.01-11.83C1702.63,718.78,1702.1,740.47,1709.07,740.91z"/>
				</g>
			</g>
			<g>
				<path d="M1806.89,740.51c16.91-8.67,41.68-16.39,59.65-7.16c6.28,3.23,8.48-17.9,2.54-20.95c-19.78-10.16-46.05-2.41-64.73,7.16
					C1798.49,722.56,1800.53,743.77,1806.89,740.51L1806.89,740.51z"/>
			</g>
			<g>
				<path d="M1855.89,725.26c4.28-0.05,7.77,5.9,8.67,11.27c0.9,5.38-1.27,18.25-7.32,17.13c-6.05-1.12-7.39-11.26-7.84-15.93
					C1848.95,733.06,1851.63,725.31,1855.89,725.26z"/>
				<g>
					<path d="M1855.89,736.13c2.6,0.3,2.4,2.28,4.01,3.7c0.38,0.34,0.23,1.4,0.07-0.73c0.08,1.04-0.32,1.04,0.01,0.18
						c-0.25,0.63,0.12,3.62-2.34,3.55c-2.55-0.07-3.14-4.2-3.24-4.74c-0.13-0.76-0.33-1.66-0.31-2.42c0,0.17,0.12,1.72,0.06,1.74
						C1854.52,737.3,1854.98,736.25,1855.89,736.13c7.08-0.99,6.13-22.58,0-21.73c-10.77,1.51-11.87,18.88-11.02,27.04
						c0.73,6.99,3.16,22.85,12.76,23.11c9.24,0.25,11.33-15.58,11.74-22.01c0.59-9.27-1.69-26.81-13.49-28.15
						C1849.7,713.7,1848.79,735.32,1855.89,736.13z"/>
				</g>
			</g>
			<g>
				<path d="M1865.69,875.94c1.3-6.13,2.04-18.34-5.63-21.06c-3.21-1.14-7.7,0.97-10.95,1.6c-11.56,2.25-23.44,2.83-35.19,2.8
					c-25.31-0.05-50.64-3.48-75.54-7.79c-5.8-1-11.59-2.05-17.35-3.26c-4.91-1.03-4.78,11.95-4.61,13.75
					c0.77,8.27,3.71,16.63,6.93,24.2c7.31,17.19,18.61,33.01,32.09,45.89c11.66,11.14,26.47,21.42,42.87,23.57
					c15.18,1.99,26.54-8.84,35.58-19.76c7.67-9.27,14.23-19.62,20.01-30.17c4.76-8.69,7.49-18.37,11.04-27.58
					c1.78-4.63,2.21-10.78,0-15.36c-1.74-3.59-5.12-4.25-6.76,0c-2.92,7.56-5.32,15.34-8.64,22.74
					c-3.71,8.28-8.98,16.08-14.23,23.45c-7.46,10.46-18.15,25.14-32.42,25.25c-13.81,0.1-27.13-8.15-37.49-16.52
					c-13.55-10.96-25.04-25.65-32.73-41.29c-2.83-5.76-4.74-10.54-6.11-15.75c-0.24-0.93-0.45-1.86-0.68-2.79
					c-0.45-1.85-0.14-1.57,0,0.1c-0.05-0.59-0.19-1.17-0.25-1.75c-1.54,4.58-3.07,9.17-4.61,13.75c19.45,4.08,39.23,7.06,58.99,9.09
					c15.87,1.63,31.84,2.49,47.78,1.62c6.12-0.33,12.24-0.91,18.29-1.92c2.19-0.37,4.38-0.79,6.54-1.29
					c1.01-0.24,2.02-0.53,3.03-0.76c3.53-0.83,2.15,0.39,1.54-4.59c0.16-2.79,0.32-5.58,0.48-8.37c-0.09,0.41-0.18,0.83-0.26,1.24
					c-0.92,4.31-1.56,11.28,1.71,14.86C1862.29,883.27,1865,879.19,1865.69,875.94z"/>
			</g>
			<g>
				<path d="M1551.45,780.26c-1.96-2.71-5.68-4.63-8.46-6.3c-5.23-3.15-10.74-5.91-16.46-8.07c-10.44-3.95-24.42-7.4-32.42,2.85
					c-7.85,10.05-8.32,25.29-6.62,37.34c1.92,13.62,7.21,27.08,15.72,37.96c9.39,12.01,22.82,20.29,38.34,20.5
					c6.65,0.09,6.82-21.63,0-21.73c-22.25-0.3-39.1-19.18-44.07-38.84c-0.28-1.12-0.55-2.25-0.76-3.39c0.31,1.7-0.2-1.77-0.25-2.17
					c-0.08-0.62-0.13-1.25-0.17-1.87c0.01,0.13,0.07,1.86,0.05,0.59c-0.01-0.78,0.21-4.57-0.06-1.99c0.06-0.54,0.37-3.13,0.19-2.04
					c-0.18,1.13,0.45-1.82,0.57-2.23c0.3-1-0.08,0.24-0.13,0.36c0.17-0.45,0.35-0.96,0.58-1.39c0.91-1.7,0.08-0.56,1.02-1.78
					c5.74-7.43,17.52-4.18,24.98-1.41c5.5,2.04,10.8,4.65,15.87,7.61c1.91,1.11,3.79,2.27,5.6,3.54c0.55,0.39,1.08,0.8,1.62,1.19
					c1.35,0.98-0.43-0.65,0.06,0.03c2.87,3.98,5.82-1.2,6.54-3.9C1554.36,790.62,1554.31,784.22,1551.45,780.26L1551.45,780.26z"/>
			</g>
			<g>
				<path d="M1566.44,750.36c-18.12-13.08-38.96-23.52-61.9-22.87c-23.61,0.67-35.78,21.42-41,42.19
					c-5.64,22.41-5.19,46.64,4.49,67.83c10.76,23.57,27.72,45.88,47.76,62.33c9.37,7.69,19.86,13.89,32.35,13.28
					c12.93-0.63,25.33-7.58,31.99-18.8c2.58-4.36,3.01-9.99,1.71-14.86c-0.62-2.34-3.92-8.32-6.54-3.9
					c-4.86,8.19-13.25,13.83-22.65,15.36c-10.42,1.7-18.77-1.02-27.32-6.79c-18.79-12.67-34.14-32.23-45.3-51.74
					c-2.7-4.71-5.11-9.62-7.14-14.66c-0.75-1.87-1.28-3.24-1.79-5.07c-0.23-0.82-0.42-1.65-0.62-2.48c-0.1-0.43-0.19-0.86-0.27-1.3
					c0.2,1.02,0.13,0.76,0.01-0.11c-0.15-1.1-0.31-2.21-0.43-3.32c-0.05-0.45-0.27-3-0.2-2.02c0.06,0.95-0.06-1.67-0.07-2.14
					c-0.03-1.23-0.03-2.46-0.01-3.69c0.01-0.54,0.12-3.46,0.09-2.88c-0.04,0.64,0.16-1.84,0.21-2.39c0.21-2.19,0.65-5.48,0.92-6.98
					c2.72-15.02,11.44-34.14,29.72-35.92c23.56-2.3,44.94,8.5,63.44,21.86c3.69,2.66,5.63-5.57,5.88-7.59
					C1570.27,759.72,1570.16,753.05,1566.44,750.36L1566.44,750.36z"/>
			</g>
		</g>
		<g id="blouse_10_">
			<g>
				<path d="M1138.6,1134.34c151.94-61.73,466.94,0.74,466.94,0.74s55.38,32.02,139.16,58.3c53.06,16.65,77.03,5.89,121.7,34.5
					c-54.91,6.9-173.72,11.84-270.23,12.12c-80.67,0.24-163.4,0.22-244.23-0.07c-131.88-0.46-311.86,2.14-416.31,0.23
					c0,0-103.91-91.02-83.03-105.95C898.95,1101.09,1138.6,1134.34,1138.6,1134.34z"/>
			</g>
			<path class="st3" d="M1171.53,1134.22l-0.29,0.12C1171.14,1134.31,1171.27,1134.26,1171.53,1134.22z"/>
		</g>
		<path d="M1751.21,1190.16c0.47,0-1.21-21.8-4.57-31.84c-0.08-0.66-0.13-1.03-0.13-1.03s-0.07,0-0.21,0.01
			c-10.66-31.1-30.98-54.76-30.98-54.76s24.26-23.52,25.55-66.79c0.37-12.26-66.58-29.8-122.73-47.43
			c-56.16-17.63-127.07-63.56-153.58-49.7c-14.85,7.76-13.66,24.3-19.69,33.5c-27.58,42.08-53.81,73.62-53.81,73.62l-161.1,56.08
			c5.12-0.69,74.76-2.26,109.45-0.83c30.1,1.24,90.57,26.13,142.61,69.52c5.94,4.96,20.55,19.9,21.71,19.9
			c58.4,63.86,219.99,241.81,235.97,272.76C1739.69,1463.18,1755.51,1217.26,1751.21,1190.16z"/>
		<g id="arm_l_103_">
			<path class="st2" d="M983.37,1141.91c56.13,14.31,98.61,1.68,98.61,1.68c87.57,31.27,160.3,34.08,249.46,8.95
				c21.7,7.63,58.04,13.35,64.04-16.93c3.85-25.15,29.44-44.22,16.42-72.08c12.67-16.55,21.08-40.91,10.85-59.47
				c7.86-40.57,3.35-55.82-33.28-81.64c-78.01-55-89.17-27.26-154.82-20.1c12.98-39.88,20.63-100.21-3.37-133.17
				c-10.39-14.27-34.04-33.09-43.01-7.12c-8.76,41.23-7.95,87.5-39.8,120.52c-79.25,82.15-183.81,73.71-215.73,195.63
				C932.74,1078.18,927.24,1127.6,983.37,1141.91z"/>
			<g>
				<path d="M1410.83,1070.74c14.06-14.12,25.5-38.85,20.24-58.85c-2.37-9.03-8.85-16.64-15.42-22.97
					c-10.01-9.63-22.17-18.49-35.21-23.46c-15.92-6.08-31.85-10.19-46.31-19.67c-5.49-3.6-8.27,17.19-2.54,20.95
					c14.46,9.48,30.38,13.6,46.31,19.67c13.73,5.24,27.4,14.83,37.28,25.71c3.1,3.41,5.89,7.36,7.47,10.42
					c1.13,2.19,0.04-0.59,0.25,0.57c0.24,1.05,0.17,0.65-0.21-1.19c-0.1-2.57-0.14-2.76-0.14-0.57c-0.61,2.63-0.93,5.23-1.86,7.82
					c-3.03,8.4-8.37,16.48-14.68,22.81C1401.68,1056.33,1404.42,1077.19,1410.83,1070.74L1410.83,1070.74z"/>
			</g>
			<g>
				<path d="M1357.04,1039.69c5.68,3.94,11.34,7.89,17,11.86c4.98,3.49,9.95,7,14.9,10.52c2.4,1.71,4.8,3.43,7.2,5.15
					c1.25,0.9,2.51,1.81,3.75,2.72c0.03,0.02,2.75,1.98,1.47,0.83c1.11,1.01,2.04,2.34,2.89,3.56c0.39,0.56,0.77,1.14,1.12,1.72
					c0.66,1.08-0.28-0.7,0.49,0.96c0.37,0.79,0.73,1.58,1.06,2.39c0.59,1.46-0.3-0.81,0.38,1.26c0.78,2.37,0.02-0.71,0.26,1.26
					c0.12,1.25,0.13,1.21,0.03-0.12c-0.02,1.11-0.01,1.28,0.04,0.5c0.42-1.91-0.56,3.13-0.12,1.06c-0.2,0.94-0.49,1.82-0.82,2.7
					c-2.55,6.8-8.2,12.42-13.6,17.02c-3.58,3.05-3.88,9.01-3.34,13.36c0.21,1.7,2.4,10.55,5.88,7.59
					c10.48-8.92,18.51-19.53,20.83-33.35c1.64-9.74,0.46-20.46-4.01-29.34c-1.98-3.94-4.42-7.94-7.88-10.76
					c-8.36-6.8-17.65-12.71-26.47-18.9c-6.17-4.33-12.34-8.65-18.54-12.94c-3.73-2.59-5.62,5.51-5.88,7.59
					C1353.21,1030.26,1353.29,1037.1,1357.04,1039.69L1357.04,1039.69z"/>
			</g>
			<g>
				<path d="M1359.81,1057.29c8.05-19.6-0.22-43.81-10.75-60.56c-2.56-4.08-7.57-3.6-10.01,0.25c-2.85,4.47-2.37,10.88,0.37,15.25
					c5.38,8.56,9.02,18.28,9.05,27.01c0,0.8-0.01,1.59-0.05,2.39c0.12-2.66-0.03,0.04-0.1,0.48c-0.18,1.2-0.48,2.43-0.62,3.63
					c0.1-0.84,0.52-1.84-0.08,0.12c-0.09,0.28-0.19,0.57-0.3,0.84c-1.84,4.47-0.98,11.49,2.9,14.69
					C1354.31,1064.77,1358.2,1061.2,1359.81,1057.29L1359.81,1057.29z"/>
			</g>
			<g>
				<path d="M1334.49,1152.69c7.59-0.36,15.54-1.38,21.57-6.42c6.96-5.82,9.71-15.16,11.66-23.65c1.82-7.94,1.37-16,0.81-24.06
					c-0.67-9.63-1.56-19.37-3.47-28.84c-0.8-3.96-4.17-9.26-8.89-7.32c-4.72,1.94-5.47,9.17-4.62,13.39
					c1.5,7.47,2.1,13.63,2.67,21.16c0.28,3.62,0.5,7.25,0.6,10.88c0.04,1.42,0.04,2.83,0.05,4.24c0.01,3.25,0.5-1.36-0.06,0.82
					c-0.88,3.39-1.38,6.69-2.71,9.97c-0.63,1.56-1.71,3.32-3.02,4.44c-3.39,2.88-9.66,3.57-15.12,3.83
					C1324.37,1131.58,1324.94,1153.15,1334.49,1152.69L1334.49,1152.69z"/>
			</g>
			<g>
				<path d="M1358.47,1097.39c9.85,7.07,21.69,15.25,28.88,24.18c1.15,1.42,2.2,2.91,3.15,4.46c0.87,1.42-0.48-1.34,0.47,1.07
					c0.27,0.68,1.29,2.55,0.07-0.07c0.24,0.52,0.31,1.25,0.39,1.82c-0.49-3.54-0.05-0.72-0.11,0.14c0.36-5.14-1.15,4.22,0-0.06
					c-1.28,4.78-1.31,11.22,2.9,14.69c3.76,3.09,8.46,0.11,9.59-4.11c2.89-10.79,1.59-21.29-4.74-30.66
					c-8.41-12.45-21.92-21.66-33.91-30.27C1355.66,1071.77,1351.25,1092.2,1358.47,1097.39L1358.47,1097.39z"/>
			</g>
			<g>
				<path d="M1203.09,758.97c-0.36,10.04-0.72,20.08-1.11,30.13c-0.11,2.87-0.22,5.74-0.34,8.61c-0.02,0.54-0.08,1.1-0.07,1.64
					c0.05,2.17-0.46-0.37,0.25-0.55c-0.32,0.08-1.57,1.78-2.04,2.11c-2.91,2-11.18,3.77-13.73,0.26c-1.94-2.67-3.85,0.82-4.36,2.6
					c-0.85,2.95-0.74,7.31,1.14,9.91c3.58,4.92,11.64,4.35,16.6,2.24c7.68-3.26,8.29-11.32,8.59-18.64
					c0.53-12.77,0.98-25.54,1.43-38.31c0.07-1.86-0.44-7.24-3.19-7.24C1203.47,751.73,1203.15,757.28,1203.09,758.97L1203.09,758.97
					z"/>
			</g>
		</g>
		<path d="M935.63,1240.17c0,0,108.74-33.12,124.24-66.18c26.45-56.41-29.88-207.08-66.04-207.08
			c-52.28,0-148.84,75.29-186.56,94.46c-163.45,83.03-239.56,158.46-239.56,158.46l24.11,7.11c27.73,6.3,83.03,15.27,111.44,14.2
			L935.63,1240.17z"/>
	</g>
	<g id="dialog_cloud_1_">
		<path d="M4497.5,461.96h-515.4c-30.85,0-58.9,17.87-71.94,45.83L3818.67,704c-24.54,52.62,13.88,112.92,71.94,112.92h42.53
			c-23.03,28.6-47.16,56.27-72.4,83.01c-6.93,7.35-6.41,35.57,9.01,29.69c72.89-27.75,148.74-57.82,205.19-112.7H4406
			c30.85,0,58.9-17.87,71.94-45.83l91.5-196.22C4593.97,522.25,4555.56,461.96,4497.5,461.96z"/>
		<g>
			<path class="st2" d="M3956.16,595.03c15.51-12.17,32.75-21.91,51.09-29.14c15.63-6.17,33.18-12.17,50.23-10.86
				c3.14,0.24,6.04,0.82,9.05,1.96c0.7,0.27,3.5,1.53,2.96,1.21c0.64,0.38,1.28,0.87,1.87,1.34c0.06,0.05,2.52,2.41,1.3,1.01
				c0.5,0.58,0.95,1.26,1.37,1.89c-1.07-1.62-0.02-0.16,0.13,0.33c0.24,0.78,0.84,3.27,1.18,4.77c1.25,5.65,2.89,11.06,5.96,16
				c8.61,13.83,25.44,17.21,40.63,16.27c8.2-0.51,16.14-2.33,24.11-4.19c11.65-2.73,23.3-5.45,34.95-8.18
				c22.33-5.23,44.66-10.45,66.98-15.68c4.94-1.16,9.91-2.59,14.93-3.37c2.03-0.32,4.4-0.73,6.45-0.36
				c0.68,0.12,1.42,0.37,2.01,0.67c0.47,0.24,1.86,1.26,0.72,0.5c0.36,0.24,1.04,2.06,0.25,0.33c0.35,0.76,0.64,1.58,0.9,2.38
				c-0.75-2.26,0.47,2.21,0.66,3.01c1.09,4.59,2.19,9.3,4.24,13.57c8.4,17.51,28.03,24.69,46.48,21.45
				c11.66-2.05,22.42-6.77,33.41-10.94c11.52-4.38,23.3-8.09,35.25-11.11c10.92-2.75,22.25-5.28,33.49-6.2
				c4-0.33,8.28-0.52,12.21,0.36c3.93,0.88,6.55,2.6,7.88,4.58c3.56,5.28,10.01,4.93,13.35-0.33c3.7-5.81,3.31-14.68-0.5-20.33
				c-11.41-16.94-32.89-13.74-50.18-10.52c-22.27,4.15-43.82,10.65-64.87,18.95c-14.49,5.71-36.39,13.96-49.37,0.46
				c-1.77-1.84-2.46-4.11-2.73-5.39c-0.97-4.58-2.1-9.3-3.78-13.67c-3.89-10.08-12.13-17.13-23.31-16.53
				c-5.18,0.28-10.39,1.91-15.41,3.08c-6.15,1.44-12.3,2.88-18.44,4.32c-11.33,2.65-22.65,5.3-33.98,7.95
				c-21.51,5.03-43.05,11.1-64.79,15.01c-7.58,1.36-15.41,2.09-23.1,1.25c-3.03-0.33-5.92-1.07-8.98-2.39
				c-2.15-0.93-4.55-2.69-5.33-3.72c-0.45-0.6-0.89-1.24-1.27-1.88c1.09,1.88,0.06,0.1-0.02-0.31c-0.22-1.07-0.92-3.93-1.3-5.62
				c-1.29-5.68-3.15-11.38-6.61-16.14c-4.7-6.49-11.68-11-19.43-12.92c-19.84-4.91-41,1.54-59.64,8.28
				c-22.11,7.99-42.66,19.77-61.14,34.27C3936.75,577.7,3943.85,604.68,3956.16,595.03L3956.16,595.03z"/>
		</g>
		<g>
			<path class="st2" d="M3908,718.14c15.51-12.17,32.75-21.91,51.09-29.14c15.63-6.17,33.18-12.17,50.23-10.86
				c3.14,0.24,6.04,0.82,9.05,1.96c0.7,0.27,3.5,1.53,2.96,1.21c0.64,0.38,1.28,0.87,1.87,1.34c0.06,0.05,2.52,2.41,1.3,1.01
				c0.5,0.58,0.95,1.26,1.37,1.89c-1.07-1.62-0.02-0.16,0.13,0.33c0.24,0.78,0.84,3.27,1.18,4.77c1.25,5.65,2.89,11.06,5.96,16
				c8.61,13.83,25.44,17.21,40.63,16.27c8.2-0.51,16.14-2.33,24.11-4.19c11.65-2.73,23.3-5.45,34.95-8.18
				c22.33-5.23,44.66-10.45,66.98-15.68c4.94-1.16,9.91-2.59,14.93-3.37c2.03-0.32,4.4-0.73,6.45-0.36
				c0.68,0.12,1.42,0.37,2.01,0.67c0.47,0.24,1.86,1.26,0.72,0.5c0.36,0.24,1.04,2.06,0.25,0.33c0.35,0.76,0.64,1.58,0.9,2.38
				c-0.75-2.26,0.47,2.21,0.66,3.01c1.09,4.59,2.19,9.3,4.24,13.57c8.4,17.51,28.03,24.69,46.48,21.45
				c11.66-2.05,22.42-6.77,33.41-10.94c11.52-4.38,23.3-8.09,35.25-11.11c10.92-2.75,22.25-5.28,33.49-6.2
				c4-0.33,8.28-0.52,12.21,0.36c3.93,0.88,6.55,2.6,7.88,4.58c3.56,5.28,10.01,4.93,13.35-0.33c3.7-5.81,3.31-14.68-0.5-20.33
				c-11.41-16.94-32.89-13.74-50.18-10.52c-22.27,4.15-43.82,10.65-64.87,18.95c-14.49,5.71-36.39,13.96-49.37,0.46
				c-1.77-1.84-2.46-4.11-2.73-5.39c-0.97-4.58-2.1-9.3-3.78-13.67c-3.89-10.08-12.13-17.13-23.31-16.53
				c-5.18,0.28-10.39,1.91-15.41,3.08c-6.15,1.44-12.3,2.88-18.44,4.32c-11.33,2.65-22.65,5.3-33.98,7.95
				c-21.51,5.03-43.05,11.1-64.79,15.01c-7.58,1.36-15.41,2.09-23.1,1.25c-3.03-0.33-5.92-1.07-8.98-2.39
				c-2.15-0.93-4.55-2.69-5.33-3.72c-0.45-0.6-0.89-1.24-1.27-1.88c1.09,1.88,0.06,0.1-0.02-0.31c-0.22-1.07-0.92-3.93-1.3-5.62
				c-1.29-5.68-3.15-11.38-6.61-16.14c-4.7-6.49-11.68-11-19.43-12.92c-19.84-4.91-41,1.54-59.64,8.28
				c-22.11,7.99-42.66,19.77-61.14,34.27C3888.59,700.81,3895.69,727.79,3908,718.14L3908,718.14z"/>
		</g>
	</g>
	<g id="man_1_">
		<g id="blouse_5_">
			<path class="st4" d="M3342.89,1047.65c0,0-244.17,20.49-282.15,49.2c-37.98,28.72-261.28,505.68-261.28,505.68
				s-449.74-220.06-500.42-210.03s91.15,333.9,156.02,415.31c64.87,81.41,248.05,191.93,333.88,215.78s184.5-64.45,184.5-64.45
				s-15.15,117.92,35.45,150.53c50.61,32.62,210.85,59.4,210.85,59.4s51.68,183.55,38.97,244.85
				c-12.72,61.3,98.13,92.37,284.78,64.93c186.65-27.44,312.93-41.05,444.64-45.11c131.71-4.06,275.68-60.16,274.87-131.32
				c-0.81-71.16-85.07-401.52-68.95-456.24c16.12-54.72,21.06-681.26-84.39-749.35s-283.47-98.38-414.95-99.36
				C3563.24,996.51,3342.89,1047.65,3342.89,1047.65z"/>
			<g>
				<path d="M4046.27,1103.47c-76.64,5.08-148.44,40.34-204.88,91.53c-61.01,55.34-102.6,129.02-127.72,206.9
					c-14.69,45.57-24.15,92.77-29.5,140.32c-0.67,5.93,0.48,15.07,7.03,17.53c6.31,2.37,10.78-5.1,11.37-10.33
					c9-79.9,29.47-159.27,69.53-229.62c36.99-64.96,90.66-120.42,157.66-154.49c36.57-18.6,76.23-30.36,117.23-33.07
					c6.78-0.45,9.23-8.97,9.09-14.61C4055.94,1112.49,4053.06,1103.02,4046.27,1103.47L4046.27,1103.47z"/>
			</g>
			<g>
				<path d="M3682.3,1544.77c-6.63,65.94-16.86,131.49-30.73,196.3c-3.95,18.42-8.19,36.78-12.71,55.07
					c-1.41,5.71,0.97,15.25,7.03,17.53c6.79,2.55,10.13-5.32,11.37-10.33c15.89-64.34,28.26-129.52,36.93-195.22
					c2.47-18.68,4.63-37.39,6.51-56.14c0.6-5.95-0.43-15.05-7.03-17.53C3687.4,1532.1,3682.82,1539.52,3682.3,1544.77
					L3682.3,1544.77z"/>
			</g>
			<g>
				<path d="M3809.37,1823.44c-104-21.28-208.63-42.43-314.82-48.78c-52.61-3.15-105.53-2.56-157.89,3.78
					c-26.12,3.16-52.02,7.83-77.62,13.89c-24.95,5.9-49.59,13.17-74.86,17.63c-14.31,2.53-28.74,4.04-43.28,4.22
					c-14.77,0.18-29.66-0.56-44.32,1.71c-24.87,3.84-48.8,17.27-57.26,42.27c-2.09,6.18-1.53,15.14,3.87,19.59
					c5.24,4.31,10.96-0.05,12.79-5.48c2.45-7.24,8.09-13.82,15.67-18.42c8.74-5.3,18.39-8.31,28.49-9.61
					c13.11-1.68,26.35-1.19,39.53-1.29c12.67-0.09,25.25-1.08,37.78-3.01c25.17-3.86,49.76-10.68,74.42-16.87
					c24.46-6.13,49.18-11,74.17-14.42c102.02-13.99,205.63-5.59,306.91,10.3c57.67,9.05,114.9,20.64,172.08,32.34
					c6.62,1.35,10.41-4.31,11.37-10.33C3817.17,1836.06,3815.89,1824.77,3809.37,1823.44L3809.37,1823.44z"/>
			</g>
			<g>
				<path d="M3235.75,2182.88c115.7,32.44,235.27,51.26,355.36,55.65c110.74,4.05,230.18,0.15,324.54-65.18
					c42.73-29.58,74.28-70.63,92.95-119.06c18.02-46.74,23.39-96.09,31.86-145.06c5.97-34.49,14.14-68.6,22.45-102.58
					c9.6-39.25,20.2-80.04,30.69-121.35c10.76-42.38,21.4-84.8,30.88-127.48c7.65-34.46,14.87-69.21,18.88-104.31
					c0.89-7.79,1.51-15.6,2-23.42c0.34-5.42-3.34-14.31-9.79-14.15c-7.14,0.18-8.75,9.31-9.09,14.61c0.32-5.05-0.09,0.98-0.18,2.14
					c-0.13,1.62-0.27,3.25-0.42,4.87c-0.33,3.55-0.71,7.1-1.13,10.65c-0.91,7.71-2,15.4-3.2,23.06
					c-2.74,17.46-6.05,34.84-9.62,52.15c-8.29,40.17-17.98,80.04-27.93,119.82c-1.09,4.35-1.97,7.84-3.42,13.6
					c-1.32,5.24-2.65,10.48-3.98,15.72c-2.66,10.46-5.33,20.92-8,31.37c-5.22,20.46-10.46,40.92-15.6,61.4
					c-9.28,36.95-18.49,73.96-26.11,111.29c-8.32,40.77-11.98,82.38-22.12,122.79c-5.98,23.83-14.38,48.37-26.42,70.29
					c-11.68,21.27-26.69,40.16-44.58,56.55c-81,74.2-196.12,85.33-301.04,84.46c-117.84-0.98-235.52-15.82-349.86-44.35
					c-14.32-3.57-28.58-7.36-42.78-11.35c-6.55-1.84-10.47,4.67-11.37,10.33C3227.88,2170.65,3229.27,2181.06,3235.75,2182.88
					L3235.75,2182.88z"/>
			</g>
			<g>
				<path d="M3105.34,1404.4c-5.66,110.44-0.49,221.27,15.02,330.75c4.38,30.91,9.63,61.69,15.69,92.31
					c1.03,5.2,5.6,12.46,11.86,9.76c6.28-2.71,7.29-12.12,6.16-17.85c-21.1-106.61-31.88-215.09-32.12-323.78
					c-0.07-30.57,0.7-61.13,2.27-91.66c0.28-5.42-3.29-14.31-9.79-14.15C3107.33,1389.96,3105.61,1399.09,3105.34,1404.4
					L3105.34,1404.4z"/>
			</g>
			<g>
				<path d="M3093.58,1095.52c8.19,74.97,10.35,150.52,6.48,225.83c-0.28,5.42,3.29,14.31,9.79,14.15c7.1-0.17,8.81-9.3,9.09-14.61
					c3.88-75.32,1.71-150.86-6.48-225.83c-0.59-5.39-2.7-14.32-9.79-14.15C3096.2,1081.07,3093,1090.23,3093.58,1095.52
					L3093.58,1095.52z"/>
			</g>
			<g>
				<path d="M3268.71,1068.12c-9.98,45.33-2.35,93.94,23.29,132.89c23.56,35.81,61.59,61.18,103.59,69.55
					c11.08,2.21,22.78,4.07,34.11,3.7c11.83-0.39,23.89-3.01,35.36-5.75c21.81-5.21,42.7-13.7,62.44-24.28
					c41.55-22.27,78.14-52.78,113.4-83.77c38.72-34.04,76.31-70.3,119.53-98.72c5.84-3.84,7.56-11.18,6.16-17.85
					c-0.88-4.18-5.97-13.63-11.86-9.76c-75.77,49.82-134.49,121.5-211.29,169.85c-18.68,11.76-38.39,22.01-59.19,29.48
					c-19.54,7.02-41.41,12.88-62.32,11.82c-21.02-1.06-41.6-6.28-60.56-15.46c-8.61-4.17-16.05-8.72-23.68-14.5
					c-7.32-5.55-15.79-13.34-20.83-19.11c-3.55-4.06-6.86-8.34-9.93-12.77c-1.66-2.39-3.25-4.82-4.76-7.3
					c-0.65-1.06-1.29-2.14-1.91-3.22c-0.42-0.72-0.83-1.44-1.23-2.17c0.55,1.05,0.47,0.91-0.23-0.43c-2.5-4.83-4.77-9.77-6.74-14.84
					c-1.07-2.75-2.02-5.54-2.96-8.33c-1.33-3.94,0.65,2.57-0.44-1.45c-0.33-1.23-0.68-2.45-1-3.69c-1.51-5.84-2.53-11.73-3.45-17.69
					c-0.64-4.12,0.16,1.81-0.11-0.72c-0.16-1.52-0.29-3.05-0.41-4.57c-0.23-3.08-0.36-6.17-0.4-9.26c-0.04-3.14,0.05-6.27,0.15-9.4
					c0.01-0.48,0.17-2.83-0.01-0.24c0.13-1.82,0.29-3.64,0.48-5.46c0.68-6.51,1.78-12.97,3.19-19.36
					c1.27-5.76-0.88-15.22-7.03-17.53C3273.38,1055.29,3269.82,1063.07,3268.71,1068.12L3268.71,1068.12z"/>
			</g>
		</g>
		<path id="hair_3_" d="M3173.56,565.53c0,0-40.34-47.85-60.23-88.55s-2.27-85.8,38.84-96.8c41.11-11,39.3-45.05,94.24-55.52
			c54.94-10.48,104.68,3.56,145.93-9.38c41.24-12.94,86.55-24.32,151.06-13.26s119.47,83.28,119.47,83.28s62.5,52.08,63.67,90.59
			c1.17,38.5-24.58,112.68-29.37,138.68c-4.79,26-11.72,132.12-21.71,156.77c-9.99,24.65-62.97,53.74-62.97,53.74L3173.56,565.53z"
			/>
		<g id="face_2_">
			<path class="st2" d="M3718.84,1001.76c-7.16-2.51-14.33-5.02-21.49-7.53c-9.63-3.37-22.73-5.76-31.39-10.99
				c-4.1-2.48-2.43-0.51-4.83-4.52c-3.08-5.14-4.28-12.1-5.95-17.78c-3.98-13.53-7.13-27.28-9.95-41.06
				c-7.99-39.11-13.6-78.81-17.64-118.47c22.01-10.85,31.63-41.66,38.2-63.85c9.17-30.94,14.25-66.63,7.68-98.4
				c-2.62-12.69-7.76-27.06-20.06-34.36c-15.28-9.07-36.91-5.48-51.58,2.88c-13.06,7.45-18.59,18.58-28.74,28.17
				c-14.8,13.99-33.67-4.16-40.49-17.31c-22.97-44.31-4.33-101.27-40.38-141.04c-11.14-12.29-24.56-14.35-40.76-15.83
				c-22.09-2.01-44.38-2.53-66.56-1.91c-54.09,1.51-105.76,10.84-151.52,39.11c-18.38,11.35-35.37,24.69-50.83,39.36
				c-5.71,5.43-15.1,11.95-15.66,20.15c-0.68,9.97,3.68,21.89,5.45,31.61c3.44,18.8,6.95,37.6,10.91,56.32
				c2.59,12.22,4.53,24.35,11.62,35.06c8.95,13.51,19.57,26.19,30.07,38.7c-3.06,26.54-5.15,56.34,3.94,81.6
				c10.76,29.9,27.17,58.72,42.06,86.93c23.38,44.33,55.43,115.75,115.9,115.59c5.77,11.75,9.73,24.44,12.25,37.54
				c-19.55,1.47-39.77,7.64-58.88,11.44c-2.11,0.42-2.72,3.08-2.95,4.78c-3.11,23.34-3.51,47.19,8.69,68.26
				c12.62,21.8,33.67,37.94,59.47,44.06c44.7,10.6,92.31-7.76,131.38-26.81c43.65-21.29,83.89-48.65,121.69-78.03
				c21.08-16.39,41.81-33.45,61.04-51.75C3721.6,1011.74,3722.28,1002.97,3718.84,1001.76z"/>
			<g>
				<path d="M3596.47,700.27c3.07-1.35,5.11-6.35,6.56-8.99c2.59-4.75,4.99-9.6,7.81-14.23c6.15-10.09,14.65-21.8,27.6-22.29
					c6.83-0.26,6.62-21.97,0-21.73c-13.81,0.52-23.77,11.8-30.76,22.6c-3.51,5.43-6.56,11.14-9.58,16.85
					c-0.55,1.04-1.11,2.08-1.66,3.12c-1,1.88,0.05,0.16-0.95,1.68c-0.44,0.67-0.86,1.35-1.36,1.98c-0.42,0.53,1.05-0.49-0.2,0.06
					C3588.02,681.93,3589.72,703.26,3596.47,700.27L3596.47,700.27z"/>
			</g>
			<g>
				<path d="M3520.64,923.37c-20.53,22.36-48.89,37.54-76.7,48.86c-18.87,7.68-39.81,15.54-60.5,14.56
					c-9.25-0.44-18.23-1.77-26.64-5.82c-12.87-6.21-23.27-16.54-32.47-27.25c-14.9-17.36-26-37.23-36.95-57.22
					c-13.1-23.93-25.59-48.21-37.46-72.78c-4.33-8.98-8.62-17.99-12.54-27.16c-3.97-9.29-5.38-16.14-6.11-26.82
					c-0.36-5.25-0.4-13.38-0.25-19.83c0.07-3.15,0.2-6.31,0.36-9.46c0.04-0.74,0.08-1.48,0.12-2.22c-0.1,1.78,0-0.01,0.02-0.31
					c0.11-1.64,0.22-3.28,0.35-4.92c0.58-7.56,3.52-19.28-1.08-25.74c-4.9-6.88-10.88-13.17-16.12-19.79
					c-3.89-4.91-7.73-9.85-11.42-14.9c-1.5-2.05-2.97-4.11-4.38-6.21c-0.6-0.89-1.17-1.78-1.75-2.68c-0.25-0.4-0.5-0.8-0.74-1.21
					c-0.51-0.89,0.51,1.09-0.08-0.18c-0.56-1.2-1.18-3.45-0.48-0.9c-0.38-1.36-0.82-2.71-1.18-4.08c-1.05-3.89-1.95-7.82-2.83-11.75
					c-2.41-10.76-4.55-21.58-6.64-32.4c-2.3-11.87-3.88-20.42-5.94-31.74c-1.36-7.48-2.7-14.97-4.02-22.47
					c-0.2-1.15-0.4-2.3-0.6-3.45c-0.73,4.09-1.46,8.18-2.2,12.27c12.89-15.03,28.61-28.07,44.55-39.67
					c31.06-22.59,65.45-38.18,103.32-44.84c34.94-6.15,70.85-7.28,106.24-5.81c12.24,0.51,24.5,1.31,36.65,2.86
					c5.09,0.65,9.93,1.38,14.52,3.83c6.53,3.48,11.55,8.87,15.71,14.91c21.92,31.92,14.88,72.44,24.81,108.09
					c4.23,15.16,10.43,31.34,22.21,42.3c4.52,4.21,9.95,7.23,16.13,8.12c5.5,0.8,15.64-0.31,19.44-4.87
					c3.44-4.12-0.73,0.98,0.64-1.1c0.74-1.12,1.43-2.28,2.2-3.39c2.52-3.68,5.33-7.17,8.37-10.43c8.59-9.21,19.91-16.82,32.34-19.48
					c11.96-2.57,27.5-2.12,36.76,7.01c3.91,3.86,5.76,7.58,7.7,12.46c0.65,1.63,0.26,0.44,0.87,2.53c0.44,1.51,0.85,3.02,1.21,4.55
					c0.13,0.57,0.79,3.85,0.49,2.17c0.33,1.81,0.59,3.63,0.81,5.45c0.19,1.53,0.35,3.06,0.48,4.59c-0.01-0.17,0.24,3.22,0.14,1.68
					c-0.1-1.55,0.09,1.9,0.08,1.71c0.15,3.58,0.17,7.16,0.09,10.73c-0.14,6.54-0.5,11.17-1.39,18.76
					c-1.51,12.85-3.13,21.74-6.44,34.24c-0.57,2.13-1.16,4.26-1.81,6.37c-0.31,1.02-0.64,2.04-0.97,3.05
					c0.83-2.53-0.5,1.34-0.74,2.01c-2.44,6.8-4.82,13.63-7.66,20.28c-5.2,12.21-12.29,24.87-25.14,30.22
					c-7.14,2.98-15.17,2.6-22.61,1.12c-5.73-1.14-7.22,20.28,0,21.73c13.71,2.74,26.84-0.2,37.01-10.01
					c9.6-9.26,15.37-21.88,20.11-34.16c8.01-20.78,13.74-41.7,16.79-63.8c3.46-25.12,4.77-52.68-3.93-76.92
					c-3.37-9.37-9.06-18.66-17.92-23.73c-11.05-6.32-25.94-6.21-37.86-2.8c-19.32,5.54-35.79,20.6-45.41,38.06
					c0.7-0.93,1.41-1.86,2.11-2.79c-27.21,13.41-41.64-19.63-46.9-40.69c-4.01-16.05-3.93-31.72-5.86-47.9
					c-2.09-17.57-6.26-35.43-14.07-51.4c-5.91-12.08-14.44-24.81-27.1-30.59c-8.34-3.81-18.34-4.17-27.36-4.97
					c-27.88-2.48-56.07-2.78-84.01-1.08c-32.48,1.98-65.51,6.65-95.84,18.95c-29.48,11.95-56.49,29.86-80.27,50.89
					c-6.94,6.14-13.68,12.55-20,19.32c-4.57,4.89-6.42,9.59-5.33,16.92c2.56,17.22,6.13,34.37,9.37,51.47
					c3.65,19.28,6.63,39.2,12.44,57.98c2.57,8.32,7.77,15.22,12.93,22.13c6.89,9.23,14.13,18.2,21.45,27.08
					c1.45,1.76,2.91,3.52,4.37,5.27c-0.73-4.09-1.46-8.18-2.2-12.27c-1.58,12.93-2.34,26.05-2.52,39.07
					c-0.26,18.55,0.6,37.75,7.63,55.14c12.32,30.44,28.09,59.79,43.49,88.74c16.55,31.11,32.98,63.25,58.62,88.01
					c11.69,11.29,24.99,20.09,41.3,22.62c11.89,1.84,23.23,1.21,34.9-1.54c20.69-4.88,40.86-12.68,59.86-22.14
					c21.44-10.66,41.97-23.97,58.25-41.7c3.18-3.46,2.82-10.68,1.71-14.86C3526.33,924.07,3523.88,919.84,3520.64,923.37
					L3520.64,923.37z"/>
			</g>
			<g>
				<path d="M3409.03,1117.79c1.5-15.32,1.58-30.91,0.8-46.26c-1.41-27.58-5.19-56.63-18.23-81.38c-1.95-3.71-4.85-3.92-6.76,0
					c-1.99,4.1-2.17,11.25,0,15.36c5.72,10.86,9.29,22.53,11.67,34.54c1.15,5.81,1.95,11.7,2.6,17.59c0.33,3.05,0.61,6.11,0.85,9.18
					c0.24,3.16,0.29,4.04,0.43,7.17c0.41,9.58,0.42,19.19,0.02,28.77c-0.07,1.64-0.16,3.29-0.24,4.93c0.16-3.21,0-0.02-0.1,1.3
					c-0.07,1.01-0.15,2.02-0.25,3.02c-0.34,3.53-0.62,11.43,3.34,13.36C3407.13,1127.32,3408.79,1120.24,3409.03,1117.79
					L3409.03,1117.79z"/>
			</g>
			<g>
				<path d="M3619.43,799.94c2.99,30.74,7.18,61.42,12.26,91.88c4.02,24.08,8.54,48.18,15,71.74c2.72,9.93,5.79,19.83,9.68,29.36
					c1.21,2.96,2.14,5.03,5.03,6.2c2.64,1.07,5.4,1.89,8.08,2.83c15.76,5.52,31.52,11.04,47.29,16.56c0-6.98,0-13.97,0-20.95
					c-14.23,13.56-29.36,26.26-44.62,38.63c-33.56,27.22-68.88,52.54-106.4,74.04c-39.46,22.62-84.48,44.62-130.84,45.6
					c-28.84,0.61-57.47-9.16-76.03-31.7c-1.84-2.24-3.58-4.57-5.2-6.97c-0.81-1.2-1.58-2.43-2.35-3.66
					c-0.31-0.51-0.61-1.02-0.91-1.54c0.92,1.59,0.03,0.06-0.16-0.31c-2-3.71-3.65-7.51-5.15-11.44c1.22,3.2-0.34-1.19-0.6-2.29
					c-0.98-4.26-1.09-8.9-1.09-13.46c-0.01-7.96,0.35-13.8,1.46-21.9c-1.54,2.66-3.07,5.32-4.61,7.97
					c9.98-1.98,19.96-3.95,29.95-5.89c6.91-1.34,13.81-2.68,20.73-3.97c3.26-0.61,7.05-1.87,10.4-1.77c6.58,0.19,6.87-21.52,0-21.73
					c-3.35-0.1-7.14,1.16-10.4,1.77c-6.92,1.29-13.82,2.63-20.73,3.97c-9.99,1.94-19.97,3.91-29.95,5.89
					c-3.33,0.66-4.23,5.18-4.61,7.97c-2.33,17.01-3.55,36.05,0.77,52.79c2.17,8.41,6.13,16.38,10.72,23.71
					c14.56,23.28,38.64,38.36,65.6,42.78c45.14,7.4,91.82-11.74,131.29-31.77c41.41-21.01,80.04-47.42,116.59-75.96
					c20.19-15.76,40.12-32.14,58.68-49.82c2.8-2.67,3.51-6.72,3.51-10.47c0-2.63-0.38-9.38-3.51-10.47
					c-19.04-6.67-38.07-13.33-57.11-20c0.7,0.93,1.41,1.86,2.11,2.79c-11.18-25.94-16.89-56.95-21.84-85.18
					c-4.86-27.69-8.72-55.57-11.93-83.5c-0.67-5.84-1.33-11.68-1.9-17.52c-0.27-2.77-1.86-9.33-5.88-7.59
					C3618.87,788.27,3619.12,796.81,3619.43,799.94L3619.43,799.94z"/>
			</g>
			<g>
				<path d="M3384.14,762.12c-7.18,4.06-14.83,7.45-22.54,10.35c-11.3,4.24-26.37,9.11-38.34,4.81c-2.23-0.8-4.54-2.08-6.23-3.76
					c-0.68-0.68-1.8-2.24-1.98-2.51c-0.3-0.44-0.37-1.09-0.68-1.5c0.36,0.47,0.07,0.26,0.12,0.38c-0.5-1.38-0.15,2.46-0.04-0.15
					c0.03-0.6,0.01-1.21,0.03-1.82c-0.1,2.43,0.32-2.08,0.45-2.93c0.41-2.66,1.32-6.79,2.1-10.7c2.05-10.33,3.64-20.75,3.39-31.31
					c-0.3-12.93-3.07-25.28-7.47-37.41c-3.05-8.42-6.99-17.07-12.76-24.02c-1.93-2.32-4.28-5.11-7.06-6.46
					c-6.44-3.12-8.5,18.06-2.54,20.95c2.58,1.25,3,2.17,4.55,4c5.12,6.05,8.41,13.49,11.05,20.89c3.4,9.51,5.31,19.33,4.5,29.38
					c-0.72,8.83-2.85,17.01-4.43,25.8c-2.57,14.27-2.4,34.3,12.98,41.48c12.31,5.74,27.15,1.8,39.35-2.22
					c9.68-3.19,19.24-7.3,28.12-12.32C3392.48,779.8,3390.21,758.69,3384.14,762.12L3384.14,762.12z"/>
			</g>
			<g>
				<path d="M3455.07,635.46c-11.33-2.37-23.22-3.06-34.76-2.79c-20.8,0.49-43.02,5.03-59.2,18.92c-3.57,3.07-3.88,8.99-3.34,13.36
					c0.21,1.68,2.41,10.56,5.88,7.59c15.96-13.71,37.29-17.83,57.79-18.16c11.17-0.18,22.66,0.52,33.63,2.82
					C3460.74,658.37,3462.3,636.97,3455.07,635.46L3455.07,635.46z"/>
			</g>
			<g>
				<path d="M3324.2,611.48c24.82-15.67,56.37-21.49,85.16-23.1c17.49-0.98,35.02-0.11,52.39,2.08c6.13,0.77,7.12-20.83,0-21.73
					c-43.97-5.56-92.03-2.77-132.3,17.45c-2.66,1.33-5.27,2.76-7.78,4.35C3315.97,594.12,3318.51,615.08,3324.2,611.48
					L3324.2,611.48z"/>
			</g>
			<g>
				<path d="M3226.85,721.27c4.04-5,8.89-8.79,14.74-12.79c13.66-9.34,29.25-14.82,45.67-16.59c7.02-0.76,6.29-22.4,0-21.73
					c-23.81,2.56-49.78,13.2-65.23,32.34c-3.03,3.75-2.88,10.46-1.71,14.86C3221.09,720.31,3223.77,725.08,3226.85,721.27
					L3226.85,721.27z"/>
			</g>
			<g>
				<path d="M3261.62,622.32c-10.01,2.44-19.89,5.92-29.36,9.96c-15.28,6.52-31.82,15.48-40.8,30.04
					c-2.64,4.29-2.99,10.04-1.71,14.86c0.64,2.41,3.86,8.25,6.54,3.9c8.43-13.68,24.19-21.74,38.51-27.85
					c8.66-3.69,17.66-6.95,26.82-9.18C3268.81,642.29,3267.15,620.97,3261.62,622.32L3261.62,622.32z"/>
			</g>
			<g>
				<path d="M3314.06,855.68c40.66-14.7,81.33-29.4,121.99-44.1c5.74-2.07,11.47-4.15,17.21-6.22c-1.23-6.62-2.46-13.24-3.68-19.85
					c-9.95,17.21-20.86,34.03-32.82,49.9c-7.01,9.3-14.59,19.71-24.51,26.14c-10.97,7.11-26.16,5.35-38.14,2.17
					c-14.02-3.72-31.71-12.14-37.94-26.19c-1.75-3.95-4.95-3.72-6.76,0c-2.11,4.34-1.94,10.98,0,15.36
					c6.27,14.13,19.9,23.54,33.91,29.04c14,5.5,30.57,8.73,45.16,3.61c11.16-3.91,19.64-14.54,26.86-23.41
					c9.29-11.4,17.61-23.59,25.56-35.95c4.64-7.21,9.2-14.5,13.49-21.93c2.35-4.06,2.88-8.97,1.96-13.56
					c-0.56-2.81-1.88-7.65-5.64-6.29c-40.66,14.7-81.33,29.4-121.99,44.1c-5.74,2.07-11.47,4.15-17.21,6.22
					C3305.61,836.87,3306.89,858.28,3314.06,855.68z"/>
			</g>
			<g>
				
					<ellipse transform="matrix(0.7419 -0.6705 0.6705 0.7419 427.6875 2444.7268)" cx="3389.24" cy="666.85" rx="13.93" ry="19.37"/>
				<g>
					<path d="M3398.33,668.28c0.22,0.3,2.64,4.39,2.62,4.39c-0.19-0.01,0.68-2.77,0.52-2.88c1.08,0.69-4.91,3.18-5.42,3.25
						c-6.09,0.87-12.29-3.01-15.92-7.62c-0.6-0.76-1.58-3.25-2.35-3.79c-0.09-0.28-0.22-0.53-0.38-0.77
						c0.09,1.05-0.05,2.07-0.41,3.04c-0.19-0.04,1.5-1.73,1.55-1.77c1.13-0.89,2.47-1.28,3.87-1.48
						C3388.61,659.77,3394.56,663.76,3398.33,668.28c3.07,3.68,5.75-0.93,6.54-3.9c1.12-4.23,1.32-11.22-1.71-14.86
						c-6.76-8.11-20.12-15.61-29.24-6.49c-10.26,10.26-6.82,30.76,1.4,41.15c6.56,8.29,20.26,15.49,29.24,6.49
						c10.47-10.5,6.5-30.46-1.4-41.15c-2.9-3.93-5.81,1.15-6.54,3.9C3395.44,657.88,3395.44,664.37,3398.33,668.28z"/>
				</g>
			</g>
			<g>
				<path d="M3255.97,708.79c6.39,6.97,7.28,16.05,2,20.3c-5.28,4.24-14.74,2.04-21.12-4.93s-7.28-16.05-2-20.3
					C3240.13,699.62,3249.59,701.83,3255.97,708.79z"/>
				<g>
					<path d="M3253.56,718.17c0.97,1.14,1.74,2.28,2.62,3.48c0.33,0.49,0.55,1.02,0.66,1.58c0.38,1.77,0.41,0.28,0.08-4.45
						c0.08-0.25,0.17-0.51,0.25-0.76c-0.34,0.54-0.8,0.96-1.38,1.24c-0.81,0.44-1.55,0.75-2.45,0.95
						c-5.06,1.13-10.67-1.9-14.07-5.43c-1.02-1.06-1.72-2.34-2.62-3.48c-0.87-1.09-0.7-4.08-0.73,0.52
						c-0.03,4.83-0.43,1.99,2.99,1.01C3244.11,711.34,3250.05,714.58,3253.56,718.17c6.29,6.44,9.19-14.3,4.82-18.76
						c-6.93-7.09-19.37-13.05-27.18-3.68c-8.45,10.13-4.98,28.67,3.24,37.81c6.38,7.1,19.22,12.87,26.81,4.13
						c8.96-10.32,5.31-28.7-2.87-38.26c-3.1-3.62-5.74,0.88-6.54,3.9C3250.74,707.48,3250.49,714.59,3253.56,718.17z"/>
				</g>
			</g>
		</g>
		<g id="projekt_1_">
			<g>
				<path class="st2" d="M2228.91,1507.78c0,0,70.05,200.62,80.36,251.87s10.32,67.94,10.32,67.94s320.65-62.36,446.04-101.64
					c125.38-39.28,207.81-96.75,207.81-96.75s-110.84-382.1-141.98-474.95c-31.14-92.85-128.86-354.39-128.86-354.39
					s-266.3,63.57-399.26,96.05c-132.96,32.49-277.45,114.43-277.45,114.43S2183.47,1397.01,2228.91,1507.78z"/>
				<g>
					<path d="M2225.53,1515.46c11.8,33.8,22.68,65.83,33.94,99.63c9.11,27.33,18.08,54.71,26.64,82.21
						c6.46,20.73,13.05,41.55,17.92,62.73c3.88,16.87,6.78,34.09,9.08,51.24c0.64,4.81,1.23,9.64,1.6,14.48
						c0.05,0.63-0.02,1.47,0.15,2.09c-0.22-0.79-0.15-3.27-0.09-1.33c0.01,0.36,0.03,0.72,0.03,1.07
						c0.01,2.06,0.79,11.64,4.78,10.86c21.22-4.13,42.42-8.4,63.6-12.69c48.55-9.85,97.05-19.99,145.45-30.53
						c53.81-11.73,107.56-23.86,160.96-37.39c56.79-14.39,112.59-31.29,166.4-54.72c27.2-11.85,53.85-25.01,79.69-39.58
						c12.65-7.14,25.47-14.4,37.38-22.75c0.54-0.38,1.09-0.73,1.63-1.11c4.25-2.96,4.08-11.73,2.86-15.96
						c-9.95-34.28-19.95-68.55-29.98-102.81c-20.25-69.17-40.6-138.32-61.24-207.37c-16.4-54.87-32.42-109.96-50.6-164.28
						c-22.45-67.09-47.18-133.45-71.56-199.85c-18.94-51.58-38.01-103.11-57.23-154.59c-0.33-0.88-0.65-1.75-0.98-2.63
						c-0.33-0.89-1.93-3.53-3.38-3.18c-22.26,5.31-44.52,10.64-66.78,15.96c-49.91,11.94-99.81,23.9-149.71,35.9
						c-52.88,12.71-105.75,25.44-158.59,38.3c-30.24,7.36-60.22,15.2-89.72,25.2c-33.16,11.24-65.7,24.27-97.72,38.41
						c-25.49,11.26-50.66,23.23-75.49,35.87c-12.81,6.52-25.89,12.9-38.25,20.26c-0.57,0.34-1.15,0.64-1.72,0.97
						c-5.16,2.93-3.88,13.8-2.11,18.16c5.33,13.08,10.66,26.15,15.99,39.23c13.32,32.67,26.64,65.34,39.96,98.01
						c17.3,42.43,34.6,84.85,51.91,127.27c17.28,42.34,34.55,84.68,51.85,127.02c13.24,32.42,26.49,64.85,39.77,97.25
						C2223.16,1509.68,2224.35,1512.57,2225.53,1515.46c1.66,4.04,4.99,3.63,6.76,0c2.16-4.44,1.84-10.87,0-15.36
						c-12.49-30.46-24.94-60.93-37.39-91.41c-17.01-41.63-34-83.26-50.99-124.89c-17.53-42.95-35.05-85.91-52.56-128.87
						c-14.04-34.44-28.09-68.88-42.12-103.32c-6.53-16.02-12.39-32.56-19.67-48.26c-0.1-0.22-0.19-0.46-0.28-0.69
						c-0.7,6.05-1.41,12.1-2.11,18.16c30.55-17.31,62.26-32.79,94.13-47.47c61.52-28.35,124.83-52.62,190.71-68.69
						c51.59-12.58,103.21-25.02,154.84-37.44c51.33-12.35,102.66-24.66,154-36.95c18.12-4.34,36.23-8.67,54.35-13
						c5.68-1.36,11.36-2.71,17.03-4.07c2.89-0.69,6.48-0.99,9.2-2.2c0.35-0.16,0.8-0.19,1.18-0.28c-1.13-1.06-2.25-2.12-3.38-3.18
						c16.18,43.3,32.23,86.65,48.21,130.03c25.47,69.14,51.05,138.27,75.06,207.93c3.18,9.23,6.22,18.24,9.68,28.98
						c3.67,11.38,7.25,22.8,10.8,34.22c9.52,30.65,18.8,61.38,28.03,92.12c20.98,69.89,41.62,139.89,62.14,209.92
						c11.91,40.64,23.04,81.59,35.61,122.03c0.2,0.63,0.37,1.27,0.55,1.91c0.95-5.32,1.9-10.64,2.86-15.96
						c-29.69,20.67-62.6,37.48-95.26,52.83c-55.02,25.86-112.32,45.07-171.05,60.39c-52.34,13.65-105.09,25.69-157.91,37.33
						c-50.14,11.06-100.39,21.63-150.69,31.9c-17.18,3.51-34.36,6.98-51.56,10.4c-8.17,1.63-17,2.51-24.98,4.93
						c-0.36,0.11-0.76,0.15-1.13,0.22c1.59,3.62,3.19,7.24,4.78,10.86c-0.01-5.47-0.68-11.01-1.32-16.43
						c-2.06-17.49-5.28-34.84-8.68-52.11c-4.15-21.05-10.46-41.62-16.73-62.11c-16.25-53.08-34.05-105.69-52.03-158.21
						c-4.41-12.88-8.84-25.76-13.32-38.62c-1.47-4.22-5.07-3.47-6.76,0C2223.28,1504.73,2223.9,1510.77,2225.53,1515.46z"/>
				</g>
			</g>
			<g>
				<path d="M2633.44,955.68c18.05,72.07,36.11,144.16,56.94,215.48c21.05,72.08,45.11,143.15,73.91,212.52
					c8.09,19.48,16.45,38.85,24.95,58.16c4.19,9.51,8.41,19,12.65,28.48c2.25,5.04,4.51,10.07,6.77,15.11
					c1.06,2.37,2.13,4.74,3.19,7.1c0.4,0.89,0.8,1.78,1.2,2.66c0.38,0.82,0.74,1.64,1.09,2.46c0.57,1.5,0.57,0.87-0.01-1.9
					c0.57-1.6,1.14-3.2,1.7-4.8c-0.92,1.83-4.73,2.91-6.7,3.83c-4.17,1.94-8.35,3.86-12.54,5.76c-7.54,3.41-15.13,6.74-22.74,9.99
					c-15.51,6.62-31.17,12.91-46.95,18.86c-31.28,11.79-63.05,22.25-95.22,31.36c-64.89,18.38-131.36,31.11-198.44,38.1
					c-16.62,1.73-33.49,3.73-50.21,4.13c-2.86,0.07-4.75,0.15-5.96-2.5c-1.53-3.37-2.04-7.48-2.92-11.06
					c-2.05-8.34-3.89-16.72-5.67-25.12c-3.63-17.09-7.04-34.25-11.56-51.14c-4.53-16.93-10.38-33.4-16.83-49.69
					c-6.31-15.94-12.99-31.75-18.57-47.97c-5.56-16.14-9.44-32.75-12.84-49.46c-6.73-33.07-12.78-65.93-24.16-97.81
					c-20.94-58.64-53.89-113.37-66.41-174.86c-1.53-7.51-2.72-15.08-3.59-22.69c-1.54,4.46-3.08,8.92-4.62,13.39
					c33.82-9.52,67.65-19.03,101.48-28.53c70.73-19.86,141.48-39.7,212.24-59.47c39.56-11.05,79.12-22.09,118.69-33.07
					c8.57-2.38,5.96-23.55-4.27-20.71c-72.34,20.08-144.64,40.31-216.94,60.56c-60.04,16.82-120.06,33.68-180.09,50.55
					c-11.8,3.32-23.59,6.63-35.39,9.95c-5.04,1.42-5.05,9.63-4.62,13.39c5.64,49.23,25.9,94.96,45.69,139.86
					c10.05,22.81,20.07,45.68,28.11,69.29c8.43,24.77,13.3,50.37,18.31,76c5.27,26.9,11.79,53.2,21.55,78.86
					c9.45,24.85,20.59,49.14,27.73,74.81c7.33,26.35,11.71,53.39,18.23,79.93c2.81,11.42,5.22,27.7,19.67,29
					c5.79,0.52,11.95-0.47,17.73-0.9c7.03-0.52,14.06-1.1,21.09-1.74c105.35-9.64,209.5-33.46,308.6-70.47
					c24.71-9.23,49.1-19.28,73.14-30.14c10.42-4.71,25.43-8.36,27.35-21.5c1.06-7.3-2.32-13.76-5.21-20.18
					c-3.06-6.81-6.12-13.62-9.16-20.43c-22.74-50.87-44.91-102.02-64.21-154.3c-38.08-103.13-66.05-209.58-92.87-316.08
					c-3.28-13.04-6.55-26.09-9.82-39.13c-0.98-3.9-4.04-9.31-8.89-7.32C2633.48,944.17,2632.4,951.53,2633.44,955.68z"/>
			</g>
			<g>
				<path d="M2370.37,1035.79c13.72,75.99,34.34,150.47,55.13,224.77c10.36,37.02,20.78,74.03,30.47,111.23
					c4.85,18.63,9.51,37.31,13.88,56.06c4.25,18.26,7.56,36.78,12.13,54.97c10.26,40.87,28.51,79.16,45.05,117.74
					c1.67,3.91,6,7.07,9.78,3.63c3.78-3.43,4.07-10.4,2.18-14.82c-14.43-33.66-30.49-67.07-40.71-102.33
					c-5.05-17.45-8.14-35.41-12.13-53.11c-4.23-18.75-8.78-37.43-13.53-56.06c-19.02-74.5-41.35-148.12-60.6-222.56
					c-10.74-41.54-20.5-83.35-28.13-125.58c-0.72-3.99-4.22-9.24-8.89-7.32C2370.21,1024.36,2369.6,1031.55,2370.37,1035.79
					L2370.37,1035.79z"/>
			</g>
			<g>
				<path d="M2312.98,1379.05c51.27-16.53,104.85-21.04,157.68-30.12c55.13-9.48,108.86-25.36,161.61-43.76
					c30.01-10.47,59.74-21.72,89.45-33c8.44-3.2,5.53-24.43-4.27-20.7c-52.26,19.84-104.63,39.61-158.36,55.16
					c-26.85,7.77-54.02,14.44-81.52,19.43c-26.33,4.78-52.88,8.12-79.32,12.2c-30.28,4.68-60.35,10.68-89.54,20.1
					C2300.17,1361.09,2302.92,1382.29,2312.98,1379.05L2312.98,1379.05z"/>
			</g>
			<g>
				<path d="M2526.24,983.6c12.56,82.47,29.87,164.2,51.91,244.65c6.28,22.91,12.96,45.71,19.95,68.42
					c1.28,4.16,6.24,6.85,9.78,3.63c4.07-3.71,3.63-10.11,2.18-14.82c-24.2-78.55-43.77-158.55-58.75-239.36
					c-4.22-22.8-8.07-45.67-11.56-68.59c-0.61-4.02-4.29-9.21-8.89-7.32C2526,972.21,2525.59,979.33,2526.24,983.6L2526.24,983.6z"
					/>
			</g>
			<g>
				<path d="M2632.84,1362.54c-30.8,14.3-86.39,22.13-83.81,67.1c0.97,16.97,11.63,31,28.98,33.05c9.82,1.16,20.42,0,30.24-0.87
					c9.3-0.82,18.57-2.13,27.72-4c26.26-5.37,54.67-14.87,74.08-34.3c13.75-13.76,22-36.67,6.9-52.75
					c-7.38-7.86-18.51-10.69-28.82-12.08c-17.72-2.38-35.99,0.07-53.42,3.41c-5.03,0.97-6.93,6.26-6.82,10.96
					c0.08,3.32,2.35,11.57,7.34,10.61c14.61-2.81,29.56-4.81,44.48-4.18c9.16,0.39,17.26,1.59,25.62,5.96
					c1.63,0.85-0.74-0.65,0.99,0.64c0.58,0.44,1.17,0.86,1.73,1.33c0.53,0.45,1.01,0.94,1.52,1.41c1.29,1.17-0.98-1.27-0.31-0.36
					c0.24,0.32,0.52,0.62,0.74,0.96c0.25,0.39,1.51,2.54,0.66,0.92c-0.91-1.75,0.3,0.52,0.28,0.8c-0.12,1.75-0.93-2.25-0.06-0.16
					c0.1,0.23,0.14,0.67,0.17,0.9c0.23,1.91-0.4-2.95-0.13-1.03c0.08,0.58-0.15,1.32,0,1.87c-0.61-2.3,0.26-2.2-0.09-0.48
					c-0.5,2.52,0.88-1.97,0.01,0.1c-0.33,0.8-0.6,1.68-0.88,2.5c-0.12,0.35-0.3,0.67-0.44,1.01c-0.45,1.12,0.93-1.75,0.31-0.69
					c-0.44,0.76-0.84,1.55-1.3,2.3c-0.43,0.7-0.88,1.39-1.35,2.06c-0.34,0.49-2.32,3.01-0.97,1.38
					c-13.62,16.51-34.97,25.47-55.44,31.48c-15.22,4.47-30.98,6.95-46.78,8.14c-8.56,0.64-17.99,1.76-26.52,0.57
					c-5.67-0.79-10.7-3.75-13.18-8.19c0.79,1.41-1.08-3.03-0.76-1.93c0.4,1.35-0.34-1.76-0.31-1.59c-0.34-2.03-0.03,0.66-0.06-0.61
					c-0.02-0.84-0.06-1.68-0.01-2.53c-0.09,1.6,0.04,0.06,0.19-0.7c0.33-1.73,0.09-1.17,0.99-3.47c2.45-6.27,9.53-11.71,15.97-15.5
					c17.75-10.44,38.25-14.72,56.82-23.35C2645.35,1379.42,2642.2,1358.2,2632.84,1362.54L2632.84,1362.54z"/>
			</g>
			<g>
				<path d="M2586.53,1127.81c-4.45-4.42-10.4-2.71-15.84-1.77c-6.29,1.08-12.63,1.98-18.86,3.38
					c-12.11,2.72-21.67,9.66-23.62,22.64c-1.8,11.96,3.45,25.29,13.73,31.9c9.72,6.25,22.11,7.31,33.35,5.69
					c10.9-1.57,21.62-5.99,28.12-15.3c6.35-9.1,7.59-22.27,3.51-32.53c-4.64-11.65-15.25-16.18-27.27-14.66
					c-10.48,1.32-22,3.59-30.62,10.04c-5.06,3.79-9.2,9.59-10.21,15.92c-1.16,7.27,1.93,15.44,9.25,17.97
					c12.89,4.45,29.79,0.01,41.24-6.26c7.97-4.36,4.6-25.57-4.27-20.7c-5.83,3.19-11.99,5.5-18.6,6.34
					c-3.16,0.4-6.35,0.53-9.53,0.39c-1.62-0.07-3.63-0.71-5.18-0.49c-2.07,0.3-1.49-2.9,0,1.18c0.37,1.81,0.73,3.61,1.1,5.42
					c-0.01-0.44-0.02-0.88-0.03-1.33c-0.28,1.82-0.56,3.64-0.83,5.47c1.61-5.91,10.34-8.45,15.5-9.9c6.74-1.88,17.2-4.94,23.85-1.83
					c1.15,0.54,1.79,0.84,2.62,1.77c0.18,0.2,1.19,2.31,0.92,1.51c0.43,1.27,0.37,2.01-0.15,3.52c-2.09,6.08-9.43,9.35-15.26,10.94
					c-7.4,2.02-16.34,2.38-23.8,0.56c-4.44-1.09-13.93-4.66-13.65-10.7c-0.01,0.24-0.2,0.7-0.09,0.27c0.31-1.2,1.85-2.44,2.79-3.1
					c3-2.13,7.05-3.1,10.59-3.81c4.66-0.94,9.39-1.64,14.08-2.44c1.87-0.32,9.15-2.64,10.49-1.31c3.68,3.65,8.26-0.44,9.59-4.11
					C2591.21,1137.59,2590.27,1131.52,2586.53,1127.81L2586.53,1127.81z"/>
			</g>
			<g>
				<path d="M2506.64,1453.85c-4.45-4.42-10.4-2.71-15.84-1.77c-6.29,1.08-12.63,1.98-18.86,3.38
					c-12.11,2.72-21.67,9.66-23.62,22.64c-1.8,11.96,3.45,25.29,13.73,31.9c9.72,6.25,22.11,7.31,33.35,5.69
					c10.9-1.57,21.62-5.99,28.12-15.3c6.35-9.1,7.59-22.27,3.51-32.53c-4.64-11.65-15.25-16.18-27.27-14.66
					c-10.48,1.32-22,3.59-30.62,10.04c-5.06,3.79-9.2,9.59-10.21,15.92c-1.16,7.27,1.94,15.44,9.25,17.97
					c12.89,4.45,29.79,0.01,41.24-6.26c7.97-4.36,4.6-25.57-4.27-20.71c-5.83,3.19-11.99,5.5-18.6,6.34
					c-3.16,0.4-6.35,0.53-9.53,0.39c-1.62-0.07-3.63-0.71-5.18-0.49c-2.07,0.3-1.49-2.9,0,1.18c0.37,1.81,0.73,3.61,1.1,5.42
					c-0.01-0.44-0.02-0.88-0.03-1.33c-0.28,1.82-0.56,3.64-0.83,5.47c1.61-5.91,10.34-8.45,15.5-9.9c6.74-1.88,17.2-4.94,23.85-1.83
					c1.15,0.54,1.79,0.84,2.62,1.77c0.18,0.2,1.19,2.31,0.92,1.51c0.43,1.27,0.37,2.01-0.15,3.52c-2.09,6.08-9.43,9.35-15.26,10.94
					c-7.4,2.02-16.34,2.38-23.8,0.56c-4.44-1.09-13.93-4.66-13.65-10.7c-0.01,0.24-0.2,0.7-0.09,0.27c0.31-1.2,1.85-2.44,2.79-3.1
					c3-2.13,7.05-3.1,10.59-3.81c4.66-0.94,9.39-1.64,14.08-2.44c1.87-0.32,9.15-2.64,10.49-1.31c3.68,3.65,8.26-0.44,9.59-4.11
					C2511.32,1463.64,2510.38,1457.57,2506.64,1453.85L2506.64,1453.85z"/>
			</g>
		</g>
		<g id="arm_r_2_">
			<path class="st2" d="M2363.59,1280.79c-7.61-3.42-19.91-2.42-27.97-2.95c-0.82-0.05-1.64-0.08-2.46-0.13
				c3.27-1.92,6.29-4.18,8.95-6.89c11.76-12.02,23.59-52.72-0.44-58.18c-11.29-2.57-25-0.79-36.48-0.66
				c0.46-12.35-4.99-23.04-18.07-29.44c-19.34-9.45-45.95-19.4-67.69-20.27c-17.22-0.69-36.27,5.51-52.9,9.2
				c-23.75,5.28-47.56,10.98-70.73,18.45c-12.98,4.18-24.55,6.42-26.94,21.14c-3.33,20.57,1.19,43.76,3.75,64.16
				c2.17,17.3,3.45,35.72,7.69,52.69c3.16,12.67,7.41,24.1,8.61,37.43c1.07,11.97,1.51,23.92,7.74,34.57
				c4.95,8.46,11.95,12.99,19.37,18.94c9.03,7.25,13.99,16.01,18.61,26.5c6.91,15.7,12.67,33.76,25.83,45.54
				c17.28,15.46,43.71,22.43,66.3,25.43c5.3,0.71,3.49-12.43,2.69-14.75c-3.62-10.51-7.23-21.02-10.85-31.52
				c11.71-22.48,25.65-45.08,34.57-68.58c0.52-1.37,0.78-2.23,0.92-2.77c0.07,0.49,0.4,1.05,1.48,1.06
				c9.12,0.09,18.22,0.21,27.34-0.02c16.76-0.42,37.92,0.8,51.26-11.02c10.7-9.48,30.88-43.4,19.47-57.08
				C2368.91,1315.99,2383.75,1289.83,2363.59,1280.79z"/>
			<g>
				<path d="M2108.89,1222.43c-9.52-6.43-19.04-12.86-28.56-19.29c-3.76-2.54-5.62,5.47-5.88,7.59c-0.48,3.88-0.42,10.82,3.34,13.36
					c9.52,6.43,19.04,12.86,28.56,19.29c3.76,2.54,5.62-5.47,5.88-7.59C2112.71,1231.91,2112.65,1224.97,2108.89,1222.43
					L2108.89,1222.43z"/>
			</g>
			<g>
				<path d="M2175.16,1258.34c-2.33-10.31-4.65-20.61-6.98-30.92c-0.72-3.21-3.42-7.31-6.54-3.9c-3.18,3.48-2.65,10.72-1.71,14.86
					c2.32,10.31,4.65,20.61,6.98,30.92c0.72,3.21,3.42,7.31,6.54,3.9C2176.63,1269.73,2176.09,1262.48,2175.16,1258.34
					L2175.16,1258.34z"/>
			</g>
			<g>
				<path d="M2115.43,1318.49c2.2-2.29,3.31-6.94,4.51-9.76c2.67-6.31,5.37-12.6,8.2-18.83c6.67-14.71,13.61-30.01,23.63-42.79
					c2.81-3.59,6.64-7.67,10.23-8.5c3.51-0.81,7.21-1.05,10.79-1.4c13.5-1.32,27.06-2.05,40.61-2.75
					c33.6-1.73,67.28-2.95,100.92-3.03c9.57-0.03,19.19-0.08,28.72,0.89c0.47,0.05,0.93,0.16,1.39,0.26
					c-1.48-0.33-0.04-0.19,0.74,0.59c1.11,1.1-0.97-0.93,0.21,0.22c0.36,0.35,0.63,0.85,0.89,1.27c-1.07-1.7-0.01-0.06,0.04,0.34
					c0.23,1.71,0.06-1.78,0.04,0.19c-0.01,1.16,1.17,1.88,0.06,0.09c0.26,0.42,0.2,3.39,0.11,0.04c0.02,0.78,0,1.56,0.02,2.33
					c-0.07-2.89,0.01-0.29-0.06,0.36c-0.04,0.35-0.55,3.08-0.07,0.77c-0.18,0.86-0.4,1.72-0.64,2.57c-0.77,2.75,0.64-1.46-0.41,1.25
					c-0.45,1.16-0.95,2.33-1.54,3.43c-4.49,8.47-13.06,14.25-22.12,17.03c-12.82,3.93-26.67,5.44-39.96,6.72
					c-16.77,1.62-33.72,2.43-50.57,2.14c-6.63-0.11-6.83,21.61,0,21.73c15.17,0.26,30.41-0.42,45.52-1.69
					c12.61-1.06,25.24-2.6,37.6-5.34c10.92-2.42,20.69-6.05,28.62-14.2c12.46-12.82,17.04-35.56,10.36-52.21
					c-1.85-4.61-4.66-8.55-9.74-9.52c-3.62-0.69-7.46-0.67-11.13-0.78c-32.85-1.01-65.89,0.49-98.7,1.89
					c-16.4,0.7-32.81,1.5-49.18,2.72c-5.57,0.41-11.14,0.85-16.68,1.52c-3.72,0.45-7.69,0.81-10.98,2.73
					c-5.78,3.37-10.18,9.58-13.84,15.02c-5.15,7.67-9.57,15.86-13.73,24.1c-6.68,13.26-12.4,26.93-18.27,40.56
					c-0.29,0.68-0.66,1.35-0.9,2.05c-0.53,1.51,0.38-0.65,0.46-0.74c-3.23,3.36-2.8,10.76-1.71,14.86
					C2109.76,1317.89,2112.14,1321.92,2115.43,1318.49L2115.43,1318.49z"/>
			</g>
			<g>
				<path d="M2128.57,1357.7c10.54-18,23.27-36.97,39.41-50.37c3.84-3.18,8.06-6.22,12.81-7.86c0.71-0.25-0.55,0.13,0.81-0.22
					c0.63-0.16,1.27-0.32,1.91-0.46c1.67-0.37,3.35-0.66,5.03-0.93c9.14-1.43,18.43-1.96,27.66-2.38
					c24.95-1.13,49.97-0.85,74.93-0.14c20.72,0.59,41.56,1.28,62.19,3.44c2.98,0.31,5.94,0.71,8.9,1.21
					c0.41,0.07,0.82,0.17,1.22,0.27c0.32,0.08-1.2-0.74,0.5,0.27c0.27,0.16,1.05,0.32,0.6,0.34c-0.29-0.28-0.23-0.18,0.18,0.32
					c-0.51-0.61-0.78-1.31-0.82-2.13c-0.37-1.29-0.45-2.35-0.43-3.67c0.02-1.55-0.51,0.95,0.11-0.85
					c-1.77,5.12-5.47,11.78-9.86,16.97c-4.69,5.54-10.46,10.48-17.42,12.83c-5.89,1.99-4.75,23.41,2.54,20.95
					c13.52-4.57,24.36-18.67,30.02-31.24c4.25-9.42,8.82-31.66-5.09-35.42c-5.84-1.58-12.2-1.78-18.2-2.27
					c-10.76-0.88-21.55-1.46-32.33-1.93c-27.22-1.2-54.5-1.74-81.74-1.15c-11.36,0.25-22.74,0.65-34.05,1.77
					c-7.1,0.7-14.77,1.39-21.35,4.34c-14.42,6.46-25.73,21.34-34.95,33.63c-6.24,8.31-12.15,16.97-17.41,25.94
					c-2.57,4.38-3.01,9.97-1.71,14.86C2122.65,1356.13,2125.97,1362.15,2128.57,1357.7L2128.57,1357.7z"/>
			</g>
			<g>
				<path d="M2165.32,1405.63c14.86-13.31,30-26.36,45.56-38.84c8.05-6.45,16.47-13.98,25.87-18.43c2.45-1.16,4.67-1.51,8.35-2.05
					c5.07-0.74,10.2-1.16,15.31-1.51c25.45-1.72,51.53-2.09,76.95,0.32c3.74,0.35,7.62,0.67,11.25,1.68
					c0.82,0.23-0.72,0.01,0.47,0.16c0.06,0.01,1.18,0.51,1.14,0.6c-0.01,0.02-1.78-3.36-2.07-4.85c-0.03-0.58-0.05-1.16-0.08-1.74
					c-0.01,1.14,0.03,0.84,0.1-0.91c-0.13,0.51-0.43,2.83,0.02,0.46c-2.1,11-9.74,24.82-19.52,32.09
					c-5.53,4.12-11.98,5.06-18.67,5.88c-8.15,1-16.37,1.41-24.58,1.66c-10.92,0.33-21.88,0.36-32.8,0.02
					c-1.67-0.05-2.78,2-3.38,3.18c-8.4,16.62-16.8,33.25-25.19,49.87c-4.25,8.41-8.5,16.82-12.75,25.23
					c-2.49,4.94-3.57,10.23-2.09,15.81c0.91,3.42,2.33,6.79,3.48,10.13c3.55,10.32,7.1,20.63,10.65,30.95
					c1.13-6.18,2.25-12.36,3.38-18.54c-8.46-1.09-16.89-3.05-25.08-5.39c-14.1-4.03-29.81-9.97-40.29-20.65
					c-7.09-7.23-11.3-17.27-15.29-26.41c-4.12-9.45-7.66-19.16-12.91-28.07c-2.3-3.9-4.92-7.47-8.14-10.66
					c-3.98-3.95-8.73-6.69-13.11-10.16c-6.47-5.13-11.75-11.57-13.3-19.56c-1.57-8.09-1.61-19.75-2.88-29.1
					c-1.35-9.96-2.89-21.98-9.31-30.15c0.73,2.16,1.46,4.33,2.2,6.49c-3.47-20.68-6.46-41.47-8.87-62.31
					c-0.85-7.33-1.62-14.67-2.21-22.03c-0.15-1.85-0.27-3.7-0.41-5.55c-0.04-0.5-0.12-2.16,0.01,0.22
					c-0.05-0.86-0.09-1.72-0.13-2.58c-0.13-2.87-0.22-5.74-0.22-8.61c0-1.34,0.1-2.7,0.08-4.04c-0.02-1.05-0.3,2.45,0.07-0.61
					c0.1-0.81,0.27-1.64,0.33-2.46c-0.22,2.96-0.35,1.86-0.13,0.95c0.38-1.5-0.86,2.43-0.18,0.58c-0.17,0.47-1.51,1.3,0.07,0.47
					c1.52-0.8,2.94-1.69,4.51-2.4c10.3-4.7,21.48-7.71,32.35-10.75c15.22-4.26,30.57-8.04,45.98-11.56
					c13.71-3.13,27.47-6.1,41.32-8.51c7.48-1.3,14.99-2.88,22.55-1.6c16.68,2.81,33.33,7.98,49.11,13.97
					c7.09,2.69,14.52,5.56,20.77,9.94c0.36,0.25,0.71,0.52,1.07,0.78c0.19,0.14,2.13,1.61,1.02,0.81c0.27,0.19,0.61,0.63,0.78,0.93
					c0.33,0.57-0.24-1.43-0.32-0.47c-0.13,1.61,0.09,3.08-0.3,4.73c0.02-0.07-1.06,3.47-0.42,1.54c-0.15,0.47-0.36,0.93-0.57,1.38
					c-2.02,4.41-2.12,10.96,0,15.36c1.84,3.81,4.92,4.01,6.76,0c3.14-6.85,4.35-14.87,4.24-22.34c-0.11-7.44-1.09-16.07-6.86-21.36
					c-7.37-6.75-18.07-10.27-27.29-13.6c-12.02-4.34-24.34-8.02-36.76-11.01c-6.5-1.56-13.2-3.42-19.93-2.8
					c-19.07,1.76-38.14,6.6-56.75,10.89c-22.54,5.18-45.16,10.69-67.09,18.08c-5.72,1.93-12.65,3.76-17.47,7.59
					c-6.08,4.83-6.19,14.73-6.45,21.8c-0.8,22.09,2.62,44.64,5.54,66.48c1.96,14.63,4.02,29.28,6.55,43.82
					c0.57,3.26,2.03,5.77,3.38,8.28c1.47,2.73,2.11,5.96,2.73,9.07c1.52,7.63,2.11,15.46,2.72,23.21
					c1.18,14.73,3.28,29.23,13.91,40.4c6.12,6.42,14.43,10.28,20.26,16.86c4.93,5.56,8.06,12.24,10.98,19
					c6.56,15.22,12.2,33.06,24.26,44.96c16.57,16.34,41.78,23.23,64.14,27.12c1.64,0.29,3.29,0.56,4.94,0.77
					c2.79,0.36,4.07-5.07,4.37-6.68c0.75-4.05,0.35-7.99-0.99-11.87c-4.46-12.96-8.92-25.92-13.38-38.88c0,5.12,0,10.24,0,15.36
					c11.45-22.67,22.9-45.34,34.36-68.01c1.64-3.25,3.28-6.5,4.92-9.74c-1.13,1.06-2.25,2.12-3.38,3.18
					c10.13,0.32,20.29,0.3,30.42,0.05c7.91-0.2,15.82-0.55,23.69-1.36c6.31-0.65,13.08-1.34,18.99-3.82
					c13.72-5.75,23.05-22.64,27.89-35.89c2.72-7.45,4.67-15.4,3.8-23.39c-0.49-4.53-1.82-9.89-6.43-11.7
					c-8.73-3.43-19.8-2.99-28.99-3.37c-14.46-0.6-28.95-0.6-43.41-0.18c-11.87,0.35-23.97,0.68-35.69,2.7
					c-8.83,1.53-15.53,6.37-22.62,11.64c-20.03,14.89-38.93,31.46-57.5,48.11c-3.53,3.16-3.89,8.92-3.34,13.36
					C2159.65,1399.66,2161.92,1408.69,2165.32,1405.63L2165.32,1405.63z"/>
			</g>
		</g>
		<path id="pen_1_" d="M2739.69,1801.93c0,0-120.95-267.16-131.89-281.19c-10.93-14.04-36.57-41.69-44.16-36.5
			c-7.59,5.19,3.61,55.78,10.34,67.11c6.73,11.32,112.7,244.51,119.01,257.79S2736.44,1813.69,2739.69,1801.93z"/>
		<g id="arm_l_4_">
			<path class="st2" d="M3149.44,1916.83c-0.31-1.55-1.09-3.09-2.69-3.5c-23.31-5.97-46.62-11.93-69.94-17.9
				c-10.57-2.71-22.54-4.31-32.69-8.37c-0.42-0.17-0.71-0.27-0.91-0.32c-0.2-0.19-0.5-0.45-0.98-0.85
				c-3.94-3.18-7.38-7.35-10.95-10.94c-25.43-25.58-51.02-51.36-74.08-79.13c-14.77-17.79-26.55-37.78-39.96-56.56
				c-7.64-10.7-14.34-19.55-26.16-25.08c-48.87-22.85-94.09-63.12-149.14-68.05c-32.25-2.89-67.84-7.16-100.08-2.47
				c-25.44,3.7-21.6,38.71-7.67,53.14c15.71,16.28,38.38,17.84,60.32,19.78c-17.71,16.07-26.4,44.74-34.16,65.66
				c-4.29,11.58-7.91,21.33-4,33.5c4.31,13.44,11.9,26.65,19.66,38.68c0.34,17.22,7.06,35.92,14.68,47.2
				c0.16,3.34,0.47,6.68,0.82,9.87c1.83,16.64,4.01,37.93,21.85,43.57c11.03,3.49,22.73,5.39,34.1,7.36
				c8.29,1.44,5.69-0.79,10.26,3.95c32.32,33.47,66.53,69.82,108.33,91.37c28.01,14.44,62.18,13.85,92.86,12.2
				c15.23-0.82,32.26-6.33,45.2-1.65c37.3,13.5,74.61,26.99,111.91,40.49c1.12,0.41,1.58,0.13,2.4-0.71
				c12.85-13.26,21.09-32.26,26.88-49.42C3160.79,2012.87,3158.94,1963.61,3149.44,1916.83z M2709.48,1811.79
				c0.29-0.5,0.58-1.01,0.87-1.51c0.8-1.38,2.56-6.17,4.19-7.9c-0.27,0.8,3.4,1.15,4.39,1.53c2.92,1.15,6.02,2.04,9.15,2.87
				C2721.74,1808.13,2715.48,1809.76,2709.48,1811.79z"/>
			<g>
				<path d="M2754.98,1696.13c4.68-9.16,9.35-18.32,14.03-27.49c2.17-4.25,2.06-11.09,0-15.36c-1.91-3.96-4.8-3.85-6.76,0
					c-4.68,9.16-9.35,18.32-14.03,27.49c-2.17,4.25-2.06,11.09,0,15.36C2750.13,1700.09,2753.01,1699.98,2754.98,1696.13
					L2754.98,1696.13z"/>
			</g>
			<g>
				<path d="M2827.75,1766.49c-0.09,0.85-0.23,1.69-0.35,2.54c-0.36,2.56,0.19-0.66-0.21,1.24c-0.37,1.74-0.75,3.49-1.19,5.22
					c-2,7.9-4.93,15.56-8.85,22.72c-7.67,13.99-19.58,25.42-26.62,39.76c-5.56,11.31-5.46,25.38-7.32,37.64
					c-1.04,6.84-2.21,13.74-4.27,20.36c-2.09,6.7-4.65,12.95-5.3,20.15c-1.2,13.46,0.19,27.27,3.02,40.46
					c0.69,3.23,3.43,7.29,6.54,3.9c3.21-3.5,2.61-10.7,1.71-14.86c-0.17-0.81-0.64-3.56-0.12-0.54c-0.39-2.31-0.77-4.61-1.07-6.93
					c-0.79-5.99-1.31-11.84-0.8-16.87c0.26-2.57,0.47-3.76,1.25-5.84c1.28-3.39,2.55-6.77,3.53-10.27
					c2.11-7.56,3.43-15.36,4.62-23.11c1.01-6.6,1.81-13.23,2.71-19.85c0.17-1.26,0.35-2.52,0.53-3.78c0.08-0.54,0.15-1.09,0.26-1.62
					c-0.02,0.12-0.39,1.76-0.09,0.58c0.46-1.8-0.11-0.23,0.61-1.98c0.53-1.29,1.14-2.57,1.83-3.78
					c7.92-13.82,19.2-25.38,26.56-39.64c6.27-12.12,10.8-26.1,12.23-39.73c0.37-3.52,0.6-11.44-3.34-13.36
					C2829.63,1756.95,2828,1764.04,2827.75,1766.49L2827.75,1766.49z"/>
			</g>
			<g>
				<path d="M2700.28,1832.46c5.33-9.22,10.65-18.44,15.98-27.67c-0.8,0.49-1.61,0.99-2.41,1.48c8.39,2.36,16.8,4.64,25.23,6.83
					c5.83,1.51,11.67,3,17.55,4.28c3.31,0.72,6.95,1.93,10.28,0.9c5.42-1.68,4.72-22.18-1.27-21.34
					c-16.44,2.31-32.88,5.47-48.9,9.82c-9.48,2.57-20.04,5.27-28.24,10.92c-9.79,6.74-12.28,20.95-13.06,31.98
					c-1.41,19.91,3.18,40.69,15.48,56.71c2.96,3.85,5.79-1.09,6.54-3.9c1.16-4.39,1.22-11.03-1.71-14.86
					c-7.53-9.81-11.86-23.06-10.94-34.1c0.26-3.06,0.52-4.75,1.38-7.57c0.29-0.96,0.48-1.47,0.91-2.47
					c0.21-0.48,0.41-0.96,0.64-1.43c0.49-1.01,0.31-0.64,0.34-0.68c1.15-1.75,3.47-3.2,6.28-4.7c16.63-8.91,36.95-12.06,55.31-15.36
					c5.31-0.95,10.62-1.86,15.96-2.61c-0.42-7.11-0.85-14.22-1.27-21.34c1.51-0.47,0.5-0.14-0.27-0.34
					c-0.66-0.17-1.43-0.18-2.11-0.28c-2.06-0.32-4.11-0.78-6.15-1.23c-5.95-1.32-11.86-2.83-17.75-4.37
					c-8.1-2.11-16.18-4.3-24.24-6.57c-1.03,0.11-1.84,0.6-2.41,1.48c-5.33,9.22-10.65,18.44-15.98,27.67
					c-2.54,4.4-3.02,9.95-1.71,14.86C2694.35,1830.86,2697.7,1836.93,2700.28,1832.46L2700.28,1832.46z"/>
			</g>
			<g>
				<path d="M2718.62,1759.64c-0.76-13.12-1.52-26.25-2.27-39.37c-0.17-2.92-0.46-10.71-4.78-10.86c-4.04-0.15-4.92,8.47-4.78,10.86
					c0.76,13.12,1.52,26.25,2.27,39.37c0.17,2.92,0.46,10.71,4.78,10.86C2717.88,1770.65,2718.76,1762.04,2718.62,1759.64
					L2718.62,1759.64z"/>
			</g>
			<g>
				<path d="M2720.58,1700.85c-12.17,1.1-24.86,7.24-32.21,17.11c-7.63,10.25-12.86,22.75-18.02,34.36
					c-5.7,12.84-11.12,25.92-15.38,39.33c-3.91,12.31-1.78,23.28,3.43,34.9c5.39,12.03,11.9,24.09,19.31,35.02
					c2.78,4.1,5.85-1.31,6.54-3.9c1.23-4.63,1.06-10.77-1.71-14.86c-5.29-7.81-9.84-16.3-14.07-24.71c-1.3-2.59-2.56-5.21-3.73-7.87
					c-1.21-2.76-1.94-4.8-2.48-6.41c-0.88-2.61-0.2,0.5-0.24-0.8c0.06,2.03,0.16,4.02-0.29,4.94c0.7-1.46,0.9-3.45,1.39-5.01
					c0.13-0.42,0.92-2.81,0.71-2.19c-0.13,0.38,0.82-2.32,1.08-3.04c1.03-2.86,2.11-5.7,3.22-8.53c2.39-6.12,4.91-12.19,7.53-18.21
					c4.74-10.87,9.69-22.42,15.97-32c6.27-9.57,17.62-15.38,28.94-16.4C2727.56,1721.94,2726.95,1700.27,2720.58,1700.85
					L2720.58,1700.85z"/>
			</g>
			<g>
				<path d="M2768.51,1858.64c-11.72,0.29-23.45,1.03-35.11,2.22c-8.18,0.83-16.45,1.81-24.43,3.84c-5.56,1.41-11.1,2.97-14.4,8
					c-4.8,7.32-5.45,17.34-5.46,25.84c-0.02,9.78,1.31,19.54,3.34,29.09c1.55,7.3,3.54,14.9,7.09,21.5
					c2.89,5.38,6.55,7.43,12.26,9.22c14.36,4.49,29.47,6.97,44.32,9.28c-0.8-0.49-1.61-0.99-2.41-1.48
					c14.72,16.25,30.49,31.66,46.69,46.42c13.4,12.21,27.3,23.98,42.11,34.45c12.7,8.98,26.34,17.5,41.43,21.78
					c21.84,6.19,46.21,6.08,68.71,5.21c9.67-0.37,19.33-1.09,28.95-2.11c3.27-0.35,6.54-0.73,9.8-1.17
					c1.63-0.21,4.09-0.11,5.59-0.79c1.49-0.68-0.06-0.46,0.02-0.44c0.8,0.18,1.62,0.58,2.39,0.86c3.64,1.32,7.27,2.63,10.91,3.95
					c12.48,4.52,24.96,9.03,37.44,13.55c22.63,8.19,45.25,16.37,67.88,24.56c1.73,0.63,2.42,0.2,3.68-1.09
					c8.04-8.22,13.94-19.21,18.89-29.44c13.49-27.89,19.28-59.1,20.24-89.89c0.81-25.9-2.25-51.76-7.53-77.08
					c-0.5-2.37-1.67-4.75-4.13-5.38c-30.4-7.78-60.81-15.56-91.21-23.34c-4.39-1.12-8.78-2.25-13.17-3.37
					c0.8,0.49,1.61,0.99,2.41,1.48c-13.89-13.69-27.55-27.62-41.06-41.68c-19.9-20.71-40.83-41.56-57.3-65.19
					c-12.75-18.29-24.14-38.06-38.7-55.02c-2.17-2.53-4.48-5.03-7.05-7.16c-0.93-0.77-1.9-1.53-2.98-2.09
					c-0.89-0.46-3.81-1.52-2.17-0.86c-2.56-1.04-5.03-2.28-7.5-3.54c-23.16-11.86-45.69-24.99-68.56-37.39
					c-11.55-6.26-23.12-12.48-34.93-18.25c-7.04-3.43-14.21-7.06-21.99-8.4c-25.77-4.45-52.72-4.98-78.81-5.65
					c-12.7-0.33-25.53-0.63-38.21,0.41c-9.7,0.8-16.85,3.39-20.98,13.04c-6,14.02-3.34,32.6,6.07,44.52
					c12.51,15.85,35.52,19.43,54.24,22.47c8.95,1.45,17.99,2.43,27.06,2.86c2.23,0.1,4.51,0.27,6.75,0.2c1.76-0.06,2,0.11,0.84-0.31
					c6.57,2.33,12.93,5.64,19.32,8.42c21.49,9.36,42.97,18.73,64.46,28.09c1.53,0.67,3.06,1.33,4.59,2
					c6.71,2.92,8.53-18.34,2.54-20.95c-21.41-9.33-42.83-18.66-64.24-28c-7.93-3.45-15.97-7.93-24.22-10.55
					c-3.82-1.22-8.54-0.53-12.52-0.76c-11.08-0.65-22.13-2.07-33.01-4.25c-12.23-2.44-25.76-5.06-35.84-12.89
					c-2.96-2.3-5.6-5.16-7.46-8.43c-0.27-0.48-0.6-1.24-0.84-1.73c0.01,0.02-1.08-2.82-0.57-1.28c-0.23-0.71-0.41-1.44-0.58-2.17
					c-0.16-0.72-0.14-0.58,0.07,0.44c-0.08-0.57-0.15-1.13-0.2-1.7c-0.09,3.2-0.01-0.24,0.08-0.44c-1.17,2.53-0.09,0.21,0.14-0.28
					c-1.11,2.39,0.03-0.04,0.21-0.37c-1.02,1.92,0.15-0.27,0.3-0.51c0.79-1.27,0.2-0.4,0.04-0.13c0.35-0.57,0.75-1.12,1.18-1.64
					c0.48-0.57,1.53-1.36,2.79-2.15c0.44-0.28,0.96-0.44,1.44-0.63c-1.33,0.51-0.16,0.06,0.14-0.02c0.74-0.18,1.49-0.32,2.25-0.45
					c2.43-0.41,4.89-0.62,7.35-0.79c15.81-1.12,31.79-0.56,47.61,0.04c16.93,0.64,33.87,1.62,50.75,3.22
					c9.72,0.92,18.69,1.67,26.41,4.95c12.56,5.34,24.62,11.95,36.63,18.38c26.52,14.19,52.42,29.73,79.35,43.13
					c1.41,0.7,2.83,1.43,4.29,2.03c2.39,0.97,2.11,0.52,4.32,1.95c7.45,4.83,12.87,14.12,17.86,21.18
					c12.74,18.03,24.07,37.14,38.13,54.19c22.03,26.71,46.53,51.48,70.86,76.07c5.46,5.52,10.75,11.91,16.79,16.8
					c2.1,1.7,4.59,2.05,7.23,2.72c4.83,1.24,9.66,2.47,14.5,3.71c26.46,6.77,52.91,13.54,79.37,20.31c1.91,0.49,3.81,0.98,5.71,1.46
					c-1.38-1.79-2.75-3.59-4.13-5.38c7.38,35.36,9.1,72.6,0.84,106.68c-2.88,11.9-6.1,21.38-11.38,32.58
					c-3.7,7.84-6.12,12.22-11.23,19.43c-1.96,2.77-4.01,5.57-6.39,8c1.23-0.36,2.46-0.73,3.68-1.1
					c-31.6-11.43-63.19-22.86-94.79-34.29c-6.7-2.42-13.39-4.85-20.09-7.27c-3.06-1.11-4.92-1.89-8.16-1.42
					c-27.43,3.98-55.67,5.43-83.3,3c-13.57-1.19-26.87-3.08-39.27-8.9c-11.08-5.21-21.4-12.02-31.27-19.23
					c-20.5-14.98-39.46-32.13-57.53-49.93c-6.41-6.31-12.71-12.72-18.9-19.25c-2.39-2.52-5.39-7.14-8.77-8.28
					c-2.36-0.8-5.27-0.85-7.72-1.28c-5.57-0.96-11.14-1.98-16.68-3.12c-5.81-1.19-11.65-2.41-17.33-4.11
					c-1.8-0.54-3.63-1.12-5.34-1.9c-0.67-0.31-1.3-0.63-1.93-1c-0.93-0.54,0.43,0.73-0.55-0.53c-0.31-0.4-1.28-2.1-0.55-0.75
					c-0.51-0.94-0.94-1.93-1.36-2.91c-1.25-2.95-1.17-2.93-1.96-5.68c-1.79-6.22-2.57-10.21-3.31-16.14
					c-0.18-1.45-0.34-2.91-0.47-4.36c-0.06-0.72-0.12-1.44-0.17-2.16c0.11,1.81,0.01,0.01,0-0.3c-0.04-1.37-0.05-2.74-0.05-4.12
					c0-0.66,0.03-1.32,0.06-1.98c-0.12,2.48,0.08-0.58,0.12-0.88c0.07-0.59,0.15-1.18,0.24-1.77c-0.05,0.36-0.3,1.97-0.01,0.11
					c0.08-0.5,0.26-1.06,0.4-1.53c-0.09,0.29-0.56,1.66-0.02,0.1c0.49-1.39,0.65-1.57,2.03-2.36c8.39-4.78,19.78-5.31,29.16-6.35
					c10.65-1.17,21.36-1.87,32.06-2.31c1.93-0.08,3.87-0.15,5.81-0.2C2775.3,1880.2,2775.18,1858.48,2768.51,1858.64
					L2768.51,1858.64z"/>
			</g>
			<g>
				<path d="M2712.85,1924.24c9.52,17.57,24.43,33.44,41.98,43c6.11,3.33,8.44-17.74,2.54-20.95c-11.06-6.02-20.47-14.34-28.38-24.1
					c-2.61-3.22-5.07-6.57-7.33-10.04c-0.74-1.14-1.43-2.31-2.16-3.45c-1.07-1.69,0.8,1.48,0.1,0.18c-1.99-3.67-4.83-3.96-6.76,0
					C2710.88,1912.94,2710.65,1920.18,2712.85,1924.24L2712.85,1924.24z"/>
			</g>
		</g>
	</g>
	<g id="notebook_11_">
		<path d="M1637.31,2364.41c0,0-64.16,88.14,35.62,121.41s1123.7,232.5,1162.7,232.46c39-0.04,574.33-192.6,609.36-229.88
			c16.01-17.04,12.61-82.11-46.74-95.35c-61.25-13.67-495.83-106.24-679.11-143.65c-53.56-10.93-108.54-12.87-162.74-5.75
			L1637.31,2364.41z"/>
		<g>
			<path class="st2" d="M2903.34,2719.35c25.4-7.18,50.34-16.25,75.24-24.97c41.73-14.61,83.29-29.74,124.73-45.15
				c47.07-17.5,93.99-35.39,140.68-53.9c40.98-16.25,81.86-32.85,122.07-50.94c14.53-6.54,29-13.25,43.13-20.63
				c8.78-4.58,17.94-9.27,25.68-15.53c1.48-1.2,2.89-2.49,4.2-3.87c3.22-3.38,2.81-10.74,1.71-14.86c-0.87-3.27-3.26-7.35-6.54-3.9
				c-1.38,1.45,0.96-0.72-0.43,0.42c-0.66,0.54-1.29,1.11-1.96,1.63c-1.53,1.21-3.13,2.32-4.74,3.4c-4.23,2.82-8.65,5.36-13.1,7.82
				c-12.91,7.11-26.24,13.45-39.62,19.62c-38.43,17.71-77.62,33.76-116.89,49.49c-46.19,18.5-92.65,36.33-139.24,53.78
				c-42.6,15.95-85.33,31.58-128.22,46.74c-16.23,5.74-32.49,11.41-48.8,16.93c-6.36,2.15-12.74,4.28-19.13,6.36
				c-2.56,0.83-5.12,1.66-7.69,2.47c-1.11,0.35-2.22,0.7-3.33,1.04c-1.77,0.55-1.6,0.5-2.5,0.77c-1.75,0.53-3.5,1.05-5.26,1.54
				C2896.16,2699.66,2898.05,2720.85,2903.34,2719.35L2903.34,2719.35z"/>
		</g>
		<path d="M1716.76,2393.55l1144.91,199.62c47.96,0,68.71-38.88,46.34-86.84l-351.23-753.22c-22.36-47.96-79.37-86.84-127.33-86.84
			l-1104-96.49c-47.96,0-68.71,38.88-46.34,86.84l306.81,649.47c21.98,47.13,58.26,69.76,123.83,85.98
			C1712.06,2392.66,1714.42,2393.14,1716.76,2393.55z"/>
		<g>
			<path class="st2" d="M1709.75,2402.95c16.99,4.03,34.54,6.26,51.72,9.26c40.44,7.05,80.87,14.1,121.31,21.15
				c57.87,10.09,115.73,20.18,173.6,30.27c67.39,11.75,134.78,23.5,202.17,35.25c68.59,11.96,137.19,23.92,205.78,35.88
				c61.47,10.72,122.93,21.43,184.4,32.15c46.43,8.1,92.86,16.19,139.29,24.29c23.34,4.07,46.67,8.14,70.01,12.21
				c19.11,3.33,41.46-5.73,52.65-21.49c19.96-28.11,9.79-63.82-3.48-92.26c-24.82-53.22-49.64-106.44-74.45-159.67
				c-2.18-4.68-4.36-9.36-6.55-14.04c-1.83-3.93-4.88-3.72-6.76,0c-2.12,4.21-1.99,11.1,0,15.36
				c21.97,47.11,43.93,94.22,65.9,141.33c4.99,10.71,9.99,21.42,14.98,32.13c3.59,7.7,7.45,15.35,9.7,23.57
				c4.89,17.88,0.65,35.43-15.86,45.75c-9.3,5.81-22.14,9.37-33.13,8.13c-18.56-2.1-37.15-6.48-55.54-9.68
				c-42.61-7.43-85.22-14.86-127.83-22.29c-58.82-10.26-117.63-20.51-176.45-30.77c-67.12-11.7-134.25-23.41-201.37-35.11
				c-67.53-11.77-135.06-23.55-202.6-35.32c-60.19-10.5-120.39-20.99-180.58-31.49c-44.49-7.76-88.99-15.52-133.48-23.27
				c-21.37-3.73-42.75-7.44-64.12-11.18c-3.12-0.55-6.22-1.13-9.31-1.87C1704.24,2379.92,1702.51,2401.23,1709.75,2402.95
				L1709.75,2402.95z"/>
		</g>
		<g>
			<path class="st2" d="M2917.01,2526.45c38.59-9.27,77.05-19.13,115.37-29.49c28.4-7.68,56.76-15.61,84.77-24.61
				c10.63-3.42,21.25-6.97,31.62-11.11c6.03-2.41,12.77-4.85,17.88-8.98c6.65-5.38,7.31-17.79,2.08-24.42
				c-2.93-3.71-7.72-5.85-11.91-7.72c-16.91-7.55-35.19-12.38-52.99-17.29c-52.81-14.56-106.43-26.26-159.99-37.68
				c-22.92-4.89-45.86-9.64-68.82-14.28c-11.96-2.42-24.11-5.68-36.23-7.21c-0.58-0.07-1.16-0.23-1.73-0.34
				c-5.76-1.12-7.22,20.33,0,21.73c28.21,5.46,56.36,11.23,84.49,17.12c52.8,11.06,105.57,22.52,157.83,35.91
				c20.3,5.2,40.66,10.54,60.46,17.42c6.31,2.19,12.68,4.48,18.61,7.57c1.83,0.95,3.45,2.09,5.16,3.22c1.46,0.96-0.71-1.2,0.51,0.58
				c0.72,1.06-1-2.05-0.52-0.91c-1.44-3.42-1.62-7.91-0.6-11.8c0.21-0.78,0.98-2.5,1.34-3.09c-0.37,0.62-1.16,0.55,0.36-0.27
				c-0.9,0.49-1.72,1.37-2.6,1.94c-2.59,1.69-5.42,3.03-8.22,4.31c-8.6,3.92-17.56,7.09-26.5,10.14
				c-25.96,8.86-52.4,16.35-78.83,23.64c-42.88,11.84-85.99,22.88-129.23,33.35c-0.77,0.19-1.54,0.37-2.31,0.56
				C2909.83,2506.45,2911.46,2527.78,2917.01,2526.45L2917.01,2526.45z"/>
		</g>
		
			<ellipse transform="matrix(0.9093 -0.4162 0.4162 0.9093 -671.1287 1003.3862)" class="st2" cx="1965.82" cy="2041" rx="123.45" ry="162.97"/>
	</g>
	<g id="spots_2_">
		<g>
			<path d="M2756.87,467.22c-66.55-10.31-135.24-11.44-202.29-6.02c-37.22,3.01-74.69,8.18-110.81,17.85
				c-22.38,5.99-43.65,17.49-59.86,34.2c-31.13,32.09-41.68,78.69-34.1,122.03c7.4,42.28,33.22,81.46,72.35,100.43
				c20.56,9.97,44.15,13.44,66.81,11.55c35.97-3.01,71.6-10.84,107.36-15.65c36.04-4.85,72.76-7.93,109.01-3.46
				c17.19,2.12,34.12,6.24,50.3,12.45c8.63,3.31,17.02,7.22,25.11,11.68c3.91,2.16,7.71,4.46,11.43,6.92
				c4.15,2.74,8.26,6.68,12.84,8.59c11.79,4.93,25.39,7.37,37.93,9.48c10.36,1.74,20.9,2.65,31.41,2.2
				c17.77-0.77,35.1-5.56,49.71-15.86c27.98-19.73,36.94-56.67,34.45-89.18c-3.17-41.33-21.07-80.88-46.49-113.28
				c-29.77-37.95-70.09-67.19-115.57-83.36c-12.09-4.3-24.49-7.63-37.07-10.11c-6.63-1.3-10.41,4.27-11.37,10.33
				c-0.77,4.86,0.5,16.24,7.03,17.53c47.32,9.32,89.22,30.49,123.51,63.51c3.92,3.77,7.68,7.68,11.36,11.69
				c1.86,2.03-0.51-0.64,1.27,1.44c0.74,0.86,1.48,1.71,2.21,2.57c1.87,2.2,3.69,4.43,5.48,6.7c6.26,7.95,12.02,16.3,17.2,25
				c1.24,2.08,2.42,4.18,3.6,6.29c1.43,2.55-0.65-1.33,0.37,0.68c0.67,1.32,1.37,2.63,2.04,3.96c2.09,4.17,4.04,8.4,5.85,12.7
				c1.81,4.3,3.46,8.67,4.95,13.09c0.35,1.05,0.69,2.11,1.03,3.16c1.05,3.21-0.75-2.7,0.17,0.53c0.63,2.21,1.25,4.43,1.81,6.66
				c1.02,4.09,1.89,8.22,2.59,12.37c0.34,2.02,0.59,4.06,0.89,6.09c0.3,1.97-0.33-3.61-0.01-0.05c0.1,1.12,0.21,2.24,0.29,3.36
				c0.3,4,0.42,8.02,0.33,12.03c-0.02,0.95-0.06,1.9-0.1,2.85c-0.12,3.49,0.23-2.23,0.03-0.32c-0.2,1.95-0.36,3.91-0.62,5.85
				c-0.23,1.68-0.49,3.36-0.8,5.03c-0.16,0.88-0.35,1.75-0.53,2.63c-0.09,0.43-0.21,0.86-0.29,1.3c-0.5,2.54,0.99-3.35,0.23-0.89
				c-1.02,3.32-1.95,6.62-3.25,9.85c-0.32,0.79-0.66,1.57-0.99,2.35c-0.53,1.25-0.71,3.35,0.07-0.08c-0.35,1.55-1.73,3.33-2.53,4.69
				c-0.79,1.34-1.62,2.66-2.5,3.94c-0.47,0.68-0.95,1.36-1.44,2.02c-0.67,0.91-3,3.04-0.44,0.63c-2.42,2.27-4.42,4.94-6.93,7.15
				c-1.26,1.11-2.56,2.18-3.91,3.19c-0.68,0.51-1.38,0.99-2.06,1.5c1.99-1.48,0.23-0.16-0.74,0.44c-6.31,3.91-13.24,6.76-20.4,8.66
				c-0.75,0.2-3.25,0.77-1.09,0.3c-0.98,0.21-1.97,0.42-2.95,0.61c-2.17,0.41-4.35,0.74-6.53,1c-4.54,0.55-9.11,0.8-13.68,0.81
				c-5.01,0.01-10.03-0.27-15.02-0.78c-5.43-0.55-10.75-1.39-14.88-2.21c-5.8-1.17-11.55-2.58-17.25-4.19
				c-3.05-0.86-6.09-1.78-9.11-2.75c-3.96-1.27-6.99-3.98-10.45-6.28c-15.13-10.09-31.39-18.41-48.6-24.32
				c-33.1-11.37-68.54-14.2-103.32-12.63c-35.8,1.62-71.23,7.53-106.58,13.09c-28.28,4.45-57.73,11.19-86.43,6.81
				c-1.5-0.23-2.39-0.4-2.33-0.39c-1.27-0.25-2.54-0.52-3.81-0.81c-2.64-0.6-5.26-1.3-7.86-2.09c-4.75-1.44-9.4-3.2-13.92-5.25
				c-2.21-1-4.39-2.08-6.52-3.23c-1.06-0.57-2.11-1.16-3.15-1.76c-0.52-0.3-1.04-0.6-1.55-0.91c1.27,0.76,0.36,0.22-0.37-0.26
				c-4.08-2.69-8.04-5.52-11.78-8.67c-3.59-3.02-6.94-6.28-10.17-9.68c-0.4-0.42-0.79-0.86-1.18-1.29c1.69,1.85,0.57,0.65,0.23,0.24
				c-0.74-0.9-1.51-1.77-2.25-2.68c-1.66-2.03-3.24-4.11-4.77-6.25c-2.71-3.8-5.1-7.77-7.45-11.8c-0.96-1.64,1.03,2.08-0.51-0.97
				c-0.52-1.04-1.05-2.08-1.55-3.13c-1.07-2.23-2.08-4.49-3.02-6.78c-0.83-2.02-1.62-4.06-2.35-6.12c-0.39-1.1-0.76-2.2-1.13-3.31
				c-1.24-3.67,0.53,2.13-0.49-1.61c-1.24-4.5-2.31-9.03-3.12-13.63c-0.24-1.37-1.66-5.72-1.03-6.92c-0.04,0.07,0.36,3.79,0.14,1.21
				c-0.05-0.58-0.12-1.16-0.17-1.74c-0.12-1.31-0.21-2.61-0.29-3.92c-0.29-4.81-0.18-9.58-0.08-14.39c0.05-2.47-0.32,3.4,0.04-0.52
				c0.11-1.16,0.21-2.31,0.33-3.47c0.25-2.31,0.57-4.61,0.95-6.9c0.38-2.29,0.83-4.57,1.33-6.83c0.34-1.5,0.98-3.65,0.16-0.77
				c0.36-1.26,0.68-2.52,1.06-3.77c1.37-4.6,3.01-9.11,4.92-13.51c0.35-0.8,1.92-4.1,0.42-1.03c0.51-1.05,1.03-2.1,1.57-3.13
				c1.08-2.08,2.23-4.13,3.44-6.13c1.22-2.02,2.5-4,3.85-5.94c0.68-0.97,1.37-1.94,2.08-2.89c0.41-0.55,2.6-3.36,1.82-2.39
				c-0.87,1.08,1.38-1.62,1.67-1.96c0.79-0.91,1.6-1.81,2.43-2.69c1.77-1.9,3.6-3.74,5.5-5.51c8.47-7.89,14.57-12.04,24.59-17.13
				c10.99-5.59,22.63-9.26,34.58-12.12c17.13-4.11,34.52-7.19,51.95-9.67c68.94-9.82,139.69-10.55,208.98-3.95
				c13.21,1.26,26.39,2.84,39.5,4.87c6.66,1.03,9.2-10.07,9.09-14.61C2766.5,474.98,2763.66,468.27,2756.87,467.22L2756.87,467.22z"
				/>
		</g>
		<g>
			<path d="M4469.62,2105.08c-27.39,50.73-22.56,110.24-15.77,165.42c1.73,14.05,3.68,28.07,5.46,42.12
				c0.41,3.21,0.81,6.42,1.19,9.63c0.23,1.88,0.44,3.76,0.66,5.64c-0.05-0.47-0.34-3.14-0.05-0.44c0.12,1.12,0.25,2.25,0.37,3.37
				c0.71,6.68,1.34,13.36,1.84,20.06c0.98,13.29,1.44,26.65,0.85,39.97c-0.03,0.7-0.07,1.4-0.1,2.1c-0.14,3.49,0.22-2.41,0.02-0.18
				c-0.14,1.55-0.23,3.11-0.37,4.66c-0.29,3.24-0.65,6.48-1.1,9.71c-0.4,2.85-0.85,5.69-1.39,8.52c-0.31,1.65-0.65,3.29-1.01,4.93
				c-0.23,1.04-1.6,5.87-0.54,2.38c-1.74,5.72-3.34,11.4-5.59,16.96c-0.62,1.53-1.28,3.04-1.95,4.55c-0.27,0.6-0.55,1.2-0.83,1.8
				c1.16-2.45,0.38-0.77,0.1-0.27c-1.59,2.92-3.1,5.87-4.83,8.72c-1.49,2.44-3.07,4.83-4.74,7.15c-0.89,1.25-1.82,2.47-2.75,3.69
				c-1.35,1.75-0.37,0.48-0.08,0.12c-0.66,0.81-1.33,1.6-2.01,2.39c-4.36,5.04-9.13,9.7-14.23,13.99
				c-11.33,9.52-23.85,16.67-37.88,22.85c-6.69,2.95-11.55,7.79-17.28,12.24c-2.34,1.82-4.72,3.58-7.14,5.3
				c-2.72,1.93-2.61,1.86-6.02,4.05c-45.51,29.19-98.81,41.16-151.46,47.36c-62.46,7.35-125.7,6.5-188.43,3.97
				c-63.35-2.55-126.59-7.37-189.95-9.77c-52.99-2.01-107.25-3.37-159.67,6c-25.61,4.57-51.59,11.08-70.58,30.07
				c-22.67,22.68-31.64,55.43-27.23,86.79c2.16,15.32,8.31,30.48,17.45,42.97c9.64,13.18,22.73,23.16,36.22,32.13
				c30.36,20.19,64.16,34.73,98.9,45.51c36.04,11.19,73.42,18.56,110.97,22.22c38.46,3.75,77.42,4.26,114.3-8.85
				c20.8-7.39,40.22-18.33,60.86-26.24c20.64-7.91,41.8-14.44,63.24-19.81c42.4-10.63,85.91-16.48,129.36-20.74
				c44.07-4.32,88.29-6.93,132.42-10.63c11.21-0.94,22.41-1.95,33.61-3.07c10.6-1.06,21.46-1.73,31.95-3.63
				c12.68-2.29,25.3-5.6,37.62-9.34c43.2-13.11,83.61-34.96,117.73-64.6c31.65-27.5,57.6-61.54,77.04-98.62
				c19.83-37.82,33.44-78.48,41.89-120.3c8.18-40.46,11.37-82.09,10.06-123.34c-1.21-38.14-6.16-76.48-16-113.39
				c-8.46-31.74-20.18-63.08-38.09-90.78c-13.47-20.84-31.61-40.83-55.1-50.3c-21.88-8.82-45.91-5.73-66.21,5.69
				c-12.65,7.12-23.9,16.52-33.9,26.98c-4.83,5.05-5.55,13.45-2.9,19.76c2.06,4.9,8.21,9.89,13.04,4.84
				c5.22-5.45,10.73-10.62,16.65-15.3c1.26-1,2.54-1.97,3.84-2.93c0.67-0.49,1.35-0.97,2.03-1.45c2.49-1.78-1.22,0.73,0.48-0.33
				c2.73-1.7,5.42-3.42,8.25-4.94c5.04-2.7,10.32-4.95,15.8-6.58c1.29-0.38,2.59-0.68,3.89-1.04c-3.26,0.91,0.55-0.09,1.79-0.3
				c2.52-0.43,5.07-0.72,7.63-0.86c2.57-0.14,5.14-0.12,7.71,0.06c1.17,0.08,2.33,0.19,3.5,0.34c0.61,0.08,1.23,0.18,1.84,0.26
				c2.63,0.33-1.8-0.45-0.08-0.03c4.97,1.22,9.77,2.5,14.48,4.58c2.36,1.04,4.66,2.2,6.9,3.47c0.51,0.29,1,0.61,1.51,0.88
				c0.98,0.52-2.45-1.61-0.04-0.01c1.12,0.74,2.24,1.46,3.34,2.23c4.65,3.26,9,6.95,13.06,10.91c0.99,0.97,1.97,1.95,2.93,2.95
				c0.52,0.54,1.03,1.08,1.53,1.62c0.37,0.4,2.42,2.7,0.87,0.94c-1.53-1.74,0.33,0.39,0.69,0.81c0.44,0.52,0.89,1.04,1.32,1.56
				c1.11,1.33,2.2,2.68,3.26,4.04c4.02,5.16,7.73,10.56,11.17,16.12c1.82,2.94,3.56,5.92,5.24,8.94c0.29,0.52,1.84,3.35,0.64,1.14
				c-1.21-2.23,0.39,0.75,0.62,1.18c0.84,1.6,1.65,3.21,2.46,4.82c3.38,6.82,6.47,13.78,9.3,20.85c3,7.48,5.71,15.08,8.17,22.76
				c0.28,0.87,0.55,1.73,0.82,2.6c0.14,0.44,0.27,0.87,0.41,1.31c0.78,2.44-0.83-2.84-0.33-1.11c0.6,2.11,1.25,4.21,1.85,6.32
				c1.15,4.07,2.24,8.16,3.27,12.26c4.34,17.35,7.59,34.97,9.9,52.7c0.28,2.16,0.54,4.31,0.8,6.47c0.48,4.03-0.3-2.85,0.05,0.4
				c0.15,1.41,0.3,2.82,0.44,4.24c0.47,4.66,0.87,9.33,1.21,14.01c0.69,9.51,1.13,19.03,1.31,28.56c0.19,9.84,0.1,19.68-0.26,29.52
				c-0.08,2.31-0.18,4.62-0.3,6.93c-0.06,1.23-0.12,2.45-0.19,3.68c-0.03,0.55-0.06,1.09-0.09,1.64c-0.18,3.29,0.15-2.09,0.04-0.56
				c-0.36,4.92-0.71,9.84-1.18,14.76c-1.87,19.97-4.89,39.84-9.14,59.44c-0.53,2.45-1.08,4.89-1.65,7.32
				c-0.25,1.08-0.51,2.17-0.77,3.25c-0.34,1.43-1.21,4.86-0.33,1.4c-1.27,4.99-2.6,9.96-4.02,14.91
				c-2.81,9.76-5.95,19.43-9.44,28.97c-3.44,9.4-7.21,18.69-11.33,27.81c-1.03,2.28-2.09,4.55-3.15,6.81
				c1.2-2.54,0.16-0.35-0.4,0.81c-0.61,1.25-1.23,2.49-1.85,3.74c-2.24,4.47-4.57,8.89-7,13.27c-4.91,8.87-10.19,17.54-15.85,25.96
				c-2.87,4.27-5.84,8.48-8.9,12.62c-1.41,1.9-2.84,3.79-4.29,5.66c-0.77,0.99-1.54,1.98-2.32,2.96c-0.35,0.44-0.7,0.87-1.04,1.31
				c-1.47,1.86,1.4-1.67-0.25,0.31c-13.08,15.61-27.19,30.17-42.93,43.13c-4.11,3.38-8.31,6.66-12.59,9.82
				c-1.98,1.46-3.99,2.9-6.01,4.32c-0.48,0.33-0.96,0.67-1.43,1c0.02-0.01-2.35,1.61-1.06,0.73c0.64-0.43-2.25,1.5-2.9,1.93
				c-9.08,5.96-18.49,11.44-28.15,16.41c-20.36,10.47-41.86,18.67-63.94,24.74c-33.62,9.24-72,11-108.22,13.83
				c-86.51,6.76-173.88,10.99-258.08,33.68c-20.82,5.61-41.34,12.36-61.33,20.44c-20.44,8.26-39.75,19.31-60.91,25.71
				c-35.11,10.62-73.55,8.1-109.57,3.98c-36.46-4.17-72.56-12.03-107.37-23.68c-32.54-10.88-64.65-25.05-92.53-45.27
				c-6.3-4.57-12.57-9.35-18.03-14.91c-1.86-1.89-3.64-3.97-5.85-6.99c-1.04-1.43-2.04-2.89-2.99-4.38
				c-0.42-0.66-0.83-1.32-1.22-1.99c-0.21-0.35-1.81-3.25-1.21-2.1c-0.5-0.95-2.55-5.5-3.46-7.94c-0.27-0.71-0.52-1.42-0.77-2.13
				c-0.01-0.02-1.11-3.55-0.51-1.52c0.59,2.03-0.38-1.53-0.39-1.55c-0.23-0.91-0.44-1.82-0.64-2.73c-0.36-1.64-0.67-3.29-0.92-4.95
				c-0.11-0.74-0.2-1.48-0.31-2.21c0.51,3.22,0.12,1.24,0.08,0.49c-0.23-3.72-0.31-7.38-0.22-11.1c-0.08,3.26,0.05-0.38,0.2-1.69
				c0.19-1.65,0.42-3.3,0.71-4.93c0.28-1.64,0.63-3.26,0.99-4.88c-0.11,0.48-0.78,2.69-0.05,0.24c0.32-1.06,0.61-2.13,0.95-3.19
				c0.96-3,2.11-5.92,3.36-8.8c0.86-1.98-1.39,2.58,0.27-0.57c0.35-0.66,0.68-1.32,1.03-1.97c0.88-1.64,1.82-3.24,2.81-4.81
				c0.9-1.42,1.84-2.81,2.82-4.18c0.34-0.47,3-3.83,1.95-2.58c2.2-2.61,4.56-5.07,7.08-7.38c5.34-4.9,9.69-7.91,16.08-11.14
				c5.93-3,12.19-5.11,18.57-6.93c2.31-0.66,4.64-1.28,6.97-1.87c1.26-0.32,2.52-0.62,3.78-0.92c1.66-0.4-2.27,0.5,0.49-0.11
				c0.72-0.16,1.44-0.32,2.16-0.47c11.09-2.39,22.32-4.12,33.59-5.43c25.5-2.96,51.22-3.82,76.88-3.87
				c60.22-0.11,120.38,4.17,180.47,7.55c63.18,3.55,126.54,6.68,189.82,4.45c56.95-2.01,115.08-8.06,169.14-27.05
				c23.94-8.41,46.71-19.75,67.29-34.64c4.8-3.47,9.36-7.2,13.89-11.01c2.11-1.78,5.58-2.81,8.84-4.34
				c3.77-1.76,7.48-3.64,11.12-5.65c12.8-7.06,24.99-15.63,35.31-26.01c39.06-39.28,44.67-95.85,40.8-148.47
				c-2.07-28.14-6.32-56.06-9.84-84.03c-0.43-3.41-0.85-6.82-1.25-10.24c-0.09-0.76-0.18-1.51-0.27-2.27
				c-0.44-3.71,0.23,2.18-0.02-0.16c-0.2-1.89-0.41-3.77-0.61-5.66c-0.7-6.74-1.32-13.49-1.79-20.25
				c-0.94-13.33-1.35-26.71-0.74-40.06c0.06-1.39,0.29-4.8,0.06-1.51c0.11-1.59,0.23-3.18,0.37-4.77c0.26-2.98,0.58-5.95,0.96-8.92
				c0.81-6.2,1.97-12.32,3.33-18.42c0.15-0.66,0.67-2.54-0.13,0.46c0.18-0.66,0.34-1.33,0.52-1.99c0.4-1.49,0.83-2.97,1.27-4.44
				c0.84-2.78,1.76-5.53,2.77-8.26c1.06-2.88,2.22-5.73,3.48-8.54c0.28-0.62,0.57-1.25,0.85-1.87c-1.08,2.35-0.32,0.65-0.07,0.17
				c0.78-1.53,1.56-3.06,2.38-4.58c3.29-6.1,3.64-14.48-0.5-20.33C4479.49,2099.83,4472.74,2099.31,4469.62,2105.08L4469.62,2105.08
				z"/>
		</g>
		<g>
			<path d="M4427.16,1495.49c-21.44,50.24-45.59,99.4-63.59,151.05c-9.01,25.85-16.51,52.38-21.07,79.4
				c-3.88,22.98-2.55,46.03,4.4,68.29c12.62,40.41,45.11,73.9,85.85,86.13c27.69,8.31,59.65,11.62,86.82-0.31
				c29-12.73,46.55-41.05,56.3-70.04c6.87-20.44,10.7-41.9,12.87-63.31c2.62-25.88,3.73-52.02,3.42-78.03
				c-0.52-42.84-4.93-86.3-16.39-127.68c-7.99-28.83-18.96-58.82-38.24-82.19c-12.39-15.02-30.45-29.9-51.32-27.09
				c-22.63,3.05-38.49,22.67-48.72,41.55C4433.58,1480.44,4430.18,1487.91,4427.16,1495.49c-2.4,5.99-1.34,15.3,3.87,19.59
				c5.43,4.47,10.69-0.23,12.79-5.48c1.31-3.27,2.67-6.51,4.14-9.7c0.21-0.46,1.72-3.51,0.31-0.67c0.36-0.73,0.72-1.46,1.08-2.18
				c0.78-1.55,1.59-3.08,2.42-4.6c2.89-5.25,6.24-10.09,9.7-14.97c1.56-2.2-1.68,1.9,0.06-0.1c0.33-0.38,0.64-0.77,0.97-1.14
				c0.79-0.92,1.6-1.82,2.44-2.7c1.72-1.82,3.54-3.55,5.47-5.16c0.82-0.69,1.67-1.34,2.52-1.99c0.5-0.38,1.02-0.72,1.52-1.09
				c-0.18,0.13-2.17,1.24-0.69,0.49c1.92-0.97,3.69-2.17,5.68-3.05c1.71-0.76,3.46-1.29,5.22-1.88c2.51-0.84-1.92,0.18,0.66-0.15
				c1.06-0.14,2.1-0.33,3.17-0.43c1.76-0.15,3.53-0.17,5.29-0.06c0.88,0.06,1.77,0.25,2.65,0.28c1.95,0.05-2.29-0.63-0.4-0.09
				c0.52,0.15,1.06,0.23,1.59,0.36c3.92,0.97,7.48,2.63,11.05,4.48c2.52,1.31-1.53-1.17,0.83,0.51c0.85,0.61,1.74,1.18,2.58,1.8
				c1.95,1.43,3.82,2.98,5.62,4.61c1.74,1.59,3.39,3.26,5.01,4.97c2.24,2.36-1.13-1.42,0.99,1.13c0.99,1.19,1.97,2.37,2.92,3.59
				c3.6,4.62,6.85,9.51,9.82,14.56c0.76,1.29,1.48,2.62,2.24,3.91c1.14,1.95-0.05-0.11-0.23-0.44c0.44,0.83,0.88,1.66,1.31,2.49
				c1.63,3.17,3.18,6.39,4.65,9.64c3.04,6.73,5.74,13.62,8.18,20.59c1.25,3.57,2.42,7.17,3.54,10.79c-0.89-2.89,0.74,2.54,0.97,3.36
				c0.66,2.32,1.3,4.65,1.91,6.99c2.27,8.64,4.21,17.36,5.88,26.13c1.81,9.5,3.3,19.06,4.52,28.65c0.12,0.95,0.24,1.9,0.35,2.86
				c0.01,0.09,0.54,4.82,0.23,1.96c0.27,2.45,0.52,4.89,0.75,7.34c0.5,5.28,0.93,10.56,1.28,15.85c1.52,22.95,1.67,45.98,0.7,68.95
				c-0.91,21.52-2.68,43.92-7.02,65.76c-0.45,2.29-0.94,4.57-1.45,6.84c-0.3,1.33-0.61,2.65-0.93,3.97
				c0.55-2.25-0.13,0.51-0.28,1.05c-1.16,4.29-2.4,8.54-3.81,12.75c-1.26,3.73-2.63,7.43-4.14,11.07c-0.72,1.73-1.49,3.44-2.26,5.15
				c-1.5,3.32,1.18-2.19-0.49,0.99c-0.5,0.95-0.97,1.9-1.47,2.85c-1.61,3.02-3.34,5.97-5.2,8.84c-0.89,1.37-1.82,2.72-2.78,4.05
				c-0.56,0.78-1.15,1.55-1.72,2.32c-0.21,0.28-2.25,2.7-0.5,0.66c-4.09,4.8-8.53,9.23-13.55,13.05c-0.52,0.39-3.97,2.78-2.01,1.49
				c-1.19,0.78-2.4,1.53-3.64,2.25c-2.7,1.57-5.5,2.96-8.37,4.19c-2.62,1.12-5.31,2.09-8.03,2.92c-1.38,0.42-2.77,0.8-4.17,1.15
				c-2.79,0.7,1.93-0.37-0.91,0.2c-0.86,0.17-1.73,0.34-2.59,0.49c-13.13,2.31-26.65,1.75-39.77-0.31
				c-6.24-0.98-14.6-2.85-21.9-5.13c-8.89-2.78-17.64-6.55-25.58-11.45c-16.17-9.99-28.71-23.18-38.07-39.43
				c-1.71-2.97-3.25-6.13-5.06-10.43c-0.88-2.08-1.7-4.18-2.46-6.31c-0.3-0.85-0.58-1.71-0.88-2.57c-0.5-1.56-0.56-1.72-0.18-0.48
				c-0.26-0.87-0.5-1.74-0.74-2.62c-1.19-4.4-2.12-8.88-2.8-13.39c-0.14-0.91-0.26-1.82-0.38-2.73c0.39,3.09-0.11-1.44-0.13-1.69
				c-0.22-2.78-0.34-5.56-0.36-8.35c-0.02-2.34,0.03-4.69,0.15-7.03c-0.03,0.64-0.25,2.51,0.05-0.41c0.14-1.42,0.27-2.84,0.44-4.25
				c0.75-6.19,1.92-12.35,3.14-18.47c2.38-11.96,5.39-23.77,8.85-35.46c14.58-49.25,36.14-96.06,56.99-142.88
				c5.11-11.48,10.19-22.98,15.12-34.54c2.52-5.91,1.26-15.36-3.87-19.59C4434.44,1485.48,4429.36,1490.33,4427.16,1495.49
				L4427.16,1495.49z"/>
		</g>
		<g>
			<path d="M1218.36,1359.9c-54.82,4.85-106.63,25.55-150.9,57.99c-41.39,30.33-75.89,71-99.08,116.78
				c-22.14,43.7-35.53,93.16-31.94,142.43c3.47,47.66,22.68,92.74,58.22,125.28c19.04,17.44,42.01,30.62,66.03,39.9
				c24.77,9.58,53.07,18.32,79.82,13.47c25.95-4.71,47.43-20.05,58.15-44.47c14.3-32.58,5.17-71.25-9.1-102.11
				c-4.74-10.26-10.41-19.98-16.01-29.78c-0.4-0.7-0.8-1.41-1.19-2.12c-0.98-1.75,1.34,2.73-0.08-0.17c-0.59-1.2-1.22-2.37-1.8-3.57
				c-1.5-3.06-2.9-6.17-4.2-9.33c-1.26-3.06-2.44-6.16-3.52-9.29c-0.52-1.5-1-3.01-1.49-4.51c1.06,3.25-0.48-1.69-0.75-2.69
				c-1.81-6.68-2.79-13.39-4.04-20.18c-0.4-2.19,0.31,3.63,0.02,0.19c-0.06-0.69-0.13-1.38-0.18-2.07
				c-0.14-1.71-0.24-3.43-0.31-5.15c-0.12-3.22,0.03-6.41,0.06-9.63c0.02-2.15-0.46,3.64,0,0.35c0.09-0.65,0.12-1.32,0.2-1.97
				c0.18-1.62,0.41-3.24,0.68-4.86c0.22-1.27,0.53-2.53,0.74-3.8c0.53-3.24-0.94,2.85,0.05-0.27c0.29-0.91,0.52-1.83,0.81-2.74
				c0.38-1.2,0.8-2.39,1.25-3.56c0.26-0.67,2.36-5.26,0.83-2.2c1.4-2.79,3-5.4,4.75-7.99c0.35-0.51,0.74-1,1.11-1.5
				c-1.42,1.95-0.21,0.23,0.22-0.24c0.95-1.05,1.9-2.1,2.91-3.1c1.03-1.01,2.1-1.97,3.21-2.9c0.62-0.52,1.27-1.02,1.91-1.52
				c0.07-0.06,2.63-1.84,1.03-0.78c11.63-7.7,24.09-8.67,37.08-12.11c4.16-1.1,8.35-2.11,12.54-3.08c-2.62,0.61,1.38-0.31,1.89-0.42
				c1.14-0.26,2.27-0.51,3.41-0.76c2.64-0.58,5.27-1.16,7.91-1.73c23.75-5.14,47.57-10.09,71.06-16.35
				c22.24-5.93,44.78-12.77,65.1-23.78c18.13-9.82,34.69-23.57,39.4-44.54c5.48-24.4-8.08-46.87-24.05-64.04
				c-13.33-14.33-30.63-24.03-48.45-31.86c-19.76-8.68-40.83-14.19-62.24-16.79C1259.09,1355.86,1238.52,1356.41,1218.36,1359.9
				c-6.73,1.17-9.24,8.44-9.09,14.61c0.11,4.53,3.11,15.31,9.79,14.15c40.5-7.03,82.25-1.83,119.76,14.99
				c9,4.04,17.77,8.67,26.02,14.07c6.58,4.31,12.14,9.69,17.42,15.51c1.37,1.51-1.67-1.98,0.45,0.53c0.43,0.51,0.87,1.02,1.3,1.54
				c0.83,1,1.64,2.01,2.43,3.04c1.82,2.37,3.55,4.82,5.12,7.37c0.32,0.52,2.26,3.96,1.28,2.12c-0.99-1.84,0.72,1.5,0.97,2.04
				c0.41,0.9,0.8,1.8,1.16,2.72c0.22,0.55,0.4,1.12,0.62,1.68c1.1,2.71-0.45-2.08-0.2-0.77c0.19,0.98,0.52,1.93,0.72,2.91
				c0.16,0.75,0.49,4.24,0.3,1.25c-0.2-3.07,0,0.58,0.02,1.18c0.01,0.4-0.01,0.81,0.02,1.21c0.15,2.42-0.96-0.12,0.14-1.44
				c-0.31,0.37-0.24,2.16-0.32,2.63c-0.61,3.73-0.34-0.27,0.2-0.32c-0.06,0.01-1.74,4.78-1.87,5.22c-0.45,1.46,1.7-2.95,0.5-1.09
				c-0.21,0.33-0.36,0.71-0.57,1.05c-0.48,0.77-0.92,1.56-1.41,2.32c-0.51,0.77-1.07,1.5-1.59,2.27c-1.7,2.47,1.57-1.55-0.53,0.64
				c-2.99,3.12-6,6.07-9.43,8.71c-0.76,0.59-1.54,1.16-2.32,1.72c-0.4,0.29-0.8,0.56-1.2,0.85c-2,1.42,1.39-0.9,0.06-0.04
				c-2.06,1.32-4.13,2.61-6.26,3.83c-4.54,2.6-9.24,4.93-14.01,7.08c-10.25,4.62-20.87,8.42-31.59,11.81
				c-11.41,3.61-22.97,6.73-34.59,9.6c-11.79,2.92-20.43,4.84-32.77,7.52c-10.27,2.23-20.56,4.39-30.82,6.68
				c-4.99,1.11-9.97,2.25-14.93,3.46c-1.9,0.47-3.8,0.94-5.7,1.44c-0.89,0.23-1.77,0.48-2.65,0.71c-0.38,0.1-0.75,0.24-1.13,0.32
				c-2.05,0.44,2.81-0.42-1.25,0.08c-28.63,3.54-52.29,21.28-60.78,49.27c-8.44,27.83-4.24,57.89,5.02,84.95
				c4.75,13.89,11.72,26.38,18.95,39.1c5.07,8.92,9.49,18.23,13.17,27.8c0.74,1.93,1.46,3.88,2.13,5.84
				c0.41,1.19,0.8,2.38,1.19,3.57c0.84,2.63-0.79-2.98,0.44,1.49c1.15,4.2,2.19,8.42,2.96,12.71c0.34,1.9,0.62,3.81,0.89,5.72
				c-0.44-3.12,0.12,1.39,0.19,2.31c0.27,3.85,0.27,7.68,0.11,11.53c0.16-3.88-0.18,1.17-0.3,2.1c-0.2,1.55-0.45,3.1-0.74,4.64
				c-0.24,1.26-1.13,4.41-0.27,1.47c-0.51,1.73-1,3.44-1.61,5.14c-0.48,1.35-1.09,2.65-1.58,3.99c-0.76,2.11,0.03,0,0.23-0.39
				c-0.35,0.69-0.69,1.38-1.06,2.06c-1.37,2.55-2.95,4.92-4.61,7.29c-0.34,0.49-0.72,0.95-1.08,1.42c1.56-2.02,0.31-0.38-0.13,0.1
				c-0.9,0.98-1.78,1.97-2.72,2.91c-1.97,1.98-4.08,3.81-6.29,5.51c-0.49,0.37-3.61,2.5-1.74,1.29c-1.11,0.72-2.24,1.41-3.39,2.07
				c-2.45,1.39-4.98,2.64-7.57,3.73c-2.49,1.05-5.04,1.96-7.62,2.73c-3.96,1.19-3.66,1.09-7.29,1.71
				c-5.53,0.94-11.16,1.34-16.77,1.23c-2.86-0.06-5.72-0.24-8.56-0.55c-3.98-0.44-4.89-0.62-7.95-1.28
				c-13.97-3.03-27.77-7.13-41.1-12.32c-5.96-2.32-11.83-4.87-17.58-7.67c-2.77-1.35-5.5-2.75-8.21-4.22
				c-1.48-0.8-2.94-1.61-4.4-2.45c-0.69-0.39-4.07-2.4-2.83-1.64c-9.94-6.05-19.34-13.08-27.92-20.94c-2-1.83-3.95-3.71-5.86-5.63
				c-0.84-0.85-1.67-1.7-2.49-2.56c-0.51-0.54-1.02-1.08-1.52-1.62c-0.22-0.24-2.19-2.42-1.1-1.19c0.91,1.03-1.49-1.73-1.9-2.22
				c-0.75-0.89-1.49-1.79-2.23-2.7c-1.82-2.25-3.57-4.55-5.26-6.9c-3.09-4.29-5.97-8.73-8.62-13.3c-0.64-1.1-1.25-2.22-1.88-3.33
				c1.79,3.16-0.25-0.5-0.63-1.25c-1.22-2.39-2.38-4.8-3.48-7.25c-2.13-4.75-4.04-9.6-5.72-14.53c-0.41-1.2-0.78-2.41-1.18-3.61
				c-0.75-2.2,0.22,0.74,0.29,0.99c-0.2-0.68-0.4-1.35-0.59-2.03c-0.74-2.58-1.41-5.17-2.03-7.78c-1.24-5.25-2.24-10.55-3.02-15.89
				c-0.16-1.13-0.31-2.26-0.46-3.39c-0.54-4.02,0.21,2.56-0.1-0.88c-0.25-2.72-0.49-5.44-0.66-8.17c-0.33-5.5-0.43-11.02-0.32-16.54
				c0.05-2.49,0.16-4.98,0.28-7.47c0.16-3.46-0.27,3.07,0.07-1.02c0.13-1.47,0.24-2.95,0.38-4.42c1.07-11.08,2.93-22.09,5.5-32.93
				c0.18-0.74,0.37-1.48,0.54-2.23c0.45-1.97-0.9,3.34-0.08,0.34c0.33-1.19,0.62-2.38,0.95-3.56c0.82-2.98,1.68-5.95,2.6-8.9
				c1.71-5.52,3.6-10.98,5.65-16.38c2.08-5.47,4.32-10.88,6.71-16.22c0.52-1.16,1.06-2.32,1.59-3.48c0.05-0.1,1.39-2.96,0.52-1.13
				c-0.87,1.83,0.5-1.02,0.55-1.12c1.34-2.74,2.72-5.47,4.13-8.17c5.59-10.66,11.8-21,18.57-30.97c3.43-5.05,7-10,10.7-14.85
				c0.91-1.19,1.82-2.36,2.74-3.54c0.4-0.51,3.04-3.8,1.57-1.98c1.99-2.46,4.03-4.88,6.09-7.28c8.22-9.53,16.98-18.59,26.24-27.11
				c19.12-17.59,37.7-31.01,59.89-43.09c22.65-12.33,46.97-21.8,72.11-27.62c-0.74,0.17,2-0.44,2.71-0.59
				c1.75-0.37,3.5-0.73,5.25-1.07c3.17-0.61,6.35-1.17,9.54-1.68c6.45-1.02,12.94-1.8,19.44-2.37c6.78-0.6,9.23-8.86,9.09-14.61
				C1228.03,1369.05,1225.13,1359.3,1218.36,1359.9L1218.36,1359.9z"/>
		</g>
	</g>
</g>
</svg>
