<?xml version="1.0" encoding="utf-8"?>
<!-- Generator: Adobe Illustrator 26.5.0, SVG Export Plug-In . SVG Version: 6.00 Build 0)  -->
<svg version="1.1" id="Layer_1" xmlns="http://www.w3.org/2000/svg" xmlns:xlink="http://www.w3.org/1999/xlink" x="0px" y="0px"
	 viewBox="0 0 5200 2053.98" style="enable-background:new 0 0 5200 2053.98;" xml:space="preserve">
<style type="text/css">
	.st0{fill:#F8EFE5;}
</style>
<polygon class="st0" points="1729.27,772.17 2031.9,542.3 2656.04,1424.56 2353.4,1654.42 "/>
<g>
	<path d="M2653.85,1405.11c-34.22,25.99-68.42,51.97-102.63,77.96c-54.2,41.16-108.39,82.33-162.61,123.51
		c-12.48,9.47-24.94,18.94-37.42,28.41c2.23,0.69,4.45,1.38,6.68,2.06c-20.74-29.3-41.46-58.63-62.2-87.93
		c-49.76-70.37-99.55-140.73-149.31-211.1c-60-84.82-119.98-169.61-179.97-254.43c-51.87-73.32-103.75-146.66-155.62-219.98
		c-17.13-24.2-34.24-48.41-51.37-72.61c-8.14-11.52-15.86-23.64-24.57-34.73c-0.37-0.49-0.7-1.01-1.07-1.5
		c-0.68,12.43-1.39,24.85-2.07,37.28c34.22-25.98,68.42-51.97,102.63-77.96c54.2-41.16,108.39-82.33,162.61-123.51
		c12.48-9.47,24.94-18.94,37.42-28.41c-2.23-0.69-4.45-1.38-6.68-2.06c20.74,29.3,41.46,58.63,62.2,87.93
		c49.76,70.37,99.55,140.73,149.31,211.1c60,84.82,119.98,169.61,179.97,254.43c51.87,73.32,103.75,146.66,155.62,219.98
		c25.21,35.64,49.12,72.96,75.93,107.34c0.37,0.49,0.7,1.01,1.07,1.5c5.23,7.41,10.55-2.21,11.85-7.33
		c2.15-8.42,2.11-20.54-3.11-27.91c-20.74-29.3-41.46-58.63-62.2-87.93c-49.76-70.37-99.55-140.73-149.31-211.1
		c-60-84.82-119.98-169.61-179.97-254.43c-51.87-73.32-103.75-146.66-155.62-219.98c-25.21-35.64-49.12-72.96-75.93-107.34
		c-0.37-0.49-0.7-1.01-1.07-1.5c-1.41-1.98-4.36-3.82-6.68-2.06c-34.22,25.98-68.42,51.97-102.63,77.96
		c-54.2,41.16-108.39,82.33-162.61,123.51c-12.48,9.47-24.94,18.94-37.42,28.41c-9.18,6.96-8.24,28.58-2.07,37.3
		c20.74,29.3,41.46,58.63,62.2,87.93c49.76,70.37,99.55,140.73,149.31,211.1c60,84.82,119.98,169.61,179.97,254.43
		c51.87,73.32,103.75,146.66,155.62,219.98c25.21,35.64,49.12,72.96,75.93,107.34c0.37,0.49,0.7,1.01,1.07,1.5
		c1.41,1.98,4.36,3.82,6.68,2.06c34.22-25.98,68.42-51.97,102.63-77.96c54.2-41.16,108.39-82.33,162.61-123.51
		c12.48-9.47,24.94-18.94,37.42-28.41c6.72-5.1,6.97-17.38,6.05-25.09C2664.07,1415.71,2660.51,1400.08,2653.85,1405.11z"/>
</g>
<g>
	<path d="M1826.34,925.82c34.22-25.98,68.42-51.97,102.63-77.96c54.2-41.16,108.39-82.33,162.61-123.51
		c12.48-9.47,24.94-18.94,37.42-28.41c6.72-5.1,6.97-17.38,6.05-25.09c-0.43-3.66-4-19.31-10.66-14.25
		c-34.22,25.98-68.42,51.97-102.63,77.96c-54.2,41.16-108.39,82.33-162.61,123.51c-12.48,9.47-24.94,18.94-37.42,28.41
		c-6.72,5.1-6.97,17.38-6.05,25.09C1816.13,915.24,1819.7,930.86,1826.34,925.82L1826.34,925.82z"/>
</g>
<g>
	<path d="M1932.49,1075.88c34.22-25.99,68.42-51.97,102.63-77.96c54.2-41.16,108.39-82.33,162.61-123.51
		c12.48-9.47,24.94-18.94,37.42-28.41c6.72-5.1,6.97-17.38,6.05-25.09c-0.43-3.66-4-19.31-10.66-14.25
		c-34.22,25.98-68.42,51.97-102.63,77.96c-54.2,41.16-108.39,82.33-162.61,123.51c-12.48,9.47-24.94,18.94-37.42,28.41
		c-6.72,5.1-6.97,17.38-6.05,25.09C1922.28,1065.29,1925.85,1080.92,1932.49,1075.88L1932.49,1075.88z"/>
</g>
<g>
	<path d="M2038.64,1225.94c34.22-25.99,68.42-51.97,102.63-77.96c54.2-41.16,108.39-82.33,162.61-123.51
		c12.48-9.47,24.94-18.94,37.42-28.41c6.72-5.1,6.97-17.38,6.05-25.09c-0.43-3.66-4-19.31-10.66-14.25
		c-34.22,25.98-68.42,51.97-102.63,77.96c-54.2,41.16-108.39,82.33-162.61,123.51c-12.48,9.47-24.94,18.94-37.42,28.41
		c-6.72,5.1-6.97,17.38-6.05,25.09C2028.43,1215.35,2032,1230.98,2038.64,1225.94L2038.64,1225.94z"/>
</g>
<g>
	<path d="M2144.79,1376.01c34.22-25.99,68.42-51.97,102.63-77.96c54.2-41.16,108.39-82.33,162.61-123.51
		c12.48-9.47,24.94-18.94,37.42-28.41c6.72-5.1,6.97-17.38,6.05-25.09c-0.43-3.66-4-19.31-10.66-14.25
		c-34.22,25.98-68.42,51.97-102.63,77.96c-54.2,41.16-108.39,82.33-162.61,123.51c-12.48,9.47-24.94,18.94-37.42,28.41
		c-6.72,5.1-6.97,17.38-6.05,25.09C2134.57,1365.4,2138.15,1381.05,2144.79,1376.01L2144.79,1376.01z"/>
</g>
<g>
	<path d="M2250.94,1526.06c34.22-25.99,68.42-51.97,102.63-77.96c54.2-41.16,108.39-82.33,162.61-123.51
		c12.48-9.47,24.94-18.94,37.42-28.41c6.72-5.1,6.97-17.38,6.05-25.09c-0.43-3.66-4-19.31-10.66-14.25
		c-34.22,25.98-68.42,51.97-102.63,77.96c-54.2,41.16-108.39,82.33-162.61,123.51c-12.48,9.47-24.94,18.94-37.42,28.41
		c-6.72,5.1-6.97,17.38-6.05,25.09C2240.72,1515.46,2244.3,1531.11,2250.94,1526.06L2250.94,1526.06z"/>
</g>
<polygon class="st0" points="2312.34,1561.09 2399.65,470.87 2773.61,503.03 2686.31,1593.23 "/>
<g>
	<path d="M2686.25,1572.98c-42.26-3.64-84.53-7.27-126.81-10.91c-66.97-5.77-133.94-11.52-200.91-17.28
		c-15.41-1.32-30.82-2.65-46.23-3.97c2.79,8.6,5.57,17.22,8.36,25.82c2.91-36.23,5.8-72.43,8.71-108.64
		c6.97-86.94,13.93-173.88,20.9-260.82c8.4-104.79,16.78-209.58,25.17-314.37c7.27-90.6,14.51-181.23,21.78-271.83
		c2.4-29.91,4.78-59.82,7.19-89.73c1.13-14.17,3.28-28.68,3.44-42.9c0-0.61,0.1-1.25,0.16-1.86c-2.79,5-5.57,9.98-8.36,14.98
		c42.26,3.64,84.53,7.27,126.81,10.91c66.97,5.77,133.94,11.52,200.91,17.28c15.41,1.32,30.82,2.65,46.23,3.97
		c-2.79-8.6-5.57-17.22-8.36-25.82c-2.91,36.21-5.8,72.43-8.71,108.64c-6.97,86.94-13.93,173.88-20.9,260.82
		c-8.4,104.79-16.78,209.58-25.17,314.37c-7.27,90.6-14.51,181.23-21.78,271.83c-3.54,44.2-7.32,88.4-10.62,132.64
		c-0.04,0.63-0.1,1.23-0.16,1.86c-0.53,6.66-1.19,21.43,6.05,25.09c7.19,3.62,10.29-9.61,10.66-14.25
		c2.91-36.21,5.8-72.43,8.71-108.64c6.97-86.94,13.93-173.88,20.9-260.82c8.4-104.79,16.78-209.58,25.17-314.37
		c7.27-90.6,14.51-181.23,21.78-271.83c3.54-44.2,7.32-88.4,10.62-132.64c0.04-0.63,0.1-1.23,0.16-1.86
		c0.47-5.87,1-25.01-8.36-25.82c-42.26-3.64-84.53-7.27-126.81-10.91c-66.97-5.77-133.94-11.52-200.91-17.28
		c-15.41-1.32-30.82-2.65-46.23-3.97c-5.66-0.49-8.05,11.23-8.36,14.98c-2.91,36.23-5.8,72.43-8.71,108.64
		c-6.97,86.94-13.93,173.88-20.9,260.82c-8.4,104.79-16.78,209.58-25.17,314.37c-7.27,90.6-14.51,181.23-21.78,271.83
		c-3.54,44.2-7.32,88.4-10.62,132.64c-0.04,0.63-0.1,1.23-0.16,1.86c-0.47,5.87-1,25.01,8.36,25.82
		c42.26,3.64,84.53,7.27,126.81,10.91c66.97,5.77,133.94,11.51,200.91,17.28c15.41,1.32,30.82,2.65,46.23,3.97
		C2697.76,1614.78,2698.99,1574.08,2686.25,1572.98z"/>
</g>
<g>
	<path d="M2386.38,656.76c42.26,3.64,84.53,7.27,126.81,10.91c66.97,5.77,133.94,11.52,200.91,17.28
		c15.41,1.32,30.82,2.65,46.23,3.97c11.5,0.99,12.73-39.71,0-40.8c-42.26-3.64-84.53-7.27-126.81-10.91
		c-66.97-5.77-133.94-11.52-200.91-17.28c-15.41-1.32-30.82-2.65-46.23-3.97C2374.88,614.97,2373.65,655.67,2386.38,656.76
		L2386.38,656.76z"/>
</g>
<g>
	<path d="M2371.52,842.18c42.26,3.64,84.53,7.27,126.81,10.91c66.97,5.77,133.94,11.52,200.91,17.28
		c15.41,1.32,30.82,2.65,46.23,3.97c11.5,0.99,12.73-39.71,0-40.8c-42.26-3.64-84.53-7.27-126.81-10.91
		c-66.97-5.77-133.94-11.52-200.91-17.28c-15.41-1.32-30.82-2.65-46.23-3.97C2360.04,800.39,2358.79,841.08,2371.52,842.18
		L2371.52,842.18z"/>
</g>
<g>
	<path d="M2356.68,1027.6c42.26,3.64,84.53,7.27,126.81,10.91c66.97,5.77,133.94,11.52,200.91,17.28
		c15.41,1.32,30.82,2.65,46.23,3.97c11.5,0.99,12.73-39.71,0-40.8c-42.26-3.64-84.53-7.27-126.81-10.91
		c-66.97-5.77-133.94-11.52-200.91-17.28c-15.41-1.32-30.82-2.65-46.23-3.97C2345.17,985.8,2343.94,1026.51,2356.68,1027.6
		L2356.68,1027.6z"/>
</g>
<g>
	<path d="M2341.83,1213.02c42.26,3.64,84.53,7.27,126.81,10.91c66.97,5.77,133.94,11.51,200.91,17.28
		c15.41,1.32,30.82,2.65,46.23,3.97c11.5,0.99,12.73-39.71,0-40.8c-42.26-3.64-84.53-7.27-126.81-10.91
		c-66.97-5.77-133.94-11.52-200.91-17.28c-15.41-1.32-30.82-2.65-46.23-3.97C2330.33,1171.22,2329.1,1211.92,2341.83,1213.02
		L2341.83,1213.02z"/>
</g>
<g>
	<path d="M2326.97,1398.43c42.26,3.64,84.53,7.27,126.81,10.91c66.97,5.77,133.94,11.51,200.91,17.28
		c15.41,1.32,30.82,2.65,46.23,3.97c11.5,0.99,12.73-39.71,0-40.8c-42.26-3.64-84.53-7.27-126.81-10.91
		c-66.97-5.77-133.94-11.52-200.91-17.28c-15.41-1.32-30.82-2.65-46.23-3.97C2315.47,1356.64,2314.24,1397.32,2326.97,1398.43
		L2326.97,1398.43z"/>
</g>
<polygon class="st0" points="2330.1,1443.33 3109.21,705.14 3362.42,992.09 2583.31,1730.28 "/>
<g>
	<path d="M2587.74,1712.98c-28.61-32.44-57.24-64.88-85.86-97.3c-45.35-51.4-90.7-102.79-136.03-154.19
		c-10.43-11.82-20.86-23.66-31.31-35.48c-0.68,12.43-1.39,24.85-2.07,37.3c25.88-24.53,51.78-49.04,77.65-73.56
		c62.15-58.87,124.27-117.74,186.42-176.59c74.9-70.95,149.8-141.91,224.68-212.86c64.76-61.34,129.51-122.7,194.27-184.04
		c21.37-20.26,42.75-40.5,64.12-60.75c6.74-6.4,13.48-12.77,20.23-19.16c3.09-2.91,8.18-6.21,10.45-9.9
		c0.29-0.47,0.92-0.87,1.33-1.25c-2.23-0.69-4.45-1.38-6.68-2.06c28.61,32.44,57.24,64.88,85.86,97.3
		c45.35,51.4,90.7,102.79,136.03,154.19c10.43,11.82,20.86,23.66,31.31,35.48c0.68-12.43,1.39-24.85,2.07-37.3
		c-25.88,24.53-51.78,49.04-77.65,73.56c-62.15,58.87-124.27,117.74-186.42,176.59c-74.9,70.95-149.8,141.91-224.68,212.86
		c-64.76,61.34-129.51,122.7-194.27,184.04c-31.6,29.93-63.38,59.66-94.8,89.79c-0.45,0.43-0.88,0.85-1.33,1.25
		c-6.37,6.03-7.05,16.7-6.05,25.09c0.35,2.97,4.53,20.06,10.66,14.25c25.88-24.53,51.78-49.04,77.65-73.56
		c62.15-58.87,124.27-117.74,186.42-176.59c74.9-70.95,149.8-141.91,224.68-212.86c64.76-61.34,129.51-122.7,194.27-184.04
		c31.6-29.93,63.38-59.66,94.8-89.79c0.45-0.43,0.88-0.85,1.33-1.25c7.83-7.41,9.59-28.76,2.07-37.3
		c-28.61-32.44-57.24-64.88-85.86-97.3c-45.35-51.4-90.7-102.79-136.03-154.19c-10.43-11.82-20.86-23.66-31.31-35.48
		c-1.39-1.56-4.41-4.21-6.68-2.06c-25.88,24.53-51.78,49.04-77.65,73.56c-62.15,58.87-124.27,117.74-186.42,176.59
		c-74.9,70.95-149.8,141.91-224.68,212.86c-64.76,61.34-129.51,122.7-194.27,184.04c-31.6,29.93-63.38,59.66-94.8,89.79
		c-0.45,0.42-0.88,0.85-1.33,1.25c-7.83,7.41-9.59,28.76-2.07,37.28c28.61,32.44,57.24,64.88,85.86,97.3
		c45.35,51.4,90.7,102.79,136.03,154.19c10.43,11.82,20.86,23.66,31.31,35.48c5.76,6.54,10.35-1.44,11.86-7.33
		C2592.78,1733.31,2593.43,1719.44,2587.74,1712.98z"/>
</g>
<g>
	<path d="M2986.79,835.05c28.61,32.44,57.24,64.88,85.86,97.3c45.35,51.4,90.7,102.79,136.03,154.19
		c10.43,11.82,20.86,23.66,31.31,35.48c5.76,6.54,10.35-1.44,11.86-7.33c1.93-7.59,2.58-21.47-3.11-27.91
		c-28.61-32.44-57.24-64.88-85.86-97.3c-45.35-51.4-90.7-102.79-136.03-154.19c-10.43-11.82-20.86-23.66-31.31-35.48
		c-5.76-6.54-10.35,1.44-11.86,7.33C2981.75,814.74,2981.11,828.62,2986.79,835.05L2986.79,835.05z"/>
</g>
<g>
	<path d="M2854.28,960.59c28.61,32.44,57.24,64.88,85.86,97.3c45.35,51.4,90.7,102.79,136.03,154.19
		c10.43,11.82,20.86,23.66,31.31,35.48c5.76,6.54,10.35-1.44,11.86-7.33c1.93-7.59,2.58-21.47-3.11-27.91
		c-28.61-32.44-57.24-64.88-85.86-97.3c-45.35-51.4-90.7-102.79-136.03-154.19c-10.43-11.82-20.86-23.66-31.31-35.48
		c-5.76-6.54-10.35,1.44-11.85,7.33C2849.24,940.27,2848.59,954.15,2854.28,960.59L2854.28,960.59z"/>
</g>
<g>
	<path d="M2721.76,1086.14c28.61,32.44,57.24,64.88,85.86,97.3c45.35,51.4,90.7,102.79,136.03,154.19
		c10.43,11.82,20.86,23.66,31.31,35.48c5.76,6.54,10.35-1.44,11.86-7.33c1.93-7.59,2.58-21.47-3.11-27.91
		c-28.61-32.44-57.24-64.88-85.86-97.3c-45.35-51.4-90.7-102.79-136.03-154.19c-10.43-11.82-20.86-23.66-31.31-35.48
		c-5.76-6.54-10.35,1.44-11.86,7.33C2716.72,1065.83,2716.08,1079.69,2721.76,1086.14L2721.76,1086.14z"/>
</g>
<g>
	<path d="M2589.25,1211.68c28.61,32.44,57.24,64.88,85.86,97.3c45.35,51.4,90.7,102.79,136.03,154.19
		c10.43,11.82,20.86,23.66,31.31,35.48c5.76,6.54,10.35-1.44,11.86-7.33c1.93-7.59,2.58-21.47-3.11-27.91
		c-28.61-32.44-57.24-64.88-85.86-97.3c-45.35-51.4-90.7-102.79-136.03-154.19c-10.43-11.82-20.86-23.66-31.31-35.48
		c-5.76-6.54-10.35,1.44-11.86,7.33C2584.21,1191.36,2583.56,1205.24,2589.25,1211.68L2589.25,1211.68z"/>
</g>
<g>
	<path d="M2456.73,1337.21c28.61,32.44,57.24,64.88,85.86,97.3c45.35,51.4,90.7,102.79,136.03,154.19
		c10.43,11.82,20.86,23.66,31.31,35.48c5.76,6.54,10.35-1.44,11.86-7.33c1.93-7.59,2.58-21.47-3.11-27.91
		c-28.61-32.44-57.24-64.88-85.86-97.3c-45.35-51.4-90.7-102.79-136.03-154.19c-10.43-11.82-20.86-23.66-31.31-35.48
		c-5.76-6.54-10.35,1.44-11.86,7.33C2451.67,1316.89,2451.05,1330.78,2456.73,1337.21L2456.73,1337.21z"/>
</g>
</svg>
