<?xml version="1.0" encoding="utf-8"?>
<!-- Generator: Adobe Illustrator 24.1.2, SVG Export Plug-In . SVG Version: 6.00 Build 0)  -->
<svg version="1.1" id="Layer_1" xmlns="http://www.w3.org/2000/svg" xmlns:xlink="http://www.w3.org/1999/xlink" x="0px" y="0px"
	 viewBox="0 0 52.67 39.28" style="enable-background:new 0 0 52.67 39.28;" xml:space="preserve">
<style type="text/css">
	.st0{fill:#3E8AAB;}
</style>
<g>
	<g>
		<path class="st0" d="M31.92,3.51C26.5,3.69,20.82,3.49,15.75,4.17c-2.54,0.34-4.93,0.91-6.99,1.86C7.01,6.83,5.89,8.28,5.5,10.36
			c-0.71,3.79,1.38,9.61,5.66,15.26c2.91,3.84,6.62,7.92,10.6,10.56c4.24,2.83,7.96,3.39,10.76,2.96c1.98-0.3,3.64-1.03,5.09-1.96
			c1.76-1.12,3.35-2.44,4.76-3.93c2.32-2.45,4.21-5.41,5.11-9.11c0.63-2.58,0.96-5.59-0.08-9.24c-0.67-2.35-2.05-5.38-4.75-7.76
			c-2.93-2.59-5.95-3.43-8.25-3.62C33.54,3.45,32.71,3.45,31.92,3.51c-0.63,0.04-1.02,0.69-0.62,1.56c0.41,0.91,1.32,1.29,1.86,1.25
			c0.34-0.02,0.69-0.04,1.04-0.03c0.05,0,0.41,0.01,0.08,0c0.08,0,0.17,0,0.25,0.01c0.18,0.01,0.37,0.02,0.55,0.04
			c0.65,0.06,1.32,0.2,2.02,0.35c0.31,0.07-0.31-0.1,0.02,0c0.06,0.02,0.12,0.04,0.18,0.05c0.15,0.05,0.3,0.09,0.45,0.15
			C38.06,7,38.37,7.12,38.7,7.27c0.14,0.06,0.28,0.13,0.42,0.2c0.08,0.04,0.16,0.08,0.25,0.12c-0.03-0.01-0.33-0.19-0.11-0.06
			c0.29,0.18,0.57,0.33,0.86,0.52c0.25,0.17,0.49,0.35,0.74,0.53c0.35,0.26-0.24-0.22,0.09,0.07c0.14,0.12,0.27,0.24,0.41,0.36
			c0.22,0.21,0.44,0.42,0.65,0.64c0.1,0.11,0.2,0.23,0.31,0.34c0.23,0.24-0.24-0.31-0.04-0.05c0.05,0.07,0.12,0.14,0.17,0.21
			c0.42,0.53,0.76,1.06,1.1,1.6c0.23,0.38-0.12-0.25,0.07,0.13c0.07,0.14,0.15,0.28,0.21,0.41c0.16,0.32,0.3,0.63,0.43,0.94
			c0.12,0.3,0.23,0.59,0.33,0.89c0.14,0.4-0.06-0.22,0.06,0.18c0.05,0.19,0.11,0.37,0.16,0.56c0.18,0.7,0.3,1.36,0.39,2.01
			c0.02,0.17,0.04,0.33,0.06,0.49c0.03,0.25,0-0.01,0-0.05c0.01,0.1,0.02,0.2,0.02,0.3c0.02,0.38,0.03,0.74,0.03,1.1
			c0,0.75-0.06,1.46-0.15,2.15c-0.05,0.35-0.1,0.69-0.17,1.03c0.05-0.27-0.05,0.23-0.07,0.31c-0.05,0.21-0.1,0.42-0.16,0.62
			c-0.2,0.76-0.45,1.48-0.74,2.17c-0.31,0.75-0.66,1.46-1.04,2.15c-0.04,0.07-0.08,0.13-0.12,0.2c0,0.01-0.2,0.34-0.08,0.14
			c-0.11,0.17-0.21,0.34-0.32,0.5c-0.23,0.36-0.47,0.7-0.73,1.04c-1.09,1.46-2.36,2.77-3.75,3.93c-1.31,1.09-2.77,2.12-4.52,2.81
			c-0.18,0.07-0.37,0.14-0.56,0.21c-0.11,0.04-0.22,0.07-0.34,0.11c0.19-0.06-0.04,0.01-0.09,0.02c-0.38,0.1-0.77,0.18-1.17,0.25
			c-0.36,0.05-0.73,0.09-1.12,0.11c-0.18,0.01-0.37,0.01-0.56,0.01c-0.37,0,0.27,0.02-0.11,0c-0.11-0.01-0.23-0.01-0.34-0.02
			c-0.36-0.03-0.74-0.07-1.13-0.14c-0.19-0.03-0.37-0.07-0.56-0.11c-0.11-0.02-0.23-0.05-0.34-0.08c-0.04-0.01-0.42-0.13-0.1-0.02
			c-0.77-0.23-1.55-0.53-2.38-0.93c-0.08-0.04-0.64-0.33-0.33-0.16c-0.19-0.1-0.38-0.21-0.57-0.32c-0.42-0.24-0.84-0.5-1.25-0.79
			c-0.38-0.26-0.76-0.53-1.14-0.81c-0.19-0.15-0.38-0.29-0.57-0.45c-0.38-0.3,0.26,0.22-0.12-0.1c-0.11-0.09-0.23-0.19-0.34-0.29
			c-1.73-1.47-3.34-3.15-4.83-4.86c-0.71-0.82-1.62-1.94-2.38-2.96c-0.93-1.24-1.79-2.51-2.48-3.75c-1.42-2.53-2.21-4.79-2.44-6.84
			c-0.04-0.37-0.05-0.74-0.04-1.2c0.01-0.22,0.03-0.44,0.05-0.65c0.01-0.08,0.02-0.17,0.04-0.25c0.03-0.15,0.03-0.16,0.01-0.05
			c0.02-0.08,0.04-0.16,0.05-0.24c0.1-0.39,0.24-0.75,0.41-1.09c0.04-0.06,0.07-0.13,0.11-0.2c-0.12,0.22,0.07-0.09,0.08-0.11
			C9,9.86,9.14,9.69,9.3,9.53C9.42,9.4,9.56,9.27,9.71,9.16C9.66,9.19,9.53,9.27,9.73,9.14c0.1-0.06,0.19-0.13,0.29-0.18
			c0.44-0.25,0.92-0.45,1.41-0.65c0.96-0.38,1.98-0.67,3.05-0.9c4.52-0.97,9.75-0.95,14.9-1.01c1.26-0.02,2.52-0.04,3.77-0.08
			c0.64-0.02,1.01-0.7,0.62-1.56C33.36,3.84,32.47,3.49,31.92,3.51L31.92,3.51z"/>
		<polyline class="st0" points="26.18,5.16 36.38,4.86 41.74,7.99 45.39,12.7 46.69,18.59 45.34,25.49 41.48,31.35 35.44,36.57 
			30.72,38.33 20.76,34.27 12.63,25.67 7.21,16.83 7.09,10.11 12.4,6.1 		"/>
	</g>
</g>
<g>
	<g>
		<path class="st0" d="M-165.32,385.3c-3.96-3.7-7.83-7.86-11.9-10.96c-2.04-1.55-4.13-2.85-6.25-3.63
			c-1.81-0.67-3.63-0.44-5.38,0.76c-3.18,2.18-5.82,7.78-6.78,14.79c-0.66,4.77-0.92,10.28,0.02,14.97c1,5,3.23,8.03,5.52,9.71
			c1.61,1.18,3.3,1.84,4.99,2.22c2.04,0.45,4.1,0.64,6.15,0.59c3.37-0.09,6.8-0.85,10.06-2.82c2.27-1.38,4.63-3.27,6.47-6.59
			c1.18-2.13,2.36-5.25,2.13-8.85c-0.24-3.9-1.79-6.63-3.27-8.4C-164.13,386.41-164.72,385.82-165.32,385.3
			c-0.47-0.41-1.21-0.23-1.54,0.67c-0.35,0.93,0.02,1.84,0.43,2.2c0.26,0.23,0.51,0.46,0.76,0.71c0.04,0.04,0.28,0.3,0.05,0.05
			c0.06,0.06,0.12,0.12,0.17,0.19c0.12,0.13,0.24,0.27,0.36,0.42c0.41,0.5,0.79,1.08,1.18,1.67c0.17,0.27-0.15-0.29,0.01,0.01
			c0.03,0.06,0.06,0.11,0.09,0.17c0.07,0.14,0.14,0.28,0.21,0.42c0.14,0.3,0.28,0.61,0.41,0.94c0.05,0.14,0.1,0.29,0.16,0.44
			c0.03,0.08,0.06,0.18,0.09,0.26c-0.01-0.03-0.1-0.37-0.04-0.12c0.08,0.33,0.17,0.64,0.24,0.98c0.06,0.29,0.1,0.6,0.15,0.9
			c0.07,0.43-0.01-0.33,0.01,0.12c0.01,0.18,0.03,0.36,0.03,0.54c0.01,0.3,0.01,0.61,0,0.91c0,0.15-0.02,0.3-0.02,0.46
			c0,0.34,0.05-0.39,0.01-0.07c-0.01,0.09-0.02,0.18-0.03,0.28c-0.08,0.68-0.21,1.29-0.35,1.9c-0.1,0.43,0.09-0.26-0.04,0.14
			c-0.05,0.15-0.09,0.3-0.14,0.44c-0.11,0.34-0.24,0.66-0.36,0.97c-0.13,0.3-0.26,0.58-0.39,0.87c-0.19,0.39,0.11-0.2-0.09,0.17
			c-0.09,0.17-0.19,0.34-0.28,0.5c-0.37,0.62-0.75,1.18-1.15,1.69c-0.1,0.13-0.21,0.26-0.31,0.39c-0.15,0.2,0.01-0.01,0.03-0.04
			c-0.06,0.07-0.13,0.15-0.19,0.22c-0.25,0.28-0.5,0.55-0.76,0.8c-0.53,0.53-1.07,0.99-1.62,1.41c-0.28,0.21-0.57,0.42-0.85,0.61
			c0.23-0.16-0.2,0.13-0.27,0.17c-0.18,0.11-0.37,0.22-0.55,0.33c-0.68,0.39-1.37,0.72-2.06,1.01c-0.75,0.31-1.5,0.57-2.26,0.78
			c-0.08,0.02-0.15,0.04-0.22,0.06c-0.01,0-0.38,0.1-0.15,0.04c-0.19,0.04-0.39,0.09-0.58,0.13c-0.42,0.09-0.83,0.16-1.25,0.22
			c-1.81,0.26-3.62,0.29-5.43,0.12c-1.7-0.16-3.46-0.46-5.18-1.21c-0.18-0.08-0.36-0.16-0.54-0.25c-0.1-0.05-0.21-0.11-0.31-0.16
			c0.18,0.09-0.04-0.02-0.08-0.05c-0.34-0.2-0.67-0.41-1-0.66c-0.29-0.22-0.58-0.45-0.87-0.71c-0.14-0.13-0.27-0.25-0.41-0.39
			c-0.26-0.26,0.17,0.2-0.08-0.08c-0.08-0.09-0.15-0.17-0.22-0.25c-0.24-0.28-0.47-0.58-0.7-0.9c-0.11-0.15-0.22-0.31-0.32-0.48
			c-0.06-0.09-0.12-0.2-0.18-0.29c-0.02-0.04-0.21-0.39-0.05-0.09c-0.38-0.71-0.73-1.47-1.03-2.34c-0.03-0.09-0.22-0.68-0.12-0.34
			c-0.06-0.21-0.12-0.42-0.18-0.63c-0.12-0.47-0.23-0.95-0.33-1.44c-0.09-0.45-0.16-0.92-0.23-1.38c-0.03-0.24-0.06-0.48-0.09-0.72
			c-0.05-0.48,0.03,0.33-0.02-0.16c-0.01-0.14-0.02-0.29-0.04-0.45c-0.18-2.26-0.14-4.59,0.02-6.85c0.08-1.08,0.22-2.52,0.41-3.78
			c0.22-1.53,0.51-3.04,0.9-4.41c0.79-2.79,1.83-4.95,3.11-6.56c0.23-0.3,0.48-0.56,0.82-0.87c0.16-0.15,0.33-0.29,0.5-0.43
			c0.07-0.05,0.13-0.1,0.2-0.15c0.12-0.09,0.14-0.09,0.04-0.03c0.07-0.04,0.14-0.09,0.21-0.13c0.35-0.2,0.7-0.37,1.05-0.48
			c0.07-0.02,0.14-0.04,0.21-0.06c-0.24,0.07,0.11-0.02,0.13-0.02c0.22-0.04,0.44-0.06,0.66-0.06c0.18,0,0.37,0,0.55,0.02
			c-0.05,0-0.2-0.04,0.03,0.01c0.11,0.03,0.22,0.05,0.34,0.08c0.49,0.13,0.97,0.33,1.45,0.54c0.94,0.41,1.87,0.93,2.79,1.53
			c3.88,2.51,7.57,6.23,11.25,9.82c0.9,0.88,1.81,1.75,2.72,2.61c0.46,0.43,1.21,0.22,1.54-0.67
			C-164.53,386.56-164.91,385.68-165.32,385.3L-165.32,385.3z"/>
		<polyline class="st0" points="-170.54,382.42 -163.12,389.42 -161.54,395.42 -162.29,401.33 -165.54,406.42 -171.37,410.33 
			-178.24,411.75 -186.21,411.17 -190.79,409.08 -194.96,399.17 -194.62,387.33 -192.21,377.25 -187.54,372.42 -180.96,373.33 		"/>
	</g>
</g>
<rect x="-187.33" y="383.92" style="fill:none;" width="128" height="125"/>
<text transform="matrix(1 0 0 1 -187.333 402.3754)" style="fill:#FFFFFF; font-family:'MyriadPro-Bold'; font-size:26px;">3</text>
</svg>
