<?xml version="1.0" encoding="utf-8"?>
<!-- Generator: Adobe Illustrator 24.1.2, SVG Export Plug-In . SVG Version: 6.00 Build 0)  -->
<svg version="1.1" id="Layer_1" xmlns="http://www.w3.org/2000/svg" xmlns:xlink="http://www.w3.org/1999/xlink" x="0px" y="0px"
	 viewBox="0 0 77.9 192" style="enable-background:new 0 0 77.9 192;" xml:space="preserve">
<style type="text/css">
	.st0{fill:#3E8AAB;}
</style>
<g>
	<g>
		<path class="st0" d="M10.03,22.64c2.41,1.16,4.77,2.72,7.08,4.34c5.71,3.98,11.06,8.69,16.07,14.19
			c6.73,7.37,12.78,16.06,17.68,26.13c5.84,11.99,9.82,25.65,11.69,39.91c2.5,19.07,1.27,38.32-1.8,56.33
			c-0.47,2.75-0.99,5.48-1.53,8.19c-0.52,2.56,1.79,4.46,2.36,1.62c3.89-19.13,5.92-39.63,4.11-60.29c-1.35-15.39-5-30.51-10.8-43.9
			c-4.78-11.04-10.95-20.77-17.85-28.89c-5.39-6.35-11.24-11.81-17.33-16.31c-2.86-2.11-5.82-4.17-8.83-5.62
			c-0.04-0.02-0.08-0.04-0.12-0.06C9.07,17.46,8.51,21.91,10.03,22.64L10.03,22.64z"/>
	</g>
</g>
</svg>
