<?xml version="1.0" encoding="utf-8"?>
<!-- Generator: Adobe Illustrator 24.1.2, SVG Export Plug-In . SVG Version: 6.00 Build 0)  -->
<svg version="1.1" id="Layer_1" xmlns="http://www.w3.org/2000/svg" xmlns:xlink="http://www.w3.org/1999/xlink" x="0px" y="0px"
	 viewBox="0 0 56 47.1" style="enable-background:new 0 0 56 47.1;" xml:space="preserve">
<style type="text/css">
	.st0{fill:#3E8AAB;}
	.st1{fill:none;}
</style>
<g>
	<g>
		<path class="st0" d="M34.1,1.8c-6.6,0.2-13.5,0-19.7,0.8c-3.1,0.4-6,1.1-8.5,2.2c-2.1,1-3.5,2.7-4,5.2c-0.9,4.6,1.7,11.5,6.9,18.3
			c3.5,4.6,8.1,9.5,12.9,12.7c5.2,3.4,9.7,4.1,13.1,3.6c2.4-0.4,4.4-1.2,6.2-2.4c2.1-1.3,4.1-2.9,5.8-4.7c2.8-2.9,5.1-6.5,6.2-10.9
			c0.8-3.1,1.2-6.7-0.1-11.1c-0.8-2.8-2.5-6.5-5.8-9.3c-3.6-3.1-7.2-4.1-10-4.3C36.1,1.8,35,1.8,34.1,1.8c-0.8,0-1.2,0.8-0.8,1.9
			c0.5,1.1,1.6,1.5,2.3,1.5c0.4,0,0.8,0,1.3,0c0.1,0,0.5,0,0.1,0c0.1,0,0.2,0,0.3,0c0.2,0,0.5,0,0.7,0c0.8,0.1,1.6,0.2,2.5,0.4
			c0.4,0.1-0.4-0.1,0,0c0.1,0,0.1,0,0.2,0.1c0.2,0.1,0.4,0.1,0.5,0.2c0.4,0.1,0.8,0.3,1.2,0.5c0.2,0.1,0.3,0.2,0.5,0.2
			c0.1,0,0.2,0.1,0.3,0.1c0,0-0.4-0.2-0.1-0.1c0.4,0.2,0.7,0.4,1,0.6c0.3,0.2,0.6,0.4,0.9,0.6c0.4,0.3-0.3-0.3,0.1,0.1
			c0.2,0.1,0.3,0.3,0.5,0.4c0.3,0.3,0.5,0.5,0.8,0.8c0.1,0.1,0.2,0.3,0.4,0.4c0.3,0.3-0.3-0.4,0-0.1c0.1,0.1,0.1,0.2,0.2,0.3
			c0.5,0.6,0.9,1.3,1.3,1.9c0.3,0.5-0.1-0.3,0.1,0.2c0.1,0.2,0.2,0.3,0.3,0.5c0.2,0.4,0.4,0.8,0.5,1.1c0.1,0.4,0.3,0.7,0.4,1.1
			c0.2,0.5-0.1-0.3,0.1,0.2c0.1,0.2,0.1,0.4,0.2,0.7c0.2,0.8,0.4,1.6,0.5,2.4c0,0.2,0,0.4,0.1,0.6c0,0.3,0,0,0-0.1
			c0,0.1,0,0.2,0,0.4c0,0.5,0,0.9,0,1.3c0,0.9-0.1,1.8-0.2,2.6c-0.1,0.4-0.1,0.8-0.2,1.2c0.1-0.3-0.1,0.3-0.1,0.4
			c-0.1,0.3-0.1,0.5-0.2,0.7c-0.2,0.9-0.5,1.8-0.9,2.6c-0.4,0.9-0.8,1.8-1.3,2.6c0,0.1-0.1,0.2-0.1,0.2c0,0-0.2,0.4-0.1,0.2
			c-0.1,0.2-0.3,0.4-0.4,0.6c-0.3,0.4-0.6,0.8-0.9,1.2c-1.3,1.8-2.9,3.3-4.6,4.7c-1.6,1.3-3.4,2.5-5.5,3.4c-0.2,0.1-0.5,0.2-0.7,0.3
			c-0.1,0-0.3,0.1-0.4,0.1c0.2-0.1,0,0-0.1,0c-0.5,0.1-0.9,0.2-1.4,0.3c-0.4,0.1-0.9,0.1-1.4,0.1c-0.2,0-0.5,0-0.7,0
			c-0.5,0,0.3,0-0.1,0c-0.1,0-0.3,0-0.4,0c-0.4,0-0.9-0.1-1.4-0.2c-0.2,0-0.5-0.1-0.7-0.1c-0.1,0-0.3-0.1-0.4-0.1c0,0-0.5-0.2-0.1,0
			c-0.9-0.3-1.9-0.6-2.9-1.1c-0.1,0-0.8-0.4-0.4-0.2c-0.2-0.1-0.5-0.3-0.7-0.4c-0.5-0.3-1-0.6-1.5-0.9c-0.5-0.3-0.9-0.6-1.4-1
			c-0.2-0.2-0.5-0.3-0.7-0.5c-0.5-0.4,0.3,0.3-0.1-0.1c-0.1-0.1-0.3-0.2-0.4-0.3c-2.1-1.8-4.1-3.8-5.9-5.8c-0.9-1-2-2.3-2.9-3.6
			c-1.1-1.5-2.2-3-3-4.5c-1.7-3-2.7-5.8-3-8.2c0-0.4-0.1-0.9,0-1.4c0-0.3,0-0.5,0.1-0.8c0-0.1,0-0.2,0-0.3c0-0.2,0-0.2,0-0.1
			c0-0.1,0-0.2,0.1-0.3c0.1-0.5,0.3-0.9,0.5-1.3C5.9,10,5.9,9.9,6,9.8c-0.1,0.3,0.1-0.1,0.1-0.1c0.1-0.2,0.3-0.4,0.5-0.6
			C6.7,8.9,6.9,8.8,7,8.6c-0.1,0-0.2,0.1,0,0c0.1-0.1,0.2-0.2,0.4-0.2C8,8.1,8.5,7.9,9.1,7.6c1.2-0.5,2.4-0.8,3.7-1.1
			C18.4,5.4,24.7,5.4,31,5.3c1.5,0,3.1,0,4.6-0.1c0.8,0,1.2-0.8,0.8-1.9C35.8,2.2,34.8,1.8,34.1,1.8L34.1,1.8z"/>
		<polyline class="st0" points="27.1,3.8 39.5,3.5 46,7.2 50.5,12.9 52.1,20 50.4,28.2 45.7,35.3 38.4,41.6 32.6,43.7 20.5,38.8 
			10.6,28.5 4,17.8 3.9,9.8 10.3,5 		"/>
	</g>
</g>
<g>
	<g>
		<path class="st0" d="M-167.3,389.2c-4-3.7-7.8-7.9-11.9-11c-2-1.5-4.1-2.9-6.3-3.6c-1.8-0.7-3.6-0.4-5.4,0.8
			c-3.2,2.2-5.8,7.8-6.8,14.8c-0.7,4.8-0.9,10.3,0,15c1,5,3.2,8,5.5,9.7c1.6,1.2,3.3,1.8,5,2.2c2,0.5,4.1,0.6,6.1,0.6
			c3.4-0.1,6.8-0.9,10.1-2.8c2.3-1.4,4.6-3.3,6.5-6.6c1.2-2.1,2.4-5.3,2.1-8.9c-0.2-3.9-1.8-6.6-3.3-8.4
			C-166.1,390.3-166.7,389.7-167.3,389.2c-0.5-0.4-1.2-0.2-1.5,0.7c-0.4,0.9,0,1.8,0.4,2.2c0.3,0.2,0.5,0.5,0.8,0.7
			c0,0,0.3,0.3,0.1,0c0.1,0.1,0.1,0.1,0.2,0.2c0.1,0.1,0.2,0.3,0.4,0.4c0.4,0.5,0.8,1.1,1.2,1.7c0.2,0.3-0.1-0.3,0,0
			c0,0.1,0.1,0.1,0.1,0.2c0.1,0.1,0.1,0.3,0.2,0.4c0.1,0.3,0.3,0.6,0.4,0.9c0.1,0.1,0.1,0.3,0.2,0.4c0,0.1,0.1,0.2,0.1,0.3
			c0,0-0.1-0.4,0-0.1c0.1,0.3,0.2,0.6,0.2,1c0.1,0.3,0.1,0.6,0.1,0.9c0.1,0.4,0-0.3,0,0.1c0,0.2,0,0.4,0,0.5c0,0.3,0,0.6,0,0.9
			c0,0.1,0,0.3,0,0.5c0,0.3,0.1-0.4,0-0.1c0,0.1,0,0.2,0,0.3c-0.1,0.7-0.2,1.3-0.4,1.9c-0.1,0.4,0.1-0.3,0,0.1
			c-0.1,0.1-0.1,0.3-0.1,0.4c-0.1,0.3-0.2,0.7-0.4,1c-0.1,0.3-0.3,0.6-0.4,0.9c-0.2,0.4,0.1-0.2-0.1,0.2c-0.1,0.2-0.2,0.3-0.3,0.5
			c-0.4,0.6-0.8,1.2-1.1,1.7c-0.1,0.1-0.2,0.3-0.3,0.4c-0.1,0.2,0,0,0,0c-0.1,0.1-0.1,0.1-0.2,0.2c-0.3,0.3-0.5,0.5-0.8,0.8
			c-0.5,0.5-1.1,1-1.6,1.4c-0.3,0.2-0.6,0.4-0.9,0.6c0.2-0.2-0.2,0.1-0.3,0.2c-0.2,0.1-0.4,0.2-0.6,0.3c-0.7,0.4-1.4,0.7-2.1,1
			c-0.8,0.3-1.5,0.6-2.3,0.8c-0.1,0-0.1,0-0.2,0.1c0,0-0.4,0.1-0.1,0c-0.2,0-0.4,0.1-0.6,0.1c-0.4,0.1-0.8,0.2-1.3,0.2
			c-1.8,0.3-3.6,0.3-5.4,0.1c-1.7-0.2-3.5-0.5-5.2-1.2c-0.2-0.1-0.4-0.2-0.5-0.3c-0.1,0-0.2-0.1-0.3-0.2c0.2,0.1,0,0-0.1,0
			c-0.3-0.2-0.7-0.4-1-0.7c-0.3-0.2-0.6-0.5-0.9-0.7c-0.1-0.1-0.3-0.3-0.4-0.4c-0.3-0.3,0.2,0.2-0.1-0.1c-0.1-0.1-0.1-0.2-0.2-0.3
			c-0.2-0.3-0.5-0.6-0.7-0.9c-0.1-0.1-0.2-0.3-0.3-0.5c-0.1-0.1-0.1-0.2-0.2-0.3c0,0-0.2-0.4-0.1-0.1c-0.4-0.7-0.7-1.5-1-2.3
			c0-0.1-0.2-0.7-0.1-0.3c-0.1-0.2-0.1-0.4-0.2-0.6c-0.1-0.5-0.2-1-0.3-1.4c-0.1-0.5-0.2-0.9-0.2-1.4c0-0.2-0.1-0.5-0.1-0.7
			c-0.1-0.5,0,0.3,0-0.2c0-0.1,0-0.3,0-0.5c-0.2-2.3-0.1-4.6,0-6.9c0.1-1.1,0.2-2.5,0.4-3.8c0.2-1.5,0.5-3,0.9-4.4
			c0.8-2.8,1.8-5,3.1-6.6c0.2-0.3,0.5-0.6,0.8-0.9c0.2-0.1,0.3-0.3,0.5-0.4c0.1,0,0.1-0.1,0.2-0.1c0.1-0.1,0.1-0.1,0,0
			c0.1,0,0.1-0.1,0.2-0.1c0.4-0.2,0.7-0.4,1.1-0.5c0.1,0,0.1,0,0.2-0.1c-0.2,0.1,0.1,0,0.1,0c0.2,0,0.4-0.1,0.7-0.1
			c0.2,0,0.4,0,0.6,0c-0.1,0-0.2,0,0,0c0.1,0,0.2,0,0.3,0.1c0.5,0.1,1,0.3,1.4,0.5c0.9,0.4,1.9,0.9,2.8,1.5
			c3.9,2.5,7.6,6.2,11.3,9.8c0.9,0.9,1.8,1.8,2.7,2.6c0.5,0.4,1.2,0.2,1.5-0.7C-166.5,390.5-166.9,389.6-167.3,389.2L-167.3,389.2z"
			/>
		<polyline class="st0" points="-172.5,386.3 -165.1,393.3 -163.5,399.3 -164.3,405.3 -167.5,410.3 -173.3,414.3 -180.2,415.7 
			-188.2,415.1 -192.8,413 -196.9,403.1 -196.6,391.3 -194.2,381.2 -189.5,376.3 -182.9,377.3 		"/>
	</g>
</g>
<rect x="-189.3" y="387.8" class="st1" width="128" height="125"/>
<text transform="matrix(1 0 0 1 -189.2978 406.3034)" style="fill:#FFFFFF; font-family:'ArialMT'; font-size:26px;">3</text>
</svg>
