<?xml version="1.0" encoding="utf-8"?>
<!-- Generator: Adobe Illustrator 24.1.2, SVG Export Plug-In . SVG Version: 6.00 Build 0)  -->
<svg version="1.1" id="Layer_1" xmlns="http://www.w3.org/2000/svg" xmlns:xlink="http://www.w3.org/1999/xlink" x="0px" y="0px"
	 viewBox="0 0 52.9 58.6" style="enable-background:new 0 0 52.9 58.6;" xml:space="preserve">
<style type="text/css">
	.st0{fill:#3E8AAB;}
</style>
<g>
	<g>
		<path class="st0" d="M44.1,20.7c-4.7-4.4-9.4-9.4-14.3-13.1c-2.4-1.9-4.9-3.4-7.5-4.4c-2.2-0.8-4.3-0.5-6.4,0.9
			c-3.8,2.6-7,9.3-8.1,17.7c-0.8,5.7-1.1,12.3,0,18c1.2,6,3.9,9.6,6.6,11.6c1.9,1.4,4,2.2,6,2.7c2.4,0.5,4.9,0.8,7.4,0.7
			c4-0.1,8.1-1,12.1-3.4c2.7-1.7,5.5-3.9,7.8-7.9c1.4-2.6,2.8-6.3,2.6-10.6c-0.3-4.7-2.1-8-3.9-10.1C45.5,22,44.8,21.3,44.1,20.7
			c-0.6-0.5-1.4-0.3-1.8,0.8c-0.4,1.1,0,2.2,0.5,2.6c0.3,0.3,0.6,0.6,0.9,0.9c0,0,0.3,0.4,0.1,0.1c0.1,0.1,0.1,0.1,0.2,0.2
			c0.1,0.2,0.3,0.3,0.4,0.5c0.5,0.6,0.9,1.3,1.4,2c0.2,0.3-0.2-0.3,0,0c0,0.1,0.1,0.1,0.1,0.2c0.1,0.2,0.2,0.3,0.3,0.5
			c0.2,0.4,0.3,0.7,0.5,1.1c0.1,0.2,0.1,0.3,0.2,0.5c0,0.1,0.1,0.2,0.1,0.3c0,0-0.1-0.4,0-0.1c0.1,0.4,0.2,0.8,0.3,1.2
			c0.1,0.3,0.1,0.7,0.2,1.1c0.1,0.5,0-0.4,0,0.1c0,0.2,0,0.4,0,0.6c0,0.4,0,0.7,0,1.1c0,0.2,0,0.4,0,0.6c0,0.4,0.1-0.5,0-0.1
			c0,0.1,0,0.2,0,0.3c-0.1,0.8-0.3,1.5-0.4,2.3c-0.1,0.5,0.1-0.3,0,0.2c-0.1,0.2-0.1,0.4-0.2,0.5c-0.1,0.4-0.3,0.8-0.4,1.2
			c-0.2,0.4-0.3,0.7-0.5,1c-0.2,0.5,0.1-0.2-0.1,0.2c-0.1,0.2-0.2,0.4-0.3,0.6c-0.4,0.7-0.9,1.4-1.4,2c-0.1,0.2-0.3,0.3-0.4,0.5
			c-0.2,0.2,0,0,0,0c-0.1,0.1-0.2,0.2-0.2,0.3c-0.3,0.3-0.6,0.7-0.9,1c-0.6,0.6-1.3,1.2-1.9,1.7c-0.3,0.3-0.7,0.5-1,0.7
			c0.3-0.2-0.2,0.2-0.3,0.2c-0.2,0.1-0.4,0.3-0.7,0.4c-0.8,0.5-1.6,0.9-2.5,1.2c-0.9,0.4-1.8,0.7-2.7,0.9c-0.1,0-0.2,0-0.3,0.1
			c0,0-0.5,0.1-0.2,0c-0.2,0-0.5,0.1-0.7,0.2c-0.5,0.1-1,0.2-1.5,0.3c-2.2,0.3-4.3,0.3-6.5,0.1c-2-0.2-4.1-0.6-6.2-1.5
			c-0.2-0.1-0.4-0.2-0.6-0.3c-0.1-0.1-0.3-0.1-0.4-0.2c0.2,0.1,0,0-0.1-0.1c-0.4-0.2-0.8-0.5-1.2-0.8c-0.3-0.3-0.7-0.5-1-0.9
			c-0.2-0.2-0.3-0.3-0.5-0.5c-0.3-0.3,0.2,0.2-0.1-0.1c-0.1-0.1-0.2-0.2-0.3-0.3c-0.3-0.3-0.6-0.7-0.8-1.1c-0.1-0.2-0.3-0.4-0.4-0.6
			c-0.1-0.1-0.1-0.2-0.2-0.3c0,0-0.3-0.5-0.1-0.1c-0.5-0.9-0.9-1.8-1.2-2.8c0-0.1-0.3-0.8-0.1-0.4c-0.1-0.3-0.1-0.5-0.2-0.8
			c-0.1-0.6-0.3-1.1-0.4-1.7c-0.1-0.5-0.2-1.1-0.3-1.7c0-0.3-0.1-0.6-0.1-0.9c-0.1-0.6,0,0.4,0-0.2c0-0.2,0-0.3,0-0.5
			c-0.2-2.7-0.2-5.5,0-8.2c0.1-1.3,0.3-3,0.5-4.5c0.3-1.8,0.6-3.6,1.1-5.3c0.9-3.3,2.2-5.9,3.7-7.9c0.3-0.4,0.6-0.7,1-1
			c0.2-0.2,0.4-0.3,0.6-0.5c0.1-0.1,0.2-0.1,0.2-0.2c0.1-0.1,0.2-0.1,0,0c0.1,0,0.2-0.1,0.3-0.2C18,7,18.4,6.8,18.9,6.6
			c0.1,0,0.2,0,0.3-0.1c-0.3,0.1,0.1,0,0.2,0c0.3,0,0.5-0.1,0.8-0.1c0.2,0,0.4,0,0.7,0c-0.1,0-0.2,0,0,0c0.1,0,0.3,0.1,0.4,0.1
			c0.6,0.2,1.2,0.4,1.7,0.6c1.1,0.5,2.2,1.1,3.3,1.8c4.6,3,9.1,7.5,13.5,11.8c1.1,1.1,2.2,2.1,3.3,3.1c0.6,0.5,1.4,0.3,1.8-0.8
			C45,22.2,44.6,21.1,44.1,20.7L44.1,20.7z"/>
		<polyline class="st0" points="37.8,17.2 46.7,25.6 48.6,32.8 47.7,39.9 43.8,46 36.8,50.7 28.6,52.4 19.1,51.7 13.6,49.2 
			8.6,37.3 9,23.1 11.9,11 17.5,5.2 25.4,6.3 		"/>
	</g>
</g>
</svg>
