<?xml version="1.0" encoding="utf-8"?>
<!-- Generator: Adobe Illustrator 26.5.0, SVG Export Plug-In . SVG Version: 6.00 Build 0)  -->
<svg version="1.1" id="Layer_1" xmlns="http://www.w3.org/2000/svg" xmlns:xlink="http://www.w3.org/1999/xlink" x="0px" y="0px"
	 viewBox="0 0 5200 3100" style="enable-background:new 0 0 5200 3100;" xml:space="preserve">
<style type="text/css">
	.st0{fill:none;}
	.st1{fill:#0F86A1;}
	.st2{fill:#FFFFFF;}
	.st3{fill:none;stroke:#000000;stroke-width:13;stroke-miterlimit:10;}
	
		.st4{clip-path:url(#SVGID_00000148636686194845970260000007878223552113090237_);fill:none;stroke:#000000;stroke-width:10;stroke-miterlimit:10;}
	.st5{clip-path:url(#SVGID_00000143604847665801266440000006589102915722072977_);}
	.st6{stroke:#000000;stroke-miterlimit:10;}
	.st7{clip-path:url(#SVGID_00000057844928754251660420000016141703951629057698_);}
	.st8{fill:#F8EFE5;stroke:#000000;stroke-width:10;stroke-miterlimit:10;}
	.st9{clip-path:url(#SVGID_00000163058994334521086070000001423346401751828671_);}
	.st10{stroke:#000000;stroke-width:10;stroke-miterlimit:10;}
	
		.st11{clip-path:url(#SVGID_00000138560731294141855830000010523597198723143085_);fill:none;stroke:#000000;stroke-width:10;stroke-miterlimit:10;}
	.st12{clip-path:url(#SVGID_00000016758494599212626220000010563118918099609986_);}
	.st13{clip-path:url(#SVGID_00000097475578789566600390000013094403368747283897_);}
	
		.st14{clip-path:url(#SVGID_00000146478387819841316260000006223800610057168782_);fill:none;stroke:#000000;stroke-width:10;stroke-miterlimit:10;}
	.st15{fill:none;stroke:#000000;stroke-width:10;stroke-miterlimit:10;}
	.st16{fill:none;stroke:#000000;stroke-width:12;stroke-miterlimit:10;}
	.st17{fill:none;stroke:#000000;stroke-width:6;stroke-miterlimit:10;}
	.st18{fill:#00BF3B;stroke:#000000;stroke-width:10;stroke-miterlimit:10;}
</style>
<g id="ready_project_2_">
	<g id="project_3_">
		<path class="st0" d="M3593.9,1795.7H1610.6c-10.7,0-19.3-8-19.3-17.9V469.6c0-9.9,8.6-17.9,19.3-17.9h1983.3
			c10.7,0,19.3,8,19.3,17.9v1308.1C3613.2,1787.6,3604.6,1795.7,3593.9,1795.7z"/>
		<g>
			<rect x="2082.3" y="833.2" class="st1" width="1072.7" height="385.9"/>
			<rect x="2261" y="804.3" class="st2" width="18.4" height="450.9"/>
			<rect x="2475.6" y="804.3" class="st2" width="18.4" height="450.9"/>
			<rect x="2690.3" y="804.3" class="st2" width="18.4" height="450.9"/>
			<rect x="2023.3" y="1012.7" class="st2" width="1143" height="17.1"/>
			<rect x="2905" y="804.3" class="st2" width="18.4" height="450.9"/>
		</g>
		<g>
			<ellipse class="st3" cx="2568" cy="613.2" rx="371.9" ry="98.7"/>
			<g>
				<path d="M2319.3,632.6c38.5,26.6,89,34.3,135.4,39.9c52.1,6.3,104.9,6.5,157,0.9c12.3-1.3,11.2-26.8-0.7-25.5
					c-50.4,5.4-101.3,5.4-151.7-0.3c-23.9-2.7-47.8-6.5-71.1-12.2c-21.4-5.3-42.5-12.7-60.4-25
					C2315.9,602.1,2310.2,626.3,2319.3,632.6L2319.3,632.6z"/>
			</g>
			<g>
				<path d="M2746.5,655.2c27.9-8.7,54.6-20,79.9-33.8c5.7-3.1,7.2-10.2,5.9-15.8c-0.9-4-5.6-11.8-11.3-8.7
					c-25.4,13.8-52.1,25.1-79.9,33.8C2730.2,634.1,2733.7,659.2,2746.5,655.2L2746.5,655.2z"/>
			</g>
		</g>
		<g>
			<path d="M2611.4,748.5c-21.6,0-43.2,0-64.8,0c-51.9,0-103.8,0-155.7,0c-62.5,0-125,0-187.6,0c-54.1,0-108.1,0-162.2,0
				c-18,0-36,0-54,0c-8.3,0-17-0.7-25.2,0c-0.4,0-0.8,0-1.1,0c-8.5,0-8.6,25.7,0,25.7c21.6,0,43.2,0,64.8,0c51.9,0,103.8,0,155.7,0
				c62.5,0,125,0,187.6,0c54.1,0,108.1,0,162.2,0c18,0,36,0,54,0c8.3,0,17,0.7,25.2,0c0.4,0,0.8,0,1.1,0
				C2619.9,774.2,2620,748.5,2611.4,748.5L2611.4,748.5z"/>
		</g>
		<g>
			<path d="M1595.6,549.7c41.1,25.4,82.1,50.8,123.2,76.2c64.9,40.1,129.8,80.3,194.8,120.4c14.9,9.2,29.7,18.4,44.6,27.6
				c-1.5-4.1-3-8.3-4.5-12.4c0,19.8,0,39.5,0,59.3c0,47.2,0,94.5,0,141.7c0,57.1,0,114.2,0,171.3c0,49.5,0,99.1,0,148.6
				c0,23.9-0.4,47.9,0,71.9c0,0.3,0,0.7,0,1c0,3.2,0.8,12.9,6.1,12.9c21.6,0,43.2,0,64.8,0c51.9,0,103.7,0,155.6,0
				c62.7,0,125.5,0,188.2,0c54.2,0,108.5,0,162.8,0c17.9,0,35.8,0,53.7,0c8.4,0,17.1,0.7,25.5,0c0.4,0,0.8,0,1.1,0
				c8.5,0,8.6-25.7,0-25.7c-21.6,0-43.2,0-64.8,0c-51.9,0-103.7,0-155.6,0c-62.7,0-125.5,0-188.2,0c-54.2,0-108.5,0-162.8,0
				c-17.9,0-35.8,0-53.7,0c-8.3,0-17.3-1-25.5,0c-0.4,0-0.8,0-1.1,0c2,4.3,4.1,8.6,6.1,12.9c0-14.4,0-28.8,0-43.3
				c0-35.9,0-71.9,0-107.8c0-46.9,0-93.8,0-140.7c0-47.5,0-94.9,0-142.4c0-37,0-74,0-111c0-16.2,0.4-32.4,0-48.5
				c-0.3-11.1-5.2-13-13.4-18.1c-11.4-7-22.7-14-34.1-21.1c-38.4-23.7-76.8-47.5-115.2-71.2c-41.8-25.9-83.7-51.7-125.6-77.6
				c-25-15.5-50.1-30.9-75.1-46.4c-1.2-0.8-2.5-1.5-3.7-2.3C1591.9,520.6,1588.3,545.2,1595.6,549.7L1595.6,549.7z"/>
		</g>
		<g>
			<path d="M2608.4,774.2c21.6,0,43.2,0,64.8,0c51.9,0,103.8,0,155.7,0c62.5,0,125,0,187.6,0c54.1,0,108.1,0,162.2,0c18,0,36,0,54,0
				c8.3,0,17,0.7,25.2,0c0.4,0,0.8,0,1.1,0c8.5,0,8.6-25.7,0-25.7c-21.6,0-43.2,0-64.8,0c-51.9,0-103.8,0-155.7,0
				c-62.5,0-125,0-187.6,0c-54.1,0-108.1,0-162.2,0c-18,0-36,0-54,0c-8.3,0-17-0.7-25.2,0c-0.4,0-0.8,0-1.1,0
				C2599.8,748.5,2599.7,774.2,2608.4,774.2L2608.4,774.2z"/>
		</g>
		<g>
			<path d="M3611.6,530.6c-17.8,11-35.6,22-53.5,33c-39.5,24.4-79,48.8-118.5,73.3c-40.2,24.9-80.5,49.8-120.8,74.7
				c-13.9,8.6-27.8,17.2-41.7,25.8c-6,3.7-12.9,7.1-18.4,11.4c-5.7,4.5-4.8,12.9-4.8,19.4c0,9,0,18,0,27c0,33.5,0,67,0,100.5
				c0,45.6,0,91.2,0,136.8c0,47.4,0,94.9,0,142.3c0,39,0,78,0,116.9c0,20.2,0,40.4,0,60.7c0,0.9,0,1.8,0,2.8c2-4.3,4.1-8.6,6.1-12.9
				c-21.6,0-43.2,0-64.8,0c-51.9,0-103.7,0-155.6,0c-62.7,0-125.5,0-188.2,0c-54.2,0-108.5,0-162.8,0c-17.9,0-35.8,0-53.7,0
				c-8.4,0-17.1-0.7-25.5,0c-0.4,0-0.8,0-1.1,0c-8.5,0-8.6,25.7,0,25.7c21.6,0,43.2,0,64.8,0c51.9,0,103.7,0,155.6,0
				c62.7,0,125.5,0,188.2,0c54.2,0,108.5,0,162.8,0c17.9,0,35.8,0,53.7,0c8.4,0,17.1,0.7,25.5,0c0.4,0,0.8,0,1.1,0
				c5.3,0,6.1-9.9,6.1-12.9c0-19.8,0-39.5,0-59.3c0-47.2,0-94.5,0-141.7c0-57.1,0-114.2,0-171.3c0-49.5,0-99.1,0-148.6
				c0-23.8,1.3-48,0-71.9c0-0.3,0-0.7,0-1c-1.5,4.1-3,8.3-4.5,12.4c39.9-24.7,79.8-49.3,119.7-74c63.3-39.2,126.6-78.3,190-117.4
				c14.5-9,29-18,43.6-26.9C3622,551,3618.6,526.3,3611.6,530.6L3611.6,530.6z"/>
		</g>
		<g>
			<g>
				<g>
					<defs>
						<path id="SVGID_00000123443199812680903460000000825934039797486775_" d="M3599.4,1795.7H1605.2c-7.7,0-13.9-6.2-13.9-13.9
							V465.6c0-7.6,6.2-13.9,13.9-13.9h1994.2c7.6,0,13.9,6.2,13.9,13.9v1316.2C3613.2,1789.4,3607,1795.7,3599.4,1795.7z"/>
					</defs>
					<clipPath id="SVGID_00000138559247859929003990000001173392262399001741_">
						<use xlink:href="#SVGID_00000123443199812680903460000000825934039797486775_"  style="overflow:visible;"/>
					</clipPath>
					
						<path style="clip-path:url(#SVGID_00000138559247859929003990000001173392262399001741_);fill:none;stroke:#000000;stroke-width:10;stroke-miterlimit:10;" d="
						M3724,956.3c0,0-313.8-61.3-335.9-48c-22.2,13.3-30.5,218-15.8,244.4s333,122.8,333,122.8L3724,956.3z"/>
				</g>
			</g>
			<g>
				<g>
					<defs>
						<path id="SVGID_00000155132748405203431820000003802787374049766073_" d="M3599.4,1795.7H1605.2c-7.7,0-13.9-6.2-13.9-13.9
							V465.6c0-7.6,6.2-13.9,13.9-13.9h1994.2c7.6,0,13.9,6.2,13.9,13.9v1316.2C3613.2,1789.4,3607,1795.7,3599.4,1795.7z"/>
					</defs>
					<clipPath id="SVGID_00000180336766456641972300000012027578356511300227_">
						<use xlink:href="#SVGID_00000155132748405203431820000003802787374049766073_"  style="overflow:visible;"/>
					</clipPath>
					<g style="clip-path:url(#SVGID_00000180336766456641972300000012027578356511300227_);">
						<path class="st6" d="M1444.2,827.2c65-6.2,129.2-20.9,189.7-43.9c30-11.4,59.1-25.5,90.4-33.6c20.4-5.3,57-11.4,65.5,13.6
							c4.2,12.5,3.2,27,3.4,40c0.3,16,0.1,32.1-0.7,48.1c-1.2,26.8-2.4,55.2-13.2,80.5c-10.5,24.7-32.4,40.4-57.5,51.7
							c-28.6,12.8-59,22.5-88.6,33.2c-73.7,26.9-147.5,53.8-221.2,80.7c-10.7,3.9-7,29.1,5.4,24.5c69.4-25.3,138.9-50.6,208.3-76
							c32.1-11.7,65-22.4,96.4-35.8c27.2-11.6,52.5-27.7,66.7-52.9c14.6-25.9,18.4-55.2,20.4-84c2.4-33.2,4-67.3,0.7-100.5
							c-1.4-14.1-4.8-28.6-15.4-39.4c-9.4-9.5-22.6-13.5-36.2-14c-15-0.6-30.1,3-44.4,7c-16.4,4.6-32.2,10.7-47.8,17.1
							c-35.6,14.5-71.1,28-108.5,37.9c-37.3,9.9-75.6,16.5-114.2,20.2C1431.3,802.8,1432.3,828.3,1444.2,827.2L1444.2,827.2z"/>
					</g>
				</g>
			</g>
			<g>
				<g>
					<defs>
						<path id="SVGID_00000114076033783322630050000002673824628908738222_" d="M3599.4,1795.7H1605.2c-7.7,0-13.9-6.2-13.9-13.9
							V465.6c0-7.6,6.2-13.9,13.9-13.9h1994.2c7.6,0,13.9,6.2,13.9,13.9v1316.2C3613.2,1789.4,3607,1795.7,3599.4,1795.7z"/>
					</defs>
					<clipPath id="SVGID_00000007416513458858709240000015363139091830213261_">
						<use xlink:href="#SVGID_00000114076033783322630050000002673824628908738222_"  style="overflow:visible;"/>
					</clipPath>
					<g style="clip-path:url(#SVGID_00000007416513458858709240000015363139091830213261_);">
						<path class="st8" d="M3229.4,1273.3c122.6,67.2,245.1,134.4,367.7,201.6c35,19.2,70,38.4,105.1,57.6
							c5.7,3.1,10.2-5.3,10.9-9.2c1-6-0.9-12.4-6.7-15.6c-122.6-67.2-245.1-134.4-367.7-201.6c-35-19.2-70-38.4-105.1-57.6
							c-5.7-3.1-10.2,5.3-10.9,9.2C3221.7,1263.8,3223.6,1270.2,3229.4,1273.3L3229.4,1273.3z"/>
					</g>
				</g>
			</g>
			<g>
				<g>
					<defs>
						<path id="SVGID_00000039829043180077791660000009460161597055291294_" d="M3599.4,1795.7H1605.2c-7.7,0-13.9-6.2-13.9-13.9
							V465.6c0-7.6,6.2-13.9,13.9-13.9h1994.2c7.6,0,13.9,6.2,13.9,13.9v1316.2C3613.2,1789.4,3607,1795.7,3599.4,1795.7z"/>
					</defs>
					<clipPath id="SVGID_00000097494745865403163080000007911744338609902242_">
						<use xlink:href="#SVGID_00000039829043180077791660000009460161597055291294_"  style="overflow:visible;"/>
					</clipPath>
					<g style="clip-path:url(#SVGID_00000097494745865403163080000007911744338609902242_);">
						<path class="st10" d="M3705.3,992.9c-51.1-10.9-102.3-21.2-153.6-31c-25.9-4.9-51.8-9.7-77.8-14.3
							c-10.8-1.9-23.1-5.7-34.1-4.5c-11.6,1.2-18.9,8.3-23,18c-4.4,10.3-6.3,22.1-8.4,32.9c-2.3,11.7-4,23.5-5.1,35.4
							c-1.1,11.8-1.6,23.6-1.6,35.4c0.1,11.5-0.9,25.1,3.6,35.9c4.4,10.7,14.7,14.2,25.2,18.3c11.8,4.6,23.6,9,35.5,13.4
							c23.4,8.6,46.9,16.7,70.6,24.3c54.1,17.5,109,32.8,164.6,45.8c13.1,3.1,15.3-22.1,4.1-24.7c-90.2-21.1-178.7-48.2-264.6-81.2
							c-5.1-1.9-10.2-3.8-15.2-5.9c-4.3-1.8-4.8-2.3-5.1-6.7c-0.7-10.7-0.9-21.4-0.6-32c0.6-21.4,3.7-42.8,8.6-63.8
							c1.5-6.2,2-17.3,10-19.4c9.8-2.5,22.9,2,32.5,3.7c23.7,4.2,47.4,8.5,71.1,13c53.1,10,106.1,20.7,159,32
							C3714.3,1020.4,3716.4,995.2,3705.3,992.9L3705.3,992.9z"/>
					</g>
				</g>
			</g>
			<g>
				<g>
					<defs>
						<path id="SVGID_00000014592585131886711150000011397982502413930409_" d="M3599.4,1795.7H1605.2c-7.7,0-13.9-6.2-13.9-13.9
							V465.6c0-7.6,6.2-13.9,13.9-13.9h1994.2c7.6,0,13.9,6.2,13.9,13.9v1316.2C3613.2,1789.4,3607,1795.7,3599.4,1795.7z"/>
					</defs>
					<clipPath id="SVGID_00000047021571330283391870000010902321567781309844_">
						<use xlink:href="#SVGID_00000014592585131886711150000011397982502413930409_"  style="overflow:visible;"/>
					</clipPath>
					
						<path style="clip-path:url(#SVGID_00000047021571330283391870000010902321567781309844_);fill:none;stroke:#000000;stroke-width:10;stroke-miterlimit:10;" d="
						M1335.7,1234c0,0,368.4-227.2,461.8-186.3c93.4,40.9,30.7,132.5,96.4,137.3c65.8,4.8,147.6-5.9,149.7,72.3
						c2.1,78.2,13.3,156.6-29.2,195.6c-42.5,39-516.8,495.1-646.5,377.9C1238.3,1713.6,1202.3,1382.1,1335.7,1234z"/>
				</g>
			</g>
			<g>
				<g>
					<defs>
						<path id="SVGID_00000162349837713780493220000014461248932008289973_" d="M3599.4,1795.7H1605.2c-7.7,0-13.9-6.2-13.9-13.9
							V465.6c0-7.6,6.2-13.9,13.9-13.9h1994.2c7.6,0,13.9,6.2,13.9,13.9v1316.2C3613.2,1789.4,3607,1795.7,3599.4,1795.7z"/>
					</defs>
					<clipPath id="SVGID_00000168098061165722869670000012916571351235740832_">
						<use xlink:href="#SVGID_00000162349837713780493220000014461248932008289973_"  style="overflow:visible;"/>
					</clipPath>
					<g style="clip-path:url(#SVGID_00000168098061165722869670000012916571351235740832_);">
						<path class="st10" d="M1868.3,1190.3c-138.2,70.6-273,146.8-403.8,228.5c-37.3,23.3-74.2,47-110.8,71.1
							c-9.2,6.1-2.6,29.9,9.7,21.8c127.9-84.2,259.9-163.2,395.4-236.5c38.1-20.6,76.4-40.7,115-60.4
							C1883.9,1209.6,1879.6,1184.5,1868.3,1190.3L1868.3,1190.3z"/>
					</g>
				</g>
			</g>
			<g>
				<g>
					<defs>
						<path id="SVGID_00000012447382586732749350000006866904358134972809_" d="M3599.4,1795.7H1605.2c-7.7,0-13.9-6.2-13.9-13.9
							V465.6c0-7.6,6.2-13.9,13.9-13.9h1994.2c7.6,0,13.9,6.2,13.9,13.9v1316.2C3613.2,1789.4,3607,1795.7,3599.4,1795.7z"/>
					</defs>
					<clipPath id="SVGID_00000141428396069432805020000012336738861577657020_">
						<use xlink:href="#SVGID_00000012447382586732749350000006866904358134972809_"  style="overflow:visible;"/>
					</clipPath>
					<g style="clip-path:url(#SVGID_00000141428396069432805020000012336738861577657020_);">
						<path class="st10" d="M1419.1,1661.9c141.8-96.8,280.5-197.6,415.8-302.1c38.5-29.7,76.7-59.7,114.6-90
							c8.5-6.8,1.6-30.8-9.7-21.8c-133.4,106.6-270.2,209.6-410.2,308.6c-39.8,28.2-79.9,56-120.2,83.5
							C1400.3,1646.3,1407,1670.2,1419.1,1661.9L1419.1,1661.9z"/>
					</g>
				</g>
			</g>
			<g>
				<g>
					<defs>
						<path id="SVGID_00000012443611282678752260000006212127166275271053_" d="M3599.4,1795.7H1605.2c-7.7,0-13.9-6.2-13.9-13.9
							V465.6c0-7.6,6.2-13.9,13.9-13.9h1994.2c7.6,0,13.9,6.2,13.9,13.9v1316.2C3613.2,1789.4,3607,1795.7,3599.4,1795.7z"/>
					</defs>
					<clipPath id="SVGID_00000077297854400394741350000007552294368756545422_">
						<use xlink:href="#SVGID_00000012443611282678752260000006212127166275271053_"  style="overflow:visible;"/>
					</clipPath>
					
						<path style="clip-path:url(#SVGID_00000077297854400394741350000007552294368756545422_);fill:none;stroke:#000000;stroke-width:10;stroke-miterlimit:10;" d="
						M1712.9,1947.8c0,0,431.1-502.3,859.6-525.3s763.8,648.2,763.8,648.2L1712.9,1947.8z"/>
				</g>
			</g>
			<g>
				<path id="SVGID_1_" class="st15" d="M3599.4,1795.7H1605.2c-7.7,0-13.9-6.2-13.9-13.9V465.6c0-7.6,6.2-13.9,13.9-13.9h1994.2
					c7.6,0,13.9,6.2,13.9,13.9v1316.2C3613.2,1789.4,3607,1795.7,3599.4,1795.7z"/>
			</g>
		</g>
		<g>
			<path d="M3593.9,1782.8c-13.2,0-26.4,0-39.5,0c-36.4,0-72.8,0-109.2,0c-55,0-109.9,0-164.9,0c-68.8,0-137.7,0-206.5,0
				c-78.3,0-156.7,0-235,0c-82.2,0-164.4,0-246.6,0c-82.6,0-165.3,0-247.9,0c-77.1,0-154.2,0-231.4,0c-68.1,0-136.3,0-204.4,0
				c-53.6,0-107.1,0-160.7,0c-34.6,0-69.2,0-103.9,0c-8.7,0-17.4,0-26.2,0c-2,0-4,0.1-6,0c-0.4,0-0.7,0-1.1,0
				c-2.5-0.2-4.8-0.4-7.1-1.5c-2.9-1.3-4.8-3.2-6.5-5.7c-0.2-0.3,0.4,2.6,0.3,2.1c-0.9-4.6,0-10.2,0-14.9c0-13,0-26,0-39
				c0-45.5,0-91,0-136.5c0-64.4,0-128.9,0-193.3c0-74.8,0-149.5,0-224.3c0-76.5,0-152.9,0-229.4c0-69.6,0-139.1,0-208.7
				c0-54,0-108.1,0-162.2c0-29.9,0-59.9,0-89.8c0-2.7,0.2-5.4,0-8.1c0-0.5-0.1-1.1,0-1.6c0.2-1-0.5,2.3-0.3,2
				c3-4.8,7.6-6.8,13.5-7.2c3.6-0.2,7.3,0,10.9,0c25.8,0,51.6,0,77.4,0c46.6,0,93.2,0,139.8,0c62.7,0,125.5,0,188.2,0
				c74.2,0,148.4,0,222.5,0c80.9,0,161.9,0,242.8,0c83,0,166,0,249,0c80.4,0,160.8,0,241.1,0c73.1,0,146.1,0,219.2,0
				c61.3,0,122.6,0,183.9,0c44.2,0,88.4,0,132.6,0c23.1,0,46.2,0,69.3,0c1.8,0,3.7-0.1,5.5,0c0.3,0,0.6,0,0.9,0
				c4.8,0.3,7.5,1.5,11.2,4.2c2.1,1.6,2.6,3.9,2,1c0.9,4.9,0,10.8,0,15.7c0,33.4,0,66.8,0,100.2c0,56.4,0,112.8,0,169.2
				c0,70.9,0,141.7,0,212.6c0,76.7,0,153.4,0,230.2c0,74,0,147.9,0,221.9c0,62.6,0,125.2,0,187.8c0,42.6,0,85.2,0,127.9
				c0,10.8,0,21.6,0,32.4c0,2.7-0.2,5.4,0,8.1c0,0.5,0.1,1.2,0,1.7c0,0.1,0,0.2,0,0.3c0.8-4.1-1.4,0.5-3,1.8
				C3601.2,1781.8,3597.6,1782.6,3593.9,1782.8c-8.8,0.6-8.3,26.2,0,25.7c32.4-2,25.4-47.8,25.4-69c0-41.9,0-83.7,0-125.6
				c0-62.5,0-125,0-187.6c0-74.7,0-149.3,0-224c0-77.4,0-154.7,0-232.1c0-71.5,0-143,0-214.5c0-57,0-114.1,0-171.1
				c0-33.2,0-66.5,0-99.7c0-5,0.1-10.1,0-15.1c-0.4-14.8-7.8-30-25.6-30.8c-1.4-0.1-2.8,0-4.2,0c-21.6,0-43.2,0-64.8,0
				c-43.8,0-87.6,0-131.4,0c-60.9,0-121.7,0-182.6,0c-73.3,0-146.5,0-219.8,0c-81.2,0-162.4,0-243.6,0c-83.7,0-167.3,0-251,0
				c-81.6,0-163.3,0-244.9,0c-75.1,0-150.2,0-225.3,0c-63.1,0-126.3,0-189.4,0c-46.7,0-93.4,0-140.1,0c-25.5,0-51,0-76.5,0
				c-4.8,0-10-0.4-14.8,0.6c-18.6,4.1-20.3,22.9-20.3,37.7c0,28.8,0,57.6,0,86.4c0,53.7,0,107.3,0,161c0,70.1,0,140.1,0,210.2
				c0,77,0,154.1,0,231.1c0,75.4,0,150.9,0,226.3c0,65.2,0,130.5,0,195.7c0,45.7,0,91.4,0,137.1c0,17.6-0.5,35.2,0,52.8
				c0.4,14.9,7.9,29.9,25.8,30.8c1.5,0.1,3,0,4.5,0c8,0,16,0,24,0c33.6,0,67.2,0,100.8,0c53.1,0,106.2,0,159.3,0
				c68.1,0,136.3,0,204.4,0c77.8,0,155.6,0,233.4,0c83.2,0,166.5,0,249.7,0c83.2,0,166.4,0,249.6,0c79,0,158,0,237,0
				c69.3,0,138.7,0,208,0c55.2,0,110.4,0,165.6,0c36.4,0,72.8,0,109.1,0c12.5,0,24.9,0,37.4,0
				C3602.4,1808.5,3602.5,1782.8,3593.9,1782.8z"/>
		</g>
		<g>
			<path class="st16" d="M3613.2,1344.3l-294.9-154.4c0,0-85.8,35.2-99.9,41.6c-14,6.3-10.9,118.7-10.9,118.7l406.1,399
				L3613.2,1344.3z"/>
		</g>
	</g>
</g>
<path class="st17" d="M3204.1,1255.2"/>
<path class="st17" d="M3623.1,1550"/>
<path class="st18" d="M3622.7,1544.2c-107.7-74.9-215.4-149.9-323.2-224.8c-30.8-21.4-61.6-42.8-92.3-64.2"/>
</svg>
