<?xml version="1.0" encoding="utf-8"?>
<!-- Generator: Adobe Illustrator 26.5.0, SVG Export Plug-In . SVG Version: 6.00 Build 0)  -->
<svg version="1.1" id="Layer_1" xmlns="http://www.w3.org/2000/svg" xmlns:xlink="http://www.w3.org/1999/xlink" x="0px" y="0px"
	 viewBox="0 0 5200 2592.64" style="enable-background:new 0 0 5200 2592.64;" xml:space="preserve">
<style type="text/css">
	.st0{fill:none;}
	.st1{clip-path:url(#SVGID_00000167381376291787523490000000975636776683967926_);}
	.st2{clip-path:url(#SVGID_00000170967588532251142300000009139164973238298757_);fill:#BF6325;}
	.st3{clip-path:url(#SVGID_00000040559663358172668160000011133968200777856182_);}
	.st4{clip-path:url(#SVGID_00000004515906334664175130000013653176069101985184_);}
	.st5{fill:#FFFFFF;}
	.st6{clip-path:url(#SVGID_00000157293590580659104750000017816277083037617291_);}
	.st7{clip-path:url(#SVGID_00000164509881797781100630000004509883096928321192_);fill:#FDC854;}
	.st8{clip-path:url(#SVGID_00000116236219913917313490000001545341770053303227_);}
	.st9{clip-path:url(#SVGID_00000129172055736390525510000010267267081635539878_);}
	.st10{stroke:#000000;stroke-width:11;stroke-miterlimit:10;}
	.st11{fill:none;stroke:#000000;stroke-width:11;stroke-miterlimit:10;}
	.st12{fill:#0F86A1;stroke:#000000;stroke-width:10;stroke-miterlimit:10;}
	.st13{fill:none;stroke:#000000;stroke-width:10;stroke-miterlimit:10;}
</style>
<path class="st0" d="M3503.63,1761.46H1641.61c-10.01,0-18.11-8.11-18.11-18.11V420.4c0-10.01,8.11-18.11,18.11-18.11h1862.02
	c10.01,0,18.11,8.11,18.11,18.11v1322.95C3521.76,1753.35,3513.64,1761.46,3503.63,1761.46z"/>
<g>
	<path d="M1640.68,724.05c62.06,0,124.13,0,186.19,0c148.99,0,298,0,446.99,0c179.5,0,359,0,538.5,0c155.24,0,310.49,0,465.74,0
		c51.71,0,103.43,0,155.14,0c23.82,0,48.74,0.69,72.5,0c1.07-0.04,2.17,0,3.25,0c24.54,0,24.78-26.27,0-26.27
		c-62.06,0-124.13,0-186.19,0c-148.99,0-298,0-446.99,0c-179.5,0-359,0-538.5,0c-155.24,0-310.49,0-465.74,0
		c-51.71,0-103.43,0-155.14,0c-23.82,0-48.74-0.69-72.5,0c-1.07,0.04-2.17,0-3.25,0C1616.15,697.78,1615.91,724.05,1640.68,724.05
		L1640.68,724.05z"/>
</g>
<g>
	<g>
		<g>
			<defs>
				<path id="SVGID_1_" d="M3498.48,1748.38H1632.71c-8.97,0-16.25-7.27-16.25-16.25V405.44c0-8.97,7.27-16.25,16.25-16.25h1865.77
					c8.97,0,16.25,7.27,16.25,16.25v1326.69C3514.72,1741.1,3507.46,1748.38,3498.48,1748.38z"/>
			</defs>
			<clipPath id="SVGID_00000161631407358687178670000016025445369753970087_">
				<use xlink:href="#SVGID_1_"  style="overflow:visible;"/>
			</clipPath>
			<path style="clip-path:url(#SVGID_00000161631407358687178670000016025445369753970087_);" d="M4820.43,1309.01
				c0,0-294.59-62.04-315.39-48.57c-20.81,13.47-28.66,220.47-14.84,247.16c13.81,26.7,312.63,124.18,312.63,124.18L4820.43,1309.01
				z"/>
		</g>
	</g>
	<g>
		<g>
			<defs>
				<path id="SVGID_00000089538774885657523640000001245766460159755674_" d="M3498.48,1748.38H1632.71
					c-8.97,0-16.25-7.27-16.25-16.25V405.44c0-8.97,7.27-16.25,16.25-16.25h1865.77c8.97,0,16.25,7.27,16.25,16.25v1326.69
					C3514.72,1741.1,3507.46,1748.38,3498.48,1748.38z"/>
			</defs>
			<clipPath id="SVGID_00000152963009722253616710000015887067332833082028_">
				<use xlink:href="#SVGID_00000089538774885657523640000001245766460159755674_"  style="overflow:visible;"/>
			</clipPath>
			<path style="clip-path:url(#SVGID_00000152963009722253616710000015887067332833082028_);fill:#BF6325;" d="M2019.95,2967.73
				c0,0,404.69-507.97,807.01-531.25c402.33-23.28,717.07,655.55,717.07,655.55L2019.95,2967.73z"/>
		</g>
	</g>
	<g>
		<g>
			<defs>
				<path id="SVGID_00000036953926231466327980000000976015578187742117_" d="M3498.48,1748.38H1632.71
					c-8.97,0-16.25-7.27-16.25-16.25V405.44c0-8.97,7.27-16.25,16.25-16.25h1865.77c8.97,0,16.25,7.27,16.25,16.25v1326.69
					C3514.72,1741.1,3507.46,1748.38,3498.48,1748.38z"/>
			</defs>
			<clipPath id="SVGID_00000059283459628673760760000004990251702665114542_">
				<use xlink:href="#SVGID_00000036953926231466327980000000976015578187742117_"  style="overflow:visible;"/>
			</clipPath>
			<g style="clip-path:url(#SVGID_00000059283459628673760760000004990251702665114542_);">
				<path d="M243.02,761.31c61.05-6.27,121.27-21.15,178.08-44.43c28.19-11.55,55.45-25.81,84.92-34
					c19.15-5.32,53.53-11.56,61.46,13.76c3.97,12.66,2.98,27.36,3.19,40.43c0.27,16.22,0.06,32.45-0.62,48.66
					c-1.15,27.15-2.29,55.85-12.39,81.41c-9.89,25.02-30.41,40.88-54.01,52.26c-26.86,12.95-55.42,22.73-83.16,33.63
					c-69.23,27.2-138.45,54.39-207.69,81.6c-10.07,3.96-6.54,29.38,5.12,24.79c65.18-25.61,130.37-51.22,195.54-76.83
					c30.17-11.85,61.05-22.68,90.54-36.16c25.57-11.69,49.27-28.04,62.59-53.53c13.7-26.22,17.23-55.86,19.15-84.96
					c2.22-33.55,3.79-68.05,0.66-101.59c-1.34-14.27-4.55-28.94-14.5-39.81c-8.79-9.6-21.17-13.63-33.94-14.17
					c-14.08-0.59-28.3,3.02-41.67,7.06c-15.37,4.63-30.2,10.84-44.87,17.28c-33.37,14.63-66.76,28.37-101.86,38.36
					c-35.05,9.98-70.92,16.69-107.17,20.42C230.87,736.66,231.78,762.45,243.02,761.31L243.02,761.31z"/>
			</g>
		</g>
	</g>
	<g>
		<g>
			<defs>
				<path id="SVGID_00000133520146856694831270000017786555349907014287_" d="M3498.48,1748.38H1632.71
					c-8.97,0-16.25-7.27-16.25-16.25V405.44c0-8.97,7.27-16.25,16.25-16.25h1865.77c8.97,0,16.25,7.27,16.25,16.25v1326.69
					C3514.72,1741.1,3507.46,1748.38,3498.48,1748.38z"/>
			</defs>
			<clipPath id="SVGID_00000169542712107894729050000006938394612419845013_">
				<use xlink:href="#SVGID_00000133520146856694831270000017786555349907014287_"  style="overflow:visible;"/>
			</clipPath>
			<g style="clip-path:url(#SVGID_00000169542712107894729050000006938394612419845013_);">
				<path class="st5" d="M3030.47,2128.87c115.08,67.97,230.16,135.92,345.24,203.89c32.88,19.41,65.76,38.84,98.65,58.25
					c5.38,3.18,9.59-5.37,10.21-9.27c0.96-6.1-0.88-12.53-6.31-15.74c-115.08-67.97-230.16-135.92-345.24-203.89
					c-32.88-19.41-65.76-38.84-98.65-58.25c-5.38-3.18-9.59,5.37-10.21,9.27C3023.19,2119.23,3025.03,2125.67,3030.47,2128.87
					L3030.47,2128.87z"/>
			</g>
		</g>
	</g>
	<g>
		<g>
			<defs>
				<path id="SVGID_00000038388029135800855020000007771209823993830834_" d="M3498.48,1748.38H1632.71
					c-8.97,0-16.25-7.27-16.25-16.25V405.44c0-8.97,7.27-16.25,16.25-16.25h1865.77c8.97,0,16.25,7.27,16.25,16.25v1326.69
					C3514.72,1741.1,3507.46,1748.38,3498.48,1748.38z"/>
			</defs>
			<clipPath id="SVGID_00000063619226457852884710000002543893746252928642_">
				<use xlink:href="#SVGID_00000038388029135800855020000007771209823993830834_"  style="overflow:visible;"/>
			</clipPath>
			<g style="clip-path:url(#SVGID_00000063619226457852884710000002543893746252928642_);">
				<path class="st5" d="M4848.16,1084.31c-47.93-11.02-96.01-21.46-144.21-31.31c-24.31-4.96-48.65-9.76-73.01-14.43
					c-10.12-1.93-21.64-5.73-32.01-4.61c-10.87,1.18-17.71,8.44-21.58,18.25c-4.11,10.42-5.92,22.31-7.94,33.28
					c-2.17,11.85-3.75,23.82-4.75,35.84c-0.98,11.91-1.52,23.87-1.45,35.82c0.07,11.61-0.82,25.37,3.38,36.34
					c4.11,10.77,13.76,14.38,23.64,18.51c11.08,4.62,22.19,9.13,33.35,13.53c21.94,8.64,44.05,16.86,66.31,24.63
					c50.78,17.74,102.35,33.16,154.5,46.33c12.25,3.09,14.33-22.38,3.89-25.02c-84.65-21.36-167.75-48.77-248.45-82.1
					c-4.76-1.97-9.57-3.87-14.25-5.98c-4.06-1.82-4.5-2.36-4.76-6.72c-0.64-10.78-0.83-21.6-0.53-32.4
					c0.61-21.7,3.45-43.34,8.08-64.53c1.37-6.27,1.9-17.51,9.38-19.61c9.19-2.57,21.55,1.97,30.55,3.69
					c22.26,4.26,44.51,8.65,66.72,13.16c49.88,10.14,99.63,20.92,149.24,32.33C4856.61,1112.16,4858.61,1086.71,4848.16,1084.31
					L4848.16,1084.31z"/>
			</g>
		</g>
	</g>
	<g>
		<g>
			<defs>
				<path id="SVGID_00000101062962526759514480000006255493212444659128_" d="M3498.48,1748.38H1632.71
					c-8.97,0-16.25-7.27-16.25-16.25V405.44c0-8.97,7.27-16.25,16.25-16.25h1865.77c8.97,0,16.25,7.27,16.25,16.25v1326.69
					C3514.72,1741.1,3507.46,1748.38,3498.48,1748.38z"/>
			</defs>
			<clipPath id="SVGID_00000154421488750341743100000014215706927429054863_">
				<use xlink:href="#SVGID_00000101062962526759514480000006255493212444659128_"  style="overflow:visible;"/>
			</clipPath>
			<path style="clip-path:url(#SVGID_00000154421488750341743100000014215706927429054863_);fill:#FDC854;" d="M63.12,1173.54
				c0,0,345.9-229.81,433.56-188.44c87.67,41.37,28.8,134,90.56,138.9c61.74,4.9,138.58-5.93,140.56,73.14
				c1.98,79.07,12.47,158.35-27.38,197.82c-39.86,39.47-485.22,500.72-606.98,382.15C-28.33,1658.57-62.14,1323.27,63.12,1173.54z"
				/>
		</g>
	</g>
	<g>
		<g>
			<defs>
				<path id="SVGID_00000002359971524002332080000000018838875324297397_" d="M3498.48,1748.38H1632.71
					c-8.97,0-16.25-7.27-16.25-16.25V405.44c0-8.97,7.27-16.25,16.25-16.25h1865.77c8.97,0,16.25,7.27,16.25,16.25v1326.69
					C3514.72,1741.1,3507.46,1748.38,3498.48,1748.38z"/>
			</defs>
			<clipPath id="SVGID_00000159468626198047870710000017539384663730835363_">
				<use xlink:href="#SVGID_00000002359971524002332080000000018838875324297397_"  style="overflow:visible;"/>
			</clipPath>
			<g style="clip-path:url(#SVGID_00000159468626198047870710000017539384663730835363_);">
				<path d="M216.69,1225.38c-129.72,71.38-256.28,148.49-379.14,231.13c-34.98,23.54-69.68,47.5-104.06,71.88
					c-8.62,6.12-2.4,30.26,9.11,22.09c120.12-85.2,244.02-165.02,371.25-239.19c35.73-20.83,71.73-41.19,107.96-61.13
					C231.35,1244.93,227.3,1219.54,216.69,1225.38L216.69,1225.38z"/>
			</g>
		</g>
	</g>
	<g>
		<g>
			<defs>
				<path id="SVGID_00000041268734692670697280000007666102909426878854_" d="M3498.48,1748.38H1632.71
					c-8.97,0-16.25-7.27-16.25-16.25V405.44c0-8.97,7.27-16.25,16.25-16.25h1865.77c8.97,0,16.25,7.27,16.25,16.25v1326.69
					C3514.72,1741.1,3507.46,1748.38,3498.48,1748.38z"/>
			</defs>
			<clipPath id="SVGID_00000098220191202532210020000017279410484436327572_">
				<use xlink:href="#SVGID_00000041268734692670697280000007666102909426878854_"  style="overflow:visible;"/>
			</clipPath>
			<g style="clip-path:url(#SVGID_00000098220191202532210020000017279410484436327572_);">
				<path class="st10" d="M2662.53,1878.47c1.65-269.01,3.28-548.86,4.86-839.25c0.45-82.55,0.89-165.96,1.34-250.16
					c0.11-18.94,0.02-85.7-0.12-60.69c-1.56,296.24-3.15,582.26-4.79,857.41c-0.47,78.21-0.94,155.53-1.41,232
					C2662.32,1835.01,2662.39,1901.42,2662.53,1878.47L2662.53,1878.47z"/>
			</g>
		</g>
	</g>
</g>
<g>
	<path d="M3503.63,1748.46c-12.38,0-24.75,0-37.12,0c-34.19,0-68.38,0-102.57,0c-51.6,0-103.22,0-154.82,0
		c-64.63,0-129.25,0-193.87,0c-73.55,0-147.11,0-220.65,0c-77.16,0-154.32,0-231.46,0c-77.59,0-155.18,0-232.77,0
		c-72.4,0-144.81,0-217.21,0c-63.97,0-127.94,0-191.9,0c-50.3,0-100.59,0-150.89,0c-32.51,0-65.01,0-97.52,0
		c-8.18,0-16.36,0-24.56,0c-1.86,0-3.75,0.09-5.6,0c-0.34-0.01-0.68,0.02-1.01,0c-2.34-0.16-4.48-0.43-6.65-1.49
		c-2.7-1.3-4.54-3.22-6.07-5.77c-0.18-0.29,0.36,2.66,0.26,2.07c-0.88-4.67,0-10.34,0-15.06c0-13.15,0-26.29,0-39.45
		c0-46.02,0-92.06,0-138.08c0-65.18,0-130.35,0-195.52c0-75.61,0-151.22,0-226.84c0-77.35,0-154.68,0-232.02
		c0-70.36,0-140.72,0-211.08c0-54.66,0-109.34,0-164c0-30.27,0-60.54,0-90.79c0-2.72,0.18-5.51,0-8.22c-0.04-0.49-0.08-1.15,0-1.63
		c0.18-1-0.45,2.3-0.26,1.97c2.86-4.85,7.17-6.88,12.66-7.26c3.38-0.23,6.86,0,10.25,0c24.23,0,48.46,0,72.68,0
		c43.76,0,87.53,0,131.29,0c58.91,0,117.8,0,176.71,0c69.64,0,139.28,0,208.92,0c75.97,0,151.96,0,227.93,0
		c77.92,0,155.84,0,233.76,0c75.46,0,150.93,0,226.39,0c68.61,0,137.21,0,205.82,0c57.56,0,115.12,0,172.66,0
		c41.5,0,82.98,0,124.48,0c21.69,0,43.37,0,65.06,0c1.72,0,3.46-0.08,5.18,0c0.28,0.01,0.57-0.02,0.86,0
		c4.48,0.3,7.08,1.56,10.53,4.29c2,1.59,2.43,3.93,1.89,0.97c0.89,4.95,0,10.89,0,15.9c0,33.77,0,67.55,0,101.31
		c0,57.04,0,114.07,0,171.11c0,71.67,0,143.34,0,215.01c0,77.59,0,155.19,0,232.79c0,74.81,0,149.61,0,224.43
		c0,63.31,0,126.63,0,189.94c0,43.1,0,86.22,0,129.32c0,10.93,0,21.85,0,32.76c0,2.71-0.14,5.45,0,8.16c0.02,0.54,0.08,1.2,0,1.73
		c-0.01,0.11,0.02,0.21,0,0.32c0.79-4.1-1.29,0.47-2.85,1.82C3510.5,1747.46,3507.07,1748.23,3503.63,1748.46
		c-8.29,0.56-7.77,26.54,0,26.01c30.44-2.05,23.84-48.32,23.84-69.82c0-42.34,0-84.68,0-127.03c0-63.23,0-126.46,0-189.69
		c0-75.52,0-151.03,0-226.55c0-78.24,0-156.48,0-234.72c0-72.33,0-144.66,0-216.98c0-57.69,0-115.36,0-173.05
		c0-33.62,0-67.24,0-100.86c0-5.1,0.14-10.21,0-15.31c-0.41-14.95-7.33-30.3-24.04-31.18c-1.3-0.07-2.64,0-3.94,0
		c-20.27,0-40.52,0-60.79,0c-41.13,0-82.27,0-123.39,0c-57.15,0-114.29,0-171.44,0c-68.79,0-137.58,0-206.35,0
		c-76.23,0-152.46,0-228.68,0c-78.54,0-157.08,0-235.62,0c-76.64,0-153.28,0-229.93,0c-70.5,0-141,0-211.5,0
		c-59.27,0-118.54,0-177.81,0c-43.83,0-87.66,0-131.49,0c-23.94,0-47.87,0-71.81,0c-4.54,0-9.4-0.42-13.84,0.64
		c-17.49,4.2-19.03,23.14-19.03,38.09c0,29.14,0,58.28,0,87.41c0,54.28,0,108.55,0,162.84c0,70.85,0,141.7,0,212.55
		c0,77.91,0,155.82,0,233.71c0,76.29,0,152.58,0,228.88c0,65.99,0,131.97,0,197.96c0,46.2,0,92.41,0,138.61
		c0,17.76-0.46,35.59,0,53.35c0.39,15.08,7.44,30.24,24.18,31.14c1.39,0.07,2.83,0,4.23,0c7.5,0,15,0,22.51,0
		c31.53,0,63.07,0,94.6,0c49.87,0,99.74,0,149.6,0c63.97,0,127.94,0,191.91,0c73.04,0,146.09,0,219.13,0c78.15,0,156.31,0,234.46,0
		c78.12,0,156.24,0,234.36,0c74.17,0,148.34,0,222.51,0c65.1,0,130.2,0,195.3,0c51.84,0,103.67,0,155.5,0c34.16,0,68.32,0,102.47,0
		c11.7,0,23.41,0,35.11,0C3511.65,1774.47,3511.73,1748.46,3503.63,1748.46z"/>
</g>
<circle class="st11" cx="1896.74" cy="547.12" r="105.8"/>
<circle class="st11" cx="1798.08" cy="1600.77" r="105.8"/>
<circle class="st11" cx="2832.78" cy="1600.77" r="105.8"/>
<g>
	<path class="st10" d="M3094.35,1760.43c1.49-241.53,2.94-492.79,4.36-753.52c0.4-74.11,0.81-149.01,1.21-224.6
		c0.09-17.01,0.01-76.95-0.11-54.49c-1.4,265.98-2.84,522.78-4.3,769.82c-0.42,70.23-0.84,139.65-1.27,208.31
		C3094.15,1721.39,3094.22,1781.03,3094.35,1760.43L3094.35,1760.43z"/>
</g>
<rect x="2277.21" y="820.35" class="st12" width="290.25" height="619.71"/>
<rect x="1991.73" y="952.64" class="st13" width="196.12" height="305.93"/>
<rect x="3146.02" y="1557.69" class="st13" width="304.63" height="133.36"/>
<rect x="2703.74" y="466.02" class="st12" width="717.77" height="193.49"/>
</svg>
