<?xml version="1.0" encoding="utf-8"?>
<!-- Generator: Adobe Illustrator 26.5.0, SVG Export Plug-In . SVG Version: 6.00 Build 0)  -->
<svg version="1.1" id="wall_painting" xmlns="http://www.w3.org/2000/svg" xmlns:xlink="http://www.w3.org/1999/xlink" x="0px"
	 y="0px" viewBox="0 0 5200 2095.76" style="enable-background:new 0 0 5200 2095.76;" xml:space="preserve">
<style type="text/css">
	.st0{fill:#F8EFE5;}
	.st1{fill:#FFFFFF;}
</style>
<path class="st0" d="M2008.72,1165.66v512.4c0,57.02,129.96,103.24,290.28,103.24s290.28-46.22,290.28-103.24v-512.4H2008.72z"/>
<g>
	<path d="M2002.7,1165.66c0,7.99,0,15.98,0,23.97c0,21.05,0,42.09,0,63.14c0,29.3,0,58.6,0,87.9c0,33.06,0,66.11,0,99.17
		c0,32.39,0,64.78,0,97.16c0,26.8,0,53.61,0,80.41c0,16.81,0,33.62,0,50.44c0,15.2,1.01,29.58,9.06,43.14
		c7.5,12.63,19.43,22.45,31.66,30.29c16.62,10.65,35.06,18.38,53.7,24.7c50.37,17.07,103.81,24.82,156.77,27.76
		c59.36,3.29,119.51,0.54,178.04-10.2c42.39-7.78,87.43-19.18,123.91-43.08c22.45-14.71,39.23-35.13,39.45-63.01
		c0.08-10.28,0-20.56,0-30.84c0-22.64,0-45.28,0-67.92c0-30.18,0-60.36,0-90.54c0-33.23,0-66.46,0-99.69c0-31.85,0-63.7,0-95.55
		c0-25.56,0-51.12,0-76.68c0-14.86,0-29.73,0-44.59c0-1.99,0-3.98,0-5.98c0-3.39-0.78-13.67-6.02-13.67c-19.24,0-38.48,0-57.71,0
		c-46.2,0-92.41,0-138.61,0c-55.9,0-111.81,0-167.71,0c-48.34,0-96.67,0-145.01,0c-15.94,0-31.87,0-47.81,0
		c-7.49,0-15.23-0.57-22.71,0c-0.33,0.02-0.67,0-1,0c-8.43,0-8.52,27.34,0,27.34c19.24,0,38.48,0,57.71,0c46.2,0,92.41,0,138.61,0
		c55.9,0,111.81,0,167.71,0c48.34,0,96.67,0,145.01,0c15.94,0,31.87,0,47.81,0c7.47,0,15.25,0.63,22.71,0c0.33-0.03,0.67,0,1,0
		c-2.01-4.56-4.01-9.11-6.02-13.67c0,28.39,0,56.79,0,85.18c0,61.5,0,123,0,184.51c0,59.09,0,118.19,0,177.28c0,17.6,0,35.2,0,52.8
		c0,3.76,0.01,7.52,0,11.29c0,0.39-0.14,2.57-0.02,2.68c-0.62-0.59,0.35-3.75,0.03-0.98c-0.08,0.66-0.22,1.33-0.26,1.98
		c0.29-4.25-0.1,0.06-0.41,1.32c-0.19,0.74-1.11,2.86,0.11-0.17c-0.26,0.64-0.48,1.29-0.74,1.93c-0.63,1.53-1.35,3-2.12,4.46
		c-1.13,2.17,1.1-1.71-0.23,0.38c-0.4,0.63-0.79,1.26-1.2,1.88c-0.85,1.27-1.75,2.51-2.68,3.71c-2.16,2.78-4.54,5.42-7.09,7.85
		c-4.55,4.35-11.6,9.56-17.68,13.43c-16.51,10.51-34.79,18.16-53.27,24.43c-49.51,16.79-102.45,24-154.47,26.83
		c-58.8,3.2-118.37,0.46-176.35-10.1c-41.7-7.6-85.61-18.75-121.49-42.25c-6.01-3.94-12.74-9.04-17.18-13.52
		c-2.27-2.29-4.41-4.71-6.36-7.27c-0.92-1.21-1.8-2.45-2.62-3.72c-0.4-0.62-0.79-1.25-1.17-1.88c1.3,2.15-0.3-0.59-0.51-1.02
		c-0.63-1.26-1.16-2.55-1.72-3.84c-0.3-0.71-0.85-2.96,0.02,0.18c-0.18-0.65-0.4-1.29-0.57-1.95c-0.17-0.65-0.29-1.31-0.47-1.96
		c-0.65-2.39,0.15,3.1,0.14,0.64c0-0.61-0.11-1.39-0.23-1.98c-0.44-2.26-0.02,3.84,0.07,0.31c0.01-0.53,0-1.06,0-1.59
		c-0.01-11.36,0-22.72,0-34.08c0-53.19,0-106.39,0-159.58c0-64.17,0-128.34,0-192.51c0-39.63,0-79.26,0-118.89c0-1.91,0-3.83,0-5.74
		c0-3.66-0.72-13.48-6.02-13.67C2003.52,1151.8,2002.7,1162.64,2002.7,1165.66z"/>
</g>
<ellipse class="st0" cx="2298.99" cy="1165.66" rx="303.22" ry="103.24"/>
<g>
	<path d="M2596.2,1165.66c-0.02,2.75-0.28-0.83,0.12-1.07c-0.15,0.09-0.17,1.68-0.19,1.91c-0.18,2.3,0.47,0.03,0.2-0.73
		c0.16,0.46-0.38,1.73-0.51,2.21c-0.16,0.63-0.39,1.25-0.54,1.88c-0.04,0.18,0.87-2.09-0.05,0.04c-0.59,1.35-1.16,2.69-1.82,4.01
		c-0.16,0.31-1.21,2.18-0.56,1.07c0.65-1.12-0.49,0.76-0.68,1.05c-0.88,1.32-1.77,2.63-2.74,3.89c-2.06,2.69-4.33,5.24-6.75,7.61
		c-10.56,10.37-26.37,19.33-40.68,25.97c-43.94,20.39-92.96,29.88-140.75,35.71c-60.64,7.4-122.35,8.02-183.16,2.3
		c-50.24-4.72-101.48-13.34-148.53-32.17c-16.65-6.66-33.15-14.72-47.32-25.85c-5.46-4.29-9.36-7.9-13.7-13.58
		c-0.96-1.26-1.86-2.57-2.74-3.89c-0.19-0.29-1.33-2.17-0.68-1.05c0.63,1.07-0.53-1-0.72-1.37c-0.61-1.21-1.13-2.45-1.66-3.7
		c-0.62-1.47-0.36-1.21,0.05,0.28c-0.2-0.73-0.45-1.46-0.64-2.19c-0.16-0.61-0.23-1.3-0.44-1.89c-0.23-0.65,0.32,3.07,0.18,0.73
		c-0.04-0.61-0.08-1.32-0.21-1.91c-0.03-0.12,0.68,3.53,0.1,0.43c-0.43-2.3-0.22,1.6-0.1,1.07c0.13-0.59,0.17-1.31,0.21-1.91
		c0.14-2.34-0.41,1.38-0.18,0.73c0.25-0.69,0.35-1.49,0.52-2.2c0.16-0.64,0.39-1.25,0.56-1.88c-0.4,1.49-0.67,1.75-0.05,0.28
		c0.58-1.35,1.16-2.69,1.82-4.01c0.16-0.31,1.21-2.18,0.56-1.07c-0.65,1.12,0.49-0.76,0.68-1.05c0.95-1.43,1.92-2.83,2.97-4.19
		c8.84-11.44,21.6-19.92,34.86-27.1c40.49-21.95,87.28-32.25,132.44-39.08c60.01-9.07,121.27-10.94,181.8-6.89
		c52.49,3.52,105.89,11.16,155.78,28.44c18.25,6.32,36.31,13.99,52.55,24.55c3.27,2.13,6.47,4.38,9.54,6.8
		c2.74,2.16,5.72,4.72,7.53,6.55c2.28,2.3,4.44,4.74,6.39,7.33c0.88,1.17,1.7,2.38,2.51,3.6c0.19,0.29,1.33,2.17,0.68,1.05
		c-0.63-1.07,0.53,1,0.72,1.37c0.61,1.21,1.13,2.45,1.66,3.7c0.91,2.14,0.01-0.12,0.05,0.04c0.17,0.63,0.38,1.25,0.54,1.88
		c0.16,0.61,0.23,1.3,0.44,1.89c0.23,0.65-0.32-3.07-0.18-0.73c0.04,0.61,0.08,1.32,0.21,1.91
		C2596.41,1166.9,2596.17,1162.73,2596.2,1165.66c0.03,3.66,0.7,13.48,6.02,13.67c5.18,0.19,6.04-10.65,6.02-13.67
		c-0.31-35.12-28.48-57.15-57.44-71.52c-44.87-22.27-96.01-32.55-145.35-38.85c-63.13-8.06-127.49-8.73-190.81-2.49
		c-52.1,5.13-105.41,14.56-153.85,35.11c-28.24,11.98-62.69,30.99-69.52,63.84c-3.47,16.69-0.66,33.87,8.67,48.19
		c8.49,13.04,21.79,22.9,35.04,30.67c18.37,10.77,38.49,18.46,58.78,24.73c25.34,7.83,51.29,13.5,77.48,17.65
		c62.42,9.89,126.31,11.88,189.31,7.46c54.65-3.84,110.1-12.32,161.75-31.17c18.25-6.66,36.38-14.76,52.23-26.11
		c11.97-8.57,23.25-19.47,28.96-33.31c3.18-7.7,4.67-15.88,4.74-24.19c0.03-3.66-0.75-13.48-6.02-13.67
		C2597,1151.8,2596.23,1162.64,2596.2,1165.66z"/>
</g>
<ellipse cx="2298.99" cy="1154.69" rx="221.35" ry="59.69"/>
<path d="M2298.99,1405.68c-157.19,0-284.62-43.39-284.62-96.91v209.09c0,53.52,127.43,96.91,284.62,96.91s284.62-43.39,284.62-96.91
	v-209.09C2583.62,1362.3,2456.19,1405.68,2298.99,1405.68z"/>
<path class="st0" d="M2619.64,1165.66v512.4c0,57.02,129.96,103.24,290.28,103.24s290.28-46.22,290.28-103.24v-512.4H2619.64z"/>
<g>
	<path d="M2613.62,1165.66c0,7.99,0,15.98,0,23.97c0,21.05,0,42.09,0,63.14c0,29.3,0,58.6,0,87.9c0,33.06,0,66.11,0,99.17
		c0,32.39,0,64.78,0,97.16c0,26.8,0,53.61,0,80.41c0,16.81,0,33.62,0,50.44c0,15.2,1.01,29.58,9.06,43.14
		c7.5,12.63,19.43,22.45,31.66,30.29c16.62,10.65,35.06,18.38,53.7,24.7c50.37,17.07,103.81,24.82,156.77,27.76
		c59.36,3.29,119.51,0.54,178.04-10.2c42.39-7.78,87.43-19.18,123.91-43.08c22.45-14.71,39.23-35.13,39.45-63.01
		c0.08-10.28,0-20.56,0-30.84c0-22.64,0-45.28,0-67.92c0-30.18,0-60.36,0-90.54c0-33.23,0-66.46,0-99.69c0-31.85,0-63.7,0-95.55
		c0-25.56,0-51.12,0-76.68c0-14.86,0-29.73,0-44.59c0-1.99,0-3.98,0-5.98c0-3.39-0.78-13.67-6.02-13.67c-19.24,0-38.48,0-57.71,0
		c-46.2,0-92.41,0-138.61,0c-55.9,0-111.81,0-167.71,0c-48.34,0-96.67,0-145.01,0c-15.94,0-31.87,0-47.81,0
		c-7.49,0-15.23-0.57-22.71,0c-0.33,0.02-0.67,0-1,0c-8.43,0-8.52,27.34,0,27.34c19.24,0,38.48,0,57.71,0c46.2,0,92.41,0,138.61,0
		c55.9,0,111.81,0,167.71,0c48.34,0,96.67,0,145.01,0c15.94,0,31.87,0,47.81,0c7.47,0,15.25,0.63,22.71,0c0.33-0.03,0.67,0,1,0
		c-2.01-4.56-4.01-9.11-6.02-13.67c0,28.39,0,56.79,0,85.18c0,61.5,0,123,0,184.51c0,59.09,0,118.19,0,177.28c0,17.6,0,35.2,0,52.8
		c0,3.76,0.01,7.52,0,11.29c0,0.39-0.14,2.57-0.02,2.68c-0.62-0.59,0.35-3.75,0.03-0.98c-0.08,0.66-0.22,1.33-0.26,1.98
		c0.29-4.25-0.1,0.06-0.41,1.32c-0.19,0.74-1.11,2.86,0.11-0.17c-0.26,0.64-0.48,1.29-0.74,1.93c-0.63,1.53-1.35,3-2.12,4.46
		c-1.13,2.17,1.09-1.71-0.23,0.38c-0.4,0.63-0.79,1.26-1.2,1.88c-0.85,1.27-1.75,2.51-2.68,3.71c-2.16,2.78-4.54,5.42-7.09,7.85
		c-4.55,4.35-11.6,9.56-17.68,13.43c-16.51,10.51-34.79,18.16-53.27,24.43c-49.51,16.79-102.45,24-154.47,26.83
		c-58.8,3.2-118.37,0.46-176.35-10.1c-41.7-7.6-85.61-18.75-121.49-42.25c-6.01-3.94-12.74-9.04-17.18-13.52
		c-2.27-2.29-4.41-4.71-6.36-7.27c-0.92-1.21-1.8-2.45-2.62-3.72c-0.4-0.62-0.79-1.25-1.17-1.88c1.3,2.15-0.3-0.59-0.51-1.02
		c-0.63-1.26-1.16-2.55-1.72-3.84c-0.3-0.71-0.85-2.96,0.02,0.18c-0.18-0.65-0.4-1.29-0.57-1.95c-0.17-0.65-0.29-1.31-0.47-1.96
		c-0.65-2.39,0.15,3.1,0.14,0.64c0-0.61-0.11-1.39-0.23-1.98c-0.44-2.26-0.02,3.84,0.07,0.31c0.01-0.53,0-1.06,0-1.59
		c-0.01-11.36,0-22.72,0-34.08c0-53.19,0-106.39,0-159.58c0-64.17,0-128.34,0-192.51c0-39.63,0-79.26,0-118.89c0-1.91,0-3.83,0-5.74
		c0-3.66-0.72-13.48-6.02-13.67C2614.44,1151.8,2613.62,1162.64,2613.62,1165.66z"/>
</g>
<ellipse class="st0" cx="2909.91" cy="1165.66" rx="303.22" ry="103.24"/>
<g>
	<path d="M3207.12,1165.66c-0.02,2.75-0.28-0.83,0.12-1.07c-0.15,0.09-0.17,1.68-0.19,1.91c-0.18,2.3,0.47,0.03,0.2-0.73
		c0.16,0.46-0.38,1.73-0.51,2.21c-0.16,0.63-0.39,1.25-0.54,1.88c-0.04,0.18,0.87-2.09-0.05,0.04c-0.59,1.35-1.16,2.69-1.82,4.01
		c-0.16,0.31-1.21,2.18-0.56,1.07c0.65-1.12-0.49,0.76-0.68,1.05c-0.88,1.32-1.77,2.63-2.74,3.89c-2.06,2.69-4.33,5.24-6.75,7.61
		c-10.56,10.37-26.37,19.33-40.68,25.97c-43.94,20.39-92.96,29.88-140.75,35.71c-60.64,7.4-122.35,8.02-183.16,2.3
		c-50.23-4.72-101.48-13.34-148.53-32.17c-16.65-6.66-33.15-14.72-47.32-25.85c-5.46-4.29-9.36-7.9-13.7-13.58
		c-0.96-1.26-1.86-2.57-2.74-3.89c-0.19-0.29-1.33-2.17-0.68-1.05c0.63,1.07-0.53-1-0.72-1.37c-0.61-1.21-1.13-2.45-1.66-3.7
		c-0.62-1.47-0.36-1.21,0.05,0.28c-0.2-0.73-0.45-1.46-0.64-2.19c-0.16-0.61-0.23-1.3-0.44-1.89c-0.23-0.65,0.32,3.07,0.18,0.73
		c-0.04-0.61-0.08-1.32-0.21-1.91c-0.03-0.12,0.68,3.53,0.1,0.43c-0.43-2.3-0.22,1.6-0.1,1.07c0.13-0.59,0.17-1.31,0.21-1.91
		c0.14-2.34-0.41,1.38-0.18,0.73c0.25-0.69,0.35-1.49,0.52-2.2c0.16-0.64,0.39-1.25,0.56-1.88c-0.4,1.49-0.67,1.75-0.05,0.28
		c0.58-1.35,1.16-2.69,1.82-4.01c0.16-0.31,1.21-2.18,0.56-1.07c-0.65,1.12,0.49-0.76,0.68-1.05c0.95-1.43,1.92-2.83,2.97-4.19
		c8.84-11.44,21.6-19.92,34.86-27.1c40.49-21.95,87.28-32.25,132.44-39.08c60.01-9.07,121.27-10.94,181.8-6.89
		c52.49,3.52,105.89,11.16,155.78,28.44c18.25,6.32,36.31,13.99,52.55,24.55c3.27,2.13,6.47,4.38,9.54,6.8
		c2.74,2.16,5.72,4.72,7.53,6.55c2.28,2.3,4.44,4.74,6.39,7.33c0.88,1.17,1.7,2.38,2.51,3.6c0.19,0.29,1.33,2.17,0.68,1.05
		c-0.63-1.07,0.53,1,0.72,1.37c0.61,1.21,1.13,2.45,1.66,3.7c0.91,2.14,0.01-0.12,0.05,0.04c0.17,0.63,0.38,1.25,0.54,1.88
		c0.16,0.61,0.23,1.3,0.44,1.89c0.23,0.65-0.32-3.07-0.18-0.73c0.04,0.61,0.08,1.32,0.21,1.91
		C3207.32,1166.9,3207.09,1162.73,3207.12,1165.66c0.03,3.66,0.7,13.48,6.02,13.67c5.18,0.19,6.04-10.65,6.02-13.67
		c-0.31-35.12-28.48-57.15-57.44-71.52c-44.88-22.27-96.01-32.55-145.35-38.85c-63.13-8.06-127.49-8.73-190.81-2.49
		c-52.1,5.13-105.41,14.56-153.85,35.11c-28.24,11.98-62.69,30.99-69.52,63.84c-3.47,16.69-0.66,33.87,8.67,48.19
		c8.49,13.04,21.79,22.9,35.04,30.67c18.37,10.77,38.49,18.46,58.78,24.73c25.34,7.83,51.29,13.5,77.48,17.65
		c62.42,9.89,126.31,11.88,189.31,7.46c54.65-3.84,110.1-12.32,161.75-31.17c18.25-6.66,36.38-14.76,52.23-26.11
		c11.97-8.57,23.25-19.47,28.96-33.31c3.18-7.7,4.67-15.88,4.74-24.19c0.03-3.66-0.75-13.48-6.02-13.67
		C3207.92,1151.8,3207.15,1162.64,3207.12,1165.66z"/>
</g>
<ellipse cx="2909.91" cy="1154.69" rx="221.35" ry="59.69"/>
<path d="M2909.91,1405.68c-157.19,0-284.62-43.39-284.62-96.91v209.09c0,53.52,127.43,96.91,284.62,96.91s284.62-43.39,284.62-96.91
	v-209.09C3194.54,1362.3,3067.11,1405.68,2909.91,1405.68z"/>
<path class="st0" d="M2283.5,603.17v512.4c0,57.02,129.96,103.24,290.28,103.24s290.28-46.22,290.28-103.24v-512.4H2283.5
	L2283.5,603.17z"/>
<g>
	<path d="M2277.48,603.17c0,7.99,0,15.98,0,23.97c0,21.05,0,42.09,0,63.14c0,29.3,0,58.6,0,87.9c0,33.06,0,66.11,0,99.17
		c0,32.39,0,64.78,0,97.16c0,26.8,0,53.61,0,80.41c0,16.81,0,33.62,0,50.44c0,15.2,1.01,29.58,9.06,43.14
		c7.5,12.63,19.43,22.45,31.66,30.29c16.62,10.65,35.06,18.38,53.7,24.7c50.37,17.07,103.81,24.82,156.77,27.76
		c59.36,3.29,119.51,0.54,178.04-10.2c42.39-7.78,87.43-19.18,123.91-43.08c22.45-14.71,39.23-35.13,39.45-63.01
		c0.08-10.28,0-20.56,0-30.84c0-22.64,0-45.28,0-67.92c0-30.18,0-60.36,0-90.54c0-33.23,0-66.46,0-99.69c0-31.85,0-63.7,0-95.55
		c0-25.56,0-51.12,0-76.68c0-14.86,0-29.73,0-44.59c0-1.99,0-3.98,0-5.98c0-3.39-0.78-13.67-6.02-13.67c-19.24,0-38.48,0-57.71,0
		c-46.2,0-92.41,0-138.61,0c-55.9,0-111.81,0-167.71,0c-48.34,0-96.67,0-145.01,0c-15.94,0-31.87,0-47.81,0
		c-7.49,0-15.23-0.57-22.71,0c-0.33,0.02-0.67,0-1,0c-8.43,0-8.52,27.34,0,27.34c19.24,0,38.48,0,57.71,0c46.2,0,92.41,0,138.61,0
		c55.9,0,111.81,0,167.71,0c48.34,0,96.67,0,145.01,0c15.94,0,31.87,0,47.81,0c7.47,0,15.25,0.63,22.71,0c0.33-0.03,0.67,0,1,0
		c-2.01-4.56-4.01-9.11-6.02-13.67c0,28.39,0,56.79,0,85.18c0,61.5,0,123,0,184.51c0,59.09,0,118.19,0,177.28c0,17.6,0,35.2,0,52.8
		c0,3.76,0.01,7.52,0,11.29c0,0.38-0.14,2.57-0.02,2.68c-0.62-0.59,0.35-3.75,0.03-0.98c-0.08,0.65-0.22,1.32-0.26,1.98
		c0.29-4.25-0.1,0.06-0.41,1.32c-0.19,0.74-1.11,2.86,0.11-0.17c-0.26,0.64-0.48,1.29-0.74,1.93c-0.63,1.53-1.35,3-2.12,4.46
		c-1.13,2.17,1.1-1.71-0.23,0.38c-0.4,0.63-0.79,1.26-1.2,1.88c-0.85,1.27-1.75,2.51-2.68,3.71c-2.16,2.78-4.54,5.42-7.09,7.85
		c-4.55,4.35-11.6,9.56-17.68,13.43c-16.51,10.51-34.79,18.16-53.27,24.43c-49.51,16.79-102.45,24-154.47,26.83
		c-58.8,3.2-118.37,0.46-176.35-10.1c-41.7-7.6-85.61-18.75-121.49-42.25c-6.01-3.94-12.74-9.04-17.18-13.52
		c-2.27-2.29-4.41-4.71-6.36-7.27c-0.92-1.21-1.8-2.45-2.62-3.72c-0.4-0.62-0.79-1.25-1.17-1.88c1.3,2.15-0.3-0.59-0.51-1.02
		c-0.63-1.26-1.16-2.55-1.72-3.84c-0.3-0.71-0.85-2.96,0.02,0.18c-0.18-0.65-0.4-1.29-0.57-1.95c-0.17-0.65-0.29-1.31-0.47-1.96
		c-0.65-2.39,0.15,3.1,0.14,0.64c0-0.61-0.11-1.39-0.23-1.98c-0.44-2.26-0.02,3.84,0.07,0.31c0.01-0.53,0-1.06,0-1.59
		c-0.01-11.36,0-22.72,0-34.08c0-53.19,0-106.39,0-159.58c0-64.17,0-128.34,0-192.51c0-39.63,0-79.26,0-118.89c0-1.91,0-3.83,0-5.74
		c0-3.66-0.72-13.48-6.02-13.67C2278.3,589.32,2277.48,600.15,2277.48,603.17z"/>
</g>
<ellipse class="st0" cx="2573.77" cy="603.17" rx="303.22" ry="103.24"/>
<g>
	<path d="M2870.98,603.17c-0.02,2.75-0.28-0.83,0.12-1.07c-0.15,0.09-0.17,1.68-0.19,1.91c-0.18,2.3,0.47,0.03,0.2-0.73
		c0.16,0.46-0.38,1.73-0.51,2.21c-0.16,0.63-0.39,1.25-0.54,1.88c-0.04,0.18,0.87-2.09-0.05,0.04c-0.59,1.35-1.16,2.69-1.82,4.01
		c-0.16,0.31-1.21,2.18-0.56,1.07c0.65-1.12-0.49,0.76-0.68,1.05c-0.88,1.32-1.77,2.63-2.74,3.89c-2.06,2.69-4.33,5.24-6.75,7.61
		c-10.56,10.37-26.37,19.33-40.68,25.97c-43.94,20.39-92.96,29.88-140.75,35.71c-60.64,7.4-122.35,8.02-183.16,2.3
		c-50.24-4.72-101.48-13.34-148.53-32.17c-16.65-6.66-33.15-14.72-47.32-25.85c-5.46-4.29-9.36-7.89-13.7-13.58
		c-0.96-1.26-1.86-2.57-2.74-3.89c-0.19-0.29-1.33-2.17-0.68-1.05c0.63,1.07-0.53-1-0.72-1.37c-0.61-1.21-1.13-2.45-1.66-3.7
		c-0.62-1.47-0.36-1.21,0.05,0.28c-0.2-0.73-0.45-1.46-0.64-2.19c-0.16-0.61-0.23-1.3-0.44-1.89c-0.23-0.65,0.32,3.07,0.18,0.73
		c-0.04-0.61-0.08-1.32-0.21-1.91c-0.03-0.12,0.68,3.53,0.1,0.43c-0.43-2.3-0.22,1.6-0.1,1.07c0.13-0.59,0.17-1.31,0.21-1.91
		c0.14-2.34-0.41,1.38-0.18,0.73c0.25-0.69,0.35-1.49,0.52-2.2c0.16-0.63,0.39-1.25,0.56-1.88c-0.4,1.49-0.67,1.75-0.05,0.28
		c0.58-1.35,1.16-2.69,1.82-4.01c0.16-0.31,1.21-2.18,0.56-1.07c-0.65,1.12,0.49-0.76,0.68-1.05c0.95-1.43,1.92-2.83,2.97-4.19
		c8.84-11.44,21.6-19.92,34.86-27.1c40.49-21.95,87.28-32.25,132.44-39.08c60.01-9.07,121.27-10.94,181.8-6.89
		c52.49,3.52,105.89,11.16,155.78,28.44c18.25,6.32,36.31,13.99,52.55,24.55c3.27,2.13,6.47,4.38,9.54,6.8
		c2.74,2.16,5.72,4.72,7.53,6.55c2.28,2.3,4.44,4.74,6.39,7.33c0.88,1.17,1.7,2.38,2.51,3.6c0.19,0.29,1.33,2.17,0.68,1.05
		c-0.63-1.07,0.53,1,0.72,1.37c0.61,1.21,1.13,2.45,1.66,3.7c0.91,2.14,0.01-0.12,0.05,0.04c0.17,0.63,0.38,1.25,0.54,1.88
		c0.16,0.61,0.23,1.3,0.44,1.89c0.23,0.65-0.32-3.07-0.18-0.73c0.04,0.61,0.08,1.32,0.21,1.91
		C2871.18,604.42,2870.95,600.24,2870.98,603.17c0.03,3.66,0.7,13.48,6.02,13.67c5.18,0.19,6.04-10.65,6.02-13.67
		c-0.31-35.12-28.48-57.15-57.44-71.52c-44.88-22.27-96.01-32.55-145.35-38.85c-63.13-8.06-127.49-8.73-190.81-2.49
		c-52.1,5.13-105.41,14.56-153.85,35.11c-28.24,11.98-62.69,30.99-69.52,63.84c-3.47,16.69-0.66,33.87,8.67,48.19
		c8.49,13.04,21.79,22.9,35.04,30.67c18.37,10.77,38.49,18.46,58.78,24.73c25.34,7.83,51.29,13.5,77.48,17.65
		c62.42,9.89,126.31,11.88,189.31,7.46c54.65-3.84,110.1-12.32,161.75-31.17c18.25-6.66,36.38-14.76,52.23-26.11
		c11.97-8.57,23.25-19.47,28.96-33.31c3.18-7.7,4.67-15.88,4.74-24.19c0.03-3.66-0.75-13.48-6.02-13.67
		C2871.78,589.31,2871.01,600.15,2870.98,603.17z"/>
</g>
<ellipse cx="2573.77" cy="592.2" rx="221.35" ry="59.69"/>
<path d="M2573.77,843.2c-157.19,0-284.62-43.39-284.62-96.91v209.09c0,53.52,127.43,96.91,284.62,96.91s284.62-43.39,284.62-96.91
	V746.29C2858.4,799.81,2730.97,843.2,2573.77,843.2z"/>
<rect y="-962.11" class="st1" width="0" height="601.32"/>
</svg>
