<?xml version="1.0" encoding="utf-8"?>
<!-- Generator: Adobe Illustrator 24.1.2, SVG Export Plug-In . SVG Version: 6.00 Build 0)  -->
<svg version="1.1" id="Layer_1" xmlns="http://www.w3.org/2000/svg" xmlns:xlink="http://www.w3.org/1999/xlink" x="0px" y="0px"
	 viewBox="0 0 100.3 82.4" style="enable-background:new 0 0 100.3 82.4;" xml:space="preserve">
<style type="text/css">
	.st0{fill:#F6C7B2;}
	.st1{fill:none;}
	.st2{enable-background:new    ;}
</style>
<g>
	<g>
		<path class="st0" d="M61.6,5.2c-11,0.4-22.6,0-32.9,1.3c-5.2,0.7-10,1.8-14.2,3.6c-3.6,1.6-5.9,4.4-6.7,8.5
			C6.4,26,10.6,37.4,19.3,48.4c5.9,7.5,13.5,15.5,21.6,20.6c8.6,5.5,16.2,6.6,21.9,5.8c4-0.6,7.4-2,10.4-3.8
			c3.6-2.2,6.8-4.8,9.7-7.7c4.7-4.8,8.6-10.6,10.4-17.8c1.3-5,2-10.9-0.2-18.1c-1.4-4.6-4.2-10.5-9.7-15.2c-6-5.1-12.1-6.7-16.8-7.1
			C64.9,5.1,63.2,5.1,61.6,5.2c-1.3,0.1-2.1,1.3-1.3,3.1c0.8,1.8,2.7,2.5,3.8,2.4c0.7,0,1.4-0.1,2.1-0.1c0.1,0,0.8,0,0.2,0
			c0.2,0,0.3,0,0.5,0c0.4,0,0.8,0,1.1,0.1c1.3,0.1,2.7,0.4,4.1,0.7c0.6,0.1-0.6-0.2,0,0c0.1,0,0.3,0.1,0.4,0.1
			c0.3,0.1,0.6,0.2,0.9,0.3c0.6,0.2,1.3,0.5,1.9,0.7c0.3,0.1,0.6,0.3,0.9,0.4c0.2,0.1,0.3,0.2,0.5,0.2c-0.1,0-0.7-0.4-0.2-0.1
			c0.6,0.4,1.2,0.6,1.8,1c0.5,0.3,1,0.7,1.5,1c0.7,0.5-0.5-0.4,0.2,0.1c0.3,0.2,0.6,0.5,0.8,0.7c0.4,0.4,0.9,0.8,1.3,1.3
			c0.2,0.2,0.4,0.5,0.6,0.7c0.5,0.5-0.5-0.6-0.1-0.1c0.1,0.1,0.2,0.3,0.4,0.4c0.9,1,1.6,2.1,2.2,3.1c0.5,0.7-0.3-0.5,0.2,0.3
			c0.2,0.3,0.3,0.5,0.4,0.8c0.3,0.6,0.6,1.2,0.9,1.9c0.3,0.6,0.5,1.2,0.7,1.7c0.3,0.8-0.1-0.4,0.1,0.4c0.1,0.4,0.2,0.7,0.3,1.1
			c0.4,1.4,0.6,2.7,0.8,3.9c0.1,0.3,0.1,0.6,0.1,1c0.1,0.5,0,0,0-0.1c0,0.2,0,0.4,0.1,0.6c0.1,0.7,0.1,1.5,0.1,2.2
			c0,1.5-0.1,2.8-0.3,4.2c-0.1,0.7-0.2,1.4-0.3,2c0.1-0.5-0.1,0.5-0.2,0.6c-0.1,0.4-0.2,0.8-0.3,1.2c-0.4,1.5-0.9,2.9-1.5,4.3
			c-0.6,1.5-1.3,2.9-2.1,4.2c-0.1,0.1-0.2,0.3-0.2,0.4c0,0-0.4,0.7-0.2,0.3c-0.2,0.3-0.4,0.7-0.7,1c-0.5,0.7-1,1.4-1.5,2
			c-2.2,2.9-4.8,5.4-7.7,7.7c-2.7,2.1-5.7,4.1-9.2,5.5c-0.4,0.1-0.8,0.3-1.1,0.4c-0.2,0.1-0.5,0.1-0.7,0.2c0.4-0.1-0.1,0-0.2,0.1
			c-0.8,0.2-1.6,0.4-2.4,0.5c-0.7,0.1-1.5,0.2-2.3,0.2c-0.4,0-0.8,0-1.1,0c-0.8,0,0.5,0-0.2,0c-0.2,0-0.5,0-0.7,0
			c-0.7-0.1-1.5-0.2-2.3-0.3c-0.4-0.1-0.8-0.1-1.2-0.2c-0.2-0.1-0.5-0.1-0.7-0.2c-0.1,0-0.9-0.3-0.2-0.1c-1.6-0.4-3.2-1-4.8-1.8
			c-0.2-0.1-1.3-0.7-0.7-0.3c-0.4-0.2-0.8-0.4-1.2-0.6c-0.8-0.5-1.7-1-2.5-1.5c-0.8-0.5-1.6-1-2.3-1.6c-0.4-0.3-0.8-0.6-1.2-0.9
			c-0.8-0.6,0.5,0.4-0.3-0.2c-0.2-0.2-0.5-0.4-0.7-0.6c-3.5-2.9-6.8-6.2-9.8-9.5c-1.4-1.6-3.3-3.8-4.9-5.8c-1.9-2.4-3.6-4.9-5.1-7.3
			c-2.9-4.9-4.5-9.4-5-13.4c-0.1-0.7-0.1-1.4-0.1-2.3c0-0.4,0.1-0.9,0.1-1.3c0-0.2,0.1-0.3,0.1-0.5c0.1-0.3,0.1-0.3,0-0.1
			c0-0.1,0.1-0.3,0.1-0.5c0.2-0.8,0.5-1.5,0.8-2.1c0.1-0.1,0.1-0.3,0.2-0.4c-0.3,0.4,0.1-0.2,0.2-0.2c0.3-0.4,0.5-0.7,0.9-1
			c0.3-0.3,0.5-0.5,0.8-0.7c-0.1,0.1-0.4,0.2,0,0c0.2-0.1,0.4-0.3,0.6-0.4c0.9-0.5,1.9-0.9,2.9-1.3c2-0.7,4-1.3,6.2-1.8
			c9.2-1.9,19.9-1.9,30.3-2c2.6,0,5.1-0.1,7.7-0.2c1.3,0,2.1-1.4,1.3-3.1C64.6,5.8,62.7,5.1,61.6,5.2L61.6,5.2z"/>
		<polyline class="st0" points="50,8.4 70.7,7.8 81.6,13.9 89.1,23.1 91.7,34.7 88.9,48.2 81.1,59.6 68.8,69.8 59.2,73.3 38.9,65.3 
			22.4,48.5 11.3,31.2 11.1,18.1 21.9,10.3 		"/>
	</g>
</g>
<rect x="44.3" y="25" class="st1" width="128" height="125"/>
<g>
	<g class="st2">
		<path d="M24.2,32.6h4c3.1,0,5.2,0.9,5.2,3.7c0,2.6-2.1,3.9-5.1,3.9H26V45h-1.8V32.6z M28.1,38.8c2.4,0,3.6-0.8,3.6-2.6
			c0-1.8-1.2-2.4-3.7-2.4h-2v4.9H28.1z"/>
		<path d="M36.1,31.5h1.7v3.7l-0.1,1.9c1-0.8,2-1.5,3.4-1.5c2.2,0,3.2,1.3,3.2,3.6V45h-1.7v-5.6c0-1.7-0.6-2.5-1.9-2.5
			c-1.1,0-1.8,0.5-2.8,1.4V45h-1.7V31.5z"/>
		<path d="M47,42.6c0-2,1.9-3,6.3-3.4c0-1.2-0.4-2.3-2.1-2.3c-1.2,0-2.3,0.5-3.1,1l-0.7-1.1c0.9-0.6,2.4-1.2,4.1-1.2
			c2.5,0,3.6,1.5,3.6,3.8V45h-1.4l-0.1-1.1h-0.1c-1,0.7-2.1,1.3-3.4,1.3C48.3,45.3,47,44.3,47,42.6z M53.3,42.8v-2.6
			c-3.5,0.4-4.6,1.1-4.6,2.3c0,1,0.8,1.5,1.8,1.5C51.5,44,52.3,43.6,53.3,42.8z"/>
		<path d="M57.2,44l0.9-1c0.9,0.6,1.8,1.1,3,1.1c1.4,0,2-0.6,2-1.4c0-1-1.2-1.4-2.4-1.8c-1.4-0.5-3.1-1.1-3.1-2.7
			c0-1.5,1.3-2.6,3.6-2.6c1.3,0,2.4,0.5,3.2,1l-0.8,1c-0.7-0.5-1.4-0.8-2.4-0.8c-1.3,0-1.9,0.6-1.9,1.3c0,0.9,1.1,1.2,2.3,1.6
			c1.5,0.5,3.1,1,3.1,2.8c0,1.5-1.3,2.7-3.8,2.7C59.6,45.3,58.2,44.7,57.2,44z"/>
		<path d="M66.5,40.4c0-3,2.3-4.9,4.6-4.9c2.6,0,4.1,1.7,4.1,4.3c0,0.3,0,0.7-0.1,0.9h-7c0.1,2,1.5,3.2,3.4,3.2c1,0,1.8-0.3,2.6-0.7
			l0.6,1c-0.9,0.5-2,1-3.4,1C68.7,45.3,66.5,43.5,66.5,40.4z M73.7,39.7c0-1.9-0.9-2.9-2.5-2.9c-1.5,0-2.7,1-3,2.9H73.7z"/>
		<path d="M81.1,44.1c4.1-3.6,6.4-5.8,6.4-7.8c0-1.4-0.8-2.4-2.6-2.4c-1.1,0-2.1,0.6-2.9,1.5l-1-0.9c1.1-1.1,2.4-1.8,4.1-1.8
			c2.5,0,4.1,1.4,4.1,3.6c0,2.3-2.3,4.5-5.5,7.5c0.7-0.1,1.6-0.1,2.3-0.1h3.9V45h-8.8V44.1z"/>
	</g>
</g>
</svg>
