<?xml version="1.0" encoding="utf-8"?>
<!-- Generator: Adobe Illustrator 24.1.2, SVG Export Plug-In . SVG Version: 6.00 Build 0)  -->
<svg version="1.1" id="Layer_1" xmlns="http://www.w3.org/2000/svg" xmlns:xlink="http://www.w3.org/1999/xlink" x="0px" y="0px"
	 viewBox="0 0 100.7 77" style="enable-background:new 0 0 100.7 77;" xml:space="preserve">
<style type="text/css">
	.st0{fill:#F6C7B2;}
	.st1{fill:none;}
	.st2{enable-background:new    ;}
</style>
<g>
	<g>
		<path class="st0" d="M35,12.7c-7.4,7.7-15.8,15.3-22,23.2c-3.1,4-5.7,8-7.3,12.2c-1.3,3.5-0.9,7.1,1.5,10.5
			c4.4,6.2,15.6,11.3,29.6,13.2c9.6,1.3,20.6,1.8,30,0c10-1.9,16.1-6.3,19.5-10.8c2.4-3.1,3.7-6.4,4.4-9.7c0.9-4,1.3-8,1.2-12
			c-0.2-6.6-1.7-13.2-5.7-19.6c-2.8-4.4-6.6-9-13.2-12.6c-4.3-2.3-10.5-4.6-17.7-4.1c-7.8,0.5-13.3,3.5-16.8,6.4
			C37.3,10.4,36.1,11.6,35,12.7c-0.8,0.9-0.5,2.4,1.3,3c1.9,0.7,3.7,0,4.4-0.8c0.5-0.5,0.9-1,1.4-1.5c0.1-0.1,0.6-0.6,0.1-0.1
			c0.1-0.1,0.2-0.2,0.4-0.3c0.3-0.2,0.5-0.5,0.8-0.7c1-0.8,2.2-1.5,3.3-2.3c0.5-0.3-0.6,0.3,0,0c0.1-0.1,0.2-0.1,0.3-0.2
			c0.3-0.1,0.6-0.3,0.8-0.4c0.6-0.3,1.2-0.6,1.9-0.8c0.3-0.1,0.6-0.2,0.9-0.3c0.2,0,0.4-0.1,0.5-0.2c-0.1,0-0.7,0.2-0.2,0.1
			c0.7-0.2,1.3-0.3,2-0.5c0.6-0.1,1.2-0.2,1.8-0.3c0.9-0.1-0.7,0,0.2,0c0.4,0,0.7-0.1,1.1-0.1c0.6,0,1.2,0,1.8,0c0.3,0,0.6,0,0.9,0
			c0.7,0-0.8-0.1-0.1,0c0.2,0,0.4,0,0.6,0.1c1.4,0.2,2.6,0.4,3.8,0.7c0.9,0.2-0.5-0.2,0.3,0.1c0.3,0.1,0.6,0.2,0.9,0.3
			c0.7,0.2,1.3,0.5,1.9,0.7c0.6,0.3,1.2,0.5,1.7,0.8c0.8,0.4-0.4-0.2,0.3,0.2c0.3,0.2,0.7,0.4,1,0.6c1.2,0.7,2.4,1.5,3.4,2.2
			c0.3,0.2,0.5,0.4,0.8,0.6c0.4,0.3,0,0-0.1-0.1c0.1,0.1,0.3,0.3,0.5,0.4c0.6,0.5,1.1,1,1.6,1.5c1.1,1,2,2.1,2.8,3.1
			c0.4,0.5,0.8,1.1,1.2,1.7c-0.3-0.5,0.3,0.4,0.3,0.5c0.2,0.4,0.4,0.7,0.7,1.1c0.8,1.3,1.4,2.7,2,4c0.6,1.5,1.1,2.9,1.6,4.4
			c0,0.2,0.1,0.3,0.1,0.5c0,0,0.2,0.7,0.1,0.3c0.1,0.4,0.2,0.8,0.3,1.1c0.2,0.8,0.3,1.6,0.4,2.4c0.5,3.5,0.6,7,0.2,10.6
			c-0.3,3.3-0.9,6.7-2.4,10.1c-0.2,0.3-0.3,0.7-0.5,1c-0.1,0.2-0.2,0.4-0.3,0.6c0.2-0.3,0,0.1-0.1,0.2c-0.4,0.7-0.8,1.3-1.3,2
			c-0.4,0.6-0.9,1.1-1.4,1.7c-0.3,0.3-0.5,0.5-0.8,0.8c-0.5,0.5,0.4-0.3-0.2,0.2c-0.2,0.1-0.3,0.3-0.5,0.4c-0.6,0.5-1.2,0.9-1.8,1.4
			c-0.3,0.2-0.6,0.4-1,0.6c-0.2,0.1-0.4,0.2-0.6,0.3c-0.1,0-0.8,0.4-0.2,0.1c-1.4,0.7-2.9,1.4-4.7,2c-0.2,0.1-1.4,0.4-0.7,0.2
			c-0.4,0.1-0.8,0.2-1.3,0.3c-0.9,0.2-1.9,0.4-2.9,0.6c-0.9,0.2-1.8,0.3-2.8,0.4c-0.5,0.1-1,0.1-1.4,0.2c-1,0.1,0.7-0.1-0.3,0
			c-0.3,0-0.6,0.1-0.9,0.1c-4.5,0.3-9.2,0.3-13.8,0c-2.2-0.2-5-0.4-7.6-0.8c-3.1-0.4-6.1-1-8.8-1.8c-5.6-1.5-9.9-3.6-13.1-6
			c-0.6-0.5-1.1-0.9-1.7-1.6c-0.3-0.3-0.6-0.6-0.8-1c-0.1-0.1-0.2-0.3-0.3-0.4c-0.2-0.2-0.2-0.3-0.1-0.1c-0.1-0.1-0.2-0.3-0.3-0.4
			c-0.4-0.7-0.7-1.4-1-2.1c0-0.1-0.1-0.3-0.1-0.4c0.1,0.5,0-0.2,0-0.3c-0.1-0.4-0.1-0.9-0.1-1.3c0-0.3,0-0.7,0.1-1.1
			c0,0.1-0.1,0.4,0-0.1c0.1-0.2,0.1-0.4,0.2-0.7c0.3-1,0.7-1.9,1.1-2.8c0.8-1.8,1.9-3.6,3.1-5.4c5-7.6,12.5-14.7,19.7-21.9
			c1.8-1.8,3.5-3.5,5.2-5.3c0.9-0.9,0.4-2.4-1.3-3C37.5,11.2,35.8,11.9,35,12.7L35,12.7z"/>
		<polyline class="st0" points="29.3,22.9 43.3,8.4 55.3,5.4 67.2,6.8 77.4,13.1 85.2,24.5 88,37.9 86.9,53.4 82.7,62.3 62.8,70.4 
			39.1,69.8 18.9,65.1 9.2,56 11.1,43.2 		"/>
	</g>
</g>
<rect x="43.7" y="28.3" class="st1" width="24.6" height="26.3"/>
<g>
	<g class="st2">
		<path d="M20.9,37.5h3.9c3,0,5.1,0.9,5.1,3.7c0,2.6-2,3.9-5,3.9h-2.2V50h-1.7V37.5z M24.6,43.7c2.4,0,3.5-0.8,3.5-2.6
			c0-1.8-1.2-2.4-3.6-2.4h-1.9v4.9H24.6z"/>
		<path d="M32.5,36.4h1.7v3.7L34.1,42c0.9-0.8,2-1.5,3.3-1.5c2.1,0,3.1,1.3,3.1,3.6V50h-1.7v-5.7c0-1.7-0.6-2.5-1.9-2.5
			c-1,0-1.7,0.5-2.7,1.4V50h-1.7V36.4z"/>
		<path d="M43.1,47.6c0-2,1.9-3,6.2-3.4c0-1.2-0.4-2.3-2.1-2.3c-1.2,0-2.2,0.5-3,1l-0.7-1.1c0.9-0.6,2.3-1.2,4-1.2
			c2.5,0,3.5,1.5,3.5,3.8V50h-1.4l-0.1-1.1h-0.1c-1,0.7-2.1,1.3-3.3,1.3C44.3,50.2,43.1,49.2,43.1,47.6z M49.3,47.7v-2.6
			c-3.4,0.4-4.5,1.1-4.5,2.3c0,1,0.8,1.5,1.8,1.5C47.5,48.9,48.3,48.5,49.3,47.7z"/>
		<path d="M53,48.9l0.8-1c0.9,0.6,1.8,1.1,3,1.1c1.3,0,2-0.6,2-1.4c0-1-1.2-1.4-2.3-1.8c-1.4-0.5-3-1.1-3-2.7c0-1.5,1.3-2.6,3.5-2.6
			c1.3,0,2.3,0.5,3.1,1l-0.8,1c-0.7-0.5-1.4-0.8-2.3-0.8c-1.3,0-1.9,0.6-1.9,1.3c0,0.9,1.1,1.2,2.2,1.6c1.5,0.5,3.1,1,3.1,2.8
			c0,1.5-1.3,2.7-3.7,2.7C55.3,50.2,54,49.6,53,48.9z"/>
		<path d="M62.1,45.4c0-3,2.2-4.9,4.5-4.9c2.6,0,4,1.7,4,4.3c0,0.3,0,0.7-0.1,0.9h-6.8c0.1,2,1.4,3.2,3.3,3.2c1,0,1.8-0.3,2.5-0.7
			l0.6,1c-0.9,0.5-2,1-3.3,1C64.2,50.2,62.1,48.4,62.1,45.4z M69.1,44.6c0-1.9-0.9-2.9-2.5-2.9c-1.4,0-2.7,1-2.9,2.9H69.1z"/>
		<path d="M81.8,41.9c0-0.6,0.1-1.7,0.1-2.3h-0.1c-0.3,0.6-0.7,1.1-1.1,1.7l-3.1,4.1h7.6v1.2h-9.3v-1l5.6-7.7h1.9V50h-1.6V41.9z"/>
	</g>
</g>
</svg>
