<?xml version="1.0" encoding="utf-8"?>
<!-- Generator: Adobe Illustrator 24.1.2, SVG Export Plug-In . SVG Version: 6.00 Build 0)  -->
<svg version="1.1" id="Layer_1" xmlns="http://www.w3.org/2000/svg" xmlns:xlink="http://www.w3.org/1999/xlink" x="0px" y="0px"
	 viewBox="0 0 100.3 82.4" style="enable-background:new 0 0 100.3 82.4;" xml:space="preserve">
<style type="text/css">
	.st0{fill:#F6C7B2;}
	.st1{fill:none;}
</style>
<g>
	<g>
		<path class="st0" d="M59.6,8.2c-11,0.4-22.6,0-32.9,1.3c-5.2,0.7-10,1.8-14.2,3.6c-3.6,1.6-5.9,4.4-6.7,8.5
			C4.4,29,8.6,40.4,17.3,51.4c5.9,7.5,13.5,15.5,21.6,20.6c8.6,5.5,16.2,6.6,21.9,5.8c4-0.6,7.4-2,10.4-3.8c3.6-2.2,6.8-4.8,9.7-7.7
			c4.7-4.8,8.6-10.6,10.4-17.8c1.3-5,2-10.9-0.2-18.1c-1.4-4.6-4.2-10.5-9.7-15.2c-6-5.1-12.1-6.7-16.8-7.1
			C62.9,8.1,61.2,8.1,59.6,8.2c-1.3,0.1-2.1,1.3-1.3,3.1s2.7,2.5,3.8,2.4c0.7,0,1.4-0.1,2.1-0.1c0.1,0,0.8,0,0.2,0
			c0.2,0,0.3,0,0.5,0c0.4,0,0.8,0,1.1,0.1c1.3,0.1,2.7,0.4,4.1,0.7c0.6,0.1-0.6-0.2,0,0c0.1,0,0.3,0.1,0.4,0.1
			c0.3,0.1,0.6,0.2,0.9,0.3c0.6,0.2,1.3,0.5,1.9,0.7c0.3,0.1,0.6,0.3,0.9,0.4c0.2,0.1,0.3,0.2,0.5,0.2c-0.1,0-0.7-0.4-0.2-0.1
			c0.6,0.4,1.2,0.6,1.8,1c0.5,0.3,1,0.7,1.5,1c0.7,0.5-0.5-0.4,0.2,0.1c0.3,0.2,0.6,0.5,0.8,0.7c0.4,0.4,0.9,0.8,1.3,1.3
			c0.2,0.2,0.4,0.5,0.6,0.7c0.5,0.5-0.5-0.6-0.1-0.1c0.1,0.1,0.2,0.3,0.4,0.4c0.9,1,1.6,2.1,2.2,3.1c0.5,0.7-0.3-0.5,0.2,0.3
			c0.2,0.3,0.3,0.5,0.4,0.8c0.3,0.6,0.6,1.2,0.9,1.9c0.3,0.6,0.5,1.2,0.7,1.7c0.3,0.8-0.1-0.4,0.1,0.4c0.1,0.4,0.2,0.7,0.3,1.1
			c0.4,1.4,0.6,2.7,0.8,3.9c0.1,0.3,0.1,0.6,0.1,1c0.1,0.5,0,0,0-0.1c0,0.2,0,0.4,0.1,0.6c0.1,0.7,0.1,1.5,0.1,2.2
			c0,1.5-0.1,2.8-0.3,4.2c-0.1,0.7-0.2,1.4-0.3,2c0.1-0.5-0.1,0.5-0.2,0.6c-0.1,0.4-0.2,0.8-0.3,1.2c-0.4,1.5-0.9,2.9-1.5,4.3
			c-0.6,1.5-1.3,2.9-2.1,4.2c-0.1,0.1-0.2,0.3-0.2,0.4c0,0-0.4,0.7-0.2,0.3c-0.2,0.3-0.4,0.7-0.7,1c-0.5,0.7-1,1.4-1.5,2
			c-2.2,2.9-4.8,5.4-7.7,7.7c-2.7,2.1-5.7,4.1-9.2,5.5c-0.4,0.1-0.8,0.3-1.1,0.4c-0.2,0.1-0.5,0.1-0.7,0.2c0.4-0.1-0.1,0-0.2,0.1
			c-0.8,0.2-1.6,0.4-2.4,0.5c-0.7,0.1-1.5,0.2-2.3,0.2c-0.4,0-0.8,0-1.1,0c-0.8,0,0.5,0-0.2,0c-0.2,0-0.5,0-0.7,0
			c-0.7-0.1-1.5-0.2-2.3-0.3c-0.4-0.1-0.8-0.1-1.2-0.2c-0.2-0.1-0.5-0.1-0.7-0.2c-0.1,0-0.9-0.3-0.2-0.1c-1.6-0.4-3.2-1-4.8-1.8
			c-0.2-0.1-1.3-0.7-0.7-0.3c-0.4-0.2-0.8-0.4-1.2-0.6c-0.8-0.5-1.7-1-2.5-1.5s-1.6-1-2.3-1.6c-0.4-0.3-0.8-0.6-1.2-0.9
			c-0.8-0.6,0.5,0.4-0.3-0.2c-0.2-0.2-0.5-0.4-0.7-0.6c-3.5-2.9-6.8-6.2-9.8-9.5c-1.4-1.6-3.3-3.8-4.9-5.8c-1.9-2.4-3.6-4.9-5.1-7.3
			c-2.9-4.9-4.5-9.4-5-13.4C11,27.8,11,27.1,11,26.2c0-0.4,0.1-0.9,0.1-1.3c0-0.2,0.1-0.3,0.1-0.5c0.1-0.3,0.1-0.3,0-0.1
			c0-0.1,0.1-0.3,0.1-0.5c0.2-0.8,0.5-1.5,0.8-2.1c0.1-0.1,0.1-0.3,0.2-0.4c-0.3,0.4,0.1-0.2,0.2-0.2c0.3-0.4,0.5-0.7,0.9-1
			c0.3-0.3,0.5-0.5,0.8-0.7c-0.1,0.1-0.4,0.2,0,0c0.2-0.1,0.4-0.3,0.6-0.4c0.9-0.5,1.9-0.9,2.9-1.3c2-0.7,4-1.3,6.2-1.8
			c9.2-1.9,19.9-1.9,30.3-2c2.6,0,5.1-0.1,7.7-0.2c1.3,0,2.1-1.4,1.3-3.1C62.6,8.8,60.7,8.1,59.6,8.2L59.6,8.2z"/>
		<polyline class="st0" points="48,11.4 68.7,10.8 79.6,16.9 87.1,26.1 89.7,37.7 86.9,51.2 79.1,62.6 66.8,72.8 57.2,76.3 
			36.9,68.3 20.4,51.5 9.3,34.2 9.1,21.1 19.9,13.3 		"/>
	</g>
</g>
<rect x="44.3" y="25" class="st1" width="128" height="125"/>
</svg>
