<?xml version="1.0" encoding="utf-8"?>
<!-- Generator: Adobe Illustrator 24.1.2, SVG Export Plug-In . SVG Version: 6.00 Build 0)  -->
<svg version="1.1" id="Layer_1" xmlns="http://www.w3.org/2000/svg" xmlns:xlink="http://www.w3.org/1999/xlink" x="0px" y="0px"
	 viewBox="0 0 101.3 80.6" style="enable-background:new 0 0 101.3 80.6;" xml:space="preserve">
<style type="text/css">
	.st0{fill:#F6C7B2;}
	.st1{fill:none;}
</style>
<g>
	<g>
		<path class="st0" d="M86.3,29.2c-9.6-6.1-18.9-12.9-28.8-17.9c-4.9-2.5-10-4.7-15.1-5.9c-4.4-1.1-8.8-0.7-13,1.2
			C21.7,10.2,15.3,19.3,13,30.8c-1.6,7.8-2.2,16.8,0.1,24.5c2.4,8.2,7.8,13.1,13.3,15.9c3.9,1.9,8,3,12.1,3.6
			c4.9,0.7,9.9,1.1,14.9,1c8.2-0.2,16.5-1.4,24.3-4.6c5.5-2.3,11.2-5.3,15.7-10.8c2.9-3.5,5.7-8.6,5.2-14.5
			c-0.6-6.4-4.3-10.8-7.9-13.7C89.1,31,87.7,30.1,86.3,29.2c-1.1-0.7-2.9-0.4-3.7,1.1c-0.8,1.5,0.1,3,1.1,3.6
			c0.6,0.4,1.3,0.8,1.8,1.2c0.1,0.1,0.7,0.5,0.1,0.1c0.1,0.1,0.3,0.2,0.4,0.3c0.3,0.2,0.6,0.5,0.9,0.7c1,0.8,1.9,1.8,2.9,2.7
			c0.4,0.4-0.4-0.5,0,0c0.1,0.1,0.1,0.2,0.2,0.3c0.2,0.2,0.3,0.5,0.5,0.7c0.3,0.5,0.7,1,1,1.5c0.1,0.2,0.3,0.5,0.4,0.7
			c0.1,0.1,0.1,0.3,0.2,0.4c0,0-0.2-0.6-0.1-0.2c0.2,0.5,0.4,1,0.6,1.6c0.1,0.5,0.3,1,0.4,1.5c0.2,0.7,0-0.5,0,0.2
			c0,0.3,0.1,0.6,0.1,0.9c0,0.5,0,1,0,1.5c0,0.2-0.1,0.5-0.1,0.7c0,0.5,0.1-0.7,0-0.1c0,0.2-0.1,0.3-0.1,0.5
			c-0.2,1.1-0.5,2.1-0.9,3.1c-0.3,0.7,0.2-0.4-0.1,0.2c-0.1,0.2-0.2,0.5-0.3,0.7c-0.3,0.5-0.6,1.1-0.9,1.6s-0.6,1-0.9,1.4
			c-0.4,0.6,0.3-0.3-0.2,0.3c-0.2,0.3-0.4,0.5-0.7,0.8c-0.9,1-1.8,1.9-2.8,2.8c-0.3,0.2-0.5,0.4-0.7,0.6c-0.4,0.3,0,0,0.1-0.1
			c-0.2,0.1-0.3,0.3-0.5,0.4c-0.6,0.5-1.2,0.9-1.8,1.3c-1.3,0.9-2.6,1.6-3.9,2.3c-0.7,0.4-1.4,0.7-2.1,1c0.6-0.3-0.5,0.2-0.7,0.3
			c-0.4,0.2-0.9,0.4-1.3,0.5c-1.7,0.6-3.3,1.2-5,1.7c-1.8,0.5-3.6,0.9-5.5,1.3c-0.2,0-0.4,0.1-0.5,0.1c0,0-0.9,0.2-0.4,0.1
			c-0.5,0.1-0.9,0.2-1.4,0.2c-1,0.2-2,0.3-3,0.4c-4.4,0.4-8.8,0.5-13.2,0.2c-4.1-0.3-8.4-0.8-12.5-2c-0.4-0.1-0.9-0.3-1.3-0.4
			c-0.3-0.1-0.5-0.2-0.8-0.3c0.4,0.2-0.1,0-0.2-0.1c-0.8-0.3-1.6-0.7-2.4-1.1c-0.7-0.4-1.4-0.7-2.1-1.2c-0.3-0.2-0.7-0.4-1-0.6
			c-0.6-0.4,0.4,0.3-0.2-0.1c-0.2-0.1-0.4-0.3-0.5-0.4c-0.6-0.5-1.1-0.9-1.7-1.5c-0.3-0.3-0.5-0.5-0.8-0.8c-0.1-0.2-0.3-0.3-0.5-0.5
			c0-0.1-0.5-0.6-0.1-0.1c-0.9-1.2-1.8-2.4-2.5-3.8c-0.1-0.2-0.5-1.1-0.3-0.6c-0.1-0.3-0.3-0.7-0.4-1c-0.3-0.8-0.6-1.6-0.8-2.4
			c-0.2-0.7-0.4-1.5-0.5-2.3c-0.1-0.4-0.1-0.8-0.2-1.2c-0.1-0.8,0.1,0.5,0-0.3c0-0.2-0.1-0.5-0.1-0.7c-0.4-3.7-0.3-7.5,0.1-11.2
			c0.2-1.8,0.5-4.1,1-6.2c0.5-2.5,1.3-5,2.2-7.2c1.9-4.6,4.4-8.1,7.5-10.7c0.6-0.5,1.2-0.9,2-1.4c0.4-0.3,0.8-0.5,1.2-0.7
			c0.2-0.1,0.3-0.2,0.5-0.3c0.3-0.1,0.3-0.2,0.1-0.1c0.2-0.1,0.3-0.1,0.5-0.2c0.8-0.3,1.7-0.6,2.5-0.8c0.2,0,0.3-0.1,0.5-0.1
			c-0.6,0.1,0.3,0,0.3,0c0.5-0.1,1.1-0.1,1.6-0.1s0.9,0,1.3,0c-0.1,0-0.5-0.1,0.1,0c0.3,0,0.5,0.1,0.8,0.1c1.2,0.2,2.3,0.5,3.5,0.9
			c2.3,0.7,4.5,1.5,6.8,2.5c9.4,4.1,18.3,10.2,27.2,16.1c2.2,1.4,4.4,2.9,6.6,4.3c1.1,0.7,2.9,0.4,3.7-1.1
			C88.2,31.3,87.2,29.9,86.3,29.2L86.3,29.2z"/>
		<polyline class="st0" points="73.6,24.5 91.6,36 95.4,45.8 93.6,55.5 85.7,63.8 71.6,70.2 55,72.5 35.7,71.6 24.6,68.2 14.5,51.9 
			15.3,32.6 21.2,16.1 32.5,8.2 48.4,9.7 		"/>
	</g>
</g>
<rect x="45.9" y="32.2" class="st1" width="128" height="125"/>
</svg>
