<?xml version="1.0" encoding="utf-8"?>
<!-- Generator: Adobe Illustrator 24.1.2, SVG Export Plug-In . SVG Version: 6.00 Build 0)  -->
<svg version="1.1" id="Layer_1" xmlns="http://www.w3.org/2000/svg" xmlns:xlink="http://www.w3.org/1999/xlink" x="0px" y="0px"
	 viewBox="0 0 100.7 77" style="enable-background:new 0 0 100.7 77;" xml:space="preserve">
<style type="text/css">
	.st0{fill:none;}
	.st1{fill:#F6C7B2;}
</style>
<rect x="43.7" y="28.3" class="st0" width="24.6" height="26.3"/>
<g>
	<g>
		<path class="st1" d="M67.6,64.9c7.8-7.3,16.7-14.4,23.3-22c3.3-3.8,6.2-7.7,8-11.8c1.5-3.4,1.3-7.1-0.9-10.6
			C94,14,83.1,8.2,69.3,5.5c-9.5-1.9-20.5-3-29.9-1.8C29.2,5,22.9,9.1,19.2,13.4c-2.6,3-4.1,6.2-5,9.5c-1.1,4-1.8,8-1.9,12
			c-0.2,6.6,0.9,13.3,4.5,20c2.5,4.6,6.1,9.4,12.4,13.4c4.2,2.6,10.2,5.2,17.4,5.2c7.8,0,13.5-2.7,17.1-5.4
			C65.1,67.1,66.4,65.9,67.6,64.9c0.9-0.9,0.6-2.4-1.1-3.1c-1.9-0.8-3.7-0.2-4.4,0.5c-0.5,0.5-1,1-1.5,1.4c-0.1,0.1-0.6,0.6-0.1,0.1
			c-0.1,0.1-0.2,0.2-0.4,0.3c-0.3,0.2-0.5,0.5-0.8,0.7c-1,0.7-2.3,1.4-3.4,2.1c-0.5,0.3,0.6-0.3,0,0c-0.1,0.1-0.2,0.1-0.3,0.2
			c-0.3,0.1-0.6,0.3-0.8,0.4c-0.6,0.3-1.2,0.5-1.9,0.7c-0.3,0.1-0.6,0.2-0.9,0.2c-0.2,0-0.4,0.1-0.5,0.2c0.1,0,0.7-0.2,0.2-0.1
			c-0.7,0.2-1.3,0.2-2,0.4c-0.6,0.1-1.2,0.1-1.8,0.2c-0.9,0,0.7,0-0.2,0c-0.4,0-0.7,0.1-1.1,0c-0.6,0-1.2-0.1-1.8-0.1
			c-0.3,0-0.6,0-0.9-0.1c-0.7,0,0.8,0.1,0.1,0c-0.2,0-0.4,0-0.6-0.1c-1.4-0.3-2.6-0.6-3.8-0.9c-0.9-0.3,0.5,0.2-0.3-0.1
			c-0.3-0.1-0.6-0.2-0.9-0.4c-0.7-0.2-1.3-0.6-1.9-0.8c-0.6-0.3-1.2-0.6-1.6-0.9c-0.8-0.4,0.4,0.2-0.3-0.2c-0.3-0.2-0.7-0.4-1-0.7
			c-1.2-0.8-2.3-1.6-3.3-2.4c-0.3-0.2-0.5-0.4-0.8-0.6c-0.4-0.3,0,0,0.1,0.1c-0.1-0.1-0.3-0.3-0.5-0.4c-0.6-0.5-1-1.1-1.5-1.6
			c-1-1.1-1.9-2.2-2.6-3.3c-0.4-0.5-0.7-1.2-1.1-1.8c0.3,0.5-0.3-0.4-0.3-0.5c-0.2-0.4-0.4-0.7-0.6-1.1c-0.7-1.4-1.2-2.8-1.8-4.1
			c-0.5-1.5-0.9-3-1.3-4.5c0-0.2-0.1-0.3-0.1-0.5c0,0-0.2-0.7-0.1-0.3c-0.1-0.4-0.2-0.8-0.2-1.1c-0.2-0.8-0.2-1.6-0.3-2.4
			c-0.3-3.5-0.2-7.1,0.4-10.6c0.5-3.3,1.3-6.7,3-10c0.2-0.3,0.3-0.7,0.6-1c0.1-0.2,0.2-0.4,0.3-0.6c-0.2,0.3,0-0.1,0.1-0.2
			c0.4-0.7,0.9-1.3,1.4-1.9c0.4-0.6,1-1.1,1.5-1.6c0.3-0.3,0.5-0.5,0.8-0.8c0.5-0.5-0.4,0.3,0.2-0.2c0.2-0.1,0.3-0.3,0.5-0.4
			c0.6-0.5,1.3-0.8,1.9-1.3c0.3-0.2,0.6-0.4,1-0.5c0.2-0.1,0.4-0.2,0.6-0.3c0.1,0,0.8-0.4,0.2-0.1c1.4-0.6,3-1.2,4.8-1.7
			c0.2-0.1,1.4-0.3,0.7-0.2c0.4-0.1,0.8-0.2,1.3-0.2c0.9-0.1,1.9-0.3,2.9-0.4c0.9-0.1,1.8-0.2,2.8-0.2c0.5-0.1,1,0,1.4-0.1
			c1,0-0.7,0.1,0.3,0c0.3,0,0.6-0.1,0.9,0c4.5,0,9.2,0.2,13.8,0.8c2.2,0.3,5,0.7,7.5,1.3c3.1,0.6,6,1.4,8.7,2.3
			c5.5,1.8,9.7,4.2,12.7,6.8c0.6,0.5,1,1,1.6,1.7c0.3,0.3,0.6,0.6,0.7,1.1c0.1,0.1,0.2,0.3,0.3,0.4c0.2,0.2,0.2,0.3,0.1,0.1
			c0.1,0.1,0.2,0.3,0.3,0.4c0.4,0.7,0.6,1.4,0.9,2.2c0,0.1,0.1,0.3,0.1,0.4c-0.1-0.5,0,0.2,0,0.3c0.1,0.4,0,0.9,0,1.3
			c0,0.3,0,0.7-0.2,1.1c0-0.1,0.1-0.4,0,0.1c-0.1,0.2-0.1,0.4-0.2,0.7c-0.4,1-0.8,1.9-1.3,2.7c-0.9,1.8-2.1,3.5-3.4,5.2
			c-5.4,7.3-13.3,14-21,20.8c-1.9,1.7-3.7,3.3-5.5,5c-1,0.9-0.5,2.4,1.1,3.1C65,66.2,66.7,65.6,67.6,64.9L67.6,64.9z"/>
		<polyline class="st1" points="73.9,55 59,68.7 46.9,71 35.1,68.9 25.3,62 18.2,50.1 16.2,36.5 18.2,21 22.9,12.3 43.2,5.3 
			66.9,7.3 86.7,13.2 95.9,22.9 93.2,35.7 		"/>
	</g>
</g>
</svg>
