<?xml version="1.0" encoding="utf-8"?>
<!-- Generator: Adobe Illustrator 24.1.2, SVG Export Plug-In . SVG Version: 6.00 Build 0)  -->
<svg version="1.1" id="Calque_1" xmlns="http://www.w3.org/2000/svg" xmlns:xlink="http://www.w3.org/1999/xlink" x="0px" y="0px"
	 viewBox="0 0 386 80" style="enable-background:new 0 0 386 80;" xml:space="preserve">
<style type="text/css">
	.st0{fill:#757575;}
</style>
<path class="st0" d="M112.4,62.9c7.7,0,13-4.1,14.6-11.4h-5.2c-1.2,4.6-4.5,7-9.4,7c-6.8,0-10.6-5.2-11-12.1h26.2
	c0-11.2-5.4-19.1-15.6-19.1c-9.6,0-16.1,8-16.1,17.8C96,54.9,102,62.9,112.4,62.9z M112.1,31.4c6.1,0,9.6,4.1,9.9,10.9h-20.4
	C102.4,36.1,105.8,31.4,112.1,31.4z"/>
<path class="st0" d="M146.4,62.9c7.8,0,13.4-3.5,13.4-10.3c0-7.8-5.7-9.3-12.5-10.7c-5.8-1.2-9.1-1.9-9.1-5.6c0-2.7,2-4.9,6.8-4.9
	c5,0,7.5,2,8,6.4h5.4c-0.8-6.6-4.9-10.6-13.3-10.6c-7.9,0-12.2,3.7-12.2,9.3c0,7.4,6,8.8,12.7,10.2c6.2,1.3,8.9,2.3,8.9,6.1
	c0,3.1-2.3,5.6-7.9,5.6c-5.1,0-9-1.6-9.7-7.5h-5.4C131.9,58.5,137.1,62.9,146.4,62.9z"/>
<path class="st0" d="M187.8,61.9h6.2l-14.6-21.7l13-12.2h-6.8l-14.9,14.5V15h-5.3v46.9h5.3V48.4l5-4.7L187.8,61.9z"/>
<path class="st0" d="M198.2,61.9h5.3V28h-5.3V61.9z M198.2,21.6h5.3V15h-5.3V21.6z"/>
<path class="st0" d="M224.3,62.9c7.8,0,13.4-3.5,13.4-10.3c0-7.8-5.7-9.3-12.5-10.7c-5.8-1.2-9.1-1.9-9.1-5.6c0-2.7,2-4.9,6.8-4.9
	c5.1,0,7.5,2,8,6.4h5.4c-0.8-6.6-4.9-10.6-13.3-10.6c-7.9,0-12.2,3.7-12.2,9.3c0,7.4,6,8.8,12.7,10.2c6.2,1.3,8.9,2.3,8.9,6.1
	c0,3.1-2.3,5.6-7.9,5.6c-5.1,0-9-1.6-9.7-7.5h-5.4C209.8,58.5,215,62.9,224.3,62.9z"/>
<path class="st0" d="M256.3,62.9c7.8,0,13.4-3.5,13.4-10.3c0-7.8-5.7-9.3-12.5-10.7c-5.8-1.2-9.1-1.9-9.1-5.6c0-2.7,2-4.9,6.8-4.9
	c5,0,7.5,2,8,6.4h5.4c-0.8-6.6-4.9-10.6-13.3-10.6c-7.9,0-12.2,3.7-12.2,9.3c0,7.4,6,8.8,12.7,10.2c6.2,1.3,8.9,2.3,8.9,6.1
	c0,3.1-2.3,5.6-7.9,5.6c-5.1,0-9-1.6-9.7-7.5h-5.4C241.8,58.5,247,62.9,256.3,62.9z"/>
<path class="st0" d="M274.7,61.9h6.4v-6.5h-6.4V61.9z"/>
<path class="st0" d="M288.2,61.9h5.3V40.8c0-5.3,4.6-9.1,8.7-9.1c3.5,0,5.8,2.5,5.8,6.7v23.5h5.3V40.8c0-5.3,3.9-9.1,8.3-9.1
	c3.4,0,6.2,2.5,6.2,6.7v23.5h5.3V38.1c0-7-4.3-10.9-10.3-10.9c-4.1,0-8.2,2.2-10.4,6h-0.1c-1.4-3.9-4.7-6-8.9-6
	c-4.3,0-7.9,2.4-10,5.6h-0.1V28H288v33.9H288.2z"/>
<path class="st0" d="M355.4,62.9c7.7,0,13-4.1,14.6-11.4h-5.2c-1.2,4.6-4.5,7-9.4,7c-6.8,0-10.6-5.2-11-12.1h26.2
	c0-11.2-5.4-19.1-15.6-19.1c-9.6,0-16.1,8-16.1,17.8C339,54.9,345,62.9,355.4,62.9z M355.1,31.4c6.1,0,9.6,4.1,9.9,10.9h-20.4
	C345.4,36.1,348.8,31.4,355.1,31.4z"/>
<path class="st0" d="M11.8,46.7c1.7-3.5,5-5.3,8.8-5.3c10.9,0,18,8.9,18,19.3c0,2.5-0.5,5-1.5,7.4c-1,2.3-2.4,4.5-4.2,6.3
	s-3.9,3.2-6.3,4.2c-2.3,1-4.9,1.5-7.4,1.5v-4.2c2,0,3.9-0.4,5.8-1.1c1.8-0.8,3.5-1.9,4.9-3.3s2.5-3.1,3.3-4.9
	c0.4-0.9,0.7-1.8,0.8-2.8l-21.3-2.9l-0.5-1.1C10.3,54.5,10.2,50,11.8,46.7z M34.4,59.5c-0.5-8-6-13.9-13.8-13.9
	c-2.4,0-4.1,1.1-5,2.9c-0.9,1.8-1.1,4.6,0.2,8.4L34.4,59.5z"/>
<path class="st0" d="M35.4,0l35.4,27.1v35.2c0,4-2.9,9.6-8.8,10.7c-8,1.5-27.6,4.7-39,6.6C9.9,81.8,0,72.4,0,62.4V27.1L35.4,0z
	 M4.2,29.2v33.2c0,7.2,7.4,14.9,18.1,13.1c11.3-1.8,30.9-5.1,38.9-6.6c3.4-0.6,5.3-4,5.3-6.6V29.2L35.4,5.3L4.2,29.2z"/>
<path class="st0" d="M23.7,45.9c0,0,0,0,0.5-2s0.5-2,0.5-2l5.4,1.4c3.2,0.9,7.6,2,12.1,3.2c8.9,2.4,18.2,4.9,19.8,5.3
	c1.6,0.4,3.8,1.2,5.6,2.7c1.9,1.6,3.1,4,3.1,7.3h-4.2c0-2.1-0.7-3.3-1.7-4.1c-1-0.9-2.4-1.4-3.9-1.8C59.3,55.5,50,53,41.1,50.6
	c-4.5-1.2-8.8-2.4-12.1-3.2L23.7,45.9z"/>
</svg>
