<?xml version="1.0" encoding="utf-8"?>
<!-- Generator: Adobe Illustrator 24.1.2, SVG Export Plug-In . SVG Version: 6.00 Build 0)  -->
<svg version="1.1" id="Layer_1" xmlns="http://www.w3.org/2000/svg" xmlns:xlink="http://www.w3.org/1999/xlink" x="0px" y="0px"
	 viewBox="0 0 490 490" style="enable-background:new 0 0 490 490;" xml:space="preserve">
<style type="text/css">
	.st0{fill:#666666;}
</style>
<g>
	<g>
		<path class="st0" d="M456.5,101h-423c-5,0-9,4.1-9,9v270c0,5,4,9,9,9h423c5,0,9-4,9-9V110C465.5,105.1,461.5,101,456.5,101z
			 M423.8,119L245,225.6L66.2,119H423.8z M447.5,371h-405V125.8l135.7,80.8l-96.3,76.2L93.1,297l101.7-80.5l45.6,27.2
			c1.4,0.8,3,1.3,4.6,1.3c1.6,0,3.1-0.4,4.6-1.3l45.6-27.2L396.9,297l11.2-14.1l-96.3-76.2l135.7-80.8V371z"/>
	</g>
</g>
</svg>
