<?xml version="1.0" encoding="utf-8"?>
<!-- Generator: Adobe Illustrator 26.5.0, SVG Export Plug-In . SVG Version: 6.00 Build 0)  -->
<svg version="1.1" id="Layer_1" xmlns="http://www.w3.org/2000/svg" xmlns:xlink="http://www.w3.org/1999/xlink" x="0px" y="0px"
	 viewBox="0 0 5200 3100" style="enable-background:new 0 0 5200 3100;" xml:space="preserve">
<style type="text/css">
	.st0{fill:none;}
	.st1{fill:#FFFFFF;}
	.st2{fill:#FFBF4A;}
	.st3{fill:#E99E00;}
	.st4{fill:#FFD394;}
	.st5{fill:#478E91;}
	.st6{fill:#FF9D1F;}
	.st7{fill:#FFD674;}
	.st8{fill:#FFE09F;}
	.st9{fill:none;stroke:#000000;stroke-width:9;stroke-miterlimit:10;}
	.st10{fill:#BF6325;}
	.st11{fill:#FFD7AA;}
	.st12{fill:#FDC854;}
</style>
<rect id="bg" class="st0" width="5200" height="3100"/>
<g id="discussion_with_the_team_2_">
	<g id="spots_5_">
		<g>
			<path d="M1687.17,401.25c27.1-12.74,56.08-28.77,74.08-53.52c13.9-19.1,18.61-44.11,11.32-66.77
				c-7.03-21.86-23.55-38.59-41.78-51.8c-23.01-16.67-49.37-28.62-75.98-38.26c-32.07-11.62-65.34-19.97-98.95-25.66
				c-34.79-5.89-70.13-8.95-105.42-8.55c-33.2,0.37-66.66,3.74-98.8,12.36c-14.63,3.92-29.03,8.86-42.73,15.36
				c-6.38,3.03-12.6,6.39-18.58,10.14c-2.85,1.79-5.57,3.75-8.37,5.62c-6.31,4.21-13.58,7.39-20.26,11.02
				c-52.49,28.57-103.58,60.06-151.17,96.27c-41.36,31.47-80.48,66.71-113.08,107.32c-28.6,35.63-51.85,75.77-65.08,119.65
				c-11.05,36.62-10.71,78.1,7.92,112.28c15.37,28.2,40.96,49.59,71.08,60.6c29.84,10.92,62.56,12.15,92.62,1.36
				c32.97-11.84,57.67-38.56,71.17-70.44c11.98-28.31,19.24-59.04,27.18-88.67c4.2-15.66,8.33-31.33,12.73-46.94
				c3.64-12.91,6.38-23.29,11.44-34.94c13.48-31.04,38.1-55.43,69.86-69.43c32.92-14.51,69.88-18.05,105.5-18.24
				c40.51-0.22,80.92,4.24,121.08,9.16c38.3,4.7,76.6,10.3,115.16,12.52c15.81,0.91,31.69,1.21,47.49,0.03
				c8.52-0.63,7.92-27.25,0-26.66c-34.05,2.54-68.43-1.17-102.23-5.1c-39.24-4.56-78.36-10.23-117.73-13.66
				c-38.07-3.32-76.82-4.94-114.78,0.5c-33.13,4.75-66.56,15.38-92.5,37.24c-13.65,11.5-24.59,25.3-33.26,40.86
				c-12.03,21.56-17.92,45.85-24.37,69.49c-8.43,30.93-16.22,62.06-25.96,92.61c-6.15,19.29-12.93,36.4-25.48,51.88
				c-19.38,23.9-48.39,38.07-79.09,40.37c-30.24,2.27-60.84-6.03-85.88-23.11c-12.44-8.49-22.63-18.42-31.16-30.95
				c-0.99-1.46-1.95-2.94-2.88-4.45c-0.46-0.75-0.92-1.51-1.36-2.28c-0.54-0.92,0,0,0.09,0.16c-0.29-0.52-0.57-1.04-0.85-1.56
				c-1.82-3.43-3.48-6.93-4.95-10.52c-0.34-0.84-0.67-1.68-0.99-2.52c-0.13-0.34-1.17-3.25-0.77-2.07c0.4,1.17-0.41-1.29-0.53-1.69
				c-0.32-1.02-0.62-2.05-0.91-3.08c-0.5-1.78-0.95-3.58-1.36-5.39c-0.24-1.06-0.45-2.13-0.67-3.2c-0.28-1.39,0.15,0.8,0.16,0.87
				c-0.1-0.62-0.22-1.24-0.31-1.87c-0.28-1.89-0.54-3.78-0.74-5.69c-0.1-0.96-0.18-1.93-0.27-2.89c-0.04-0.48-0.06-0.97-0.11-1.46
				c-0.17-1.68,0.05,2.7,0.02,0.12c-0.02-1.99-0.11-3.98-0.09-5.97c0.01-1.01,0.03-2.02,0.07-3.03c0.02-0.51,0.06-1.02,0.06-1.53
				c0.02-1.92-0.25,2.39-0.03,0.47c0.52-4.57,0.92-9.1,1.67-13.64c0.23-1.41-0.07,0.32-0.1,0.5c0.1-0.54,0.21-1.08,0.32-1.62
				c0.27-1.27,0.54-2.54,0.83-3.8c0.56-2.4,1.18-4.79,1.85-7.16c2.82-9.98,5.6-17.81,9.68-27.71c4.12-9.98,8.78-19.73,13.89-29.23
				c21.86-40.6,52.38-76.58,85.61-108.3c39.45-37.66,83.6-70.27,129.43-99.71c25.61-16.45,51.86-31.91,78.53-46.59
				c10.68-5.88,21.54-11.3,31.7-18.01c5.73-3.79,11.71-7.2,17.84-10.29c26.76-13.46,56.25-20.7,85.81-24.73
				c33.51-4.57,67.56-4.99,101.28-2.68c34.38,2.36,68.59,7.61,102.08,15.69c30.24,7.3,60.06,16.94,88.26,30.16
				c12.25,5.74,24.2,12.19,35.48,19.67c4.94,3.28,9.75,6.76,14.35,10.5c2.2,1.79,4.35,3.63,6.44,5.54c0.47,0.43,0.94,0.86,1.4,1.3
				c1.07,1-0.62-0.62,0.41,0.39c1.03,1.01,2.04,2.03,3.03,3.07c3.4,3.58,6.58,7.38,9.4,11.44c0.68,0.98,1.34,1.97,1.97,2.98
				c0.29,0.46,0.56,0.92,0.85,1.38c1.02,1.61-0.06-0.13,0.01,0c1.05,2,2.08,3.99,2.96,6.07c0.39,0.93,0.73,1.89,1.11,2.83
				c0.75,1.83-0.35-1.43-0.27-0.8c0.08,0.55,0.36,1.12,0.51,1.66c0.28,1.03,0.53,2.07,0.79,3.1c0.74,2.95-0.33-3,0.07,0.42
				c0.12,1.03,0.15,2.13,0.35,3.14c0.16,0.8-0.07-3.86-0.1-1.61c-0.01,0.57,0.03,1.13,0.03,1.7c0,0.49-0.03,0.97-0.02,1.46
				c0.02,2.26-0.19-1.03,0.11-1.59c-0.4,0.75-0.27,2.54-0.38,3.43c-0.41,3.41,0.6-2.23-0.04,0.26c-0.3,1.15-0.58,2.31-0.89,3.45
				c-0.86,3.11,0.68-1.47-0.24,0.77c-0.44,1.07-0.85,2.16-1.32,3.23c-0.49,1.09-1,2.17-1.55,3.23c-0.26,0.5-0.54,0.99-0.8,1.5
				c-0.7,1.34,1.03-1.6-0.11,0.16c-1.42,2.2-2.82,4.4-4.39,6.5c-7.79,10.38-15.99,17.3-26.81,24.99
				c-13.69,9.73-28.55,17.71-43.72,24.84C1676.82,378.94,1679.08,405.05,1687.17,401.25z"/>
		</g>
		<g>
			<path d="M3621.79,2387.77c-22.56-17.94-47.52-32.68-74.13-43.78c-22.79-9.51-46.71-17.54-71.71-16.45
				c-45.05,1.96-85.61,29.43-105.51,69.63c-5.24,10.58-8.9,21.98-11.2,33.54c-1.26,6.32-0.76,12.93-0.99,19.35
				c-0.04,1.22-0.11,2.44-0.16,3.66c-0.16,4,0.22-2.7-0.07,1.24c-0.2,2.72-0.41,5.43-0.68,8.14c-0.44,4.43-1,8.85-1.71,13.24
				c-0.17,1.06-0.36,2.12-0.53,3.17c-0.59,3.49,0.54-2.46-0.18,0.97c-0.49,2.35-0.98,4.7-1.53,7.04c-0.92,3.84-1.96,7.65-3.14,11.42
				c-0.29,0.91-0.58,1.82-0.88,2.73c0.67-2.01,0.14-0.42,0-0.02c-0.73,2.04-1.48,4.06-2.29,6.07
				c-5.45,13.53-11.32,23.48-21.26,34.86c-8.18,9.36-17.89,17.29-29.07,24.24c-23.49,14.61-50.28,22.88-77.05,29.09
				c-29.11,6.76-58.68,11.22-87.99,16.92c-56.98,11.08-117.57,27.45-155.36,74.91c-2.06,2.58-4.02,5.23-5.9,7.95
				c-3.16,4.57-4.79,8.98-5.84,14.4c-1.65,8.51-3.04,17.06-3.89,25.69c-1.56,15.86-1.7,31.83-0.04,47.69
				c2.85,27.26,11.51,53.68,26.11,76.91c27.5,43.75,74.39,71.08,122.74,86.06c56.13,17.39,116.2,20.75,174.41,14.32
				c58.95-6.51,118.09-23.15,169.77-52.68c23.69-13.54,45.7-30.04,64.59-49.78c9.01-9.41,17.22-19.6,24.33-30.53
				c8.92-13.72,15.99-28.7,23.1-43.41c25.42-52.64,40.65-109.52,54.02-166.21c6.62-28.08,12.81-56.25,19.66-84.27
				c3.4-13.92,6.97-27.8,10.84-41.6c3.78-13.48,7.53-26.09,6.88-40.31C3655.92,2425.74,3643.54,2402.62,3621.79,2387.77
				c-4.6-3.14-6.9,6.73-7.22,9.31c-0.59,4.79-0.51,13.26,4.1,16.4c10.83,7.39,20.41,17.62,24.71,30.05
				c0.79,2.28,1.59,6.02,1.73,7.06c0.08,0.55,0.42,4.51,0.34,2.8c0.04,0.95,0.02,1.91,0.04,2.86c0.01,0.47-0.07,2.21,0.02,0.78
				c-0.41,6.98-2.9,12.95-4.92,20.1c-9.17,32.47-16.64,65.39-24.19,98.27c-14.91,64.96-30.1,130.6-59.35,190.89
				c-4.54,9.35-9.05,18.83-14.03,27.97c-0.43,0.79-0.87,1.57-1.31,2.35c-0.68,1.21,0.75-1.28,0.04-0.08c-0.19,0.33-0.38,0.67-0.58,1
				c-0.99,1.65-1.98,3.31-3.01,4.94c-1.99,3.16-4.08,6.27-6.25,9.31c-8.46,11.84-19.05,23.65-28.97,32.77
				c-23.76,21.85-51.59,39.01-80.86,52.43c-31.12,14.27-64.03,24.36-97.6,30.93c-34.4,6.73-69.56,9.82-104.6,9.05
				c-33.68-0.74-67.43-5.04-99.92-14.1c-29.1-8.11-57.43-20.47-82.03-38.14c-12.05-8.66-21.51-17.1-30.83-27.91
				c-4.55-5.28-8.77-10.85-12.6-16.67c-0.94-1.43-1.86-2.88-2.76-4.34c-0.45-0.73-0.88-1.47-1.33-2.21
				c-0.19-0.32-0.37-0.64-0.56-0.95c-0.58-0.98,0.77,1.4-0.09-0.16c-1.67-3.03-3.27-6.09-4.74-9.21c-1.55-3.27-2.98-6.59-4.29-9.95
				c-0.64-1.64-1.24-3.3-1.84-4.95c-0.87-2.39,0.39,1.35-0.18-0.54c-0.3-0.97-0.62-1.94-0.92-2.91c-1.1-3.57-2.06-7.19-2.91-10.83
				c-0.38-1.66-0.73-3.32-1.08-4.99c-0.57-2.76-0.02,0.06-0.07-0.32c-0.14-1.05-0.36-2.1-0.53-3.15c-0.62-3.88-1.1-7.78-1.45-11.7
				c-0.12-1.3-0.4-7.32-0.27-3.09c-0.06-2.11-0.19-4.23-0.24-6.34c-0.09-4.05-0.05-8.1,0.11-12.15c0.04-1.03,0.1-2.07,0.14-3.1
				c-0.11,2.66-0.07,1.05,0.04-0.48c0.16-2.27,0.36-4.54,0.59-6.8c0.45-4.35,1.02-8.69,1.7-13.01c0.15-0.95,0.31-1.89,0.47-2.84
				c0.07-0.39,0.68-3.81,0.38-2.23c-0.29,1.6,0.35-1.76,0.45-2.26c0.26-1.3,0.53-2.59,0.81-3.88c-0.7,1.59-1.4,3.19-2.1,4.78
				c25.17-38.57,66.55-59.82,110.31-72.08c45.92-12.86,93.58-17.72,139.89-28.89c42.11-10.15,84.98-26.23,112.37-61.6
				c15.29-19.75,24.44-43.69,29.07-68.08c3.09-16.27,4.53-32.75,4.7-49.31c0.01-0.93,0.38-2.99,0.02-3.84
				c0.26,0.61-1.32,6.58-0.11,2.15c0.64-2.34,1.09-4.73,1.74-7.07c1.14-4.1,2.41-7.67,4.09-11.63c3.29-7.75,7.44-15,12.46-21.76
				c20.33-27.44,52.87-44.52,86.92-46.2c19.64-0.97,38.08,3.71,56.39,10.42c21.08,7.73,41.35,17.71,60.3,29.76
				c9.24,5.87,18.13,12.26,26.7,19.07c4.39,3.49,6.93-7.02,7.22-9.31C3626.52,2399.02,3626.26,2391.33,3621.79,2387.77z"/>
		</g>
		<g>
			<path d="M4417.56,1271.4c-30.71-30.49-66.1-56.5-103.04-78.93c-40.84-24.8-85.44-46.34-132.6-55.65
				c-19.61-3.87-39.44-5.89-58.47,1.53c-16.41,6.4-29.4,19.12-37.94,34.32c-18.66,33.24-15.63,80.43,11.68,108.17
				c11.72,11.9,25.82,21.53,38.19,32.77c13.28,12.07,25.44,25.38,35.86,40c12.81,17.98,22.66,37.81,30.01,58.6
				c4.44,12.56,6.89,25.6,10.81,38.28c3.1,10.05,8.09,19.5,12.37,29.08c7.85,17.53,15.77,35.18,26.24,51.34
				c8.88,13.69,20.69,27.7,36.69,32.96c20.39,6.7,37.45-4.58,55.93-11.73c20.94-8.1,40.85-18.94,59.02-32.14
				c34.11-24.78,63.76-58.83,75.14-100.15c12.03-43.65,0.3-89.35-30.56-122.27c-4.41-4.71-9.11-9.18-13.98-13.42
				C4427.9,1279.82,4422.33,1276.04,4417.56,1271.4c-4.06-3.95-6.93,0.66-8.03,4.78c-1.24,4.68-1.88,14.36,2.1,18.24
				c9.06,8.82,19.53,15.93,28.29,25.1c7.25,7.59,13.94,15.95,19.15,25.09c4.86,8.53,7.81,16.13,9.85,25.22
				c0.03,0.15,0.79,4.01,0.34,1.5c0.14,0.78,0.26,1.56,0.38,2.34c0.35,2.34,0.58,4.68,0.79,7.03c-0.26-2.99,0.07,2.58,0.07,3.48
				c0.01,1.17-0.04,2.34-0.05,3.5c-0.07,1.57-0.06,1.56,0.04-0.05c-0.05,0.78-0.11,1.55-0.18,2.33c-0.17,1.94-0.4,3.88-0.67,5.81
				c-0.17,1.16-0.35,2.32-0.56,3.47c0.47-2.56-0.29,1.24-0.33,1.43c-0.9,4.09-2.47,9.55-3.41,12.14
				c-2.92,8.09-6.62,15.97-11.08,23.32c-10.35,17.08-23.76,32.28-38.85,45.32c-16.18,13.99-34.23,25.83-53.38,35.34
				c-9.69,4.81-19.66,8.63-29.71,12.59c-9.17,3.61-17.04,8.88-27.06,9.93c-34.15,3.56-52.9-36.13-64.82-61.59
				c-3.66-7.82-7.14-15.74-10.69-23.61c-1.64-3.63-3.35-7.23-5-10.86c-2.7-5.91-4.05-11.98-5.61-18.25
				c-5.87-23.52-14.12-46.66-25.66-68.02c-17.26-31.96-41.25-58.03-68.95-81.22c-11.93-9.99-25.82-19.61-32.88-33.19
				c-0.83-1.6-1.6-3.23-2.3-4.89c-0.42-0.99-0.81-1.98-1.18-2.99c-1.21-3.24,0.54,1.97-0.44-1.33c-0.5-1.69-0.89-3.4-1.33-5.1
				c-0.86-3.34,0.28,2.47-0.19-0.93c-0.19-1.38-0.4-2.75-0.54-4.14c-0.01-0.13-0.25-3.54-0.13-1.34c0.12,2.2-0.01-1.21-0.01-1.34
				c-0.01-1.04,0.02-2.07,0.02-3.11c-0.01-3.49-0.35,2.88,0.02-0.58c0.19-1.71,0.4-3.41,0.61-5.12c0.42-3.38-0.62,2.45,0.15-0.87
				c0.31-1.34,0.6-2.68,0.96-4.01c0.19-0.73,1.56-4.98,0.93-3.19c0.69-1.94,1.46-3.85,2.31-5.72c1.74-3.85,2.84-5.82,5.08-9.12
				c4.2-6.19,9.26-11.65,15.28-16.1c14.14-10.44,30.88-14,48.22-12.51c44.26,3.81,86.76,21.83,125.51,42.65
				c38.87,20.89,75.83,46.07,109.13,75.04c6.13,5.33,12.12,10.81,17.88,16.53c4.03,4,6.95-0.71,8.03-4.78
				C4420.91,1284.91,4421.52,1275.33,4417.56,1271.4z"/>
		</g>
	</g>
	<g id="project_2_">
		<g>
			<path class="st1" d="M3654.84,2008.93h-2319.7c-14.6,0-26.44-11.84-26.44-26.44V515.81c0-14.6,11.84-26.44,26.44-26.44h2319.7
				c14.6,0,26.44,11.84,26.44,26.44v1466.69C3681.28,1997.1,3669.44,2008.93,3654.84,2008.93z"/>
			<g>
				<path d="M3654.84,1998.93c-14.2,0-28.41,0-42.61,0c-39.18,0-78.36,0-117.54,0c-59.39,0-118.77,0-178.16,0
					c-75.17,0-150.34,0-225.51,0c-85.53,0-171.06,0-256.6,0c-91.81,0-183.62,0-275.43,0c-92.53,0-185.05,0-277.58,0
					c-89.22,0-178.43,0-267.65,0c-80.37,0-160.74,0-241.1,0c-67.14,0-134.28,0-201.42,0c-49.31,0-98.62,0-147.92,0
					c-26.27,0-52.55,0-78.82,0c-8.32,0-16.25,0.67-23.55-4.61c-9.85-7.12-7.85-16.6-7.85-26.95c0-39.6,0-79.2,0-118.8
					c0-69.43,0-138.87,0-208.3c0-86.73,0-173.46,0-260.18c0-92.35,0-184.71,0-277.06c0-86.4,0-172.81,0-259.21
					c0-67.77,0-135.55,0-203.32c0-37.62,0-75.24,0-112.86c0-14.62,1.83-27.23,22.05-28.28c3.87-0.2,7.81,0,11.69,0
					c27.83,0,55.66,0,83.48,0c50.26,0,100.53,0,150.79,0c68,0,135.99,0,203.99,0c81.33,0,162.65,0,243.98,0
					c89.18,0,178.36,0,267.55,0c92.59,0,185.18,0,277.77,0c91.61,0,183.22,0,274.83,0c85.07,0,170.13,0,255.2,0
					c74.44,0,148.88,0,223.31,0c58.39,0,116.79,0,175.18,0c38.03,0,76.06,0,114.1,0c15.34,0,47.77-5.19,57.36,10.21
					c4.02,6.45,2.51,15.15,2.51,22.43c0,15.61,0,31.22,0,46.83c0,56.57,0,113.14,0,169.71c0,79.71,0,159.42,0,239.13
					c0,91.51,0,183.01,0,274.52c0,90.58,0,181.15,0,271.73c0,78.4,0,156.8,0,235.2c0,53.61,0,107.21,0,160.82
					c0,13.57,0,27.15,0,40.72C3676.88,1985.31,3675.18,1997.76,3654.84,1998.93c-6.34,0.37-6.01,20.34,0,20
					c39.05-2.25,30.84-55.85,30.84-82.95c0-52.76,0-105.52,0-158.27c0-78.33,0-156.66,0-234.99c0-91.14,0-182.28,0-273.41
					c0-92.39,0-184.77,0-277.16c0-80.9,0-161.8,0-242.7c0-56.87,0-113.74,0-170.61c0-15.88,0-31.76,0-47.64
					c0-7.92,0.58-16.28-0.86-24.1c-6.04-32.81-37.58-27.72-62.07-27.72c-36.66,0-73.33,0-109.99,0c-57.99,0-115.99,0-173.98,0
					c-74.03,0-148.06,0-222.09,0c-85.76,0-171.51,0-257.27,0c-92.25,0-184.5,0-276.75,0c-93.79,0-187.58,0-281.37,0
					c-90.01,0-180.02,0-270.03,0c-82.06,0-164.11,0-246.17,0c-68.76,0-137.52,0-206.28,0c-50.51,0-101.02,0-151.53,0
					c-27.31,0-54.61,0-81.92,0c-5.31,0-11.08-0.47-16.3,0.7c-21.33,4.77-24.78,25.95-24.78,44.28c0,35.97,0,71.94,0,107.9
					c0,67.52,0,135.04,0,202.56c0,86.31,0,172.62,0,258.93c0,93.5,0,187.01,0,280.51c0,88,0,175.99,0,263.99
					c0,70.11,0,140.23,0,210.34c0,39.86,0,79.73,0,119.59c0,9.36-0.72,19.27,2.14,28.28c5.27,16.61,19.36,22.47,34.97,22.47
					c24.58,0,49.16,0,73.75,0c48.31,0,96.61,0,144.92,0c67.08,0,134.15,0,201.23,0c80.53,0,161.06,0,241.59,0
					c89.73,0,179.46,0,269.19,0c93.66,0,187.33,0,280.99,0c92.64,0,185.29,0,277.93,0c86.67,0,173.34,0,260.02,0
					c75.46,0,150.92,0,226.38,0c59.95,0,119.89,0,179.84,0c39.14,0,78.27,0,117.41,0c13.4,0,26.79,0,40.19,0
					C3661.01,2018.93,3661.07,1998.93,3654.84,1998.93z"/>
			</g>
		</g>
		<g>
			<g>
				<path d="M1344.3,530.71c16.21,9.53,32.43,19.07,48.64,28.6c38.93,22.89,77.87,45.79,116.8,68.68
					c47.09,27.69,94.19,55.38,141.28,83.08c40.7,23.93,81.39,47.86,122.09,71.79c13.32,7.83,26.63,15.66,39.95,23.49
					c6.12,3.6,12.57,8.69,19.21,11.29c0.3,0.12,0.58,0.34,0.86,0.51c-1.08-3.21-2.15-6.43-3.23-9.64c0,21.94,0,43.89,0,65.83
					c0,52.69,0,105.39,0,158.08c0,63.74,0,127.48,0,191.21c0,55.08,0,110.16,0,165.24c0,18.09,0,36.17,0,54.26
					c0,8.54-0.54,17.29,0,25.82c0.02,0.38,0,0.77,0,1.16c0.73-2.88,1.45-5.76,2.18-8.63c-12.95,12.95-25.91,25.91-38.86,38.86
					c-31.28,31.28-62.56,62.56-93.84,93.84c-37.7,37.7-75.4,75.4-113.1,113.1c-32.73,32.73-65.45,65.45-98.18,98.18
					c-10.74,10.74-21.47,21.47-32.21,32.21c-5.03,5.03-10.73,9.85-15.31,15.31c-0.2,0.24-0.45,0.45-0.68,0.68
					c-3.99,3.99-1.48,23.19,4.44,17.27c30.85-30.85,61.69-61.69,92.54-92.54c59.66-59.66,119.32-119.32,178.98-178.98
					c39.15-39.15,78.3-78.3,117.45-117.45c6.62-6.62,5.38-15.41,5.38-24.18c0-21.75,0-43.51,0-65.26c0-77.25,0-154.5,0-231.75
					c0-81.26,0-162.53,0-243.79c0-26.77,0-53.54,0-80.31c0-7.13,0-14.26,0-21.4c0-5.17,0.89-12.81-3.23-16.38
					c-2.3-1.99-5.67-3.34-8.28-4.87c-7.68-4.52-15.37-9.04-23.05-13.55c-26.54-15.61-53.09-31.22-79.63-46.82
					c-72.63-42.71-145.26-85.42-217.89-128.13c-50.78-29.86-101.55-59.71-152.33-89.57c-2.55-1.5-5.09-2.99-7.64-4.49
					C1341.25,508.25,1338.93,527.55,1344.3,530.71L1344.3,530.71z"/>
			</g>
			<g>
				<path d="M2480.94,1462.81c-21.57,0-43.14,0-64.71,0c-51.43,0-102.87,0-154.3,0c-62.17,0-124.33,0-186.5,0
					c-53.88,0-107.75,0-161.63,0c-17.71,0-35.42,0-53.13,0c-8.35,0-16.97-0.62-25.31,0c-0.35,0.03-0.72,0-1.07,0
					c-6.17,0-6.23,20,0,20c21.57,0,43.14,0,64.71,0c51.43,0,102.87,0,154.3,0c62.17,0,124.33,0,186.5,0c53.88,0,107.75,0,161.63,0
					c17.71,0,35.42,0,53.12,0c8.35,0,16.97,0.62,25.31,0c0.35-0.03,0.72,0,1.07,0C2487.11,1482.81,2487.17,1462.81,2480.94,1462.81
					L2480.94,1462.81z"/>
			</g>
			<g>
				<path d="M1834.3,818.5c21.57,0,43.14,0,64.71,0c51.43,0,102.87,0,154.3,0c62.17,0,124.33,0,186.5,0c53.88,0,107.75,0,161.63,0
					c17.71,0,35.42,0,53.12,0c8.35,0,16.97,0.62,25.31,0c0.35-0.03,0.72,0,1.07,0c6.17,0,6.23-20,0-20c-21.57,0-43.14,0-64.71,0
					c-51.43,0-102.87,0-154.3,0c-62.17,0-124.33,0-186.5,0c-53.88,0-107.75,0-161.63,0c-17.71,0-35.42,0-53.13,0
					c-8.35,0-16.97-0.62-25.31,0c-0.35,0.03-0.72,0-1.07,0C1828.13,798.5,1828.07,818.5,1834.3,818.5L1834.3,818.5z"/>
			</g>
			<g>
				<path d="M1726.8,1927.81c9.99-14.88,19.99-29.75,29.98-44.63c23.8-35.43,47.6-70.87,71.41-106.3
					c28.96-43.11,57.92-86.23,86.88-129.34c24.87-37.03,49.75-74.06,74.62-111.09c12.13-18.06,24.65-35.93,36.43-54.23
					c0.17-0.26,0.34-0.51,0.52-0.77c2.55-3.8,2.72-9.36,1.58-13.68c-0.63-2.37-3.43-7.45-6.02-3.59
					c-9.99,14.88-19.99,29.75-29.98,44.63c-23.8,35.43-47.6,70.87-71.41,106.3c-28.96,43.11-57.92,86.23-86.88,129.34
					c-24.87,37.03-49.75,74.06-74.62,111.09c-12.13,18.06-24.65,35.93-36.43,54.23c-0.17,0.26-0.34,0.51-0.52,0.77
					c-2.55,3.8-2.72,9.36-1.58,13.68C1721.41,1926.59,1724.21,1931.67,1726.8,1927.81L1726.8,1927.81z"/>
			</g>
			<g>
				<path d="M3646.53,490.56c-43.54,25.6-87.08,51.21-130.62,76.81c-81.93,48.18-163.86,96.35-245.79,144.53
					c-33.06,19.44-66.11,38.88-99.17,58.31c-10.57,6.21-21.13,12.43-31.7,18.64c-5.22,3.07-11.1,5.79-15.97,9.39
					c-7.55,5.59-4.29,27.3-4.29,35.44c0,30.16,0,60.33,0,90.49c0,92.74,0,185.48,0,278.22c0,77.75,0,155.49,0,233.24
					c0,8.97,0,17.93,0,26.9c0,5.03-0.79,12.07,2.2,16.24c1.99,2.77,5.16,5.16,7.56,7.56c6.57,6.57,13.14,13.14,19.71,19.71
					c53.44,53.44,106.87,106.87,160.31,160.31c67.65,67.65,135.31,135.31,202.96,202.96c42.5,42.5,85,85,127.5,127.5
					c2.08,2.08,4.17,4.17,6.25,6.25c5.88,5.88,8.5-13.21,4.44-17.27c-17.4-17.4-34.79-34.79-52.19-52.19
					c-41.77-41.77-83.54-83.54-125.31-125.31c-50.35-50.35-100.7-100.7-151.05-151.05c-43.82-43.82-87.64-87.64-131.46-131.46
					c-14.33-14.33-28.65-28.65-42.98-42.98c-6.57-6.57-12.98-14.83-20.43-20.43c-0.33-0.25-0.61-0.61-0.9-0.9
					c0.73,2.88,1.45,5.76,2.18,8.63c0-21.99,0-43.98,0-65.97c0-52.55,0-105.1,0-157.64c0-63.81,0-127.61,0-191.42
					c0-54.97,0-109.93,0-164.9c0-18.2,0-36.41,0-54.61c0-8.54,0.68-17.4,0-25.93c-0.03-0.37,0-0.76,0-1.13
					c-1.08,3.21-2.15,6.43-3.23,9.64c17.44-10.26,34.88-20.51,52.32-30.77c41.66-24.5,83.32-48.99,124.98-73.49
					c50.59-29.75,101.18-59.5,151.77-89.24c43.55-25.61,87.1-51.22,130.65-76.82c14.37-8.45,28.74-16.9,43.11-25.35
					c6.7-3.94,14.32-7.42,20.55-12.09c0.28-0.21,0.63-0.37,0.93-0.55C3654.18,506.72,3652,487.34,3646.53,490.56L3646.53,490.56z"/>
			</g>
			<g>
				<path d="M2476.75,1482.81c21.57,0,43.14,0,64.71,0c51.43,0,102.87,0,154.3,0c62.17,0,124.33,0,186.5,0
					c53.88,0,107.75,0,161.63,0c17.71,0,35.42,0,53.13,0c8.35,0,16.97,0.62,25.31,0c0.35-0.03,0.72,0,1.07,0c6.17,0,6.23-20,0-20
					c-21.57,0-43.14,0-64.71,0c-51.43,0-102.87,0-154.3,0c-62.17,0-124.33,0-186.5,0c-53.88,0-107.75,0-161.63,0
					c-17.71,0-35.42,0-53.13,0c-8.35,0-16.97-0.62-25.31,0c-0.35,0.03-0.72,0-1.07,0
					C2470.58,1462.81,2470.52,1482.81,2476.75,1482.81L2476.75,1482.81z"/>
			</g>
			<g>
				<path d="M3123.39,798.5c-21.57,0-43.14,0-64.71,0c-51.43,0-102.87,0-154.3,0c-62.17,0-124.33,0-186.5,0
					c-53.88,0-107.75,0-161.63,0c-17.71,0-35.42,0-53.13,0c-8.35,0-16.97-0.62-25.31,0c-0.35,0.03-0.72,0-1.07,0
					c-6.17,0-6.23,20,0,20c21.57,0,43.14,0,64.71,0c51.43,0,102.87,0,154.3,0c62.17,0,124.33,0,186.5,0c53.88,0,107.75,0,161.63,0
					c17.71,0,35.42,0,53.13,0c8.35,0,16.97,0.62,25.31,0c0.35-0.03,0.72,0,1.07,0C3129.56,818.5,3129.62,798.5,3123.39,798.5
					L3123.39,798.5z"/>
			</g>
			<g>
				<path d="M3235.33,1910.55c-9.99-14.88-19.99-29.75-29.98-44.63c-23.8-35.43-47.6-70.87-71.41-106.3
					c-28.96-43.11-57.92-86.23-86.88-129.34c-24.87-37.03-49.75-74.06-74.62-111.09c-8.25-12.28-16.5-24.57-24.75-36.85
					c-3.87-5.76-7.48-11.85-11.67-17.38c-0.19-0.24-0.35-0.51-0.52-0.77c-2.54-3.79-5.39,1.22-6.02,3.59
					c-1.13,4.28-0.97,9.89,1.58,13.68c9.99,14.88,19.99,29.75,29.98,44.63c23.8,35.43,47.6,70.87,71.41,106.3
					c28.96,43.11,57.92,86.23,86.88,129.34c24.87,37.03,49.75,74.06,74.62,111.09c8.25,12.28,16.5,24.57,24.75,36.85
					c3.87,5.76,7.48,11.85,11.67,17.38c0.19,0.24,0.35,0.51,0.52,0.77c2.54,3.79,5.39-1.22,6.02-3.59
					C3238.04,1919.95,3237.87,1914.33,3235.33,1910.55L3235.33,1910.55z"/>
			</g>
			<g>
				<path d="M2480.94,867.87c-17.78,0-35.56,0-53.34,0c-40.93,0-81.86,0-122.79,0c-50.39,0-100.78,0-151.18,0
					c-44.33,0-88.66,0-132.99,0c-14.68,0-29.35,0-44.03,0c-6.87,0-14.05-0.61-20.9,0c-0.29,0.03-0.6,0-0.89,0
					c-3.84,0-4.4,7.7-4.4,10c0,16.37,0,32.75,0,49.12c0,39.32,0,78.63,0,117.95c0,47.38,0,94.76,0,142.14c0,41.12,0,82.24,0,123.36
					c0,19.97-0.33,39.98,0,59.95c0,0.28,0,0.56,0,0.84c0,2.48,0.57,10,4.4,10c17.55,0,35.1,0,52.65,0c41.67,0,83.33,0,125,0
					c50.47,0,100.94,0,151.41,0c42.85,0,85.7,0,128.55,0c19.93,0,39.86,0,59.79,0c15.31,0,30.62,0,45.92,0c38.97,0,77.93,0,116.9,0
					c49.82,0,99.63,0,149.45,0c45.46,0,90.93,0,136.39,0c24.76,0,49.51,0,74.27,0c1.17,0,2.35,0,3.52,0c3.84,0,4.4-7.7,4.4-10
					c0-16.37,0-32.75,0-49.12c0-39.32,0-78.63,0-117.95c0-47.38,0-94.76,0-142.14c0-41.12,0-82.24,0-123.36
					c0-19.97,0.33-39.98,0-59.95c0-0.28,0-0.56,0-0.84c0-2.48-0.57-10-4.4-10c-17.22,0-34.44,0-51.66,0c-41.17,0-82.33,0-123.5,0
					c-49.95,0-99.9,0-149.85,0c-43.02,0-86.04,0-129.06,0c-14.18,0-28.36,0-42.54,0c-6.65,0-13.6-0.59-20.22,0
					C2481.54,867.9,2481.24,867.87,2480.94,867.87c-6.17,0-6.23,20,0,20c17.22,0,34.44,0,51.66,0c41.17,0,82.33,0,123.5,0
					c49.95,0,99.9,0,149.85,0c43.02,0,86.04,0,129.06,0c14.18,0,28.36,0,42.54,0c6.51,0,13.76,0.9,20.22,0c0.29-0.04,0.6,0,0.89,0
					c-1.47-3.33-2.93-6.67-4.4-10c0,16.37,0,32.75,0,49.12c0,39.32,0,78.63,0,117.95c0,47.38,0,94.76,0,142.14
					c0,41.12,0,82.24,0,123.36c0,13.59,0,27.18,0,40.77c0,6.34-0.44,12.85,0,19.18c0.02,0.28,0,0.56,0,0.84
					c1.47-3.33,2.93-6.67,4.4-10c-17.55,0-35.1,0-52.65,0c-41.67,0-83.33,0-125,0c-50.47,0-100.94,0-151.41,0
					c-42.85,0-85.7,0-128.55,0c-19.93,0-39.86,0-59.79,0c-15.31,0-30.62,0-45.92,0c-38.97,0-77.93,0-116.9,0
					c-49.82,0-99.63,0-149.45,0c-45.46,0-90.93,0-136.39,0c-24.76,0-49.51,0-74.27,0c-1.17,0-2.35,0-3.52,0
					c1.47,3.33,2.93,6.67,4.4,10c0-16.37,0-32.75,0-49.12c0-39.32,0-78.63,0-117.95c0-47.38,0-94.76,0-142.14
					c0-41.12,0-82.24,0-123.36c0-13.59,0-27.18,0-40.77c0-6.34,0.44-12.85,0-19.18c-0.02-0.28,0-0.56,0-0.84
					c-1.47,3.33-2.93,6.67-4.4,10c17.77,0,35.54,0,53.31,0c42.44,0,84.89,0,127.33,0c50.48,0,100.96,0,151.44,0
					c42.99,0,85.98,0,128.97,0c18.87,0,37.74,0,56.61,0c2.82,0,5.64,0,8.46,0C2487.11,887.87,2487.17,867.87,2480.94,867.87z"/>
			</g>
			<g>
				<path d="M1314.44,1350.86c89.78-46.99,177.68-97.52,266.36-146.52c21.75-12.02,43.54-23.97,65.41-35.76
					c21.14-11.4,42.25-23.06,64.02-33.21c25.44-11.86,53.13-22.17,81.66-20.64c24.8,1.33,47.28,13.38,62.21,33.19
					c38.83,51.54,19.94,118.44,3.21,174.5c-1.15,3.86-1.11,8.58,1.31,12c1.88,2.65,5.34,3.8,7.94,1.36
					c21.25-20,52.03-22.92,79.86-23.46c29.03-0.56,58.79,0.5,86.91,8.36c27.08,7.57,51.98,21.94,68.15,45.44
					c15.06,21.89,21.36,48.63,21.46,74.96c0.25,64.18-37.56,120.99-70.86,172.99c-37.87,59.12-75.76,118.24-115.16,176.37
					c-39.53,58.32-80.59,115.66-124.51,170.77c-5.46,6.85-10.97,13.66-16.52,20.44c-3.1,3.79-3.93,9.05-2,13.64
					c1.3,3.1,5.89,7.14,9,3.34c46.51-56.74,89.87-115.95,131.37-176.43c41.5-60.5,81.2-122.2,120.77-183.97
					c36.35-56.74,76.42-116.06,80.6-185.43c1.77-29.38-3.03-60.18-16.7-86.47c-13.87-26.67-36.04-46.79-63.77-58.38
					c-27.93-11.68-58.94-14.9-88.95-15.47c-29.39-0.56-61.96-0.56-88.63,13.5c-6.54,3.45-12.62,7.77-18,12.84
					c3.08,4.45,6.17,8.91,9.25,13.36c16.85-56.46,33.98-119.17,7.7-175.63c-10.36-22.26-26.74-41.93-49.13-52.75
					c-26.15-12.64-55.9-10.33-83.01-2.3c-26.79,7.94-51.62,21.2-76.22,34.22c-21.61,11.44-43.1,23.11-64.54,34.87
					c-47.81,26.22-95.37,52.88-143.02,79.39c-44.96,25.02-89.94,50.01-135.39,74.11c-4.89,2.59-9.78,5.17-14.68,7.73
					C1303.1,1335.68,1306.14,1355.2,1314.44,1350.86L1314.44,1350.86z"/>
			</g>
			<g>
				<path d="M1857.57,1315.56c-15.95,56.44-58.03,99.68-100.8,137.58c-31.2,27.64-63.73,53.77-96.43,79.61
					c-38.79,30.66-78.03,60.75-117.51,90.51c-40.68,30.67-81.64,60.97-122.94,90.81c-33.92,24.51-68.01,48.82-102.74,72.17
					c-3.47,2.33-6.94,4.65-10.42,6.96c-4.03,2.67-5.22,7.71-4.25,12.32c0.6,2.88,4.13,9.42,8.19,6.74
					c34.25-22.68,67.81-46.41,101.18-70.37c41.32-29.67,82.28-59.84,122.97-90.36c40.44-30.33,80.63-61.02,120.39-92.24
					c32.36-25.41,64.56-51.09,95.72-77.96c44.28-38.19,88.67-80.38,111.15-135.59c2.72-6.68,5.03-13.5,6.99-20.44
					c1.22-4.32,1.21-10.43-2.67-13.52C1862.88,1308.97,1858.67,1311.65,1857.57,1315.56L1857.57,1315.56z"/>
			</g>
			<g>
				<path d="M3221.8,1021.25c-3.72-17.7-7.44-35.41-11.16-53.11c-1.83-8.69-3.65-17.38-5.48-26.07c-0.88-4.18-1.76-8.37-2.64-12.55
					c-0.72-3.42-1.05-7.09-3.79-9.53c-2.5-2.22-5.6-3.99-8.32-5.93c-2.88-2.05-5.25-4.17-8.7-5.04c-14.1-3.56-28.77-5.25-43.28-5.81
					c-15.38-0.59-30.87,0.25-46.05,2.84c-7.13,1.22-14.17,2.85-21.1,4.95c-2.54,0.77-4.45,1.31-6.04,3.47
					c-1.09,1.48-1.99,3.15-2.85,4.76c-8.24,15.42-10.58,34.45-12.47,51.56c-2.51,22.67-3.18,45.58-2.86,68.37
					c0.27,19.33,1.08,38.81,3.68,57.98c0.52,3.87,1.07,7.79,1.94,11.6c1.21,5.27,4.91,7.57,9.34,10.11
					c8.62,4.95,18.27,8.04,27.87,10.45c23.03,5.78,47.18,7.36,70.86,7.26c11.32-0.05,22.64-0.55,33.9-1.63
					c4.9-0.47,9.79-1.05,14.65-1.79c4.37-0.66,10.68-0.62,13.29-4.47c7.96-11.73,9.96-27.42,9.62-41.26
					c-0.37-15.16-3.48-30-6.54-44.79c-1.31-6.31-2.58-12.61-3.46-19c-0.35-2.52-1.65-8.62-5.41-6.98c-3.51,1.52-3.46,9.46-3.07,12.3
					c2.07,15.06,6.09,29.77,8.32,44.81c1.96,13.25,2.8,27.14-4.7,38.92c0.74-0.46,1.48-0.91,2.22-1.37
					c-20.54,4.31-41.88,5.38-62.82,5.26c-23.51-0.14-47.55-1.91-70.3-8.16c-10.09-2.77-20.2-6.72-28.56-13.15
					c0.88,1.53,1.75,3.06,2.63,4.6c-0.12-0.58-0.36-1.24-0.37-1.83c0.04,2.36,0.02,0.09-0.09-0.6c-0.28-1.73-0.55-3.46-0.79-5.2
					c-0.51-3.74-0.93-7.49-1.3-11.24c-0.95-9.84-1.36-16.92-1.73-26.4c-0.8-20.98-0.7-43,0.77-63.24
					c0.72-10.02,1.75-20.04,3.37-29.96c0.41-2.5,0.51-3.11,0.92-5.16c0.44-2.19,0.92-4.38,1.45-6.55c0.84-3.44,2-7.45,2.76-9.42
					c0.58-1.5,1.17-2.99,1.86-4.45c0.29-0.62,0.6-1.24,0.91-1.85c0.71-1.36-0.1,0.01,0.71-1.22c1.28-1.93,2.2-1.74,4.52-2.42
					c3.57-1.04,7.19-1.94,10.83-2.73c14.41-3.13,29.19-4.5,43.93-4.56c16.4-0.07,32.88,1.46,48.91,4.95
					c4.56,0.99,6.7,2.4,10.46,5.07c2.95,2.1,5.91,4.21,8.86,6.31c-0.88-1.53-1.75-3.06-2.63-4.6c6.76,32.19,13.52,64.38,20.29,96.57
					c0.63,2.98,3.16,6.7,6.02,3.59C3223.19,1031.7,3222.61,1025.1,3221.8,1021.25z"/>
			</g>
			<g>
				<path d="M3138.56,1129.3c-0.26,62.52-0.52,125.03-0.79,187.55c-0.13,30.93-0.26,61.85-0.39,92.78
					c-0.12,28.73,0.99,58.56-6.97,86.48c-7.18,25.2-22.39,48.93-46.79,60.22c-7.58,3.51-4.69,23.05,3.94,19.06
					c23.26-10.76,39.46-31.66,49.22-54.87c11.75-27.93,13.21-59,13.52-88.89c0.65-64.3,0.56-128.61,0.83-192.91
					c0.15-36.58,0.31-73.16,0.46-109.74c0.02-3.81-2.15-9.79-6.76-9.77C3140.07,1119.24,3138.58,1125.71,3138.56,1129.3
					L3138.56,1129.3z"/>
			</g>
			<g>
				<path d="M3140.11,1489.51c-0.38,26.48,17.68,48.36,32.46,68.64c15.91,21.82,32.55,43.1,49.84,63.84
					c7.72,9.26,14.28-7.78,8.87-14.26c-16.07-19.28-31.59-39.02-46.46-59.23c-7.14-9.7-14.38-19.41-20.92-29.53
					c-5.84-9.05-10.92-18.77-10.76-29.78c0.05-3.81-2.18-9.79-6.76-9.77C3141.59,1479.45,3140.16,1485.92,3140.11,1489.51
					L3140.11,1489.51z"/>
			</g>
			<g>
				<path d="M3295.05,916.9c-6.49,85.31-9.34,170.88-8.3,256.44c0.13,10.62,0.32,21.25,0.56,31.87c0.23,9.73-0.05,19.77,2.9,29.16
					c5.67,18.03,24.5,25.79,39.77,34.23c34.4,19.01,69.74,36.29,105.86,51.78c40.92,17.55,82.82,32.75,125.45,45.61
					c9.24,2.79,10.97-16.82,3-19.23c-72.91-21.99-143.68-50.92-211.05-86.45c-8.15-4.3-16.24-8.69-24.29-13.18
					c-7.33-4.09-15.31-7.86-21.66-13.43c-6.15-5.38-6.49-12.14-6.71-19.85c-0.3-10.29-0.49-20.58-0.65-30.87
					c-0.64-40.84-0.4-81.68,0.7-122.51c1.25-46.25,3.62-92.47,7.13-138.6c0.31-4.1-0.22-10.41-4.85-12.1
					C3298.63,908.21,3295.33,913.22,3295.05,916.9L3295.05,916.9z"/>
			</g>
			<g>
				<path d="M3304.48,927.68c97.11,16.78,195.06,27.74,292.54,41.99c28.14,4.12,56.23,8.54,84.26,13.38
					c4.58,0.79,6.35-7.01,6.27-10.09c-0.11-4.48-2.08-8.96-6.76-9.77c-97.11-16.78-195.06-27.74-292.54-41.99
					c-28.14-4.12-56.23-8.54-84.26-13.38c-4.58-0.79-6.35,7.01-6.27,10.09C3297.83,922.39,3299.8,926.87,3304.48,927.68
					L3304.48,927.68z"/>
			</g>
			<g>
				<path d="M1948.45,1996.27c20.83-98.04,68.6-188.4,128.58-268.01c30.79-40.87,64.76-80.19,102.49-114.82
					c37.75-34.65,80.57-62.3,128.79-79.98c91.6-33.6,193.99-29.96,282.55,11.12c42.44,19.69,81.07,47.37,113.38,81.21
					c34.07,35.68,59.41,78.49,78.79,123.65c20.23,47.14,34.46,96.52,48.19,145.86c4.81,17.29,10.05,34.65,13.13,52.37
					c1.56,8.98,2.77,17.93,4.86,26.82c2.43,10.39,5.25,20.69,8.09,30.97c1.01,3.64,3.63,8.49,8.19,6.74
					c4.17-1.6,5.28-8.63,4.25-12.32c-4.33-15.65-8.9-31.42-11.38-47.5c-1.64-10.68-3.66-21.14-6.31-31.62
					c-12.88-50.88-27.44-101.93-45.81-151.11c-18.1-48.46-41.35-95.68-73.89-136.16c-29.93-37.23-66.68-68.39-108-92.28
					c-86.1-49.79-188.8-62.84-284.9-37.76c-49.72,12.97-96.21,36.08-136.81,67.54c-42.11,32.63-78.47,72.75-111.99,113.96
					c-64.81,79.67-118.35,170.21-145.91,269.71c-3.36,12.12-6.34,24.35-8.96,36.65c-0.84,3.96,0.58,10.54,4.85,12.1
					C1945.21,2005.09,1947.7,1999.81,1948.45,1996.27L1948.45,1996.27z"/>
			</g>
			<g>
				<path d="M2752.7,891.55c0,117.08,0,234.15,0,351.23c0,33.26,0,66.52,0,99.78c0,3.81,2.14,9.79,6.76,9.77
					c4.76-0.03,6.27-6.5,6.27-10.09c0-117.08,0-234.15,0-351.23c0-33.26,0-66.52,0-99.78c0-3.81-2.14-9.79-6.76-9.77
					C2754.21,881.49,2752.7,887.96,2752.7,891.55L2752.7,891.55z"/>
			</g>
			<g>
				<path d="M2534.79,894.08c0,75.84,0,151.68,0,227.52c0,75.84,0,151.68,0,227.52c0,42.58,0,85.15,0,127.73
					c0,3.81,2.14,9.79,6.76,9.77c4.76-0.03,6.27-6.5,6.27-10.09c0-75.84,0-151.68,0-227.52c0-75.84,0-151.68,0-227.52
					c0-42.58,0-85.15,0-127.73c0-3.81-2.14-9.79-6.76-9.77C2536.31,884.02,2534.79,890.49,2534.79,894.08L2534.79,894.08z"/>
			</g>
			<g>
				<path d="M2319.42,840.87c0,77.19,0,154.38,0,231.57c0,76.86,0,153.72,0,230.57c0,43.59,0,87.17,0,130.76
					c0,3.81,2.14,9.79,6.76,9.77c4.76-0.03,6.27-6.5,6.27-10.09c0-77.19,0-154.38,0-231.57c0-76.86,0-153.72,0-230.57
					c0-43.59,0-87.17,0-130.76c0-3.81-2.14-9.79-6.76-9.77C2320.94,830.81,2319.42,837.28,2319.42,840.87L2319.42,840.87z"/>
			</g>
			<g>
				<path d="M2172.46,949.82c0,83.61,0,167.22,0,250.84c0,23.65,0,47.3,0,70.95c0,3.81,2.14,9.79,6.76,9.77
					c4.76-0.03,6.27-6.5,6.27-10.09c0-83.61,0-167.22,0-250.84c0-23.65,0-47.3,0-70.95c0-3.81-2.14-9.79-6.76-9.77
					C2173.98,939.76,2172.46,946.23,2172.46,949.82L2172.46,949.82z"/>
			</g>
			<g>
				<path d="M2015.37,848.47c0,115.99,0,231.97,0,347.96c0,32.66,0,65.33,0,97.99c0,3.81,2.14,9.79,6.76,9.77
					c4.76-0.03,6.27-6.5,6.27-10.09c0-115.99,0-231.97,0-347.96c0-32.66,0-65.33,0-97.99c0-3.81-2.14-9.79-6.76-9.77
					C2016.88,838.41,2015.37,844.88,2015.37,848.47L2015.37,848.47z"/>
			</g>
			<g>
				<path d="M2952.86,1127.19c0,80.44,0,160.88,0,241.31c0,22.6,0,45.2,0,67.81c0,3.81,2.14,9.79,6.76,9.77
					c4.76-0.03,6.27-6.5,6.27-10.09c0-80.44,0-160.88,0-241.31c0-22.6,0-45.2,0-67.81c0-3.81-2.14-9.79-6.76-9.77
					C2954.38,1117.13,2952.86,1123.6,2952.86,1127.19L2952.86,1127.19z"/>
			</g>
			<g>
				<path d="M1923.31,855.7c145.38,0,290.77,0,436.15,0c144.64,0,289.29,0,433.93,0c81.59,0,163.19,0,244.78,0
					c8.76,0,8.39-19.85-0.49-19.85c-145.38,0-290.77,0-436.15,0c-144.64,0-289.29,0-433.93,0c-81.59,0-163.19,0-244.78,0
					C1914.06,835.85,1914.43,855.7,1923.31,855.7L1923.31,855.7z"/>
			</g>
		</g>
		<ellipse transform="matrix(0.7071 -0.7071 0.7071 0.7071 4.6617 1164.3146)" cx="1407.78" cy="576.53" rx="35.02" ry="35.02"/>
		<ellipse transform="matrix(0.7071 -0.7071 0.7071 0.7071 663.9846 2701.8298)" cx="3593.39" cy="549.41" rx="35.02" ry="35.02"/>
	</g>
	<g id="colour_palette_8_">
		<g>
			<path class="st1" d="M3599.03,222.9c-172.53,0-312.4,139.87-312.4,312.4s139.87,312.4,312.4,312.4s312.4-139.87,312.4-312.4
				S3771.56,222.9,3599.03,222.9z M3599.03,687.53c-84.07,0-152.22-68.15-152.22-152.22c0-84.07,68.15-152.22,152.22-152.22
				c84.07,0,152.22,68.15,152.22,152.22C3751.25,619.38,3683.09,687.53,3599.03,687.53z"/>
			<path class="st2" d="M3701.45,422.7l113.33-113.33c-55.81-53.31-131.33-86.14-214.53-86.46v160.2
				C3639.21,383.43,3674.69,398.35,3701.45,422.7z"/>
			<path class="st3" d="M3750.91,525.64h160.36c-2.56-84.12-38.37-159.86-94.73-214.55l-113.31,113.31
				C3730.57,450.09,3748.41,485.78,3750.91,525.64z"/>
			<path class="st4" d="M3597.8,383.12v-160.2c-83.19,0.32-158.72,33.15-214.53,86.46L3496.6,422.7
				C3523.36,398.35,3558.84,383.43,3597.8,383.12z"/>
			<path class="st5" d="M3600.25,687.5v160.2c87.49-0.34,166.48-36.64,222.99-94.88l-113.3-113.31
				C3682.43,668.77,3643.5,687.16,3600.25,687.5z"/>
			<path class="st6" d="M3751.25,535.31c0,39.45-15.01,75.38-39.62,102.43l113.33,113.33c53.57-56.08,86.47-132.07,86.47-215.75
				c0-2.41-0.04-4.82-0.09-7.22h-160.27C3751.18,530.48,3751.25,532.88,3751.25,535.31z"/>
			<path class="st5" d="M3488.11,639.51l-113.3,113.31c56.51,58.25,135.51,94.55,222.99,94.88V687.5
				C3554.55,687.16,3515.62,668.77,3488.11,639.51z"/>
			<path d="M3446.8,535.31c0-2.42,0.07-4.83,0.18-7.22h-160.27c-0.05,2.4-0.09,4.81-0.09,7.22c0,83.68,32.9,159.67,86.47,215.75
				l113.33-113.33C3461.81,610.69,3446.8,574.75,3446.8,535.31z"/>
			<path d="M3494.83,424.39l-113.3-113.31c-56.37,54.69-92.18,130.43-94.73,214.55h160.35
				C3449.64,485.78,3467.48,450.1,3494.83,424.39z"/>
		</g>
		<g>
			<path class="st1" d="M3497.05,415.76c-33.09-33.09-66.18-66.18-99.28-99.28c-4.68-4.68-9.35-9.35-14.03-14.03
				c-5.88-5.88-8.5,13.21-4.44,17.27c33.09,33.09,66.18,66.18,99.28,99.28c4.68,4.68,9.35,9.35,14.03,14.03
				C3498.49,438.91,3501.11,419.82,3497.05,415.76L3497.05,415.76z"/>
		</g>
		<g>
			<path class="st1" d="M3375.32,759.69c33.1-33.1,66.2-66.2,99.29-99.29c4.68-4.68,9.35-9.35,14.03-14.03
				c3.99-3.99,1.48-23.19-4.44-17.27c-33.1,33.1-66.2,66.2-99.29,99.29c-4.68,4.68-9.35,9.35-14.03,14.03
				C3366.88,746.42,3369.39,765.62,3375.32,759.69L3375.32,759.69z"/>
		</g>
		<g>
			<path class="st1" d="M3702.37,433.03c33.09-33.09,66.18-66.18,99.28-99.28c4.68-4.68,9.35-9.35,14.03-14.03
				c3.99-3.99,1.48-23.19-4.44-17.27c-33.09,33.09-66.18,66.18-99.28,99.28c-4.68,4.68-9.35,9.35-14.03,14.03
				C3693.93,419.75,3696.44,438.95,3702.37,433.03L3702.37,433.03z"/>
		</g>
		<g>
			<path class="st1" d="M3824.1,742.42c-33.1-33.1-66.2-66.2-99.29-99.29c-4.68-4.68-9.35-9.35-14.03-14.03
				c-5.88-5.88-8.5,13.21-4.44,17.27c33.1,33.1,66.2,66.2,99.29,99.29c4.68,4.68,9.35,9.35,14.03,14.03
				C3825.54,765.57,3828.15,746.48,3824.1,742.42L3824.1,742.42z"/>
		</g>
		<g>
			<path class="st1" d="M3750.01,548.65c46.79,0,93.57,0,140.36,0c6.61,0,13.22,0,19.84,0c8.22,0,8.3-26.66,0-26.66
				c-46.79,0-93.57,0-140.36,0c-6.61,0-13.22,0-19.84,0C3741.78,521.99,3741.7,548.65,3750.01,548.65L3750.01,548.65z"/>
		</g>
		<g>
			<path class="st1" d="M3285.4,548.65c46.79,0,93.57,0,140.36,0c6.61,0,13.22,0,19.84,0c8.22,0,8.3-26.66,0-26.66
				c-46.79,0-93.57,0-140.36,0c-6.61,0-13.22,0-19.84,0C3277.18,521.99,3277.09,548.65,3285.4,548.65L3285.4,548.65z"/>
		</g>
		<g>
			<path class="st1" d="M3603.67,383.12c0-46.79,0-93.57,0-140.36c0-6.61,0-13.22,0-19.84c0-3.57-0.71-13.15-5.87-13.33
				c-5.07-0.18-5.87,10.39-5.87,13.33c0,46.79,0,93.57,0,140.36c0,6.61,0,13.22,0,19.84c0,3.57,0.71,13.15,5.87,13.33
				C3602.87,396.63,3603.67,386.06,3603.67,383.12L3603.67,383.12z"/>
		</g>
		<g>
			<path class="st1" d="M3603.67,847.72c0-46.79,0-93.57,0-140.36c0-6.61,0-13.22,0-19.84c0-3.57-0.71-13.15-5.87-13.33
				c-5.07-0.18-5.87,10.39-5.87,13.33c0,46.79,0,93.57,0,140.36c0,6.61,0,13.22,0,19.84c0,3.57,0.71,13.15,5.87,13.33
				C3602.87,861.24,3603.67,850.67,3603.67,847.72L3603.67,847.72z"/>
		</g>
	</g>
	<g id="mail_cloud_10_">
		<path d="M3313.02,2091.34c2.79-9.38-8.48-16.51-15.78-9.99c-42.08,37.58-173.73,94.04-179.43,92.63
			c-7.78-1.93-284.35-7.8-336.74,0c-52.39,7.8-245.01-5.86-322.83,0c-77.83,5.86-91.44,30.57-142.03,169.97
			c-50.59,139.4-110.91,275.97-29.19,283.56c81.72,7.58,681.6,7.81,726.38-1.92c28.09-6.1,114.09-233.13,167.32-403.79
			C3180.72,2221.79,3303.25,2124.23,3313.02,2091.34z"/>
		<g>
			<path class="st1" d="M2396.17,2395.55c13.56-25.27,32-47.3,54.29-65.34c17.95-14.52,39.7-30.62,64.06-23.91
				c9.63,2.65,19.22,8.42,24.83,15.75c5.62,7.35,7.48,12.74,8.95,21.53c1.19,7.08,2.35,14.17,3.56,21.25
				c1.1,6.41,3.32,13.28,9.16,16.85c5.92,3.61,14.43,2.71,21.08,2.37c60.15-3.02,108.62-42.97,163.22-63.19
				c10.65-3.94,23.88-7.2,34.86-2.76c11.81,4.78,11.46,19.13,15.27,29.58c8.47,23.21,29.4,40.11,53.91,43.06
				c29.04,3.5,53.87-17.46,74.93-34.53c21.92-17.76,46.37-37.19,76.44-34.08c6.06,0.63,12.39,2.67,17.53,5.98
				c12.12,7.81,17.36-17.17,8.21-23.07c-26.28-16.94-58.58-9.01-83.21,7.18c-13.3,8.74-25.29,19.17-37.8,28.95
				c-11.34,8.87-24.17,18.51-38.35,22.13c-21.02,5.37-44.04-4.9-54.28-23.18c-2.13-3.8-3.35-8.32-4.55-13.35
				c-1.93-8.05-4.42-16.55-9.63-23.16c-8.82-11.2-22.27-15.1-36.11-13.66c-14.16,1.48-27.44,7.15-40.28,12.97
				c-13.63,6.17-26.91,13.07-40.22,19.88c-26.13,13.36-53.18,27.36-82.33,32.64c-7.09,1.28-14.27,2.07-21.47,2.26
				c-3.07,0.08-6.58-0.52-9.61-0.1c-2.02,0.28-1.34-1.5-0.65,0.72c-0.76-2.45,0.85,1.32,0.86,1.31c0.18-0.19-0.27-1.47-0.34-1.93
				c-1.16-7.09-2.38-14.18-3.56-21.27c-3.81-22.75-16.57-42.83-37.95-52.68c-10.15-4.68-22.08-6.54-33.15-4.9
				c-13.72,2.04-24.92,8.89-36.22,16.55c-24.83,16.83-46.32,38.23-63.06,63.16c-4.03,6-7.72,12.2-11.14,18.57
				c-3.02,5.62-3.36,13.32,0.46,18.72C2387.08,2400.38,2393.31,2400.87,2396.17,2395.55L2396.17,2395.55z"/>
		</g>
		<g>
			<path class="st1" d="M2396.17,2536.63c13.56-25.27,32-47.3,54.29-65.34c17.95-14.52,39.7-30.62,64.06-23.91
				c9.63,2.65,19.22,8.42,24.83,15.75c5.62,7.35,7.48,12.74,8.95,21.53c1.19,7.08,2.35,14.17,3.56,21.25
				c1.1,6.41,3.32,13.28,9.16,16.85c5.92,3.61,14.43,2.71,21.08,2.37c60.15-3.02,108.62-42.97,163.22-63.19
				c10.65-3.94,23.88-7.2,34.86-2.76c11.81,4.78,11.46,19.13,15.27,29.58c8.47,23.21,29.4,40.11,53.91,43.06
				c29.04,3.5,53.87-17.46,74.93-34.53c21.92-17.76,46.37-37.19,76.44-34.08c6.06,0.63,12.39,2.67,17.53,5.98
				c12.12,7.81,17.36-17.17,8.21-23.07c-26.28-16.94-58.58-9.01-83.21,7.18c-13.3,8.74-25.29,19.17-37.8,28.95
				c-11.34,8.87-24.17,18.51-38.35,22.13c-21.02,5.37-44.04-4.9-54.28-23.18c-2.13-3.8-3.35-8.32-4.55-13.35
				c-1.93-8.05-4.42-16.55-9.63-23.16c-8.82-11.2-22.27-15.1-36.11-13.66c-14.16,1.48-27.44,7.15-40.28,12.97
				c-13.63,6.17-26.91,13.07-40.22,19.88c-26.13,13.36-53.18,27.36-82.33,32.64c-7.09,1.28-14.27,2.07-21.47,2.26
				c-3.07,0.08-6.58-0.52-9.61-0.1c-2.02,0.28-1.34-1.5-0.65,0.72c-0.76-2.45,0.85,1.32,0.86,1.31c0.18-0.19-0.27-1.47-0.34-1.93
				c-1.16-7.09-2.38-14.18-3.56-21.27c-3.81-22.75-16.57-42.83-37.95-52.68c-10.15-4.68-22.08-6.54-33.15-4.9
				c-13.72,2.04-24.92,8.89-36.22,16.55c-24.83,16.83-46.32,38.23-63.06,63.16c-4.03,6-7.72,12.2-11.14,18.57
				c-3.02,5.62-3.36,13.32,0.46,18.72C2387.08,2541.46,2393.31,2541.95,2396.17,2536.63L2396.17,2536.63z"/>
		</g>
	</g>
	<g id="cloud_done">
		<path class="st7" d="M1178.16,1493.53c-41.08-31.44-72.45-73.81-88.78-122.88c44.87-47.06,72.47-110.74,72.47-180.9
			c0-144.85-117.43-262.28-262.28-262.28c-144.85,0-262.28,117.43-262.28,262.28s117.43,262.28,262.28,262.28
			c25.86,0,50.82-3.8,74.42-10.78c50.66,55.56,124.09,86.37,199.78,81.11C1186.03,1521.53,1185.92,1499.47,1178.16,1493.53z"/>
		<g>
			<path class="st1" d="M714.76,1126.4c28.16,24.26,54.87,50.18,79.91,77.66c1.56,1.72,3.12,3.44,4.67,5.17
				c-2.79-3.1,0.63,0.72,1.59,1.8c3.27,3.7,6.5,7.43,9.71,11.18c6.03,7.07,11.96,14.22,17.78,21.47
				c11.63,14.49,22.83,29.33,33.56,44.5c12.08,17.07,23.55,34.55,34.44,52.4c3.14,5.14,8.89,8.28,14.78,6.92
				c6.24-1.44,10.47-7.02,12.39-12.95c18.79-58.24,31.38-118.31,50.98-176.3c4.56-13.5,9.49-26.89,14.99-40.04
				c2.22-5.31,4.54-10.58,6.95-15.81c0.65-1.42,1.26-2.9,2-4.28c-3.08,5.66-0.42,0.92,0.15-0.25c1.62-3.3,3.28-6.57,4.99-9.83
				c5.84-11.14,12.17-22.02,19.07-32.53c3.15-4.8,6.41-9.52,9.8-14.15c1.84-2.52,3.72-5.01,5.64-7.47c0.95-1.23,1.89-2.48,2.9-3.66
				c-3.73,4.41,0.83-0.95,1.53-1.77c9-10.63,18.77-20.62,29.32-29.71c5.07-4.37,10.32-8.53,15.75-12.45
				c1.25-0.91,2.53-1.79,3.79-2.68c-3.9,2.75,1.65-1.07,2.36-1.53c3.06-1.96,6.17-3.84,9.31-5.66
				c10.83-6.27,14.15-21.24,11.34-32.86c-1.98-8.18-10.52-24.51-21.83-17.96c-46.92,27.16-82.98,68.93-109.23,115.92
				c-28.86,51.66-46.15,108.23-61.56,165.06c-9.25,34.1-18.07,68.34-28.92,101.98c9.05-2.01,18.11-4.02,27.16-6.03
				c-39.83-65.25-87.81-125.45-142.16-179.19c-15.07-14.9-30.67-29.27-46.73-43.1c-9.33-8.04-20.34,0.27-23.55,10.08
				C703.86,1101.88,704.91,1117.91,714.76,1126.4L714.76,1126.4z"/>
		</g>
	</g>
	<g id="woman_2_">
		<g id="arm_r_7_">
			<path class="st1" d="M2359.03,1715.15c-22.77-16.02-43.79,3.83-58.16,21.19c-0.17-0.14-0.33-0.28-0.55-0.32
				c-16.68-3.09-33.85,14.72-43.55,25.85c-12.4,14.23-23.14,30.19-32.87,46.35c-15.56-0.36-33-7.3-48.41-11.7
				c16.06-23.05,36.44-47.39,44.85-73.87c3.03-9.54,6.1-44.64-13.65-34.57c-9.54,4.86-17.99,13.82-25.83,20.92
				c-10.73,9.74-21.14,19.84-31.39,30.08c-16.62,16.59-36.16,33.68-49.2,53.39c-19.44,32.79-20.69,74.15-31.48,110.06
				c-9.34,31.08-24.56,63.05-45.11,88.45c-0.96,1.18-1.02,3.94-0.3,5.23c25.49,45.51,80.22,65.02,130.57,57.85
				c0.76-0.11,1.12-0.99,1.27-1.65c6.44-29.11,12.55-58.3,18.41-87.53c1.98-9.86,2.2-15.16,8.13-22.46
				c6.65-8.18,13.29-16.35,19.94-24.53c11.14-13.7,21.76-31.5,35.07-43.14c3.14-2.75,8.44-4.64,12.79-6.71
				c12.33-5.86,24.64-11.77,36.76-18.04c17.9-9.27,29-21.73,41.91-37.25c14.83-17.82,31.4-36.23,43.22-56.28
				C2377.85,1745.6,2381.02,1708.7,2359.03,1715.15z"/>
			<g>
				<path d="M2103.23,1803.98c7.36-11.46,18.18-21.39,27.51-31.19c14.81-15.55,29.98-30.79,45.7-45.42
					c6.64-6.18,13.37-12.29,20.39-18.03c4.4-3.6,8.93-7.33,14.07-9.82c1.37-0.66,0.07-0.37,1.02-0.3c1.03,0.08,1.24,0.11,2.23,0.58
					c1.47,0.71,1.64,0.87,2.52,2.23c0.5,0.77,0.08-0.28,0.64,1.32c-0.67-1.91,0.54,2.22,0.03-0.03c0.12,0.52,0.18,1.16,0.21,1.67
					c-0.03-0.42-0.05-1.98-0.03,0.05c0.02,1.51,0.19-0.38-0.1,1.83c-0.35,2.78-0.91,5.19-1.82,8.04c-2.47,7.71-6.44,15-10.82,21.77
					c-11.61,17.97-23.79,35.6-35.71,53.38c-2.74,4.08-4.2,16.98,2.22,18.63c16.53,4.26,33.06,8.78,49.75,12.35
					c5.29,1.13,10.55-0.62,15.74-1.83c12.93-3,25.84-6.93,37.86-12.63c13.02-6.18,22.26-15.16,31.85-25.7
					c10.82-11.89,21.32-24.1,32.58-35.58c4.49-4.58,9.11-9.12,14.24-12.99c3.33-2.51,7.81-5.95,12.23-4.39
					c1.96,0.69,3.39,2.35,4.31,4.14c1.1,2.15,1.21,3.83,1.15,5.29c-0.14,3.38-2.5,7.65-4.89,11.1
					c-13.68,19.7-28.82,38.56-44.28,56.87c-6.31,7.47-12.89,15.7-20.13,21.87c-6.61,5.62-15.4,9.19-23.08,13.06
					c-10.76,5.42-21.61,10.64-32.49,15.81c-3.96,1.88-8.95,3.24-11.88,6.62c-11.36,13.09-21.92,26.97-32.85,40.41
					c-6.47,7.96-12.94,15.93-19.42,23.89c-2.77,3.4-6,6.72-8.43,10.38c-2.74,4.12-2.93,10.46-3.88,15.24
					c-1.13,5.68-2.28,11.37-3.43,17.04c-2.01,9.88-4.05,19.74-6.12,29.61c-2.83,13.5-5.71,26.98-8.66,40.46
					c-0.44,1.99-0.87,3.98-1.31,5.97c1.27-1.65,2.53-3.3,3.8-4.95c-31.98,4.66-68.7-2.01-95.54-20.09
					c-12.83-8.64-23.48-20.25-30.88-33.85c-0.3,5.23-0.59,10.47-0.89,15.7c12.65-15.52,22.59-33.84,31.13-51.84
					c7.77-16.38,14.15-33.39,18.75-50.93c4.36-16.63,7.57-33.54,11.41-50.29C2091.43,1834.14,2094.87,1817.51,2103.23,1803.98
					c2.44-3.95,2.76-9.24,1.58-13.68c-0.59-2.22-3.55-7.59-6.02-3.59c-7.72,12.51-12.03,26.77-15.64,40.92
					c-4.22,16.55-7.38,33.34-11.26,49.97c-7.49,32.12-20,62.67-37.73,90.54c-3.72,5.84-7.58,11.7-11.96,17.08
					c-2.91,3.57-3.01,11.8-0.89,15.7c13.44,24.69,34.7,42.83,61.25,52.12c18.94,6.63,39.18,9.31,59.2,8.62
					c4.06-0.14,8.17-0.35,12.19-0.94c2.28-0.33,3.36-2.97,3.8-4.95c5.88-26.53,11.45-53.13,16.85-79.76
					c1.09-5.4,2.18-10.81,3.25-16.21c0.26-1.29,0.51-2.59,0.77-3.88c0.06-0.32,0.13-0.65,0.19-0.97c0.78-2.49,0.51-2.6-0.8-0.32
					c0,0,0.24-0.3,0.25-0.31c1.4-1.43,2.58-3.17,3.83-4.72c5.76-7.08,11.51-14.17,17.27-21.25c12.48-15.35,24.96-30.71,37.44-46.06
					c0.6-0.74,1.25-1.47,1.82-2.24c0.42-0.57,1.31-1.07,0.23-0.42c-1.47,0.89,0.76-0.12,1.07-0.25c1.49-0.59,2.94-1.38,4.39-2.07
					c10.6-5,21.17-10.07,31.66-15.28c8.81-4.37,18.59-8.41,26.52-14.3c7.53-5.59,13.78-13.5,19.86-20.55
					c16.44-19.07,32.24-38.94,46.8-59.48c8.2-11.57,12.3-24.42,10.05-38.77c-1.83-11.67-9.54-26.62-23.36-19.15
					c-11.55,6.25-21.01,17.79-29.79,27.26c-11,11.87-21.49,24.22-32.7,35.89c-9.68,10.08-23.12,15.93-36.13,20.44
					c-9.99,3.46-20.4,6.27-30.85,7.95c-5.63,0.9-12.07-1.83-17.47-3.15c-10.54-2.58-21.06-5.25-31.58-7.94
					c-2.02-0.52-4.04-1.03-6.05-1.55c0.74,6.21,1.48,12.42,2.22,18.63c11.26-16.79,22.55-33.57,33.74-50.4
					c9.02-13.57,17.09-28.77,18.71-45.26c0.95-9.68,0.62-24.73-8.77-30.73c-4.94-3.16-9.16-0.78-13.48,2.12
					c-6.63,4.45-12.7,9.8-18.67,15.08c-17.19,15.21-33.55,31.42-49.56,47.86c-8.05,8.27-16.02,16.62-23.75,25.19
					c-4.46,4.94-9.33,9.91-12.94,15.53c-2.49,3.88-2.74,9.3-1.58,13.68C2097.82,1802.69,2100.7,1807.92,2103.23,1803.98z"/>
			</g>
			<g>
				<path d="M2226.52,1820.27c8.8-14.69,18.55-29.03,29.36-42.31c7.87-9.67,16.6-18.79,27.79-24.62c4.73-2.47,11.11-5.16,16.64-3.99
					c5.2,1.1,6.66-18.58,0-20c-5.56-1.18-12.39,1.53-17.25,3.83c-11.94,5.67-21.57,15.43-29.94,25.45
					c-11.54,13.82-21.8,28.92-31.05,44.36c-2.39,4-2.77,9.2-1.58,13.68C2221.08,1818.86,2224.1,1824.33,2226.52,1820.27
					L2226.52,1820.27z"/>
			</g>
			<g>
				<path d="M2360.05,1708.88c-8.61-6.39-20.9-7.17-30.75-3.83c-10.23,3.47-17.6,11.27-24.56,19.19
					c-15.36,17.5-28.61,36.96-41.48,56.32c-3.22,4.85-6.43,9.72-9.54,14.65c-2.47,3.91-2.75,9.28-1.58,13.68
					c0.6,2.26,3.51,7.55,6.02,3.59c7.86-12.44,16.11-24.64,24.6-36.65c6.77-9.57,13.72-19.04,21.16-28.11
					c5.49-6.7,11.29-14.08,18.58-18.95c10.21-6.82,24.94-8.24,35.21-0.61c3.37,2.5,5.19-5.17,5.41-6.98
					C2363.58,1717.44,2363.45,1711.41,2360.05,1708.88L2360.05,1708.88z"/>
			</g>
		</g>
		<g id="blouse_3_">
			<path d="M1188.42,2294.15l-23.81,122.08c0,0-168.9,152.68-227.18,351.08c-58.28,198.4,423.94,106.93,535.64,55.8
				c111.7-51.13,221.83-99.71,221.83-99.71s-46.81-335.34-56.28-367.46C1629.15,2323.82,1188.42,2294.15,1188.42,2294.15z"/>
			<path class="st8" d="M1462.55,1660.79c0,0,223.6,14.13,284.63,73.38s214.74,331.2,214.74,331.2s45.89-142.27,79.39-160.69
				c33.51-18.43,176.8,19.22,183,57.02s-58.86,195.42-75.32,290.6s-24.9,256.7-143.15,235.06
				c-118.24-21.64-155.54-156.7-188.29-193.2c-32.74-36.5-84.2-68.3-84.2-68.3s21.83,113.24-17.54,136.85
				c-39.37,23.62-85.58,20.11-85.58,20.11s-139.7-48.66-253.67-33.56s-172.14,13.41-205.43-15.32c0,0-98.66,259.14-202.45,221.53
				c-103.79-37.6-123.36-80.19-95.46-178.73c27.9-98.54,157.9-214.66,249.99-386.33C1215.3,1818.75,1244.64,1531.57,1462.55,1660.79
				z"/>
			<g>
				<path class="st1" d="M1269.93,1866.86c-7.2,35.92-14.4,71.91-24.78,107.08c-10.46,35.45-24.36,69.31-43.2,101.15
					c-19.21,32.46-40.15,63.61-54.17,98.84c-13.75,34.53-22.12,71.57-24.02,108.7c-1.84,35.92,8.98,82.02,48.25,93.76
					c9.25,2.77,10.98-16.84,3-19.23c-13.37-4-23.93-13.63-30.36-25.92c-7.81-14.95-8.75-32.39-7.86-48.92
					c1.87-34.6,10.45-69.13,23.5-101.15c13.6-33.38,33.98-62.94,52.17-93.86c18.24-31.02,32.17-64.03,42.64-98.42
					c11.68-38.38,19.65-77.75,27.53-117.05c0.8-3.97-0.55-10.53-4.85-12.1C1273.2,1858.05,1270.65,1863.31,1269.93,1866.86
					L1269.93,1866.86z"/>
			</g>
			<g>
				<path class="st1" d="M1767.6,2263.12c-32.72-29.74-61.21-62.77-87.84-97.99c-13.17-17.42-27.06-34.32-44.61-47.53
					c-17.66-13.29-37.42-23.65-56.61-34.5c-23.59-13.33-47.17-26.67-70.76-40c-4.18-2.36-7.36,4.06-7.85,7.13
					c-0.73,4.61,0.64,9.72,4.85,12.1c20.71,11.71,41.42,23.42,62.13,35.13c19.43,10.99,39.5,21.33,57.73,34.28
					c17.43,12.38,31.2,27.91,44.09,44.82c13.2,17.33,26.33,34.61,40.73,50.97c16.35,18.58,33.67,36.25,51.98,52.9
					c3.5,3.18,7.55-0.26,8.83-3.78C1771.85,2272.29,1771.16,2266.35,1767.6,2263.12L1767.6,2263.12z"/>
			</g>
			<g>
				<path class="st1" d="M1953.55,2024.84c14.88,86.14,59.39,162.91,81.3,246.97c6.01,23.05,10.19,46.54,11.27,70.36
					c0.17,3.81,2.02,9.79,6.76,9.77c4.63-0.03,6.44-6.5,6.27-10.09c-4.05-88.86-46.53-168.41-74.5-251.11
					c-7.9-23.36-14.47-47.16-18.67-71.48c-0.65-3.76-3.87-8.39-8.19-6.74C1953.36,2014.22,1952.89,2021.01,1953.55,2024.84
					L1953.55,2024.84z"/>
			</g>
			<g>
				<path class="st1" d="M1702.42,1709.73c-32.73,26.11-63.97,54.07-93.44,83.81c-27.01,27.26-53.26,55.98-73.6,88.67
					c-11.35,18.24-20.77,37.77-27.19,58.29c-1.34,4.26-1.15,10.48,2.67,13.52c3.59,2.86,7.62,0.07,8.83-3.78
					c10.98-35.05,31.08-66.28,54.47-94.32c25.15-30.15,53.4-57.91,82.44-84.28c17.12-15.54,34.75-30.51,52.82-44.93
					C1715.78,1721.64,1710.86,1703,1702.42,1709.73L1702.42,1709.73z"/>
			</g>
		</g>
		<g id="hair_8_">
			<path class="st9" d="M1823.02,1351.8c0,0-3.9-121.45-161.39-141.72c-157.49-20.27-199.33,102.93-255.46,190.99
				c-56.13,88.06-208.33,211.22-275.9,314.17c-67.57,102.95-3.38,244.43,83.33,287.43c0,0,86.35-4.69,109.6-41.71
				c0,0-35.28-71.83-20.64-156.29c14.64-84.46,129.5-149.33,129.5-149.33s-84.86,76.4-94.79,155.66
				c-9.94,79.26,21.59,150.69,21.59,150.69s116.84-27.58,123.26-57.02c6.42-29.43,8.18-177.19,34.24-243.89
				C1542.44,1594.09,1795.05,1436.1,1823.02,1351.8z"/>
			<g>
				<path class="st1" d="M1500.24,1533.31c-26.67,44.24-51.75,89.76-87.52,127.51c-11.23,11.85-23.22,22.96-35.64,33.55
					c-6.18,5.27-1.17,23.95,7,16.98c21.25-18.12,40.88-37.85,58.28-59.71c15.65-19.66,29.16-40.86,42.16-62.32
					c8.49-14.03,16.82-28.15,25.29-42.2c2.45-4.06,2.43-10.13-0.34-14.04C1506.95,1529.54,1502.54,1529.49,1500.24,1533.31
					L1500.24,1533.31z"/>
			</g>
			<g>
				<path class="st1" d="M1764.31,1314.76c-42.84,8.76-82.41,33.98-127.03,33.25c-8.73-0.14-8.41,19.71,0.49,19.85
					c44.92,0.74,84.05-24.46,127.03-33.25c4.62-0.95,6.38-5.72,6.27-10.09C1771,1321.52,1768.89,1313.82,1764.31,1314.76
					L1764.31,1314.76z"/>
			</g>
		</g>
		<g id="arm_l_4_">
			<path class="st1" d="M789.47,2689.16c-12.93,7.73-26.35,17.73-29.56,29.95c-4.9,18.64,16.48,18.29,30.32,15.44
				c-4.13,7.15-7.37,15.74-4.67,22.96c4.79,12.77,23.14,8.07,33.57,3.89c-0.1,35.79,60.27-7.19,71.55-16.18
				c8.27-6.59,16.27-13.54,24.02-20.73c2.78-2.58,8.95-11.16,12.55-12.15c-0.25,0.07,4.77,2.43,6.74,2.8
				c9.81,1.83,19.03-4.3,25.84-10.64c25.92-24.11,29.61-69.68,34.86-102.54c2.96-18.54,5.37-37.16,7.39-55.83
				c0.59-5.49,3.96-16.5,1.14-21.88c-2.92-5.56-14.54-9.34-19.64-11.4c-26.15-10.56-55.06-14.11-82.92-16.67
				c-0.16-0.07-0.33-0.05-0.5,0.11c-0.01,0.01-0.02,0.02-0.03,0.03c-0.16,0.08-0.3,0.2-0.42,0.38
				c-15.86,14.28-34.51,30.17-44.38,49.25c-10.88,21.03-8.82,44.99-15.87,66.75c0.61-1.89-1.94,2.6-3.45,4.89
				c-3.33,5.03-6.66,10.05-9.99,15.08c-6.95,10.49-6.01,10.61-17.93,12.45c-16.9,2.61-34.53,6.78-47.64,18.47
				c-4.97,4.43-11.64,12.07-8.94,19.49C754.96,2692.56,774.11,2691.37,789.47,2689.16z"/>
			<g>
				<path d="M899.38,2489.85c-13.59,12.22-27.08,25.19-38.37,39.59c-13.64,17.41-17.5,40.14-21.27,61.41
					c-1.23,6.93-2.35,13.89-3.22,20.87c0.67-1.99,1.35-3.98,2.02-5.98c-7.21,10.88-14.42,21.77-21.63,32.65
					c0.74-0.46,1.48-0.91,2.22-1.37c-22.68,2.08-52.78,7.2-66.47,27.64c-5.47,8.17-8.26,26.71,4.01,30.13
					c8.62,2.41,18.54,1.28,27.34,0.63c7.52-0.56,15.03-1.34,22.5-2.39c-0.39-6.55-0.78-13.09-1.17-19.64
					c-12.99,7.14-25.93,15.45-36.7,25.67c-7.12,6.76-12.45,14.52-12.29,24.74c0.18,11.54,6.73,18.82,18.17,19.28
					c7.6,0.31,15.39-1.39,22.62-3.68c-1.13-6.09-2.26-12.18-3.39-18.28c-8.32,11.3-16.05,28.29-9.85,42.2
					c6.4,14.35,27.17,8.5,38.13,3.59c-1.8-4.1-3.61-8.2-5.41-12.3c-1.04,7.24-0.26,16.25,3.93,22.41c5.84,8.59,16.5,5.96,24.8,3.03
					c20.54-7.25,38.72-21.95,55.14-35.86c6.89-5.84,13.59-11.89,20.12-18.13c2.17-2.08,4.34-4.16,6.46-6.29
					c0.41-0.41,1.33-1.06,1.58-1.61c0.96-2.12-2.27,1.67-2.64,0.48c0.24,0.78,3.38,1.75,4.05,2c3.06,1.14,6.28,1.68,9.54,1.34
					c11.92-1.23,21.94-10.75,29.07-19.63c9.68-12.06,13.99-28.78,17.81-43.44c5.24-20.1,8.85-40.64,11.99-61.16
					c2.63-17.22,4.82-34.52,6.68-51.84c0.75-6.98,4.14-21.78-0.56-27.61c-4.23-5.25-11.96-8.45-17.9-10.98
					c-19.34-8.24-40.55-12.27-61.27-15.12c-8.26-1.13-16.54-2.02-24.84-2.75c-5.82-0.51-6.48,19.42,0,20
					c23.5,2.08,47.32,5.16,69.94,12.13c9.51,2.93,19.46,6.54,27.6,12.43c0.83,0.6,1.6,1.28,2.41,1.91c0.74,0.58-1.14-1.25-0.23-0.21
					c-0.67-3.76-1.35-7.53-2.02-11.29c-1.36,15.78-3.23,31.52-5.31,47.22c-3.79,28.57-7.96,56.18-15.89,83.87
					c-2.64,9.21-6.1,20.04-11.12,27.29c-6.76,9.75-20.49,22.7-33.39,18.61c-1.72-0.55-4.62-3.1-6.74-2.12
					c-1.76,0.81-3.75,3.79-5.08,5.1c-8.73,8.59-17.99,16.82-27.49,24.61c-13.66,11.21-28.25,22.25-44.49,29.46
					c-5.66,2.51-15.72,7.11-21.65,3.38c-0.86-0.54-1.75-1.62-1.98-1.95c0.55,0.81-1.26-1.74,0.08,0.23c-0.75-1.1-0.14,1.04-0.08-0.2
					c0.12-2.21,0.1,2.37,0,0.32c-0.02-0.47-0.01-0.95,0.02-1.42c-0.24,3.66-0.14,1.92-0.02,1.09c0.38-2.65,0.01-14.73-5.41-12.3
					c-3.42,1.53-7.03,2.7-10.68,3.52c-3.08,0.69-6.24,1.16-9.4,1.12c-3.6-0.05-5.69-1.22-8.88-2.44c-1.4-0.54-0.38-1.03-0.11,1.39
					c0.12,1.11-0.56,2.99,0.12,1.36c0.76-1.82,1.55-4.26,2.63-6.38c1.38-2.72,3.01-5.34,4.82-7.8c2.43-3.3,3.94-20.6-3.39-18.28
					c1.48-0.47-0.53,0.15-1.28,0.35c-1.77,0.48-3.56,0.9-5.35,1.26c-4.47,0.91-9.08,1.55-13.65,1.36c-1.33-0.06-11.19-1.77-10-3.67
					c0.04-0.06,0.32,6.01,0.38,6.55c0.14,1.44,0.02-0.02,0.59-1.04c-0.4,0.72,1.01-1.4,1.19-1.64c0.59-0.79,1.22-1.55,1.87-2.3
					c10.34-11.89,25.43-20.78,39.14-28.32c4.2-2.31,4.81-20.48-1.17-19.64c-6.96,0.98-13.96,1.71-20.97,2.27
					c-5.42,0.43-10.87,0.75-16.31,0.73c-3.79-0.01-8.81,0.16-12.17-1.15c-0.34-0.13-1.32-0.84-1.64-0.85
					c1.62,0.05-0.09,9.24,1.26,8.61c0.62-0.29,1.76-2.55,2.2-3.07c1.28-1.54,2.71-2.91,4.24-4.19c6.47-5.39,14.08-9.32,22.07-11.9
					c7.32-2.36,14.95-3.83,22.54-5.01c3.57-0.56,7.89-0.4,11.34-1.46c2.55-0.78,3.75-3.6,5.15-5.72c2.74-4.13,5.47-8.26,8.21-12.39
					c4.27-6.44,11.32-14.04,12.56-21.9c2.97-18.79,4.94-37.55,11.8-55.55c4.67-12.25,14.69-22.44,23.99-32.07
					c6.74-6.98,13.7-13.77,20.92-20.26c3.25-2.92,3.58-8.21,3.07-12.3C904.6,2495.36,902.51,2487.03,899.38,2489.85z"/>
			</g>
			<g>
				<path d="M923.37,2526.96c-4.56,10.45-7.55,21.78-9.66,32.96c-3.31,17.54-5.74,37.74,3.64,53.87c2.71,4.66,6.33,8.46,9.99,12.36
					c1.6,1.71,3.21,3.43,4.54,5.37c0.65,0.95,0.44,1.18,1.22,2.2c-0.34-0.45-0.01,0.13-0.03-0.16c-0.12-2.38,0.03-1.21-0.18,0.4
					c-0.09,0.73-0.21,1.46-0.34,2.19c0.08-0.43,0.3-1.47-0.11,0.44c-0.69,3.22-1.53,6.41-2.4,9.59c-1.89,6.93-3.96,13.81-5.72,20.78
					c-3.81,15.1-8.12,34.43-0.51,49.08c1.78,3.43,4.47,3.59,6.22,0c1.84-3.79,1.98-10.33,0-14.14c-1.37-2.64-1.18-1.99-1.34-4.4
					c0.11,1.68,0-2.28,0.01-2.6c0.04-1.18,0.07-1.3,0.28-3.02c0.74-6.31,2.3-12.48,3.93-18.6c3.18-11.95,7.68-24,8.7-36.4
					c0.54-6.5-0.12-13.2-3.15-19.06c-2.23-4.31-5.51-7.67-8.81-11.16c-3.35-3.56-6.75-7.3-8.6-11.89
					c-2.44-6.04-1.33-12.96-0.53-19.26c1.51-11.86,4.43-23.78,9.06-34.41c1.8-4.12,1.98-10.04,0-14.14
					C927.93,2523.51,925.01,2523.21,923.37,2526.96L923.37,2526.96z"/>
			</g>
			<g>
				<path d="M823.96,2764.36c0.11-0.22,0.23-0.43,0.34-0.65c0.84-1.6-0.38,0.59,0.45-0.82c1.28-2.17,2.65-4.29,4.1-6.35
					c3.74-5.3,8.02-10.35,13.3-14.18c3.69-2.69,7.88-4.69,11.69-7.2c4.5-2.96,8.87-6.12,13.18-9.35
					c9.79-7.32,19.34-15.01,28.44-23.17c6.51-5.83,13.93-11.98,18.06-19.84c2.04-3.87,1.88-10.25,0-14.14
					c-1.78-3.68-4.38-3.5-6.22,0c0.99-1.88-0.13,0.17-0.42,0.54c-0.52,0.67-1.03,1.35-1.57,2.01c-1.36,1.65-2.84,3.2-4.34,4.73
					c-3.59,3.66-7.42,7.08-11.29,10.45c-9.21,8.02-18.79,15.65-28.66,22.84c-8.2,5.97-18.01,10.55-25.49,17.36
					c-7.29,6.64-13.34,14.84-17.8,23.63c-1.99,3.92-1.9,10.21,0,14.14C819.5,2768,822.16,2767.91,823.96,2764.36L823.96,2764.36z"/>
			</g>
			<g>
				<path d="M881.61,2652.78c-2.85,0.87-5.84,3.98-8.19,5.7c-6.06,4.44-12.06,8.96-18.04,13.5c-14.92,11.31-29.75,22.74-44.34,34.47
					c-5.51,4.43-11.09,8.84-16.24,13.68c-3.2,3.01-3.59,8.14-3.07,12.3c0.18,1.41,2.34,9.87,5.41,6.98
					c10.8-10.16,22.91-19.08,34.59-28.18c13.9-10.83,27.88-21.56,42.06-32.02c2.88-2.13,6.66-6.07,10.16-7.15
					C889.35,2670.41,888.46,2650.68,881.61,2652.78L881.61,2652.78z"/>
			</g>
			<g>
				<path d="M805.49,2693.93c8.81-6.87,17.76-13.6,26.88-20.06c10.82-7.66,22.3-14.47,31.94-23.67c3.18-3.04,3.59-8.11,3.07-12.3
					c-0.17-1.39-2.36-9.89-5.41-6.98c-9.64,9.2-21.12,16.01-31.94,23.67c-9.12,6.46-18.07,13.19-26.88,20.06
					c-3.37,2.63-3.55,8.43-3.07,12.3C800.29,2688.64,802.19,2696.51,805.49,2693.93L805.49,2693.93z"/>
			</g>
		</g>
		<g id="face_7_">
			<path class="st1" d="M1628.69,1715.12c17.5-15.67,35-31.34,52.51-47.02c0.02-0.02,0.03-0.04,0.05-0.06
				c13.12,9.15,29.09,17.24,43.69,14.77c14.08-2.38,25.76-15.56,34.59-25.79c12.59-14.58,23.24-30.85,33.11-47.35
				c3.71-6.21,9.18-20.88,13.88-24.64c7.48-5.99,28.56-5.16,31.52-18.35c2.53-11.25-8.76-28.76-12.52-38.71
				c-5.12-13.54-9.5-23.35-2.98-37.49c5.11-11.08,13.49-21.37,15.82-33.6c3.14-16.49-2.01-35.93-4.96-52.06
				c-2.68-14.63-5.71-29.22-9.12-43.7c-0.2-0.87-1.08-2.39-2.01-1.2c-12.62,16.26-32.02,27.28-49.66,37.24
				c-20.74,11.7-42.29,21.96-64.01,31.68c-15.13,6.77-30.45,14.25-46.11,19.77c-17.71,6.24-27.2-12.31-40.46-20.65
				c-13.2-8.3-34.26-10.15-45.96,1.85c-9.37,9.6-10.39,25.07-9.94,37.7c0.58,16.49,4.34,32.95,9.07,48.7
				c1.26,4.21,3.39,8.58,4.21,12.88c1.65,8.67-4.27,22.93-7.44,31.3c-13.71,36.29-19.09,77.82-51.36,99.45
				c-1.38,0.92-1.74,9.5,0,10.25c43.36,18.86,63.93,26.18,107.29,45.04C1628.17,1715.28,1628.43,1715.28,1628.69,1715.12z"/>
			<g>
				<path d="M1660.47,1442.71c-12.33,5-22.13-8.67-30.31-15.66c-13.04-11.14-30.39-16.03-46.84-9.17
					c-14.2,5.91-18.8,23.09-19.85,36.99c-1.31,17.32,1.49,34.77,5.62,51.56c2.47,10.06,5.45,20.09,9.15,29.78
					c-0.38-3.24-0.75-6.49-1.13-9.73c-5.54,45.83-29.08,88.97-58.22,124.15c-2.32,2.8-4.67,5.59-7.17,8.23
					c-2.88,3.03-3.92,16.34,1.05,18.28c33.34,12.95,66.67,25.9,100.01,38.84c4.79,1.86,9.57,3.72,14.36,5.58
					c0.78,0.48,1.56,0.48,2.34,0c17.5-15.67,35-31.34,52.51-47.02c3.25-2.91,3.58-8.21,3.07-12.3c-0.18-1.48-2.27-9.79-5.41-6.98
					c-17.5,15.67-35,31.34-52.51,47.02c0.78,0,1.56,0,2.34,0c-33.34-12.95-66.67-25.9-100.01-38.84c-4.79-1.86-9.57-3.72-14.36-5.58
					c0.35,6.09,0.7,12.18,1.05,18.28c12.81-13.48,23.69-29.22,33.29-45.08c9.25-15.28,17.35-31.29,23.54-48.06
					c3.44-9.32,6.41-18.82,8.64-28.51c2.23-9.7,6.26-22.74,2.83-32.42c-0.51-1.45-1.04-2.89-1.56-4.34
					c-0.54-1.52,0.52,1.56,0.15,0.46c-0.14-0.41-0.28-0.83-0.42-1.24c-0.24-0.73-0.48-1.46-0.72-2.2c-0.69-2.16-1.36-4.32-2-6.5
					c-3.32-11.25-5.76-21.62-7.1-32.2c-0.85-6.75-1.06-9.21-0.82-16.25c0.06-1.77-0.23,2.37,0.03-0.5c0.05-0.59,0.1-1.18,0.16-1.77
					c0.05-0.51,0.63-4.43,0.32-2.74c0.53-2.83,1.18-5.05,1.86-6.51c4.56-9.83,14.88-13.68,26.31-13.55
					c14.13,0.16,24.22,8.75,34.04,17.88c8.14,7.57,16.66,14.01,28.09,9.38C1668.25,1459.79,1666.86,1440.12,1660.47,1442.71
					L1660.47,1442.71z"/>
			</g>
			<g>
				<path d="M1631.68,1619.83c5.8,18.13,21.91,33.25,36.18,45c8.97,7.39,18.73,14.05,29.36,18.82c7.9,3.54,17.71,7.18,26.53,6.04
					c14.96-1.93,27.29-15.43,36.61-26.14c12.07-13.87,22.35-29.3,31.88-45c5.81-9.56,11.44-19.27,16.54-29.23
					c-0.65,0.86-1.29,1.71-1.94,2.57c6.54-2.13,13.03-4.62,19.23-7.59c9.26-4.44,15.46-9.69,14.95-20.79
					c-0.38-8.36-4.15-16.53-7.15-24.22c-3.57-9.14-7.43-18.21-10.36-27.58c-0.67-2.14-1.27-4.3-1.82-6.47
					c-0.14-0.57-0.54-2.54-0.25-0.91c-0.17-0.96-0.19-1.99-0.39-2.94c0.06,0.26-0.03,2.35,0.08,0.73c-0.05,0.71-0.22,1.5-0.23,2.19
					c-0.02,1.46,0.49-1.69,0.75-2.44c1.15-3.25,2.79-6.37,4.4-9.42c5.98-11.33,13.94-22.82,15.47-35.84
					c2.1-17.89-2.24-37.1-5.47-54.61c-2.73-14.81-5.76-29.58-9.22-44.24c-0.69-2.94-3.13-6.74-6.02-3.59
					c-2.91,3.18-2.47,9.89-1.58,13.68c2.46,10.43,4.68,20.91,6.77,31.42c1.75,8.8,3.24,16.93,4.65,26.21
					c0.66,4.33,1.25,8.68,1.73,13.03c0.2,1.81,0.37,3.63,0.52,5.44c0.06,0.81,0.18,3.18,0.09,1.1c0.04,0.9,0.08,1.8,0.1,2.7
					c0.02,0.83-0.07,4.53,0.02,3.09c0.11-1.91-0.17,0.56-0.09,0.71c0.1,0.19-0.3,1.86,0.03,0.08c0.3-1.61,0.12-0.31-0.02-0.05
					c-2.94,5.68-5.04,11.82-8.15,17.5c-5.72,10.45-12.57,21.31-12.53,33.62c0.02,9.31,3.24,18.48,6.29,27.16
					c3.19,9.06,6.89,17.93,10.33,26.9c0.67,1.75,1.33,3.51,1.97,5.27c0.64,1.77,0.5,1.4,1.21,3.8c0.17,0.58,0.28,1.17,0.44,1.74
					c-0.26-0.94-0.19-1.85-0.13-0.5c-0.09-2.34-0.01-4.19,0.69-6.43c2.01-6.41,0.83-1.81,0.34-1.71c-0.23,0.05-0.94,0.89-1.22,1.11
					c-6.27,5.14-15.04,7.99-22.56,10.73c-1.84,0.67-4.2,1.04-5.7,2.3c-0.95,0.8-1.51,2.28-2.11,3.4c-2.01,3.78-4.06,7.55-6.15,11.28
					c-7.24,12.89-16.47,27.71-25.69,40.52c-9.57,13.3-20.26,27.43-34.26,36.38c-5.3,3.39-10.72,5.58-17.09,5.03
					c-10.5-0.91-20.4-5.43-29.39-10.71c-17.86-10.49-34.81-25.31-46.32-42.65c-0.96-1.45-1.73-2.68-2.39-3.94
					c-0.34-0.66-0.64-1.33-0.96-1.99c-0.22-0.46-0.97-2.68-0.34-0.7c-0.89-2.8-3.02-6.86-6.02-3.59
					C1630.52,1609.14,1630.54,1616.24,1631.68,1619.83L1631.68,1619.83z"/>
			</g>
			<g>
				<path d="M1827.43,1433.19c-10.28-0.74-20.61-1.09-30.92-1.22c-16.28-0.19-33.45-0.4-49.33,3.69c-6.61,1.7-5.01,21.29,0,20
					c15.88-4.09,33.05-3.88,49.33-3.69c10.31,0.12,20.64,0.47,30.92,1.22C1833.31,1453.61,1833.87,1433.66,1827.43,1433.19
					L1827.43,1433.19z"/>
			</g>
			<g>
				<path d="M1739.25,1500.31c8.76-1.97,17.32-4.37,26.24-5.65c12.95-1.86,28.55-3.35,40.42,3.32c5.53,3.11,7.75-16.24,2.34-19.28
					c-20.73-11.66-47.52-3.23-69,1.61C1732.64,1481.8,1734.05,1501.48,1739.25,1500.31L1739.25,1500.31z"/>
			</g>
			<g>
				<path d="M1598.7,1455.3c4.11,2.16,8.08,4.7,11.77,7.52c2.6,1.99,4.63,4.15,6.77,6.6c0.38,0.43,0.33,0.76,0.59,1.01
					c2.68,2.61-0.72-8.2,0.05-8.11c0.29-0.51,0.3-0.56,0.02-0.17c-0.19,0.26-0.39,0.5-0.61,0.72c0.53-0.3-0.47,0.27-0.63,0.38
					c-4.1,2.92-9.01,3.69-12.66,7.43c-6.29,6.45-7.13,16.88-6.72,25.39c0.13,2.57,0.46,10,4.4,10c3.74,0,4.51-7.67,4.4-10
					c-0.18-3.75-0.68-5.21,1.83-7.6c1.67-1.59,4.03-2.52,6.1-3.44c6.94-3.08,10.95-7.47,11.88-15.38
					c1.93-16.42-11.86-26.82-24.86-33.64C1595.32,1433.01,1593.25,1452.44,1598.7,1455.3L1598.7,1455.3z"/>
			</g>
			<g>
				<path d="M1774.33,1588.14c-20.63-12.63-41.09-25.66-62.13-37.59c-0.99-0.56-2.33-1.54-3.5-1.45c-4.25,0.31-4.72,8.06-4.75,11.08
					c-0.07,6.32,1.78,12.69,3.68,18.67c2.54,7.98,5.53,15.86,9.31,23.34c3.29,6.52,7.11,13.58,12.91,18.23
					c7.16,5.74,17.29,2.36,24.79-0.96c6.99-3.09,13.71-7.26,19.7-12.03c3.36-2.67,3.56-8.4,3.07-12.3c-0.21-1.66-2.13-9.6-5.41-6.98
					c-4.12,3.28-8.61,6.19-13.21,8.76c-6.36,3.55-15.49,8.37-23.07,6.33c-4.08-1.1-7.6-6.56-9.89-10.32
					c-3.62-5.93-6.36-12.47-8.79-18.97c-1.1-2.95-1.68-4.63-2.59-7.7c-0.38-1.27-0.73-2.54-1.06-3.82
					c-0.24-0.93-1.41-4.66-0.52-1.99c-0.87-2.62,0.03-1.3-0.2,1.08c-0.26,2.63-2.34,9.8-4.75,7.24c0.12,0.13,0.38,0.15,0.52,0.27
					c1.08,0.91,2.73,1.55,3.95,2.27c11,6.46,21.88,13.13,32.77,19.75c8.95,5.44,17.9,10.9,26.83,16.37
					C1777.27,1610.65,1779.67,1591.41,1774.33,1588.14z"/>
			</g>
			<g>
				<ellipse cx="1785.26" cy="1504.56" rx="9.01" ry="17.76"/>
				<g>
					<path d="M1789.86,1504.56c-0.06,2.66-1.08,7.76-4.61,7.76c-3.48,0-4.61-5.1-4.61-7.76c0-2.64,1.14-7.76,4.61-7.76
						C1788.77,1496.79,1789.8,1501.92,1789.86,1504.56c0.06,2.57,0.5,10,4.4,10c3.78,0,4.46-7.67,4.4-10
						c-0.18-7.64-2-27.76-13.41-27.76c-11.31,0-13.38,20.13-13.41,27.76c-0.03,7.63,2.14,27.76,13.41,27.76
						c11.41,0,13.22-20.13,13.41-27.76c0.06-2.57-0.59-10-4.4-10C1790.4,1494.56,1789.92,1502.22,1789.86,1504.56z"/>
				</g>
			</g>
		</g>
		<g id="glasses_2_">
			<g>
				<path class="st10" d="M1793.03,1502.2c-5.87,20.56-7.04,49.33,8.98,66.01c14.23,14.81,34.15,7.73,46.71-5.3
					c16.71-17.34,24.06-43.82,22.03-67.45c-1.52-17.73-10.93-41-32.11-40.63C1814.51,1455.24,1799.17,1482.17,1793.03,1502.2
					c-0.71,2.33-0.95,7.28,1.05,9.12c2.13,1.96,3.37-0.28,4.01-2.39c4.94-16.13,15.9-33.98,32.86-39.49
					c15.95-5.18,28.99,6.23,32.81,21.24c4.73,18.58-1.75,39.95-13.08,54.94c-8.55,11.3-23.96,22.65-38.7,15.92
					c-19.39-8.86-18.81-35.38-13.89-52.6c0.67-2.36,0.98-7.26-1.05-9.12C1794.93,1497.87,1793.64,1500.06,1793.03,1502.2z"/>
			</g>
			<g>
				<path class="st10" d="M1795.04,1504.08c-14.92-12.78-30.68-24.67-46.67-36.08c-29.01-20.69-59.87-40.65-93.46-53.03
					c-15.2-5.6-31.99-10.21-48.29-7.73c-4.36,0.66-3.72,13.9,0,13.33c14.39-2.19,29.22,1.19,42.8,5.85
					c16.86,5.79,32.9,13.89,48.35,22.73c27.97,16,54.41,34.76,79.68,54.72c5.41,4.27,10.79,8.58,16.03,13.06
					c2.14,1.84,3.46-3.59,3.61-4.66C1797.45,1509.63,1797.23,1505.95,1795.04,1504.08L1795.04,1504.08z"/>
			</g>
		</g>
	</g>
	<g id="man">
		<g id="blouse_4_">
			<path d="M3651.19,2353.38c0,0,101.21,254.21,129.95,276.17c28.74,21.96,308.9-21.96,405.31-6.76
				c96.41,15.2,432.56,13.51,424.11-74.32s-105.97-262.11-211.77-299.98S3651.19,2353.38,3651.19,2353.38z"/>
			<path class="st11" d="M3566.57,1452.81c0,0,45.62,70.81,157.56,52.41c111.94-18.4,164.62-140.3,164.62-140.3
				s208.15-34.14,265.23,52.74c57.09,86.89,23.72,329.29,23.72,329.29s44.31,205.45,120.5,327.59
				c76.19,122.14,148.51,109.59,133.31,177.74c-15.2,68.15-239.29,118.84-387.67,101.1c-148.38-17.74-348.29,47.44-454.13-43.43
				c-105.84-90.87-181.16-443.54-181.16-443.54s-125.12,136.42-308.68,152.07c-183.57,15.64-216.22-38.3-314.72-191.28
				c-53.05-82.4-127.53-171.81-112.75-207.87c14.78-36.06,124.32-111.68,161.41-104.05c33.5,6.89,127.46,83.04,230.01,210.87
				c0,0,148.29-130.66,200.45-207.6S3426.29,1348.7,3566.57,1452.81z"/>
			<g>
				<path class="st1" d="M3689.34,1406.76c-17.82,1.39-65.27-3.58-65.27-3.58s-52.19,29.57-57.63,43.52
					c-18.6,47.7,127.59,100.35,243.29,40.87c47.99-24.67,111.48-70,96.65-121.89l0-0.02c-62.49-24.98-98.22-29.73-98.22-29.73
					S3772.06,1366.1,3689.34,1406.76z"/>
				<g>
					<path d="M3689.34,1396.76c-14.18,1.01-28.66-0.42-42.79-1.54c-5.89-0.47-11.78-0.99-17.67-1.56c-2.19-0.21-4.23-0.76-6.29,0.05
						c-2.87,1.12-5.65,3.29-8.27,4.87c-5.37,3.23-10.68,6.55-15.92,9.99c-10.75,7.05-22.32,14.51-30.77,24.34
						c-7.44,8.65-8.59,21.71-5.99,32.47c2.47,10.21,8.88,18.44,16.73,25.17c21.46,18.4,51.94,26.54,79.27,30.66
						c76.24,11.49,154.37-12.68,212.62-62.89c27.29-23.52,48.88-55.66,41-93.26c-0.31-1.49-0.64-2.98-1.08-4.43
						c-1.15-3.77-2.69-4.63-6.31-6.06c-5.79-2.28-11.6-4.49-17.44-6.61c-9.45-3.44-18.98-6.68-28.59-9.66
						c-12.7-3.94-25.53-7.53-38.54-10.3c-3.25-0.69-9.18-3.09-12.44-1.59c-3.67,1.68-7.26,5.61-10.54,7.96
						c-24.33,17.49-50.4,32.63-76.81,46.71c-10.35,5.52-20.81,10.85-31.34,16.04c-5.41,2.66-3.62,22.22,2.34,19.28
						c36.75-18.11,73.14-37.84,106.58-61.63c3.12-2.22,6.2-4.47,9.23-6.81c0.69-0.53,1.63-1.06,2.2-1.73
						c0.88-1.03,1.21-0.18-0.35-0.3c7.76,0.63,15.73,3,23.24,4.88c25.16,6.31,49.72,14.9,73.8,24.5c-0.88-1.53-1.75-3.06-2.63-4.59
						c2.35,8.21,2.09,15.07-0.65,23.32c-3.31,9.96-9.35,18.9-16.02,26.9c-15.3,18.33-35.24,32.64-55.57,44.88
						c-21.54,12.96-44.26,23.66-68.66,30.01c-23.92,6.23-48.77,8.88-73.46,8.12c-21.63-0.66-43.49-3.79-64.14-10.38
						c-15.64-5-31.55-11.91-44.01-22.85c-4.21-3.7-7.86-8.45-9.8-12.37c-0.28-0.58-0.51-1.19-0.74-1.79
						c0.75,1.95,0.04-0.02-0.08-0.38c-0.17-0.49-0.91-2.58-0.08-0.02c-0.19-0.57-0.04-1.25-0.23-1.81c0.69,2.08,0.1,1.45,0.08,0.23
						c0.07,4.03,0.02,0.22,0.03,0.23c-0.7-1.4-0.16,1.62,0.01-0.04c0.1-0.41,0.21-0.81,0.33-1.21c-0.36,1.01-0.38,1.08-0.06,0.21
						c0.11-0.27,0.9-1.78,0.1-0.38c0.31-0.54,0.69-1.08,1.08-1.57c0.76-0.96,1.53-1.89,2.36-2.79c2.59-2.79,5.57-5.23,8.55-7.6
						c7.1-5.64,14.63-10.73,22.25-15.63c6.18-3.98,12.45-7.81,18.8-11.51c0.69-0.4,1.39-0.79,2.08-1.2
						c1.16-0.69-1.15,0.04-0.46,0.12c2.22,0.24,4.45,0.45,6.68,0.66c19.2,1.82,39.06,4.28,58.35,2.9
						C3695.72,1416.3,3695.3,1396.34,3689.34,1396.76z"/>
				</g>
			</g>
			<g>
				<path d="M3682.46,1416.74c4.99,19.5,17.3,35.61,28.88,51.67c5.58,7.74,11.08,15.65,17.19,22.98
					c5.63,6.75,12.09,12.95,20.74,15.45c9.29,2.68,10.99-16.92,3-19.23c-6.99-2.02-11.92-6.74-16.36-12.32
					c-5.46-6.86-10.56-14.04-15.69-21.14c-9.49-13.15-21.22-26.99-25.32-43c-0.94-3.67-3.68-8.47-8.19-6.74
					C3682.48,1406.04,3681.5,1413.01,3682.46,1416.74L3682.46,1416.74z"/>
			</g>
			<g>
				<path d="M3680.77,1414.74c-3.23,29.27-11.62,57.74-25.19,83.9c-2.21,4.26-2.55,9.95,0.34,14.04c2.37,3.35,7.12,3.81,9.22-0.23
					c15.02-28.95,24.75-60.3,28.33-92.75c0.45-4.07-0.31-10.44-4.85-12.1C3684.26,1406.02,3681.17,1411.09,3680.77,1414.74
					L3680.77,1414.74z"/>
			</g>
			<g>
				<path class="st1" d="M3386.35,1603.55c-5.23,83.52-5.65,167.32-1.15,250.89c1.27,23.69,2.95,47.35,5,70.98
					c0.33,3.8,1.91,9.79,6.76,9.77c4.52-0.02,6.58-6.5,6.27-10.09c-7.22-83.37-9.65-167.14-7.15-250.79
					c0.71-23.71,1.82-47.4,3.3-71.08c0.24-3.8-2.3-9.79-6.76-9.77C3387.7,1593.49,3386.58,1599.97,3386.35,1603.55L3386.35,1603.55z
					"/>
			</g>
			<g>
				<path class="st1" d="M4040.29,1897.09c-29.98-106.63-85.1-205.36-160.61-286.44c-18.24-19.59-38.54-40.07-65.94-45.12
					c-29.51-5.44-59.72,5.91-87.81,13.67c-15.75,4.35-31.52,8.65-47.26,13.05c-13.77,3.85-23.93,10.13-28.96,24.12
					c-10.21,28.4-4.46,61.83,5.05,89.56c9.92,28.91,26.13,55.07,40.55,81.85c13.66,25.37,25.2,51.81,35.93,78.54
					c21.22,52.86,39.39,107.13,65.67,157.81c24.47,47.19,56.26,94.74,104.71,119.89c22.62,11.74,49.29,17.3,74.68,14.2
					c25.5-3.11,48.51-15.1,65.26-34.65c16.77-19.56,27.24-43.35,36.4-67.19c11.05-28.75,21.61-57.7,32.39-86.55
					c22.76-60.89,45.52-121.78,68.27-182.68c5.57-14.91,11.15-29.82,16.72-44.74c1.55-4.14,1.02-10.58-2.67-13.52
					c-3.73-2.97-7.44,0.05-8.83,3.78c-21.83,58.41-43.66,116.81-65.49,175.22c-10.91,29.2-21.83,58.41-32.74,87.61
					c-9.61,25.72-18.27,52.15-29.99,77.03c-9.64,20.45-22.8,40.77-42.44,52.88c-20.89,12.88-46.13,16.08-70.11,12.29
					c-50.48-7.98-88.13-47.2-114.61-88.3c-29.42-45.66-48.96-96.77-68.3-147.26c-9.9-25.83-19.76-51.7-30.85-77.05
					c-11.44-26.15-24.91-51.09-38.64-76.08c-13.74-24.99-26.83-50.98-31.47-79.4c-2.12-12.96-2.38-26.81,0.82-39.63
					c1.26-5.06,3.32-9.88,7.74-12.96c5.36-3.73,12.42-5.05,18.61-6.76c15.12-4.18,30.25-8.35,45.37-12.53
					c14.08-3.89,28.14-8.26,42.48-11.1c14.25-2.83,29.48-4.28,43.65-0.26c12.08,3.43,22.57,10.22,32.06,18.3
					c19.72,16.78,36.87,37.25,53.11,57.33c16.4,20.28,31.63,41.51,45.6,63.54c28.01,44.14,50.79,91.53,67.87,140.94
					c4.13,11.95,7.91,24.02,11.33,36.19c1.02,3.63,3.62,8.49,8.19,6.74C4040.2,1907.82,4041.33,1900.79,4040.29,1897.09
					L4040.29,1897.09z"/>
			</g>
			<g>
				<path class="st1" d="M3993.89,1436.61c-38.33,65.89-65.76,137.66-81.39,212.26c-0.83,3.96,0.57,10.54,4.85,12.1
					c4.61,1.68,7.11-3.59,7.85-7.13c14.97-71.46,41.54-140.31,78.25-203.41c2.39-4.11,2.46-10.08-0.34-14.04
					C4000.63,1432.88,3996.14,1432.73,3993.89,1436.61L3993.89,1436.61z"/>
			</g>
			<g>
				<path class="st1" d="M3608.72,2094.43c26.64,10.95,47.51,31.1,66.61,52.1c20.16,22.16,39.01,45.5,62.35,64.48
					c50.99,41.46,114.65,63.58,179.16,72.45c40.73,5.6,81.97,5.99,122.97,3.83c8.84-0.47,8.29-20.32-0.49-19.85
					c-69.86,3.68-141.32-0.17-207.51-24.59c-29.33-10.82-57.3-25.43-82.12-44.51c-23.86-18.34-43.12-41.09-63.07-63.41
					c-21.45-24-44.64-47.28-74.91-59.73C3602.98,2071.61,3600.95,2091.23,3608.72,2094.43L3608.72,2094.43z"/>
			</g>
			<g>
				<path class="st1" d="M3056,1699.9c4.78,16.72,17.41,26.12,31.05,35.65c13.81,9.65,26.71,20.57,38.49,32.61
					c22.9,23.4,41.45,51.21,54.39,81.27c7.38,17.14,12.86,34.93,16.44,53.24c0.73,3.74,3.82,8.41,8.19,6.74
					c4.38-1.68,4.99-8.53,4.25-12.32c-12.91-66.06-49.66-127.26-102.5-169.1c-7.15-5.66-14.76-10.66-22.09-16.07
					c-6-4.43-13.62-10.03-15.78-17.6c-1.04-3.63-3.61-8.49-8.19-6.74C3056.11,1689.17,3054.95,1696.22,3056,1699.9L3056,1699.9z"/>
			</g>
		</g>
		<g id="hair_7_">
			<path d="M3518.42,1048.59c0,0,7.04-101.32,61.07-129.16c54.03-27.84,155.63,10.69,185.42,12.18s121.92,13.86,163.32,56.01
				s73.03,71.8,51.89,94.71c-28.62,31.01-64.68,30.88-69.12,44.47s-19.19,164.59-126.17,180.91
				C3705.83,1319.77,3518.42,1048.59,3518.42,1048.59z"/>
			<g>
				<path class="st1" d="M3734.11,1066.23c26.43,4.07,49.69,19.32,71.33,34.1c22.72,15.51,45.46,32.44,71.71,41.52
					c14.87,5.14,30.65,7.38,46.34,5.89c8.86-0.84,8.18-20.68-0.49-19.85c-57.58,5.48-99.65-41.84-146.57-66.78
					c-13.5-7.18-27.67-12.4-42.81-14.73c-4.6-0.71-6.35,6.95-6.27,10.09C3727.46,1060.86,3729.42,1065.5,3734.11,1066.23
					L3734.11,1066.23z"/>
			</g>
		</g>
		<g id="face_6_">
			<path class="st1" d="M3609.58,1399.86c-0.08-0.07,10.82-2.59,10.2-3.01c0.6,0.41,0.42,2.02,0.95,2.53
				c4.03,3.91,6.02,16.06,8.03,21.4c2,5.34,4,10.68,6.01,16.02c0.13,0.33,0.57,1.02,1.04,0.98c60.27-6.09,123.83-32.25,166.42-76.2
				c8.11-8.36,1.41-18.48-1.53-28.86c-4.91-17.34-9.82-34.69-14.72-52.03c24.1-18.14,37.71-53.96,27.16-82.73
				c-6.2-16.9-22.11-31.23-41.17-27.85c-4.99,0.88-10.36,5.8-14.83,4.9c-4.58-0.92-8.85-6.76-11.43-10.13
				c-30.01-39.32-14.66-107.95-68.53-128.83c-45.4-17.6-102.27-5.48-148.08,3.2c-0.05,0.01-0.09,0.06-0.14,0.08
				c-0.08,0.01-0.17,0.01-0.25,0.04c-7.83,2.68-10.56,16.91-12.47,23.68c-4.33,15.38-7,31.27-9.56,47.02
				c-0.87,5.32-1.91,10.62-2.62,15.95c-0.12,0.47-0.18,1.01-0.18,1.56c-0.59,5.05-0.84,10.12-0.24,15.24
				c1.07,9.17,3.38,18.18,4.88,27.27c0.46,2.8,0.74,5.44,0.86,8.01c-0.03,0.48-0.02,1,0.04,1.5c0.16,7.62-1.16,14.57-3.76,22.57
				c-11.35,34.9-10.64,66.52,3.34,100.13c13.04,31.37,31.51,66.83,59.3,87.61c5.85,4.38,12.3,7.92,19.47,9.51
				C3594.74,1400.95,3602.54,1401.05,3609.58,1399.86z M3803.45,1353.44C3803.25,1350.14,3805.14,1352.35,3803.45,1353.44
				L3803.45,1353.44z"/>
			<g>
				<path d="M3627.42,1189.6c-1.23,8.36-7.06,14.43-13.02,13.55s-9.8-8.37-8.57-16.73c1.23-8.36,7.06-14.43,13.02-13.55
					S3628.65,1181.24,3627.42,1189.6z"/>
				<g>
					<path d="M3623.17,1186.94c-0.6,3.27-4.43,6.34-7.66,6.3c-1.77-0.02-3.43-0.81-4.55-2.19c-0.49-0.61-0.86-1.21-1.03-1.98
						c-0.17-0.76-0.17,1.14,0.14,0.02c0.86-3.09,3.87-6.01,7.11-6.26c1.84-0.14,3.55,0.48,4.81,1.83c0.58,0.61,0.95,1.27,1.26,2.03
						C3623.76,1187.89,3623.29,1185.86,3623.17,1186.94c-0.36,3.24-0.54,10.53,3.07,12.3c3.68,1.8,5.16-4.74,5.41-6.98
						c1.04-9.38-0.08-26.37-11.72-29.14c-11.26-2.68-17.16,12.1-18.36,20.65c-1.31,9.3,0.26,26.42,11.72,29.14
						c11.51,2.74,16.8-12.18,18.36-20.65c0.58-3.14,0.4-10.61-3.07-12.3C3624.8,1178.11,3623.58,1184.76,3623.17,1186.94z"/>
				</g>
			</g>
			<g>
				<path d="M3529.1,1032.57c-8.96,2.18-12.27,16.58-14.5,24.01c-4.13,13.76-6.7,28-9.15,42.13c-1.72,9.94-3.42,19.92-4.85,29.91
					c-2.22,15.47,3.31,31.34,5.64,46.5c0.47,3.07,1.02,7.85,1.02,9.44c0,0.67-0.02,1.34-0.02,2.02c0.02-2.29-0.42,1,0.01-0.21
					c0.06-0.18-0.88,2.85-1.19,3.76c-2.34,6.91-5.11,15.06-7.04,22.63c-5.25,20.52-7.1,42.38-2.5,63.2
					c6.26,28.37,20.7,56.2,36.32,80.43c9.22,14.3,19.91,28.33,33.37,38.92c16.11,12.69,34.93,14,54.54,8.95
					c-1.04-0.98-2.07-1.95-3.11-2.93c5.02,13.4,10.05,26.79,15.07,40.19c0.38,1.01,1.7,3.07,3.11,2.93
					c49.53-4.88,97.81-23.42,138.1-52.41c8.85-6.37,17.39-13.2,25.43-20.57c4.45-4.09,9.37-7.47,10.16-13.85
					c0.71-5.72-1.45-11.27-2.99-16.69c-2.29-8.09-4.58-16.17-6.87-24.26c-4.04-14.27-8.08-28.54-12.11-42.81
					c-0.88,4.9-1.75,9.79-2.63,14.69c32.2-22.13,46.82-74.95,23.76-108.01c-5.89-8.44-14.53-14.81-24.68-16.93
					c-9.09-1.9-17.91,0.77-25.29,5.24c0.1-0.06-1.52,0.1-0.15-0.01c0.76-0.06-0.33-0.09-0.87-0.38c-1.45-0.78-2.82-1.55-4.12-2.57
					c-4.07-3.16-8.09-8.73-11.06-13.99c-13.94-24.7-15.52-52.99-24.69-79.26c-7.17-20.54-21.02-36.34-41.76-43.76
					c-15.21-5.44-31.5-7.12-47.57-7.35c-25.38-0.36-50.79,2.74-75.8,6.83C3544.78,1029.65,3536.93,1031.07,3529.1,1032.57
					c-6.58,1.26-5.38,21.03,0,20c26.62-5.1,53.54-9.33,80.64-10.67c17.6-0.87,35.59-0.64,52.88,3.16
					c11.1,2.44,21.96,6.73,30.87,13.92c3.3,2.66,5.92,5.39,8.82,9.31c1.37,1.85,2.62,3.78,3.77,5.77c-0.83-1.44,0.6,1.15,0.87,1.69
					c0.52,1.02,1.01,2.06,1.49,3.1c0.95,2.11,1.78,4.26,2.6,6.42c0.86,2.27-0.2-0.79,0.53,1.53c0.35,1.12,0.71,2.23,1.04,3.36
					c1.32,4.48,2.43,9.02,3.48,13.57c2.83,12.33,5.45,24.61,9.45,36.64c5.23,15.73,12.1,34.46,25.85,44.94
					c1.76,1.34,4.71,3.45,7.07,3.48c2.21,0.02,4.56-2.18,6.56-3.11c4.58-2.12,9.57-3.02,14.6-2.69
					c20.87,1.37,33.36,22.82,30.66,42.12c-2.3,16.42-12.54,31.99-25.32,42.32c-0.78,0.63-1.56,1.25-2.39,1.82
					c-3.94,2.7-3.73,10.81-2.63,14.69c7.17,25.35,14.35,50.7,21.52,76.05c0.53-4.56,1.05-9.12,1.58-13.68
					c-12.83,13.65-30.36,26.41-46.9,36.84c-29.68,18.72-62.17,30.81-96.53,37.56c-7.86,1.54-15.81,2.95-23.79,3.73
					c1.04,0.98,2.07,1.95,3.11,2.93c-5.02-13.4-10.05-26.79-15.07-40.19c-0.3-0.8-1.79-3.27-3.11-2.93
					c-16.65,4.29-33.6,4.68-48.14-5.25c-11.11-7.58-19.99-18.16-27.85-28.96c-16.37-22.51-30.35-49.3-38.3-75.42
					c-0.73-2.41-1.42-4.84-2-7.3c-0.23-0.96-0.44-1.93-0.64-2.9c-0.36-1.69,0.02,0.08,0.07,0.37c-0.23-1.45-0.45-2.9-0.62-4.35
					c-1.16-9.77-0.42-19.72,1.47-29.35c1.66-8.45,4.14-16.71,6.89-24.86c2.22-6.61,4.2-12.61,4.43-19.66
					c0.49-15.36-4.33-30.35-6.48-45.43c-0.23-1.6-0.44-3.2-0.57-4.8c-0.03-0.33-0.19-2.03-0.02-0.23c-0.05-0.48-0.07-1.25-0.01-1.76
					c-0.31,2.4,0.14-0.39,0.23-0.97c0.12-0.76,0.26-1.52,0.38-2.27c0.73-4.45,1.4-8.92,2.1-13.37c2.27-14.29,4.46-27.25,7.91-41.35
					c1.49-6.09,3.01-11.75,5.05-16.71c0.93-2.26,1.83-4.12,2.46-4.97c0.49-0.67,1.53-1.88,1.03-1.38c0.38-0.38,2.05-1.02,0.98-0.76
					C3535.71,1050.96,3534.19,1031.33,3529.1,1032.57z"/>
			</g>
			<g>
				<path d="M3668.25,1383.96c3.7-0.18,7.92-2.34,11.26-3.76c7.5-3.2,14.66-7.2,21.45-11.69c22.41-14.83,40.25-35.16,53.47-58.45
					c2.13-3.75,1.84-10.34,0-14.14c-1.83-3.78-4.3-3.38-6.22,0c-12.28,21.62-29.65,40.31-50.48,53.89
					c-6.53,4.25-13.39,8.05-20.56,11.11c-2.12,0.91-4.28,1.75-6.47,2.47c-1.16,0.38,0.28-0.03-1.33,0.38
					c-0.37,0.09-0.74,0.18-1.12,0.2C3661.94,1364.26,3662.2,1384.24,3668.25,1383.96L3668.25,1383.96z"/>
			</g>
			<g>
				<path d="M3788.35,1179.75c-6.21-0.7-13.79,0.01-19.13,3.46c-9.58,6.19-11.66,23.07-5.2,32.12c2.33,3.26,5.79,5.24,9.24,7.1
					c1.62,0.88,3.31,1.71,4.82,2.77c0.56,0.39,1.29,1.21,1.87,1.51c0.45,0.64,0.57,0.78,0.35,0.41c-1.02-1.81-1.24-3.86-0.68-6.15
					c-0.76,0.74-1.12,4.06-1.46,5.14c-0.46,1.49-0.97,2.97-1.46,4.46c-1.06,3.22-2.09,6.43-2.51,9.81
					c-0.81,6.53-0.26,14.49,5.38,18.76c3.35,2.53,5.19-5.2,5.41-6.98c0.47-3.77,0.32-9.73-3.07-12.3c-1.27-0.96,1.39,5.79,0.78,5.99
					c0.33-0.11,0.82-2.79,0.93-3.14c0.86-2.7,1.82-5.36,2.61-8.08c1.73-5.99,2.85-12.22,1.32-18.4
					c-1.89-7.64-7.58-10.52-13.89-14.12c-1.21-0.69-2.49-1.38-3.56-2.28c-2.56-2.16-0.87-2.85-0.78,2.45
					c0.05,3.13-0.87,1.97,0.76,1.3c1.66-0.69,2.99-2.06,4.77-2.68c4.16-1.46,9.12-1.63,13.49-1.14
					C3794.06,1200.39,3794.88,1180.48,3788.35,1179.75L3788.35,1179.75z"/>
			</g>
			<g>
				<path d="M3608.87,1130.27c9.9-0.22,19.86,0.29,29.71,1.2c16.22,1.5,33.9,3.79,48.09,12.36c5.31,3.21,7.69-16.04,2.34-19.28
					c-14.48-8.76-32.68-11.36-49.25-12.97c-10.24-0.99-20.6-1.54-30.89-1.31C3602.63,1110.41,3602.73,1130.41,3608.87,1130.27
					L3608.87,1130.27z"/>
			</g>
			<g>
				<path d="M3679.03,1184.94c-11.92-7.6-24.68-14.31-37.81-19.51c-8.39-3.33-17.68-6.63-26.83-6.55
					c-9.15,0.08-17.28,5.61-23.23,12.23c-2.91,3.23-2.61,9.8-1.58,13.68c0.77,2.91,3.06,6.88,6.02,3.59
					c5.32-5.91,12.53-9.82,20.52-9.46c8.96,0.41,17.7,3.63,25.88,7.08c12,5.05,23.7,11.23,34.68,18.23
					C3681.84,1207.5,3684.34,1188.32,3679.03,1184.94L3679.03,1184.94z"/>
			</g>
			<g>
				<path d="M3533.49,1186.11c-0.92,6.29-5.31,10.85-9.8,10.2c-4.49-0.66-7.37-6.29-6.45-12.58c0.93-6.29,5.31-10.85,9.8-10.2
					C3531.53,1174.19,3534.42,1179.82,3533.49,1186.11z"/>
				<g>
					<path d="M3529.69,1181.07c-0.44,2.26-1.49,4.51-3.95,5.19c-1.53,0.42-2.42-0.17-3.7-0.79c-0.9-0.43-1.12-1.36-0.67,0.84
						c-0.15,1.24-0.11,1.39,0.14,0.45c0.28-0.62,0.65-1.17,1.12-1.66c0.77-0.8,1.78-1.41,2.87-1.57c1.4-0.2,2.01,0.28,3.19,0.84
						c1.4,0.67,0.33,1.23,0.55-0.91c-0.33,3.25-0.56,10.53,3.07,12.3c3.67,1.79,5.18-4.73,5.41-6.98c0.8-7.82,0.21-21.83-9.1-24.82
						c-9.14-2.94-14.24,8.99-15.41,15.92c-1.33,7.9-0.73,22.22,8.29,25.84c8.81,3.53,14.46-7.73,15.77-14.55
						c0.77-4.01,1.47-10.34-1.58-13.68C3532.86,1174.35,3530.27,1178.04,3529.69,1181.07z"/>
				</g>
			</g>
			<g>
				<path d="M3560.53,1172.08c-6.73-4.57-14.41-8.09-22.25-10.22c-11.42-3.1-21.77-0.37-29.8,8.51c-2.91,3.22-2.61,9.81-1.58,13.68
					c0.77,2.92,3.05,6.87,6.02,3.59c12.39-13.69,32.56-4.9,45.27,3.73C3563.13,1194.72,3565.76,1175.64,3560.53,1172.08
					L3560.53,1172.08z"/>
			</g>
			<g>
				<path d="M3506.6,1137.4c-0.07,0.02-0.9,0.24,0.2-0.05c1-0.26,2-0.53,3.01-0.77c3.7-0.87,7.46-1.5,11.24-1.9
					c10.17-1.08,21.02-0.64,30.55,3.37c16.31,6.87,20.19,22.23,17.41,37.71c-3.4,18.95-17.29,31.9-28.1,46.93
					c-5.15,7.17-9.13,15.12-8.11,24.22c0.75,6.73,4.23,11.91,10.42,14.69c13.9,6.23,34.1,4.12,42.96-9.4
					c2.52-3.85,2.73-9.33,1.58-13.68c-0.62-2.32-3.46-7.49-6.02-3.59c-7.32,11.16-25.67,12.56-36.92,7.04
					c-1.11-0.54-2.26-1.15-3.21-1.95c0,0-0.86-0.58-0.43-0.33c-1.17-0.67-0.11-1.19-0.47-0.39c0.05,0.16,0.1,0.33,0.15,0.49
					c0.63,1.92,0.78,3.92,0.46,6.01c0.17,0.91-0.92,2.03,0.04,0.61c0.86-1.28,1.47-2.78,2.34-4.09
					c5.06-7.61,11.26-14.43,16.72-21.75c12.07-16.21,18.28-34.47,18.32-54.76c0.03-18.1-5.7-38.15-23.35-46.4
					c-15.64-7.31-34.94-6.49-51.14-1.3C3498.85,1119.85,3499.81,1139.58,3506.6,1137.4L3506.6,1137.4z"/>
			</g>
			<g>
				<path d="M3541.31,1292.74c19.65,1.3,39.51,1.58,59.17,0.44c17.71-1.03,36.92-3.08,53.49-9.98c-1.13-6.09-2.26-12.18-3.39-18.28
					c-9.99,11.71-22.03,22.44-35.19,30.44c-9.36,5.69-19.62,9.87-30.76,8.39c-10.85-1.44-20.64-7.67-28.56-14.96
					c-4.69-4.32-9.09-9.32-12.55-14.69c-2.49-3.86-5.41,1.28-6.02,3.59c-1.15,4.35-0.91,9.82,1.58,13.68
					c9.06,14.06,23.63,26.8,39.91,31.22c23.1,6.28,45.01-10.37,61.02-25.13c5.23-4.82,10.37-9.85,15-15.27
					c2.64-3.1,3.46-21.13-3.39-18.28c-16.28,6.78-35.44,8.45-52.81,9.35c-19.11,1-38.41,0.72-57.51-0.54
					C3535.39,1272.35,3534.88,1292.32,3541.31,1292.74z"/>
			</g>
		</g>
		<g id="arm_r_6_">
			<path class="st1" d="M2795.76,1535.66c-7.3-7.97-15.28-20.68-24.35-26.57c-0.53-0.35-0.94-0.56-1.27-0.71
				c0.01-0.04,0.03-0.05,0.05-0.09c1.32-4.89,1.21-10.68,1.59-15.7c1.08-13.93,1.81-28.36-0.61-42.19
				c-1.86-10.66-7.06-17.34-12.99-26.1c-9.88-14.59-19.23-29.59-28.03-44.86c-9.75-16.9-16.14-35.11-25.32-52.14
				c-4.13-7.66-13.83-23.49-25.01-20.55c-9.22,2.43-9.3,17.1-9.61,24.59c-0.73,17.2,1.83,34.91,7.43,51.24
				c-9.23-9.82-18.63-19.47-28.3-28.82c-20.45-19.78-40.46-31.49-66.99-41.96c-12.27-4.85-55.39-25.87-57.9-0.25
				c-2.49,25.4,27.4,40.76,47.89,50.82c-11.88,11.06-6.68,35.57-2.28,50.36c-13.52,7.61-9.3,37.23-7.11,51.11
				c-2.73,3.97-4.42,9.04-4.97,14.82c-1.57,16.54,10.77,30.56,20.72,42.37c15.59,18.51,33.94,35.95,57.69,42.85
				c9.37,2.72,19.16,4.21,28.92,4.5c6.27,0.19,4.59-0.93,8.37,2.61c12.2,11.38,22.29,26.46,33.03,39.22
				c8.14,9.66,16.27,19.32,24.41,28.99c0.35,0.41,0.63,0.52,1.13,0.34c20.78-7.73,37.61-25.93,52.28-41.91
				c10.51-11.45,20.57-23.43,29.83-35.91c0.98-1.32,1.17-4.48,0-5.76C2808.17,1549.19,2801.97,1542.42,2795.76,1535.66z"/>
			<g>
				<path d="M2568.94,1462.39c-0.24-1.5-0.44-3.01-0.63-4.52c-0.19-1.57-0.36-3.14-0.52-4.71c-0.09-0.93-0.17-1.86-0.25-2.79
					c-0.04-0.45-0.22-3.3-0.15-1.91c-0.13-2.37-0.19-4.74-0.19-7.12c0-2.29,0.09-4.55,0.21-5.67c0.21-2.01,0.46-3.8,0.7-4.81
					c0.39-1.66,0.63-2.42,1.43-3.85c-0.04,0.08,1.41-1.51,0.63-0.86c-0.71,0.59,0.29-0.16,0.48-0.26c0.94-0.46,1.57-0.69,1.99-0.79
					c2.52-0.62,5.23-0.64,7.81-0.6c7.64,0.1,15.28,1.34,22.76,2.75c16.3,3.06,32.56,7.28,48.2,12.81c2.6,0.92,5.19,1.87,7.72,2.97
					c0.88,0.39,3.52,2.35,4.39,2.3c0.55-0.03-0.4-0.11-0.66-0.83c-0.67-1.85-0.75-3.69-0.63-5.67c0.08-1.45-0.28-0.11,0.16-0.7
					c-0.43,0.58-0.56,1.18-1.02,1.86c-2.41,3.59-6.65,5.98-10.74,7.1c-11.34,3.08-25.39-0.13-36.72-1.97
					c-7.71-1.25-15.4-2.69-23.01-4.42c-5.12-1.16-6.66,18.49,0,20c7.61,1.73,15.31,3.17,23.01,4.42c11.9,1.93,26.09,5,37.95,1.63
					c10.88-3.1,17.79-12.16,18.91-23.29c0.82-8.22-1.06-16.01-8.81-19.48c-15.88-7.12-33.63-11.35-50.57-15.04
					c-9.04-1.97-18.23-3.72-27.48-4.28c-5.15-0.31-12.15-0.76-16.49,2.62c-4.16,3.23-6.06,9.6-7.13,14.49
					c-1.45,6.61-1.91,13.41-1.89,20.17c0.02,8.59,0.66,17.32,2.04,25.81c0.41,2.51,1.61,8.63,5.41,6.98
					C2569.33,1473.18,2569.4,1465.19,2568.94,1462.39L2568.94,1462.39z"/>
			</g>
			<g>
				<path d="M2576.18,1409.43c-1.29-4-2.25-8.11-3.11-12.22c-0.34-1.64,0.07,0.57-0.22-1.14c-0.16-0.93-0.31-1.86-0.45-2.8
					c-0.31-2.1-0.56-4.21-0.72-6.32c-0.09-1.18-0.01-0.02,0,0.19c-0.02-0.49-0.05-0.99-0.05-1.48c-0.01-0.98-0.02-1.96,0-2.94
					c0.02-1.19-0.03,0.05-0.04,0.25c0.03-0.47,0.07-0.95,0.13-1.41c0.06-0.46,0.48-3.15,0.21-1.69c0.31-1.7,0.23-1.79,1.29-3.58
					c0.22-0.38,1.48-1.84,2.35-2.5c2.3-1.72,4.27-2.05,7.17-2.19c6.94-0.33,14.04,1.42,20.68,3.24
					c17.21,4.71,33.98,11.98,49.8,20.19c5.52,2.87,11.2,5.83,16.15,9.64c0.8,0.62,2.04,1.29,1.24,0.97
					c0.14,0.06,0.57,0.56,0.62,0.71c-0.61-2.16-1.51-5.11-1.39-8.06c0.01-0.26,0.42-1.35,0.32-1.55c-0.43-0.8,0.52,0.05-0.18,0.24
					c0.32-0.09-0.35,0.43-0.82,0.91c-1.25,1.26-2.7,2.24-4.27,3.07c-12.82,6.73-29.06-0.17-41.59-4.25
					c-9.54-3.11-19.03-6.44-28.37-10.11c-6.39-2.51-7.85,17.12-2.34,19.28c9.61,3.78,19.38,7.19,29.2,10.38
					c13.81,4.48,29.26,10.82,43.57,4.85c10.62-4.43,15.23-16.35,12.44-27.26c-1.55-6.04-6.82-9.25-11.84-12.32
					c-16.85-10.28-35.67-18.29-54.44-24.28c-14.05-4.48-35.94-12.22-44.51,4.89c-5.45,10.89-4.79,24.74-3.07,36.45
					c1.03,7.04,2.48,14.15,4.67,20.94c0.9,2.79,3.02,6.87,6.02,3.59C2577.34,1420.11,2577.33,1413.01,2576.18,1409.43
					L2576.18,1409.43z"/>
			</g>
			<g>
				<path d="M2603.2,1404.18c0.55,5.38,1.1,10.77,1.65,16.15c0.24,2.34,1.79,8.86,5.41,6.98c3.55-1.83,3.39-9.19,3.07-12.3
					c-0.55-5.38-1.1-10.77-1.65-16.15c-0.24-2.34-1.79-8.86-5.41-6.98C2602.72,1393.71,2602.88,1401.06,2603.2,1404.18
					L2603.2,1404.18z"/>
			</g>
			<g>
				<path d="M2697.11,1396.41c-8.77-9.81-17.77-19.41-26.89-28.89c-14.12-14.66-28.51-30.09-45.05-42.08
					c-7.01-5.08-15.19-8.5-23.04-12.03c-11.57-5.21-23.36-10.02-35.39-14.07c-9.31-3.13-19.67-6.91-29.63-6.8
					c-11.74,0.14-15.82,11.21-15.64,21.51c0.55,30.84,32.22,45.88,56.13,57.72c5.88,2.91,7.82-16.57,2.34-19.28
					c-8.65-4.28-17.1-9.01-25.33-14.04c-9.99-6.1-20.71-12.92-24.21-24.82c-0.07-0.25-0.11-1.25-0.18-0.9
					c-0.04,0.21-0.11,2.26-0.14,2.24c-0.16-0.1,2.75-1.88,3.31-2.05c2.88-0.88,6.38-0.35,9.29,0.06c10.15,1.43,20.04,4.9,29.62,8.43
					c10.59,3.9,21.02,8.27,31.27,13c6.99,3.22,14.01,6.4,20.21,11.01c14.76,10.98,27.72,24.6,40.47,37.78
					c9.66,9.99,19.17,20.13,28.43,30.48c2.9,3.25,5.26-0.74,6.02-3.59C2699.68,1406.32,2699.98,1399.61,2697.11,1396.41
					L2697.11,1396.41z"/>
			</g>
			<g>
				<path d="M2671.85,1575.05c18.49-0.97,36.95-9.85,49.72-23.01c3.94-4.05,1.37-23.25-4.44-17.27
					c-11.44,11.79-28.82,19.41-45.28,20.28C2665.52,1555.39,2665.82,1575.37,2671.85,1575.05L2671.85,1575.05z"/>
			</g>
			<g>
				<path d="M2687.87,1417.67c-0.55,15.04,0.11,30.23,1.65,45.19c2.25,21.72,6.29,45.64,19.11,63.89c2.61,3.71,5.37-1.15,6.02-3.59
					c1.11-4.2,1.02-9.98-1.58-13.68c-10.83-15.41-13.57-36.04-15.3-54.33c-0.8-8.45-1.14-15.41-1.23-24.44
					c-0.05-4.34-0.03-8.69,0.13-13.03c0.09-2.56-0.61-10-4.4-10C2688.39,1407.67,2687.96,1415.34,2687.87,1417.67L2687.87,1417.67z"
					/>
			</g>
			<g>
				<path d="M2683.38,1377.65c-5.85-14.59-8.28-31.61-7.25-47.29c-0.05,0.72,0.23-2.23,0.31-2.89c0.24-1.99,0.41-2.7,0.54-3.32
					c0.3-1.45,0.74-2.85,1.27-3.25c2.93-2.23,7.62-0.68,10.92,1.63c12.77,8.98,16.27,26.39,22.63,39.72
					c7.04,14.76,15.34,28.95,23.83,42.92c7.49,12.31,15.22,24.5,23.49,36.3c1.17,1.68,2.43,3.3,3.59,4.99
					c1.15,1.68,1.69,2.98,2.18,4.92c1.32,5.18,1.77,10.95,1.88,16.41c0.27,12.52-0.44,21.66-1.88,34.02
					c-0.5,4.27-1.34,8.53-0.2,12.8c0.85,3.21,2.84,4.96,4.99,7.3c13.91,15.18,27.83,30.36,41.74,45.54c0-5.76,0-11.51,0-17.27
					c-8.79,11.87-18.34,23.25-28.26,34.19c-8.21,9.06-16.78,17.84-26.14,25.73c-7.88,6.64-16.49,13.13-26.32,16.55
					c1.13,0.34,2.26,0.67,3.39,1.01c-14.56-17.29-29.13-34.58-43.69-51.88c-5.25-6.23-10.21-13.78-16.25-19.29
					c-2.8-2.55-7.86-1.38-11.47-1.58c-9.8-0.54-19.69-2.12-29.01-5.25c-20.98-7.06-37.51-23.07-51.55-39.63
					c-5.7-6.72-11.34-13.81-15.75-21.47c-0.83-1.45-1.52-2.96-2.24-4.47c-0.02-0.03-0.81-2.18-0.38-0.87c0.33,1,0.33-0.86,0.07,0.42
					c0.28-1.43-0.09-2.88,0.35-4.44c0.59-2.13,1.64-4.12,2.97-5.88c3.89-5.13,8.08-5.69,13.93-5.17c6.62,0.59,13.2,1.87,19.71,3.23
					c14.72,3.08,29.54,6.76,43.63,12.07c2.73,1.03,5.49,2.1,8.05,3.51c0.77,0.42,1.67,1.29,2.48,1.56c0.97,0.33-0.34,0.72-0.21-0.24
					c-0.14,1.03-1.43-3.64-0.85-1.8c-0.8-2.53-0.36,0.62-0.31-2.29c-0.03,1.92,0.22-2.36-0.01-0.24c0.21-1.87,0.22-0.74-0.45,0.16
					c-1.88,2.55-4.89,4.07-7.91,4.85c-6.16,1.59-12.77,0.69-18.95-0.26c-7.39-1.13-14.72-2.61-21.99-4.37
					c-7.14-1.73-14.29-3.65-21.21-6.13c-6.55-2.35-7.84,17.31-2.34,19.28c12.39,4.44,25.37,7.62,38.29,10
					c13.52,2.49,32.79,5.89,40.37-9.15c4.06-8.05,5.64-23.85-2.91-29.68c-7.91-5.4-18.8-7.75-27.85-10.36
					c-12.12-3.5-24.43-6.5-36.86-8.66c-8.73-1.52-18.25-3.89-25.52,2.63c-12.31,11.04-14.57,32.89-7.69,47.36
					c6.4,13.46,16.68,25.49,26.81,36.26c13.66,14.52,28.81,27.66,48.13,33.75c12.2,3.85,25.53,6.05,38.37,5.38
					c-0.74-0.46-1.48-0.91-2.22-1.37c17.5,20.78,35,41.55,52.49,62.33c2.51,2.98,5.02,5.96,7.53,8.94c1.06,1.26,1.89,1.53,3.39,1.01
					c10.18-3.55,19.08-10.37,27.2-17.3c9.45-8.07,18.21-16.96,26.57-26.13c10.21-11.2,20.02-22.87,29.04-35.06
					c2.93-3.96,3.52-13.43,0-17.27c-15.05-16.42-30.1-32.83-45.15-49.25c0.67,3.76,1.35,7.53,2.02,11.29
					c2.41-16.88,3.54-34.27,2.55-51.3c-0.61-10.51-1.78-22.18-7.74-31.18c-5.17-7.81-10.73-15.36-15.81-23.24
					c-13.62-21.1-27.45-42.88-37.18-66.11c-5.26-12.56-9.9-25.62-20.33-34.96c-5.84-5.22-15.42-8.78-20.9-1.09
					c-3.36,4.72-4.46,11.17-5.23,16.76c-0.97,7-1.07,14.18-0.74,21.23c0.79,16.81,3.53,33.74,9.81,49.43c1.5,3.75,4.61,3.32,6.22,0
					C2685.38,1387.68,2685.05,1381.82,2683.38,1377.65L2683.38,1377.65z"/>
			</g>
		</g>
		<g id="glasses_6_">
			<g>
				<path class="st12" d="M3584.09,1187.31c-1.19,21.44,6.58,46.42,26.47,57.41c18.8,10.39,40.42,2.37,52.59-14.08
					c14.05-18.99,16.48-46.08,8.31-67.93c-7.1-18.99-25.08-35.08-46.51-31.31c-25.21,4.43-38.9,30.67-40.75,54.14
					c-0.16,2.08-0.42,7.14,2.05,8.2c2.46,1.06,3.48-3.02,3.61-4.66c1.42-17.99,11.41-35.87,28.86-42.62
					c16.71-6.47,34.36,1.52,43.79,15.96c10.4,15.92,10,37.4-0.05,53.39c-9.1,14.49-26.03,24.11-43.26,19.06
					c-20.31-5.95-30.33-27.75-29.24-47.56c0.09-1.71-0.43-6.67-2.93-6.67C3584.42,1180.64,3584.18,1185.75,3584.09,1187.31z"/>
			</g>
			<g>
				<path class="st12" d="M3453.5,1188.07c-1.08,19.9,6.03,43.12,24.45,53.42c17.4,9.72,37.44,2.37,48.8-12.86
					c13.11-17.56,15.42-42.78,8-63.09c-6.45-17.66-22.88-32.91-42.84-29.69c-23.73,3.82-36.56,28.51-38.32,50.45
					c-0.17,2.08-0.42,7.14,2.05,8.2c2.46,1.06,3.48-3.03,3.61-4.66c1.31-16.44,10.42-32.7,26.33-38.94
					c15.22-5.96,31.39,1.12,40.16,14.21c9.67,14.44,9.43,33.99,0.34,48.64c-8.25,13.29-23.59,22.16-39.39,17.86
					c-18.89-5.13-28.33-25.28-27.34-43.56c0.09-1.71-0.43-6.67-2.93-6.67C3453.83,1181.4,3453.59,1186.51,3453.5,1188.07z"/>
			</g>
			<g>
				<path class="st12" d="M3673.41,1204.78c13.95-5.93,28.38-10.91,42.85-15.41c26.58-8.26,54.78-15.33,82.79-14.99
					c13.14,0.16,27.02,2.07,37.94,9.93c3.16,2.27,5-10.38,1.56-12.86c-20.83-15-51.59-11.24-75.22-7.09
					c-25.77,4.52-51.03,12.23-75.54,21.31c-5.35,1.98-10.69,4.01-15.93,6.24C3668.22,1193.47,3669.21,1206.56,3673.41,1204.78
					L3673.41,1204.78z"/>
			</g>
			<g>
				<path class="st12" d="M3536.59,1199.83c3.18-2.53,7.58-3.82,11.48-4.6c12.69-2.54,25.95-0.03,38.05,3.98
					c4.45,1.48,5.22-11.64,1.56-12.86c-12.63-4.2-26.32-7.12-39.61-4.46c-4.36,0.87-9.47,2.24-13.04,5.08
					C3531.74,1189.59,3533.63,1202.18,3536.59,1199.83L3536.59,1199.83z"/>
			</g>
		</g>
		<g id="arm_l_3_">
			<path class="st1" d="M3797.5,1586.6c-9.33-22.87-20.76-45.51-25.6-68.52c-8.16-38.77-15.95-78.42-28.98-115.9
				c-11.54-33.18-47.98-55.42-75.78-74.2c-9.07-6.13-24.28-19.25-36.19-17.21c-5.51,0.94-11.76,5.83-16.42,8.67
				c-9.49,5.8-18.71,12.08-27.78,18.51c-15.03,10.64-75.49,47.38-36.99,64.74c-7.67,12.59-14.82,32.93,2.47,37.55
				c-8.94,17.95-13.99,43.21,12.38,45.3c-1.81,8.33-3.3,17.71-0.65,25.51c3.43,10.09,15.22,22.25,24.66,27.13
				c11.36,5.86,16.26-12.27,18.8-26.26c2.28,19.05,9.79,38.71,24.23,50.74c3.68,3.07,7.76,5.61,12.18,7.49
				c2.02,0.86,7.9,1.49,9.48,2.57c0.13,0.2,0.29,0.34,0.47,0.44c2.84,2.81,5.09,11.35,6.61,14.62
				c5.59,12.08,11.19,24.15,16.78,36.23c0.19,0.42,0.53,0.97,1.07,1c40.79,2.28,83.68-13.17,118.6-32.67
				c1.13-0.63,1.29-3.43,0.79-5.21C3797.59,1586.93,3797.55,1586.75,3797.5,1586.6z"/>
			<g>
				<path d="M3799.54,1581.96c-5.6-13.73-11.2-27.46-16.8-41.18c-1.5-3.69-3.01-7.37-4.51-11.06c-0.38-0.92-1.14-4.41-2.02-4.96
					c0.96,0.61,0.82,3.03,0.27,0.03c-0.36-1.96-0.81-3.92-1.21-5.87c-7.75-37.17-15.65-74.62-26.87-110.92
					c-4.25-13.73-8.45-26.2-18.68-36.58c-15-15.23-32.15-28.55-49.42-41.08c-8.46-6.14-17.09-12.09-26.07-17.46
					c-5.82-3.47-12.36-7.63-19.15-8.88c-4.63-0.86-9.38,2.25-13.27,4.4c-7.75,4.28-15.19,9.14-22.54,14.06
					c-17.28,11.59-34.44,23.82-50.05,37.61c-4.83,4.26-10.59,8.91-13.43,14.87c-5.36,11.23-0.98,25.15,9.15,31.77
					c2.36,1.54,4.95,2.86,7.62,3.79c-0.35-6.09-0.7-12.18-1.05-18.28c-6.38,8.5-12,18.66-13.14,29.36
					c-1.28,12.11,4.48,24.77,17.69,25.97c-0.74-6.21-1.48-12.42-2.22-18.63c-6.74,11.22-12.59,24.23-12.64,37.53
					c-0.04,8.81,3.18,17.44,11.13,21.96c4.3,2.44,9.74,3.81,14.7,3.85c-1.27-5.02-2.53-10.03-3.8-15.05
					c-2.39,10.22-4.25,21.35-2.95,31.84c1.29,10.32,8.46,18.57,15.63,25.6c3.88,3.8,14.05,15.14,20.54,11.67
					c6.41-3.43,8.8-15.86,10.54-22.05c1.97-7.02,3.6-14.17,4.94-21.34c-2.73-1.68-5.47-3.36-8.2-5.05
					c-0.58,33.76,14.08,74.28,50.56,82.05c-1.04-0.98-2.07-1.95-3.11-2.93c7.97,17.22,15.95,34.43,23.92,51.65
					c0.57,1.24,1.55,2.83,3.11,2.93c11.99,0.73,24.37-0.86,36.15-2.87c29.25-4.98,57.45-15.39,83.22-30.04
					c5.33-3.03,3.23-22.45-2.34-19.28c-25.45,14.47-53.15,24.76-82.07,29.53c-11.41,1.88-23.36,3.37-34.96,2.67
					c1.04,0.98,2.07,1.95,3.11,2.93c-7.8-16.84-15.28-33.86-23.41-50.54c-0.64-1.32-1.14-2.88-2.46-3.69
					c-1.37-0.83-3.71-0.89-5.23-1.34c-1.98-0.58-3.92-1.32-5.8-2.16c-5.99-2.69-11.44-6.58-15.77-11.52
					c-7.99-9.11-11.95-19.57-14.33-30.78c-0.11-0.52-0.21-1.05-0.32-1.57c-0.45-2.21,0.21,1.33-0.11-0.65
					c-0.23-1.41-0.45-2.82-0.63-4.24c-0.27-2.09-0.45-4.18-0.64-6.28c-0.28-3.01,0.02,2.03-0.02-0.32
					c-0.01-0.62-0.04-1.25-0.06-1.87c-0.02-0.56-0.02-1.12-0.01-1.68c0.04-2.53-0.39-8.26-3.23-9.64c-2.74-1.33-4.57,2.44-4.97,4.6
					c-1.25,6.67-2.76,13.31-4.53,19.86c-1.25,4.6-2.13,7.94-4.15,12.15c-0.09,0.19-1.03,1.99-0.43,0.87
					c-0.22,0.41-1.62,1.69-0.62,0.99c-0.71,0.49-0.44,0.38-1.92-0.13c-4.18-1.44-8.08-5.26-11.27-8.2
					c-4.05-3.73-7.9-7.93-11.01-12.49c-0.54-0.8-0.97-1.53-1.44-2.3c-0.12-0.2-1.1-2.55-0.36-0.63c0.56,1.48,0.09-0.65,0.11-1.24
					c0.03-1.27,0.14-2.34,0.3-3.74c0.5-4.49,0.9-6.79,1.81-10.69c0.7-3,1.69-15-3.8-15.05c-3-0.02-6.14-0.55-8.96-1.57
					c-2.56-0.92-5.34-2.32-7.15-4.41c-1.07-1.23-1.66-3.83-0.93-0.2c0.01,1.16,0.01,1.13,0-0.11c-0.05,0.86-0.04,0.92,0.04,0.18
					c0.49-3.42,2.73-8.99,4.65-13.03c0.91-1.92,1.9-3.8,2.89-5.68c1.04-1.97-0.3,0.43,0.71-1.25c2.01-3.35,2.5-7.45,2.02-11.29
					c-0.3-2.4-1.19-7.06-4.24-7.34c-1.92-0.17-3.77-0.74-5.48-1.64c-0.59-0.31-3.53-3.21-3.87-3.24c1.37,0.09-1.19,7.36,0.62,1.95
					c1.81-5.42,5.19-10.58,8.61-15.14c2.01-2.68,2.32-6.8,2.1-9.96c-0.14-2.06-0.63-7.43-3.15-8.31c-2.53-0.88-4.98-2.12-7.23-3.55
					c-1.78-1.13-3.06-2.61-4.66-3.87c-0.68-0.54-0.56-1.03-0.78-0.91c-0.24,0.13-0.06,5.36-0.21,5.98c-0.38,1.6-0.09,0.57,0,0.21
					c-0.23,0.97-0.85,1.15-0.02,0.15c0.33-0.4,0.62-0.85,0.95-1.25c0.86-1.09,1.81-2.11,2.78-3.11c2.34-2.44,4.85-4.66,7.44-6.89
					c15.1-13.07,31.46-24.81,48.03-35.93c7.2-4.84,14.49-9.59,22.05-13.84c2.45-1.37,4.92-2.65,7.48-3.8
					c0.42-0.19,0.87-0.37,1.31-0.51c0.21-0.06-0.79,0.06,0.2-0.04c0.85-0.08,1.6-0.05,2.45,0.07c4.89,0.67,11.58,4.92,16.44,7.79
					c8.61,5.09,16.88,10.75,25,16.58c16.6,11.93,33.17,24.59,47.74,38.97c2.43,2.4,4.83,4.87,6.98,7.53
					c0.69,0.86,1.33,1.75,1.98,2.64c0.14,0.19,0.97,1.61,0.41,0.63c-0.54-0.94,0.51,1.02,0.66,1.33c1.22,2.58,2.3,5.22,3.3,7.89
					c0.29,0.79,0.58,1.58,0.86,2.38c0.13,0.36,0.88,2.53,0.44,1.24c0.67,1.97,1.3,3.95,1.92,5.93
					c11.09,35.4,18.81,71.98,26.44,108.26c1.58,7.53,3.24,14.04,6.15,21.17c6.27,15.36,12.53,30.73,18.8,46.09
					c0.51,1.25,1.02,2.5,1.53,3.75c1.52,3.73,4.6,3.34,6.22,0C3801.53,1592,3801.23,1586.1,3799.54,1581.96z"/>
			</g>
			<g>
				<path d="M3647.53,1413.22c-16.55-0.7-33.75-1.6-50.2,0.65c-2.81,0.38-6.18,0.78-8.51,2.51c-2.85,2.1-4.5,6.04-6.01,9.1
					c-4.65,9.36-8.2,19.32-11.75,29.14c-2.71,7.49-5.32,15.02-7.82,22.59c-1.22,3.71-1.23,10.6,1.58,13.68
					c3.05,3.34,5.11-0.82,6.02-3.59c0.5-1.53,1.02-3.06,1.54-4.58c-0.66,1.93,0.23-0.65,0.41-1.18c0.3-0.87,0.6-1.75,0.91-2.62
					c0.8-2.29,1.6-4.59,2.42-6.87c3.44-9.67,6.96-19.35,11.18-28.71c1.59-3.53,2.47-5.68,4.18-7.85c0.74-0.94,0.14-0.15,0.06-0.1
					c0.34-0.21,0.76-0.5,1.16-0.59c0.66-0.15,2.59-0.61,3.93-0.81c9.61-1.44,19.54-1.29,29.23-1.24c7.23,0.04,14.47,0.18,21.7,0.49
					C3653.54,1433.48,3653.89,1413.49,3647.53,1413.22L3647.53,1413.22z"/>
			</g>
			<g>
				<path d="M3611.94,1502.92c2.09-10.05,4.19-20.11,6.28-30.16c0.83-3.98,1.45-10.37-1.58-13.68c-2.88-3.15-5.4,0.59-6.02,3.59
					c-2.09,10.05-4.19,20.11-6.28,30.16c-0.83,3.98-1.44,10.37,1.58,13.68C3608.8,1509.66,3611.32,1505.92,3611.94,1502.92
					L3611.94,1502.92z"/>
			</g>
			<g>
				<path d="M3684.69,1550.44c-6.58,7.57-18.64,13.69-29.21,9.84c-6.53-2.37-7.85,17.28-2.34,19.28
					c13.4,4.87,27.04-1.55,35.99-11.86c2.87-3.3,2.62-9.74,1.58-13.68C3689.96,1551.19,3687.61,1547.08,3684.69,1550.44
					L3684.69,1550.44z"/>
			</g>
			<g>
				<path d="M3554.89,1410.49c12.76-11.9,25.79-23.56,39.16-34.77c7.46-6.25,15.07-13.01,23.58-17.83
					c7.87-4.46,19.1-0.99,27.26,1.04c9.43,2.34,18.75,5.35,27.83,8.83c6.43,2.47,7.85-17.16,2.34-19.28
					c-7.9-3.04-16-5.65-24.15-7.95c-9.71-2.74-22.91-7.21-32.87-3.29c-7.91,3.11-15,9.88-21.48,15.18
					c-9.54,7.8-18.8,15.94-27.97,24.16c-5.39,4.83-10.75,9.7-16.04,14.63c-3.21,2.99-3.59,8.15-3.07,12.3
					C3549.66,1404.93,3551.81,1413.37,3554.89,1410.49L3554.89,1410.49z"/>
			</g>
			<g>
				<path d="M3667.28,1381.19c-7.54-1.68-15.12-3.19-22.72-4.58c-10.48-1.91-22.09-4.77-32.81-3.83
					c-7.68,0.67-13.89,8.06-19.05,13.08c-8.46,8.24-16.38,17.03-24.17,25.9c-4.97,5.66-9.89,11.36-14.69,17.15
					c-2.82,3.4-2.64,9.67-1.58,13.68c0.73,2.75,3.15,7.04,6.02,3.59c11.09-13.37,22.56-26.53,34.73-38.93
					c3.29-3.35,6.65-6.66,10.26-9.67c1.39-1.16,2.82-2.32,4.35-3.29c0.55-0.35,1.11-0.68,1.69-0.98c1.32-0.68,0.14-0.19,0.86-0.34
					c4.08-0.81,8.64-0.12,12.72,0.32c6,0.65,11.97,1.61,17.92,2.65c8.86,1.55,17.69,3.29,26.47,5.25
					C3672.42,1402.33,3673.94,1382.68,3667.28,1381.19L3667.28,1381.19z"/>
			</g>
			<g>
				<path d="M3665.7,1437.06c2.86,1.4,5.6,3.11,8.2,4.96c2.02,1.44,4,2.99,5.7,4.81c0.94,1,1.92,2.11,2.62,3.3
					c1.17,1.98,0.43,2.09,0.29-1.29c0.11,2.68,0.45,9.86,4.4,10c3.74,0.14,4.49-7.79,4.4-10c-0.4-9.68-4.14-17-11.43-23.26
					c-3.56-3.06-7.62-5.73-11.84-7.8C3662.13,1414.89,3660.22,1434.38,3665.7,1437.06L3665.7,1437.06z"/>
			</g>
			<g>
				<path d="M3690.08,1407.06c9.53,2.91,17,11.08,19.07,20.71c0.64,2.97,3.16,6.71,6.02,3.59c2.95-3.22,2.4-9.85,1.58-13.68
					c-2.73-12.67-11.28-25.92-24.33-29.91C3685.63,1385.7,3684.61,1405.39,3690.08,1407.06L3690.08,1407.06z"/>
			</g>
		</g>
	</g>
</g>
</svg>
