<?xml version="1.0" encoding="utf-8"?>
<!-- Generator: Adobe Illustrator 26.5.0, SVG Export Plug-In . SVG Version: 6.00 Build 0)  -->
<svg version="1.1" id="computer_designer_x27_s_work"
	 xmlns="http://www.w3.org/2000/svg" xmlns:xlink="http://www.w3.org/1999/xlink" x="0px" y="0px" viewBox="0 0 4361.14 3100"
	 style="enable-background:new 0 0 4361.14 3100;" xml:space="preserve">
<style type="text/css">
	.st0{fill:none;}
	.st1{fill:#2B8FA4;}
	.st2{fill:#FFFFFF;}
	.st3{fill:#F8EFE5;}
	.st4{fill:#F6C7B2;}
	.st5{fill:none;stroke:#000000;stroke-width:12;stroke-miterlimit:10;}
</style>
<rect id="bg" x="-433.85" class="st0" width="5200" height="3100"/>
<path d="M3925.31,1763.78l-1693.4-8.57c-15.65-0.08-28.28-12.83-28.2-28.49l6.03-1192c0.08-15.65,12.83-28.28,28.49-28.2
	l1693.4,8.57c15.65,0.08,28.28,12.83,28.2,28.49l-6.03,1192C3953.72,1751.24,3940.97,1763.86,3925.31,1763.78z"/>
<path class="st1" d="M3824.7,1576.55l-1479-8.57c-41.25-0.21-74.51-33.82-74.31-75.06l4.12-846.44
	c0.21-41.25,33.82-74.51,75.06-74.31l1479,8.57c41.25,0.21,74.51,33.82,74.31,75.06l-4.12,846.44
	C3899.55,1543.49,3865.94,1576.75,3824.7,1576.55z"/>
<ellipse class="st2" cx="3082.93" cy="1669.17" rx="60.55" ry="60.55"/>
<path d="M2869.17,1732.91l0.36,219.22c-21.21,53.29-135.47,114.1-123.93,136.34c16.41,31.61,563.69,30.09,580.53,9.42
	c15.05-18.48,9.68-42.3,23.89-86.99c10.12-31.82-10.56-276.81-10.56-276.81L2869.17,1732.91z"/>
<g>
	<path class="st2" d="M2851.18,1777.18c37.68-0.37,75.36-0.75,113.05-1.12c60.01-0.6,120.02-1.19,180.02-1.79
		c13.7-0.14,27.4-0.27,41.1-0.41c8.24-0.08,7.86-18.73-0.46-18.64c-37.68,0.37-75.36,0.75-113.05,1.12
		c-60.01,0.6-120.01,1.19-180.02,1.79c-13.7,0.14-27.4,0.27-41.1,0.41C2842.48,1758.62,2842.86,1777.27,2851.18,1777.18
		L2851.18,1777.18z"/>
</g>
<g>
	<g>
		<path class="st2" d="M3794.73,1406.32c-12.57-0.03-25.13-0.06-37.7-0.1c-34.19-0.09-68.38-0.17-102.58-0.26
			c-50.37-0.13-100.74-0.26-151.11-0.38c-61.65-0.16-123.31-0.31-184.96-0.47c-67.54-0.17-135.07-0.34-202.61-0.51
			c-67.94-0.17-135.87-0.34-203.81-0.52c-63.56-0.16-127.12-0.32-190.69-0.48c-53.7-0.14-107.4-0.27-161.1-0.41
			c-38.48-0.1-76.96-0.19-115.44-0.29c-18.07-0.05-36.83-1.54-54.86-0.14c-0.77,0.06-1.56,0-2.33-0.01
			c1.38,3.13,2.75,6.26,4.13,9.39c0.06-23.14,0.12-46.27,0.18-69.41c0.14-55.54,0.28-111.09,0.42-166.63
			c0.17-66.93,0.34-133.86,0.51-200.79c0.15-57.89,0.29-115.78,0.44-173.66c0.05-19.27,0.1-38.55,0.15-57.82
			c0.02-8.87,0.88-18.2,0.07-27.05c-0.04-0.4,0-0.81,0-1.21c-1.38,3.13-2.75,6.26-4.13,9.39c12.57,0.03,25.13,0.06,37.7,0.1
			c34.19,0.09,68.38,0.17,102.58,0.26c50.37,0.13,100.74,0.26,151.11,0.38c61.65,0.16,123.31,0.31,184.96,0.47
			c67.54,0.17,135.07,0.34,202.61,0.51c67.94,0.17,135.87,0.34,203.81,0.52c63.56,0.16,127.12,0.32,190.69,0.48
			c53.7,0.14,107.4,0.27,161.1,0.41c38.48,0.1,76.96,0.19,115.44,0.29c18.07,0.05,36.83,1.54,54.86,0.14c0.77-0.06,1.56,0,2.33,0.01
			c-1.38-3.13-2.75-6.26-4.13-9.39c-0.06,23.14-0.12,46.27-0.18,69.41c-0.14,55.54-0.28,111.09-0.42,166.63
			c-0.17,66.93-0.34,133.86-0.51,200.79c-0.15,57.89-0.29,115.78-0.44,173.66c-0.07,28.27-0.66,56.6-0.21,84.87
			c0.01,0.4,0,0.81,0,1.21c-0.01,2.41,0.52,9.39,4.13,9.39c3.59,0,4.13-7.2,4.13-9.39c0.06-23.14,0.12-46.27,0.18-69.41
			c0.14-55.54,0.28-111.09,0.42-166.63c0.17-66.93,0.34-133.86,0.51-200.79c0.15-57.89,0.29-115.78,0.44-173.66
			c0.07-28.27,0.66-56.6,0.21-84.87c-0.01-0.4,0-0.81,0-1.21c0.01-2.34-0.54-9.38-4.13-9.39c-12.56-0.03-25.13-0.06-37.7-0.1
			c-34.19-0.09-68.38-0.17-102.58-0.26c-50.37-0.13-100.74-0.26-151.11-0.38c-61.65-0.16-123.31-0.31-184.96-0.47
			c-67.54-0.17-135.07-0.34-202.61-0.51c-67.94-0.17-135.87-0.34-203.81-0.52c-63.56-0.16-127.12-0.32-190.69-0.48
			c-53.7-0.14-107.4-0.27-161.1-0.41c-38.48-0.1-76.96-0.19-115.44-0.29c-18.24-0.05-36.63-0.79-54.86-0.14
			c-0.77,0.03-1.56,0-2.33-0.01c-3.61-0.01-4.13,7.24-4.13,9.39c-0.06,23.14-0.12,46.27-0.18,69.41
			c-0.14,55.54-0.28,111.09-0.42,166.63c-0.17,66.93-0.34,133.86-0.51,200.79c-0.15,57.89-0.29,115.78-0.44,173.66
			c-0.07,28.27-0.66,56.6-0.21,84.87c0.01,0.4,0,0.81,0,1.21c-0.01,2.34,0.54,9.38,4.13,9.39c12.57,0.03,25.13,0.06,37.7,0.1
			c34.19,0.09,68.38,0.17,102.58,0.26c50.37,0.13,100.74,0.26,151.11,0.38c61.65,0.16,123.31,0.31,184.96,0.47
			c67.54,0.17,135.07,0.34,202.61,0.51c67.94,0.17,135.87,0.34,203.81,0.52c63.56,0.16,127.12,0.32,190.69,0.48
			c53.7,0.14,107.4,0.27,161.1,0.41c38.48,0.1,76.96,0.19,115.44,0.29c18.24,0.05,36.63,0.79,54.86,0.14c0.77-0.03,1.56,0,2.33,0.01
			C3800.51,1425.11,3800.58,1406.33,3794.73,1406.32z"/>
	</g>
	<g>
		<path class="st2" d="M2388.11,1193.71c12.62,0.03,25.23,0.06,37.85,0.1c34.03,0.09,68.05,0.17,102.08,0.26
			c50.65,0.13,101.29,0.26,151.94,0.38c61.37,0.16,122.74,0.31,184.1,0.47c67.67,0.17,135.35,0.34,203.02,0.51
			c67.85,0.17,135.7,0.34,203.54,0.52c63.69,0.16,127.39,0.32,191.08,0.48c53.46,0.14,106.93,0.27,160.39,0.41
			c38.71,0.1,77.42,0.2,116.13,0.29c18.17,0.05,36.5,0.8,54.66,0.14c0.79-0.03,1.59,0,2.39,0.01c5.78,0.01,5.86-18.76,0-18.78
			c-12.62-0.03-25.23-0.06-37.85-0.1c-34.03-0.09-68.05-0.17-102.08-0.26c-50.65-0.13-101.29-0.26-151.94-0.38
			c-61.37-0.16-122.74-0.31-184.1-0.47c-67.67-0.17-135.35-0.34-203.02-0.51c-67.85-0.17-135.7-0.34-203.54-0.52
			c-63.69-0.16-127.39-0.32-191.08-0.48c-53.46-0.14-106.93-0.27-160.39-0.41c-38.71-0.1-77.42-0.2-116.13-0.29
			c-18.17-0.05-36.5-0.8-54.66-0.14c-0.79,0.03-1.59,0-2.39-0.01C2382.33,1174.91,2382.25,1193.69,2388.11,1193.71L2388.11,1193.71z
			"/>
	</g>
	<g>
		<path class="st2" d="M2675.24,716.31c-0.04,15.55-0.08,31.11-0.12,46.66c-0.09,37.35-0.19,74.69-0.28,112.04
			c-0.11,45.01-0.23,90.01-0.34,135.02c-0.1,39.07-0.2,78.14-0.3,117.21c-0.05,18.99-0.41,38.02-0.14,57.01c0,0.27,0,0.54,0,0.81
			c-0.01,2.41,0.52,9.39,4.13,9.39c3.59,0,4.13-7.2,4.13-9.39c0.04-15.55,0.08-31.11,0.12-46.66c0.09-37.35,0.19-74.69,0.28-112.04
			c0.11-45.01,0.23-90.01,0.34-135.02c0.1-39.07,0.2-78.14,0.3-117.21c0.05-18.99,0.41-38.02,0.14-57.01c0-0.27,0-0.54,0-0.81
			c0.01-2.41-0.52-9.39-4.13-9.39C2675.78,706.92,2675.24,714.12,2675.24,716.31L2675.24,716.31z"/>
	</g>
	<g>
		<path class="st2" d="M3047.99,717.25c-0.04,15.55-0.08,31.11-0.12,46.66c-0.09,37.35-0.19,74.69-0.28,112.04
			c-0.11,45.01-0.23,90.01-0.34,135.02c-0.1,39.07-0.2,78.14-0.3,117.21c-0.05,18.99-0.41,38.02-0.14,57.01c0,0.27,0,0.54,0,0.81
			c-0.01,2.41,0.52,9.39,4.13,9.39c3.59,0,4.13-7.2,4.13-9.39c0.04-15.55,0.08-31.11,0.12-46.66c0.09-37.35,0.19-74.69,0.28-112.04
			c0.11-45.01,0.23-90.01,0.34-135.02c0.1-39.07,0.2-78.14,0.3-117.21c0.05-18.99,0.41-38.02,0.14-57.01c0-0.27,0-0.54,0-0.81
			c0.01-2.41-0.52-9.39-4.13-9.39C3048.53,707.86,3048,715.06,3047.99,717.25L3047.99,717.25z"/>
	</g>
	<g>
		<path class="st2" d="M3306.51,1132.7c-19.4-0.05-38.8-0.1-58.21-0.15c-30.94-0.08-61.89-0.16-92.83-0.23
			c-7.13-0.02-14.25-0.04-21.38-0.05c1.38,3.13,2.75,6.26,4.13,9.39c0.08-32.59,0.16-65.18,0.25-97.77
			c0.13-51.88,0.26-103.76,0.39-155.64c0.03-11.82,0.06-23.64,0.09-35.47c-1.38,3.13-2.75,6.26-4.13,9.39
			c19.4,0.05,38.8,0.1,58.21,0.15c30.94,0.08,61.89,0.16,92.83,0.24c7.13,0.02,14.25,0.04,21.38,0.05
			c-1.38-3.13-2.75-6.26-4.13-9.39c-0.08,32.59-0.17,65.18-0.25,97.77c-0.13,51.88-0.26,103.76-0.39,155.64
			c-0.03,11.82-0.06,23.64-0.09,35.47c-0.01,2.41,0.52,9.39,4.13,9.39c3.59,0,4.13-7.2,4.13-9.39c0.08-32.59,0.17-65.18,0.25-97.77
			c0.13-51.88,0.26-103.76,0.39-155.64c0.03-11.82,0.06-23.64,0.09-35.47c0.01-2.34-0.54-9.38-4.13-9.39
			c-19.4-0.05-38.81-0.1-58.21-0.15c-30.94-0.08-61.89-0.16-92.83-0.23c-7.13-0.02-14.25-0.04-21.38-0.05
			c-3.61-0.01-4.13,7.24-4.13,9.39c-0.08,32.59-0.17,65.18-0.25,97.77c-0.13,51.88-0.26,103.76-0.39,155.64
			c-0.03,11.82-0.06,23.64-0.09,35.47c-0.01,2.34,0.54,9.38,4.13,9.39c19.4,0.05,38.8,0.1,58.21,0.15
			c30.94,0.08,61.89,0.16,92.83,0.23c7.13,0.02,14.25,0.04,21.38,0.05C3312.29,1151.5,3312.36,1132.72,3306.51,1132.7z"/>
	</g>
	<g>
		<path class="st2" d="M3006.1,1355.04c-18.24-0.05-36.49-0.09-54.73-0.14c-43.63-0.11-87.26-0.22-130.89-0.33
			c-52.75-0.13-105.5-0.27-158.25-0.4c-45.72-0.12-91.44-0.23-137.16-0.35c-14.96-0.04-29.92-0.08-44.89-0.11
			c-6.92-0.02-14.48-0.9-21.36-0.05c-0.31,0.04-0.64,0-0.96,0c1.38,3.13,2.75,6.26,4.13,9.39c0.09-36.11,0.18-72.23,0.27-108.34
			c0.01-5.13,0.03-10.26,0.04-15.39c-1.38,3.13-2.75,6.26-4.13,9.39c18.24,0.05,36.49,0.09,54.73,0.14
			c43.63,0.11,87.26,0.22,130.89,0.33c52.75,0.13,105.5,0.27,158.25,0.4c45.72,0.12,91.44,0.23,137.16,0.35
			c14.96,0.04,29.92,0.08,44.89,0.11c6.92,0.02,14.48,0.9,21.36,0.05c0.31-0.04,0.64,0,0.96,0c-1.38-3.13-2.75-6.26-4.13-9.39
			c-0.09,36.11-0.18,72.23-0.27,108.34c-0.01,5.13-0.03,10.26-0.04,15.39c-0.01,2.41,0.52,9.39,4.13,9.39c3.59,0,4.13-7.2,4.13-9.39
			c0.09-36.11,0.18-72.23,0.27-108.34c0.01-5.13,0.03-10.26,0.04-15.39c0.01-2.34-0.54-9.38-4.13-9.39
			c-18.24-0.05-36.49-0.09-54.73-0.14c-43.63-0.11-87.26-0.22-130.89-0.33c-52.75-0.13-105.5-0.27-158.25-0.4
			c-45.72-0.12-91.44-0.23-137.16-0.35c-14.96-0.04-29.93-0.08-44.89-0.11c-7.03-0.02-14.34-0.61-21.36-0.05
			c-0.31,0.02-0.64,0-0.96,0c-3.61-0.01-4.13,7.24-4.13,9.39c-0.09,36.11-0.18,72.23-0.27,108.34c-0.01,5.13-0.03,10.26-0.04,15.39
			c-0.01,2.34,0.54,9.38,4.13,9.39c18.24,0.05,36.49,0.09,54.73,0.14c43.63,0.11,87.26,0.22,130.89,0.33
			c52.75,0.13,105.5,0.27,158.25,0.4c45.72,0.12,91.44,0.23,137.16,0.35c14.96,0.04,29.93,0.08,44.89,0.11
			c7.03,0.02,14.34,0.61,21.36,0.05c0.31-0.02,0.64,0,0.96,0C3011.88,1373.84,3011.96,1355.06,3006.1,1355.04z"/>
	</g>
	<g>
		<path class="st2" d="M3755.43,907.01c-31.8-0.08-63.6-0.16-95.41-0.24c-4.48-0.01-8.95-0.02-13.43-0.03
			c1.38,3.13,2.75,6.26,4.13,9.39c0.11-44.58,0.23-89.15,0.34-133.73c0.02-6.41,0.03-12.82,0.05-19.23
			c-1.38,3.13-2.75,6.26-4.13,9.39c31.8,0.08,63.6,0.16,95.41,0.24c4.48,0.01,8.95,0.02,13.43,0.03c-1.38-3.13-2.75-6.26-4.13-9.39
			c-0.11,44.58-0.23,89.15-0.34,133.73c-0.02,6.41-0.03,12.82-0.05,19.23c-0.01,2.41,0.52,9.39,4.13,9.39c3.59,0,4.13-7.2,4.13-9.39
			c0.11-44.58,0.23-89.15,0.34-133.73c0.02-6.41,0.03-12.82,0.05-19.23c0.01-2.34-0.54-9.38-4.13-9.39
			c-31.8-0.08-63.6-0.16-95.41-0.24c-4.48-0.01-8.95-0.02-13.43-0.03c-3.61-0.01-4.13,7.24-4.13,9.39
			c-0.11,44.58-0.23,89.15-0.34,133.73c-0.02,6.41-0.03,12.82-0.05,19.23c-0.01,2.34,0.54,9.38,4.13,9.39
			c31.8,0.08,63.6,0.16,95.41,0.24c4.48,0.01,8.95,0.02,13.43,0.03C3761.21,925.81,3761.28,907.03,3755.43,907.01z"/>
	</g>
	<g>
		<path class="st2" d="M2642.63,820.56c-24.39-0.06-48.78-0.12-73.17-0.19c-39.05-0.1-78.11-0.2-117.16-0.3
			c-8.92-0.02-17.83-0.05-26.75-0.07c1.38,3.13,2.75,6.26,4.13,9.39c0.06-23.11,0.12-46.21,0.18-69.32
			c-1.38,3.13-2.75,6.26-4.13,9.39c24.39,0.06,48.78,0.12,73.17,0.19c39.05,0.1,78.11,0.2,117.16,0.3
			c8.92,0.02,17.83,0.05,26.75,0.07c-1.38-3.13-2.75-6.26-4.13-9.39c-0.06,23.11-0.12,46.21-0.18,69.32
			c-0.01,2.41,0.52,9.39,4.13,9.39c3.59,0,4.13-7.2,4.13-9.39c0.06-23.11,0.12-46.21,0.18-69.32c0.01-2.34-0.54-9.38-4.13-9.39
			c-24.39-0.06-48.78-0.12-73.16-0.19c-39.05-0.1-78.11-0.2-117.16-0.3c-8.92-0.02-17.83-0.05-26.75-0.07
			c-3.61-0.01-4.13,7.24-4.13,9.39c-0.06,23.11-0.12,46.21-0.18,69.32c-0.01,2.34,0.54,9.38,4.13,9.39
			c24.39,0.06,48.78,0.12,73.16,0.19c39.05,0.1,78.11,0.2,117.16,0.3c8.92,0.02,17.83,0.05,26.75,0.07
			C2648.41,839.35,2648.49,820.57,2642.63,820.56z"/>
	</g>
	<g>
		<path class="st2" d="M2890.39,1073.87c-0.3,22.07-17.15,40.92-37.33,48.08c-21.89,7.76-47.72,1.2-63.03-16.29
			c-14.4-16.45-17.23-38.9-4.94-57.42c12.96-19.53,36.73-29.17,59.7-24.94C2868.74,1027.71,2890.17,1048.74,2890.39,1073.87
			c0.02,2.42,0.5,9.39,4.13,9.39c3.57,0,4.15-7.2,4.13-9.39c-0.25-28.2-15.16-55.91-42.48-66.16c-26.01-9.76-55.55-1.32-72.59,20.62
			c-17.71,22.8-19.63,56.93-5.7,82.02c13.41,24.16,41.22,38.07,68.59,32.23c32.41-6.92,51.74-36.72,52.18-68.7
			c0.03-2.41-0.54-9.39-4.13-9.39C2890.91,1064.48,2890.42,1071.68,2890.39,1073.87z"/>
	</g>
	<g>
		<path class="st2" d="M3667.34,1171.11c-0.29,19.66-15.62,36.38-33.53,42.72c-19.62,6.94-42.85,1.14-56.65-14.47
			c-12.89-14.58-15.6-34.29-4.6-50.8c11.66-17.5,32.94-26.13,53.55-22.45C3647.48,1129.92,3667.12,1148.59,3667.34,1171.11
			c0.02,2.42,0.5,9.39,4.13,9.39c3.57,0,4.15-7.2,4.13-9.39c-0.26-25.79-13.65-51.35-38.72-60.78
			c-23.75-8.93-50.68-1.25-66.22,18.83c-16.18,20.9-17.99,52.36-5.32,75.38c12.16,22.11,37.42,35.03,62.48,29.73
			c29.87-6.32,47.34-33.8,47.78-63.16c0.04-2.41-0.54-9.39-4.13-9.39C3667.86,1161.72,3667.37,1168.92,3667.34,1171.11z"/>
	</g>
</g>
<path d="M2515.88,2132.13c0,0-183.16,138.29-188.65,185.69s1188.83,35.21,1226.2,32.64c37.37-2.56,59.83-224.36,40.54-215.6
	C3574.67,2143.62,2567.5,2136.69,2515.88,2132.13z"/>
<g>
	<path class="st2" d="M2420.52,2293.9c67.33,0.17,134.67,0.8,201.99,1.62c72.19,0.88,144.39,2,216.58,3.2
		c74.04,1.22,148.07,2.52,222.11,3.76c72.9,1.22,145.8,2.39,218.7,3.33c67.84,0.88,135.69,1.58,203.54,1.86
		c7.88,0.03,15.77,0.06,23.65,0.08c8.22,0.02,7.88-18.62-0.46-18.64c-67.33-0.17-134.67-0.8-201.99-1.62
		c-72.19-0.88-144.39-2-216.58-3.2c-74.04-1.22-148.07-2.52-222.11-3.76c-72.9-1.22-145.8-2.39-218.7-3.33
		c-67.84-0.88-135.69-1.58-203.54-1.86c-7.88-0.03-15.77-0.06-23.65-0.08C2411.84,2275.23,2412.18,2293.87,2420.52,2293.9
		L2420.52,2293.9z"/>
</g>
<path d="M3657.88,2134.75c0,0,77.37,173.54,184.38,198.91s70.63-225.92,0.65-256.62S3656.52,2015.89,3657.88,2134.75z"/>
<g>
	<path class="st2" d="M3696.87,2057.72c46.38,10.01,85.89,43.88,101.66,88.79c1.28,3.65,5.23,5.83,8.46,3.14
		c3.52-2.93,3.23-8.98,1.88-12.81c-16.89-48.11-59.2-86.39-109.19-97.18C3690.73,2037.73,3689.33,2056.09,3696.87,2057.72
		L3696.87,2057.72z"/>
</g>
<path d="M862.86,990.9c2.14-7.13-6.41-12.57-11.98-7.62c-32.05,28.48-132.23,71.14-136.56,70.06c-5.91-1.48-442.17-5.57-501.34-1.27
	c-59.17,4.3-69.57,23.06-108.29,128.92s-84.83,209.56-22.73,215.48c62.1,5.92,518.07,7.25,552.13-0.06
	c21.37-4.58,87.17-176.98,127.96-306.6C762.05,1089.81,855.38,1015.88,862.86,990.9z"/>
<g>
	<path d="M866.43,995.64c1.46-6.75,1.51-15.45-3.82-20.66c-3.96-3.88-9.3-3.64-13.42-0.24c-6.51,5.39-13.35,10.23-20.51,14.73
		c-18.1,11.38-37.22,21.14-56.49,30.35c-15.84,7.57-31.87,14.88-48.28,21.14c-4.93,1.88-7.17,3.05-12.1,2.81
		c-15.49-0.75-31.05-0.72-46.55-0.94c-29.86-0.43-59.72-0.74-89.59-1.01c-37.14-0.34-74.28-0.6-111.42-0.78
		c-37.21-0.19-74.42-0.3-111.64-0.27c-30.62,0.02-61.24,0.11-91.86,0.52c-19.28,0.26-38.81,0.07-57.99,2.34
		c-13.33,1.58-26.99,4.65-38.28,12.25c-12.23,8.23-20.63,20.62-27.62,33.34c-10.85,19.75-18.73,41.16-26.63,62.21
		c-11.17,29.78-22.28,59.61-33.15,89.5c-9.52,26.17-19.04,52.64-24.99,79.89c-4.37,19.99-7.89,42.6-0.69,62.37
		c5.29,14.54,17.34,21.53,32.28,22.82c7.6,0.65,15.23,0.97,22.84,1.28c26.11,1.07,52.24,1.56,78.37,2
		c35.78,0.6,71.57,0.96,107.36,1.2c39.14,0.26,78.28,0.35,117.42,0.29c36.28-0.06,72.56-0.25,108.83-0.71
		c27.1-0.34,54.21-0.75,81.3-1.79c8.29-0.32,16.59-0.66,24.86-1.34c4.81-0.39,10.31-0.38,14.23-3.54c9-7.28,14.71-19.39,20.01-29.35
		c9.27-17.43,17.27-35.55,24.99-53.71c20.78-48.95,39.1-98.98,56.43-149.25c8.76-25.4,17.21-50.9,25.29-76.53
		c-0.82,1.44-1.65,2.88-2.47,4.32c30.43-24.12,61.27-49.46,87.14-78.5C856.81,1013.04,863.44,1005.14,866.43,995.64
		c1.11-3.52,1.18-9.93-1.48-12.85c-2.85-3.12-4.82,0.74-5.65,3.37c0.7-2.23-0.48,0.96-0.86,1.73c-0.57,1.15-0.51,1.01-1.6,2.68
		c-1.97,3.02-4.19,5.87-6.48,8.64c-5.77,6.97-12.1,13.48-18.55,19.83c-14.17,13.95-29.18,27.06-44.36,39.9
		c-8.58,7.26-17.98,13.91-26.2,21.56c-3.09,2.88-3.76,7.69-5.01,11.62c-2.22,6.97-4.46,13.93-6.73,20.88
		c-4.48,13.72-9.06,27.4-13.75,41.05c-18.31,53.35-37.69,106.47-59.99,158.3c-7.87,18.31-16,36.66-25.79,54.04
		c-2.78,4.95-6.14,10.51-9.9,15.19c-0.7,0.88-1.44,1.73-2.2,2.55c-1.15,1.25-0.14,0.36-1.34,1.26c-0.61,0.46-1.22,0.88-1.87,1.29
		c-1.15,0.72-0.4,0.27-0.76,0.36c-5.45,1.36-11.51,1.31-17.08,1.64c-10.46,0.62-20.93,0.98-31.4,1.29
		c-31.83,0.95-63.68,1.33-95.52,1.62c-39.91,0.36-79.83,0.46-119.74,0.42c-40.95-0.05-81.89-0.26-122.83-0.67
		c-34.39-0.35-68.79-0.81-103.17-1.65c-20.34-0.5-40.82-0.68-61.1-2.51c-7.14-0.64-14.48-2.45-19.84-7.54
		c-5.44-5.16-6.75-11.16-7.36-17.12c-0.28-2.72-0.2-8.13,0.08-11.47c0.45-5.24,1.2-10.46,2.2-15.63
		c2.56-13.31,6.32-26.4,10.38-39.32c9.68-30.86,21.48-61.03,32.75-91.33c10.26-27.58,19.81-55.51,31.74-82.43
		c6.7-15.12,14.28-31.24,26.56-42.73c10.07-9.43,22.95-14.06,36.36-16.24c20.93-3.41,42.62-2.98,63.76-3.27
		c32.45-0.45,64.91-0.53,97.36-0.54c39.85-0.02,79.71,0.12,119.56,0.34c38.58,0.21,77.16,0.5,115.74,0.87
		c29.28,0.28,58.55,0.6,87.83,1.08c8.43,0.14,16.86,0.28,25.29,0.5c3.12,0.08,6.58,0.66,9.68,0.33c4.38-0.47,9.12-2.89,13.17-4.47
		c8-3.12,15.89-6.51,23.74-9.99c20.54-9.11,40.82-18.93,60.47-29.84c8.94-4.97,17.77-10.17,26.22-15.94
		c3.46-2.36,6.85-4.81,10.1-7.45c1.46-1.18,2.93-2.91,4.65-3.69c1.13-0.51,2.53-0.72,3.77-0.35c4.63,1.37-0.09,4.87,2-4.77
		c-0.81,3.72-1.34,9.76,1.48,12.85C863.49,1001.98,865.82,998.44,866.43,995.64z"/>
</g>
<g>
	<path class="st3" d="M166.53,1222.01c10.28-18.99,24.11-35.48,40.91-49.03c13.56-10.94,30.08-23.17,48.44-17.71
		c7.42,2.21,14.17,6.61,18.48,12.64c3.41,4.76,4.41,8.7,5.41,14.78c0.87,5.27,1.62,10.58,2.61,15.84
		c1.03,5.46,3.07,11.21,8.23,14.05c4.98,2.74,11.8,2.05,17.3,1.73c46.02-2.65,82.49-33.42,124.58-48.15
		c7.56-2.65,17.36-4.97,25.02-1.44c8.09,3.73,7.67,14.96,10.53,22.28c6.95,17.82,22.98,30.68,41.98,32.98
		c24.86,3.01,45.58-16.87,63.52-31.12c16.52-13.12,42.89-30.05,64.11-16.46c11.41,7.31,16.32-16.15,7.71-21.67
		c-19.95-12.78-44.23-7.78-63.29,4.34c-10.43,6.64-19.77,14.68-29.48,22.29c-8.61,6.74-18.33,14.14-29.08,17
		c-15.32,4.07-33.09-3.57-40.1-16.69c-4.59-8.58-4.23-19.87-11.27-28.59c-6.73-8.33-16.85-11.56-27.33-10.69
		c-10.67,0.88-20.74,5.01-30.42,9.31c-10.65,4.72-21.01,10.06-31.39,15.34c-19.98,10.15-40.69,20.97-62.98,24.91
		c-5.26,0.93-10.59,1.51-15.93,1.65c-1.32,0.03-7.45-0.76-8.02-0.14c0.72,1.19,1.44,2.38,2.16,3.57c-0.09-0.48-0.17-0.95-0.26-1.43
		c-0.02-0.32-0.11-0.65-0.16-0.97c-0.95-5.56-1.81-11.14-2.75-16.7c-3.04-17.88-13.96-33.88-30.92-41.11
		c-9.26-3.94-19.54-4.65-29.27-2.32c-11.33,2.71-21.29,10-30.52,16.84c-20.48,15.17-37.66,34.97-49.79,57.39
		c-2.85,5.27-3.15,12.52,0.43,17.58C158.01,1226.55,163.84,1226.99,166.53,1222.01L166.53,1222.01z"/>
</g>
<g>
	<path class="st3" d="M166.26,1329.24c10.28-18.99,24.11-35.48,40.91-49.03c13.56-10.94,30.08-23.17,48.44-17.71
		c7.42,2.21,14.17,6.61,18.48,12.64c3.41,4.76,4.41,8.7,5.41,14.78c0.87,5.27,1.62,10.58,2.61,15.84
		c1.03,5.46,3.07,11.21,8.23,14.05c4.98,2.74,11.8,2.05,17.3,1.73c46.02-2.65,82.49-33.42,124.58-48.15
		c7.56-2.65,17.36-4.97,25.02-1.44c8.09,3.73,7.67,14.96,10.53,22.28c6.95,17.82,22.98,30.68,41.98,32.98
		c24.86,3.01,45.58-16.87,63.52-31.12c16.52-13.12,42.89-30.05,64.11-16.46c11.41,7.31,16.32-16.15,7.71-21.67
		c-19.95-12.78-44.23-7.78-63.29,4.34c-10.43,6.64-19.77,14.68-29.48,22.29c-8.61,6.74-18.33,14.14-29.08,17
		c-15.32,4.07-33.09-3.57-40.1-16.69c-4.59-8.58-4.23-19.87-11.27-28.59c-6.73-8.33-16.85-11.56-27.33-10.69
		c-10.67,0.88-20.74,5.01-30.42,9.31c-10.65,4.72-21.01,10.06-31.39,15.34c-19.98,10.15-40.69,20.97-62.98,24.91
		c-5.26,0.93-10.59,1.51-15.93,1.65c-1.32,0.03-7.45-0.76-8.02-0.14c0.72,1.19,1.44,2.38,2.16,3.57c-0.09-0.48-0.17-0.95-0.26-1.43
		c-0.02-0.32-0.11-0.65-0.16-0.97c-0.95-5.56-1.81-11.14-2.75-16.7c-3.04-17.88-13.96-33.88-30.92-41.11
		c-9.26-3.94-19.54-4.65-29.27-2.32c-11.33,2.71-21.29,10-30.52,16.84c-20.48,15.17-37.66,34.97-49.79,57.39
		c-2.85,5.27-3.15,12.52,0.43,17.58C157.74,1333.79,163.56,1334.23,166.26,1329.24L166.26,1329.24z"/>
</g>
<path class="st4" d="M1001.48,1306.63c0,0-273.4,51.18-330.38,153.1c-56.99,101.92-42.83,594.4-42.45,741.46
	s36.53,205.89,79.01,224.22c42.48,18.32,163.85,9.96,163.85,9.96s-24.35,289.89,72.99,328.34s422.08,23.62,573.54-46.96
	s343.8-113.7,389.72-131.64c132.93-51.93,176.26-115.81,176.47-199.87c0.12-45.69-204.37-296.17-204.37-296.17
	s60.94,81.95,189.81,82.28c124.99,0.32,369.39-163.12,389.29-196.59c19.91-33.47,17.33-162.03-8.43-187.48
	s-415.12,39.99-415.12,39.99s-361.19-483.91-427.48-510.1c-66.29-26.2-229.6,7.54-229.6,7.54L1001.48,1306.63z"/>
<g>
	<path d="M985.74,1806.32c-6.53,58.76-8.3,118.01-5.11,177.05c0.19,3.58,1.87,9.2,6.35,9.17c4.33-0.02,6.07-6.1,5.89-9.47
		c-3.1-57.4-1.56-114.95,4.79-172.08c0.42-3.82-0.3-9.81-4.56-11.36C989.01,1798.13,986.12,1802.89,985.74,1806.32L985.74,1806.32z"
		/>
</g>
<g>
	<path d="M804.1,2108.27c37.63-30.79,78.29-57.69,121.41-80.17c21.45-11.18,43.89-22.72,68.02-26.57
		c25.18-4.02,50.99-0.75,76.35-1.73c51.61-1.98,102.16-13.35,152.32-24.84c42.68-9.77,94.75-19.48,130.14,13.78
		c6.58,6.18,11.89,13.8,14.74,22.41c3.62,10.93,3.01,22.81,1.62,34.07c-3.16,25.55-7.68,50.83-10.15,76.49
		c-2.52,26.12-4.02,52.36-4.45,78.6c-0.21,13.03-0.16,26.07,0.16,39.11c0.3,12.18,1.66,24.58,0.87,36.75
		c-0.64,9.8-3.67,18.82-10.61,25.93c-6.55,6.72-14.78,11.27-23.35,14.92c-20.28,8.64-42.44,13.65-63.76,18.98
		c-46.35,11.58-93.39,20.17-140.43,28.44c-93.66,16.47-188.53,31.59-277.87,65.39c-11.17,4.23-22.22,8.75-33.15,13.56
		c-7.18,3.16-4.51,21.51,3.7,17.9c90.66-39.91,188.59-57.37,285.57-74.32c49.06-8.58,98.13-17.15,146.66-28.44
		c23.27-5.41,46.64-11.16,69.36-18.57c18.31-5.98,37.51-14.86,47.76-32.08c12.81-21.53,7.89-48.89,7.41-72.66
		c-0.55-26.86-0.01-53.77,1.76-80.57c1.79-26.99,4.74-53.91,8.82-80.65c3.79-24.84,9.13-50.96-0.57-75.18
		c-7.54-18.83-23.19-33.03-41.22-41.68c-20.93-10.04-44.66-11.65-67.47-9.26c-27.04,2.84-53.47,10.36-79.98,16.14
		c-25.81,5.62-51.78,10.65-78.01,13.84c-26.25,3.2-52.29,3.72-78.69,3.24c-13.31-0.24-26.71-0.19-39.87,2.11
		c-11.96,2.09-23.55,5.81-34.75,10.44c-23.25,9.62-45.61,21.91-67.26,34.68c-21.67,12.78-42.68,26.7-62.92,41.64
		c-9.77,7.21-19.34,14.68-28.73,22.37C791.61,2097.16,796.27,2114.68,804.1,2108.27L804.1,2108.27z"/>
</g>
<g>
	<path class="st2" d="M1939.51,1910.05c15.23-21.06,32.99-40.19,52.79-57.03c9.9-8.42,20.29-16.31,31.17-23.43
		c11.15-7.3,23.32-14.36,37.12-12.28c4.32,0.65,5.96-6.52,5.89-9.47c-0.1-4.13-1.94-8.51-6.35-9.17
		c-14.45-2.18-27.92,4.92-39.65,12.56c-11.64,7.57-22.84,15.81-33.46,24.75c-21.3,17.93-40.18,38.55-56.49,61.1
		C1925.91,1903.46,1932.88,1919.22,1939.51,1910.05L1939.51,1910.05z"/>
</g>
<path class="st1" d="M902.52,1330.91c0,0,226.39,203.26,389.17,232.23s197.51-20.25,208.85-55.85s-18.91-200.7-18.91-200.7
	s86.73-7.13,95.19-3.93c8.45,3.19,38.28,125.23,38.2,156.52s-2.87,90.5-2.87,90.5s97.92,170.33,114.25,237.13
	s25.81,113.79,25.81,113.79s-139.05,27.35-145.85,25.12c-6.79-2.24-33.61-98.24-46.21-135.01c-5.81-16.95-49.03-112.17-49.03-112.17
	s-81.58,73.75-231.01,30.79s-446.25-177.24-524.13-324.28C755.99,1385.03,825.78,1334.24,902.52,1330.91z"/>
<g>
	<path class="st2" d="M999.55,1368.49c-55.35,24.15-107.32,55.98-154,94.3c-13.18,10.82-25.9,22.17-38.2,33.98
		c-3.24,3.11-3.55,8.84-1.88,12.81c1.4,3.32,5.22,6.25,8.46,3.14c42.74-41.08,90.96-76.21,143.28-104.09
		c15.05-8.02,30.41-15.42,46.04-22.23C1010.43,1383.25,1007.77,1364.9,999.55,1368.49L999.55,1368.49z"/>
</g>
<g>
	<path class="st2" d="M1100.12,1446.79c-34.82,50.91-63.87,105.64-86.7,162.93c-1.52,3.82-0.92,10,2.51,12.7
		c3.56,2.8,6.91-0.07,8.29-3.55c22.31-56.01,50.84-109.35,84.87-159.11c2.46-3.59,2.22-9.7-0.32-13.18
		C1106.27,1443.14,1102.48,1443.35,1100.12,1446.79L1100.12,1446.79z"/>
</g>
<g>
	<path class="st2" d="M1224.05,1517.37c-8.21,58.5-19.24,116.57-33.04,174.01c-0.88,3.68,0.61,9.92,4.56,11.36
		c4.4,1.61,6.58-3.41,7.37-6.7c13.8-57.44,24.83-115.51,33.04-174.01c0.53-3.79-0.37-9.83-4.56-11.36
		C1227.25,1509.15,1224.52,1513.97,1224.05,1517.37L1224.05,1517.37z"/>
</g>
<g>
	<path class="st2" d="M1385.87,1556.38c10.91,58.45,22.75,116.72,35.49,174.8c0.76,3.48,3.53,7.92,7.69,6.33
		c4.06-1.56,4.77-8.03,3.99-11.57c-12.75-58.08-24.58-116.35-35.49-174.8c-0.66-3.52-3.61-7.89-7.69-6.33
		C1385.72,1546.4,1385.2,1552.81,1385.87,1556.38L1385.87,1556.38z"/>
</g>
<g>
	<path class="st2" d="M1503.4,1707.54c42.74-41.16,83.97-86.37,107.72-141.49c6.7-15.55,11.66-31.77,14.95-48.38
		c0.74-3.73-0.51-9.88-4.56-11.36c-4.3-1.57-6.71,3.36-7.37,6.7c-11.01,55.69-45.28,103.26-83.2,144.09
		c-11.01,11.85-22.45,23.29-34.11,34.5c-3.24,3.12-3.55,8.84-1.88,12.81C1496.34,1707.72,1500.17,1710.66,1503.4,1707.54
		L1503.4,1707.54z"/>
</g>
<g>
	<path class="st2" d="M1477.21,1507.81c39.47,23.28,70,60.39,85.65,103.39c1.32,3.63,5.21,5.84,8.46,3.14
		c3.49-2.91,3.27-9,1.88-12.81c-17.04-46.84-50.3-86.49-93.17-111.78c-3.89-2.29-6.92,3.87-7.37,6.7
		C1471.95,1500.84,1473.28,1505.49,1477.21,1507.81L1477.21,1507.81z"/>
</g>
<g>
	<path class="st2" d="M1487.92,1399.02c42.57,6.74,84.78,15.56,126.51,26.32c8.83,2.28,10.34-16.11,2.81-18.06
		c-42.8-11.04-86.12-19.99-129.78-26.91c-4.31-0.68-5.96,6.54-5.89,9.47C1481.67,1394,1483.51,1398.32,1487.92,1399.02
		L1487.92,1399.02z"/>
</g>
<g>
	<path class="st2" d="M1662.31,1627.32c-28.24,60.56-61.23,120.69-111.28,166.1c-5.64,5.12-0.86,22.69,6.57,15.95
		c52.11-47.27,86.13-109.89,115.51-172.9C1676.8,1628.54,1667.46,1616.28,1662.31,1627.32L1662.31,1627.32z"/>
</g>
<g>
	<path class="st2" d="M1740.08,1797.02c-43.97,47.54-100.2,82.49-162.26,101c-7.4,2.21-5.09,20.52,3.7,17.9
		c62.98-18.78,120.51-54.7,165.13-102.95c3.09-3.34,3.62-8.67,1.88-12.81C1747.22,1797.04,1743.17,1793.68,1740.08,1797.02
		L1740.08,1797.02z"/>
</g>
<g>
	<path d="M1662.01,1641.38c6.79,40.98,22,79.84,37.77,118.07c15.19,36.83,29.16,73.87,42.09,111.55
		c12.33,35.93,24.92,71.97,42.4,105.78c8.78,16.98,18.63,33.4,30.15,48.67c12.44,16.49,26.57,31.66,41.1,46.31
		c34.78,35.09,70.44,69.33,105.7,103.94c3.19,3.14,7.13-0.36,8.29-3.55c1.53-4.22,0.74-9.51-2.51-12.7
		c-30.86-30.3-61.75-60.56-92.57-90.9c-28.32-27.87-54.79-56.61-74.41-91.42c-18.43-32.71-31.36-68.28-43.63-103.66
		c-12.63-36.43-25.22-72.71-39.94-108.37c-17.31-41.92-35.3-83.95-42.76-128.97c-0.59-3.54-3.65-7.87-7.69-6.33
		C1661.81,1631.41,1661.42,1637.78,1662.01,1641.38L1662.01,1641.38z"/>
</g>
<path class="st5" d="M1086.2,1086.17c0,0-65.68-38.85-91.15-88.26c-34.02-66.01-36.44-142.94-36.44-142.94s-78.35-9.16-64.21-99.06
	c7.89-50.15,74.45-56.52,94.21-87.14s33.44-96.15,92.37-116.09c58.93-19.94,117.06,10.01,154.03,17.93s115.9-24.08,176.37,46.7
	c0,0,27.19-0.27,83.41,9.39c56.22,9.66,86.3,111.33,81.15,146.74c-8.17,56.19-73.24,73.81-118.6,66.01
	C1411.99,831.64,1086.2,1086.17,1086.2,1086.17z"/>
<path class="st3" d="M1507.59,927.14c-1.73-33.22-6.12-66.42-10.65-99.36c-0.18-1.3-0.74-4.6-2.64-4.6
	c-30.49-0.05-52.67-25.27-60.24-53.26c-0.43-1.58-2-4.54-3.76-2.26c-8.81,11.46-22.21,21.71-36.42,24.99
	c-12.73,2.94-23.45-1.97-35.59-5.02c-14.04-3.53-28.76-4.3-43.05-1.82c-25.03,4.35-42.87,22.9-67.41,27.67
	c-14.75,2.87-30.55,3.11-45.45,1.04c-3.31-0.46-2.83,7.89-2.4,9.41c2.2,7.87,1.44,17.72,1.25,25.91
	c-0.45,19.17,1.36,46.74-22.2,51.95c-6.69,1.48-20.97,2.26-27-2.06c-5.06-3.62-8.69-13.79-13.34-18.78
	c-6.16-6.62-13.4-12.16-21.7-15.83c-12.07-5.34-30.88-9.18-43.77-4.64c-9.4,3.31-13.24,13.99-15.73,22.81
	c-9.3,32.85-6.94,69.93-5.07,103.6c1.4,25.26,7.01,57.71,32.26,70.41c-1.43,33.6-2.86,67.21-4.29,100.81
	c-0.97,22.81-1.94,45.61-2.91,68.42c-0.73,17.24,0.19,34.13-10.42,49.02c-16.1,22.57-47.82,24.77-72.78,30.54
	c-3.73,0.86-4.04,12.48-0.03,12.52c34.83,0.38,72.54,10.11,103.71,25.1c31.34,15.07,59.29,36.29,90.49,51.68
	c40,19.72,83.53,29.49,128.17,28.53c32.62-0.7,63.74-11.82,80.39-41.48c8.62-15.35,13.54-34.47,12.8-52.18
	c-0.08-1.94-0.26-5.79-2.74-6.27c-13.25-2.55-26.49-5.11-39.74-7.66c-5.01-21.73-10.02-43.45-15.03-65.18
	c25.97-3.23,41.58-17.08,57.06-38.05c24.92-33.77,46.16-72.83,57.22-113.46c7.63-28.05,15.47-63.35,10.05-93.25
	c8.23-13.73,16.38-27.53,23.94-41.64c1.87-3.48,3.27-6.74,4.34-9.92c1.07-1.04,1.74-3.98,1.75-6.67
	C1507.91,941.74,1508.01,935.16,1507.59,927.14z"/>
<g>
	<path d="M1269.81,1068.16c12.86,8.67,26.47,16.36,40.2,23.55c26.69,13.99,54.93,26.1,84.56,32.16c4.92,1.01,6.25-17.5,0-18.78
		c-29.32-6-57.2-18.22-83.56-32.13c-13.31-7.02-26.51-14.5-39-22.92C1267.35,1046.91,1264.89,1064.84,1269.81,1068.16
		L1269.81,1068.16z"/>
</g>
<g>
	<path d="M1309.47,1134.43c11.65,9.76,26.67,16.49,41.58,19.08c5.08,0.88,6.22-17.7,0-18.78c-14.15-2.46-28.33-9.15-39.38-18.41
		c-3.04-2.54-4.89,5.02-5.08,6.56C1306.13,1126.59,1306.36,1131.82,1309.47,1134.43L1309.47,1134.43z"/>
</g>
<g>
	<path d="M1359.32,1055.78c7.88,4.07,16.49,7.06,25.07,9.17c11.45,2.81,29.94,5.1,38.73-5.14c9.27-10.8,3.18-28.97-0.57-40.74
		c-5.06-15.88-10.05-30.91-5.92-47.6c1.69-6.84,4.39-13.51,8.45-19.31c1.14-1.63,2.4-3.13,3.7-4.63c1.49-1.73-0.18-0.02,0.96-0.96
		c3.12-2.59,3.35-7.82,2.89-11.55c-0.19-1.5-2.05-9.08-5.08-6.56c-5.92,4.92-10.09,12.22-13.16,19.14
		c-7.22,16.29-9.61,35.05-6.56,52.58c2.56,14.7,8.52,29.62,11.6,43.48c0.6,2.7-0.15-2.11,0,0.23c-0.11-1.72,1.02-1.11-0.23-0.57
		c-2.61,1.12-4.74,3.01-7.64,3.84c-6.65,1.9-13.94,1.47-20.68,0.35c-10.11-1.68-20.22-5.14-29.34-9.84
		C1356.1,1034.87,1354.19,1053.13,1359.32,1055.78L1359.32,1055.78z"/>
</g>
<g>
	<path d="M1261.93,941.86c30.01-5.15,66.81-1.94,90.89,18.08c3.04,2.53,4.89-5.01,5.08-6.56c0.46-3.7,0.23-8.96-2.89-11.55
		c-24.55-20.41-62.47-24.01-93.09-18.75C1255.77,924.14,1256.79,942.74,1261.93,941.86L1261.93,941.86z"/>
</g>
<g>
	<path d="M1383.07,887.77c-10.15-6.17-21.84-10.25-33.14-13.66c-27.79-8.38-57.03-10.65-85.83-7.31c-6.08,0.71-5.4,19.41,0,18.78
		c28.37-3.29,57.35-1.22,84.75,6.99c10.92,3.27,22.23,7.36,32.02,13.32C1385.84,908.9,1388.09,890.82,1383.07,887.77L1383.07,887.77
		z"/>
</g>
<g>
	<path d="M1484.1,981.43c-15.42-15.29-39.27-21.45-60.35-20.87c-5.87,0.16-5.76,18.94,0,18.78c14.59-0.4,29,2.28,42.04,8.95
		c3.82,1.95,7.49,4.2,10.92,6.78c1.04,0.78,2.02,1.61,3.02,2.43c0.65,0.53,1.59,1.52,0.2,0.14
		C1485.48,1003.16,1487.92,985.23,1484.1,981.43L1484.1,981.43z"/>
</g>
<g>
	<path d="M1452.12,934.91c2.42-0.23,5.46,1.07,7.73,1.71c4.9,1.38,9.73,3.02,14.49,4.82c9.26,3.49,21.45,7.7,27.8,15.74
		c2.59,3.28,5-0.89,5.65-3.37c0.99-3.75,1.09-9.59-1.48-12.85c-7.1-8.99-19.39-13.71-29.77-17.63c-5.21-1.97-10.52-3.72-15.87-5.26
		c-2.51-0.72-5.87-2.2-8.55-1.94C1446.08,916.71,1446.63,935.43,1452.12,934.91L1452.12,934.91z"/>
</g>
<g>
	<path d="M1331,957.71c-3.33,9.43-10.81,15.38-16.71,13.3c-5.9-2.08-7.98-11.42-4.65-20.84c3.33-9.43,10.81-15.38,16.71-13.3
		C1332.25,938.95,1334.33,948.28,1331,957.71z"/>
	<g>
		<path d="M1328.08,951.07c-1.7,4.43-4.79,9.8-9.91,10.84c-2.11,0.43-3.77-0.14-5.31-1.59c-1.42-1.34-0.67-2.4,0.03-4.37
			c1.52-4.29,5.19-9.4,10.06-10.05c1.97-0.26,3.79,0.29,5.01,1.92c1.07,1.43,0.25,2.68-0.54,5.14c-1.12,3.51-1.17,9.94,1.48,12.85
			c2.85,3.13,4.81-0.75,5.65-3.37c3.05-9.53,4.76-29.81-7.12-34.64c-10.17-4.14-18.34,8.86-21.05,16.67
			c-3.34,9.62-5.26,29.14,5.8,35.15c9.99,5.42,18.78-7.57,21.73-15.27c1.53-4,1.92-9.31,0-13.28
			C1332.43,947.97,1329.49,947.39,1328.08,951.07z"/>
	</g>
</g>
<g>
	<ellipse transform="matrix(0.333 -0.9429 0.9429 0.333 37.7106 2043.9346)" cx="1463.61" cy="995.31" rx="15.57" ry="9.74"/>
	<g>
		<path d="M1469.82,991.79c-1.45,3.73-4.08,8.34-8.48,8.99c-1.51,0.22-2.96-0.19-3.96-1.34c-0.44-0.5-0.34-0.15-0.23,0.35
			c-0.14-0.67,0.3-1.49,0.51-2.1c1.16-3.44,4.29-7.54,8.13-8.11c1.58-0.24,3.34,0.24,4.21,1.67c-0.08-0.14,0.04-0.52-0.01-0.68
			c0.21,0.64-0.7,2.79-0.8,3.11c-1.11,3.52-1.18,9.93,1.48,12.85c2.85,3.12,4.82-0.74,5.65-3.37c2.76-8.73,4.16-25.77-5.5-31.28
			c-9.18-5.24-17.24,7.33-19.68,14.37c-3.09,8.88-4.67,25.87,4.74,31.93c8.88,5.72,17.1-6.16,19.8-13.12
			c1.55-3.99,1.91-9.33,0-13.28C1474.16,988.67,1471.25,988.13,1469.82,991.79z"/>
	</g>
</g>
<g>
	<path d="M1344.27,1250.08c5.91,25.64,11.82,51.27,17.74,76.91c0.45,1.94,1.41,4.23,3.57,4.65c13.82,2.66,27.65,5.33,41.47,7.99
		c-1.38-3.13-2.75-6.26-4.13-9.39c0.05,1.19,0.03,2.39,0,3.58c-0.02,0.66-0.08,1.32-0.08,1.98c0,0.42,0.22-2.55-0.02,0.07
		c-0.17,1.82-0.34,3.64-0.58,5.46c-0.15,1.09-0.33,2.17-0.49,3.25c-0.34,2.33,0.31-1.21-0.28,1.54c-0.52,2.43-1.08,4.84-1.75,7.23
		c-0.97,3.44-0.97,3.47-2.14,6.49c-1.04,2.71-2.22,5.37-3.53,7.96c-5.71,11.31-14.93,21.24-26.05,27.93
		c-16.74,10.08-36,12.42-55.19,12.57c-43.27,0.34-85.09-9.36-123.78-28.64c-29.66-14.78-56.43-34.63-86.03-49.48
		c-21.4-10.74-44.88-17.5-68.29-22.19c-13.22-2.65-26.92-4.95-40.45-5.05c0,6.26,0,12.52,0,18.78c9.66-2.23,19.33-4.47,28.99-6.7
		c12.13-2.8,24.06-5.27,34.31-12.91c16.35-12.19,24.75-31.37,25.77-51.41c0.18-3.57,0.31-7.15,0.47-10.73
		c2.01-47.34,4.03-94.68,6.04-142.02c0.65-15.19,1.29-30.38,1.94-45.57c0.09-2.21-0.4-7.93-3.03-9.05
		c-7.07-3-13.13-8.96-17.62-15.03c-10.36-14-11.34-31.31-12.11-46.92c-0.88-17.76-1.25-35.58-0.47-53.35
		c0.63-14.33,1.59-30.4,6.96-42.77c1.65-3.79,3.67-7.61,8.01-9.2c5.73-2.1,14.38-1.44,20.54-0.96c17.84,1.39,33.82,9.73,44.99,23.77
		c1.92,2.41,3.69,4.93,5.34,7.53c1.36,2.15,2.38,5.47,4.15,7.23c1.03,1.02,1.18,0.93,2.38,1.41c3.45,1.38,7.44,2.05,11.1,2.59
		c11.01,1.61,23.32,0.4,31.85-7.41c6.85-6.27,10.09-15.16,11.66-24.11c2.26-12.88,2.52-26.51,2.69-39.57
		c0.13-9.84,0.54-20.9-2.25-30.49c-1.19,4.71-2.38,9.42-3.57,14.13c10.18,1.45,20.71,1.55,30.94,0.83c8.86-0.63,17.64-2.1,26.1-4.82
		c9.45-3.04,16.63-8.61,25.09-13.52c20.09-11.66,43.92-15.11,66.68-10.95c10.69,1.96,20.81,7.35,31.74,7.69
		c8.33,0.26,16.69-2.13,24.08-5.87c10.19-5.16,19.83-13.22,26.76-22.35c-1.88-1.12-3.77-2.25-5.65-3.37
		c8.14,30.58,31.93,61.61,66.18,61.01c-1.33-2.3-2.66-4.6-3.98-6.89c1.83,13.34,3.5,26.7,5.07,40.06
		c1.33,11.31,2.57,22.62,3.64,33.96c1,10.65,1.74,19.11,2,28.22c0.05,1.81,0.09,3.62,0.07,5.43c-0.01,0.79-0.04,1.57-0.04,2.36
		c-0.01,2.63,0.31-1.84-0.03,0.54c-0.08,0.54-0.18,1.13-0.19,1.67c-0.04,1.4,0.52-2.36,0.09-0.59c-0.14,0.58,1.06-2.15-0.03-0.16
		c-0.46,0.85-0.82,1.78-1.24,2.66c-4.89,10.06-10.62,19.75-16.24,29.41c-4.01,6.9-8.37,13.64-12.19,20.64
		c-2.31,4.23-2.68,8.99-1.46,13.66c0.1,0.39-0.38-2.58-0.06-0.22c0.16,1.15,0.32,2.3,0.45,3.45c0.16,1.52,0.28,3.05,0.39,4.58
		c-0.17-2.62,0,0.36,0.03,1.03c0.05,1.35,0.08,2.7,0.09,4.05c0.05,5.58-0.16,10.75-0.58,15.83c-1.44,17.43-4.55,34.82-9,51.72
		c-8.35,31.67-23.9,61.79-41.44,89.29c-7.21,11.3-14.91,22.37-23.57,32.6c-5.18,6.12-10.52,11.74-17.65,15.55
		c-19.16,10.23-42.39,10.17-63.16,5.83c-37.17-7.76-70.93-29.52-101.56-51.09c-12.25-8.63-24.16-17.77-35.62-27.43
		c-6.13-5.17-13.87-12.04-18.65-16.7c-0.8-0.78-1.61-1.57-2.39-2.37c-5.42-5.57-7.93,12.35-4.17,16.22
		c19.5,20.03,42.33,37.35,65.35,53.05c37.19,25.38,81.42,52.45,128.32,49.67c12.35-0.73,24.98-3.78,35.77-9.99
		c10.53-6.06,18.51-16.73,25.71-26.26c25.98-34.36,47.83-74.54,59.45-116.13c6.7-23.99,10.86-49.31,11.42-74.24
		c0.21-9.39,0.15-19.34-2.11-28.53c-0.49,4.28-0.99,8.56-1.48,12.85c6.57-10.91,13-21.91,19.29-32.99
		c6.51-11.46,14.03-22.54,14.68-36c0.65-13.48-0.83-27.16-2.06-40.57c-1.48-16.12-3.33-32.21-5.31-48.28
		c-1.14-9.27-2.32-18.53-3.59-27.78c-0.26-1.9-1.14-6.94-3.98-6.89c-19.91,0.35-36.03-10.33-46.99-26.4
		c-3.85-5.65-6.96-11.74-9.52-18.08c-0.46-1.14-0.89-2.29-1.32-3.44c-0.98-2.59,0.23,0.96-0.48-1.36c-0.25-0.81-0.51-1.62-0.73-2.44
		c-0.63-2.36-3.04-6.81-5.65-3.37c-5.56,7.32-12.98,13.59-20.85,18.28c-7.12,4.25-14.97,7.13-23.32,7.38
		c-10.51,0.31-19.93-4.58-30-6.83c-21.86-4.88-44.98-2.72-65.34,6.72c-9.04,4.19-16.58,10.83-25.65,14.85
		c-8.08,3.58-16.83,5.37-25.58,6.35c-11.99,1.35-24.5,1.39-36.47-0.32c-4.95-0.71-4.22,11.86-3.57,14.13
		c0.05,0.17,0.09,0.35,0.13,0.53c0.48,2.19-0.2-2.11-0.04-0.26c0.09,1.05,0.31,2.1,0.43,3.16c0.07,0.65,0.14,1.31,0.2,1.96
		c0.04,0.48,0.25,3.27,0.18,2.16c0.67,10.24,0,25.25-0.96,37.13c-0.82,10.11-2.19,19.76-11.65,25.35c-6.61,3.91-14.6,4.41-22.1,3.68
		c-3.34-0.33-6.66-0.92-9.92-1.75c-0.61-0.16-1.22-0.32-1.83-0.49c-1.06-0.3,0.02-0.13-0.41-0.12c-0.33,0.01-0.81-0.26-1.13-0.38
		c0.61,0.8,1.22,1.61,1.82,2.41c-12.36-23.25-32-40.24-58.93-42.51c-7.58-0.64-19.1-1.72-25.71,2.92
		c-6.5,4.56-9.64,12.9-11.92,20.16c-6.92,22.07-7.13,46.64-7.09,69.56c0.02,11.91,0.41,23.82,1.05,35.71
		c0.69,12.88,1.19,25.87,5.24,38.23c4.9,14.99,15.1,31.98,30.39,38.48c-1.01-3.02-2.02-6.04-3.03-9.05
		c-1.56,36.75-3.13,73.51-4.69,110.26c-0.96,22.67-1.93,45.33-2.89,68c-0.24,5.75-0.49,11.51-0.73,17.26
		c-0.42,9.86-4.11,19.02-10.23,26.75c-9.87,12.47-23.48,17.36-38.32,20.8c-10.79,2.5-21.59,4.99-32.38,7.49
		c-5.6,1.3-6,18.74,0,18.78c11.66,0.09,23.47,1.9,34.91,3.99c22.32,4.06,44.84,10.05,65.47,19.6c30.33,14.04,57.3,34.39,86.94,49.78
		c38.47,19.98,80.27,31.23,123.71,31.96c20.7,0.35,41.82-1.09,60.54-10.75c12.65-6.53,23.29-16.68,30.58-28.89
		c9.93-16.63,15.66-37.67,14.79-57.17c-0.13-2.92-0.41-8.67-4.13-9.39c-13.82-2.66-27.65-5.33-41.47-7.99
		c1.19,1.55,2.38,3.1,3.57,4.65c-5.91-25.64-11.82-51.27-17.74-76.91c-0.66-2.84-2.9-6.23-5.65-3.37
		C1342.98,1240.13,1343.47,1246.6,1344.27,1250.08L1344.27,1250.08z"/>
</g>
<path class="st3" d="M1515.05,2467.87c0,0,68.04-320.39,109.11-449.49c41.07-129.11,285.81-462.74,338.85-502.49
	s342.89-5.72,488.21-6.54c145.32-0.81,325.74-24.03,325.74-24.03s-123.05,128.34-299.51,172.96L2364,1881.17
	c0,0-27.3,101.07-12.45,204.19c0,0-75.27,149.56-310.11,148.97C1739.74,2233.56,1515.05,2467.87,1515.05,2467.87z"/>
<g>
	<path d="M1518.62,2472.61c7.19-33.86,14.65-67.67,22.19-101.45c15.48-69.38,31.45-138.66,48.61-207.64
		c8.13-32.67,16.51-65.28,25.62-97.68c6.87-24.43,13.38-47.41,23.34-70.35c24.75-56.99,58.09-110.47,91.61-162.61
		c38.84-60.4,80.02-119.34,123.11-176.78c30.7-40.93,61.8-82.91,97.9-119.33c4.24-4.28,8.62-8.66,13.8-12.33
		c6.96-4.92,15.36-7.64,23.55-9.68c26.31-6.55,54.08-7.68,81.06-8.41c77.15-2.09,154.46,3.14,231.47,7.14
		c37.29,1.94,74.6,3.89,111.93,4.82c41.74,1.04,83.48-0.07,125.17-2.22c75.69-3.9,151.28-10.8,226.52-19.83
		c4.15-0.5,8.31-1,12.46-1.53c-0.69-5.83-1.39-11.66-2.09-17.5c-26.06,27.15-58.48,52.1-90.05,74.05
		c-31.98,22.23-65.67,42.07-100.85,58.78c-20.22,9.61-40.94,18.18-62.09,25.52c-10.99,3.82-22.09,7.29-33.3,10.38
		c-5,1.38-11.61,1.49-14.32,6.23c-6.57,11.51-12.09,23.76-18.1,35.56c-11.64,22.87-23.29,45.75-34.93,68.62
		c-19.56,38.43-39.12,76.86-58.69,115.29c-1.28,2.51-2.16,4.88-2.84,7.62c-2.72,10.92-4.89,21.98-6.88,33.06
		c-8,44.57-11.57,90.3-9.08,135.54c0.73,13.38,1.96,26.71,3.82,39.98c0.35-3.05,0.71-6.09,1.06-9.14c-0.24,0.47-0.46,1.1-0.8,1.5
		c-1.3,1.51,0.41-0.67-0.22,0.39c-0.5,0.84-1,1.69-1.51,2.53c-3.17,5.2-6.64,10.23-10.28,15.11
		c-12.71,17.04-27.62,32.41-43.95,46.01c-58.12,48.39-131.97,72.83-206.67,78.98c-25.72,2.12-51.5,1.17-77.25,2.58
		c-24.23,1.33-48.38,4.14-72.29,8.32c-45.54,7.98-90.19,20.93-133.24,37.73c-71.77,28.01-139.29,66.72-201.11,112.58
		c-20.53,15.23-40.48,31.29-59.61,48.25c-9.32,8.26-19.29,16.54-27.58,25.87c-0.37,0.41-0.78,0.79-1.16,1.19
		c-3.68,3.83-1.24,21.85,4.17,16.22c12.9-13.44,27.68-26.29,42.83-39.04c37.27-31.34,77.09-59.71,118.83-84.78
		c56.45-33.91,116.77-61.9,179.89-80.91c34.95-10.53,70.74-18.3,106.96-22.84c19.24-2.42,38.59-3.92,57.98-4.46
		c19.9-0.56,39.75-0.22,59.63-1.77c61.48-4.81,122.71-21.63,175.38-54.3c31.42-19.48,60.07-44.55,82.07-74.38
		c4.7-6.37,9.57-13.08,13.08-20.22c4.17-8.48,0.43-19.65-0.46-28.64c-2.25-22.8-2.54-45.76-1.52-68.64
		c1.45-32.5,5.66-65.09,12.62-96.88c0.74-3.39,1.52-6.78,2.35-10.14c0.51-2.05,1.85-3.92,0.17-1.24c1.43-2.28,2.5-4.91,3.72-7.31
		c18.04-35.44,36.08-70.87,54.11-106.31c17.52-34.43,35.05-68.85,52.57-103.28c1-1.97,2.01-3.95,3.01-5.92
		c-0.97,0.92-1.95,1.83-2.92,2.75c63.24-16.13,123.19-43.3,178.48-77.8c37.34-23.3,72.88-49.82,105.41-79.48
		c6.03-5.5,12.05-11.06,17.71-16.95c2.4-2.5,3.6-18.23-2.09-17.5c-56.93,7.32-114.16,12.72-171.38,17.04
		c-48.68,3.67-97.47,6.38-146.29,6.92c-34.87,0.39-69.73-0.93-104.55-2.53c-79.17-3.62-158.3-9.21-237.57-10.1
		c-32.53-0.36-65.29-0.19-97.66,3.44c-18.94,2.12-42.14,4.53-57.93,16.37c-12.81,9.6-23.61,22.47-34.11,34.42
		c-17.52,19.96-34.16,40.7-50.48,61.64c-42.96,55.12-83.72,112.03-122.63,170.07c-37.7,56.24-74.36,113.69-105.19,174.04
		c-11.2,21.93-21.61,44.36-29.05,67.87c-9.03,28.51-16.85,57.42-24.43,86.34c-18.52,70.63-35.18,141.74-51.36,212.93
		c-10.71,47.12-21.18,94.3-31.31,141.55c-0.51,2.39-1.02,4.78-1.53,7.17c-0.77,3.64-1.4,9.86,1.48,12.85
		C1515.72,2478.83,1518,2475.52,1518.62,2472.61z"/>
</g>
<g>
	<path d="M2035.77,2102.73c22.21-24.69,45.18-48.73,68.41-72.47c43.11-44.05,87.46-87.47,135.73-125.9
		c20.98-16.7,43.25-33.83,68.19-44.2c5.11-2.13,3.76-20.59-2.2-18.11c-21.76,9.05-41.37,23.42-59.93,37.72
		c-24.55,18.92-47.82,39.49-70.54,60.56c-41.43,38.41-81.1,78.73-119.69,119.98c-8.11,8.67-16.2,17.37-24.14,26.19
		c-2.73,3.03-2.45,9.2-1.48,12.85C2030.84,2102.09,2032.99,2105.82,2035.77,2102.73L2035.77,2102.73z"/>
</g>
<g>
	<path d="M2333.18,1775.53c-11.77,2.44-23.5,5.07-35.22,7.74c-28.87,6.58-57.63,13.59-86.28,21.06
		c-36.18,9.44-72.18,19.6-107.8,30.96c-34.39,10.97-68.62,22.92-101.5,37.87c-23.4,10.63-48.72,22.8-66.39,42.02
		c-1.54,1.67-2.98,3.42-4.32,5.25c-2.5,3.42-2.53,8.91-1.48,12.85c0.63,2.37,3.11,6.84,5.65,3.37
		c13.66-18.66,38.01-30.7,58.82-40.74c31.53-15.21,64.63-27.16,97.84-38.11c35.75-11.78,71.94-22.18,108.32-31.84
		c29.64-7.87,59.41-15.22,89.29-22.12c9.64-2.23,19.29-4.4,28.96-6.52c4.45-0.97,9.15-1.59,13.51-2.9c0.2-0.06,0.41-0.09,0.61-0.13
		C2339.37,1793.03,2338.15,1774.5,2333.18,1775.53L2333.18,1775.53z"/>
</g>
<g>
	<path d="M1757.93,1789.82c11.64-7.83,24.36-14.29,36.96-20.39c32.72-15.85,67.19-28.16,102.43-37.08
		c49.26-12.46,99.43-16.51,150.03-19.18c32.77-1.73,65.69-2.94,98.5-1.78c10.11,0.36,20.71,0.44,30.67,2.47
		c3.4,0.69,4.22-7.88,4.13-9.39c-0.3-5.03-0.28-10.08-0.22-15.12c0.03-2.6,0.1-5.19,0.19-7.79c0.05-1.34,0.1-2.69,0.17-4.03
		c0.03-0.7,0.07-1.41,0.1-2.11c0.12-2.4-0.03,0.3,0.06-1.15c0.45-6.98,1.07-13.94,1.91-20.89c4.06-33.52,13.11-68.79,32.49-97.93
		c12.05-18.12,27.89-33.03,47.32-42.96c5.06-2.59,3.31-20.92-2.2-18.11c-36.19,18.5-58.86,53.72-71.66,91.27
		c-10.78,31.61-15.61,65.14-16.54,98.45c-0.19,6.77-0.29,13.6,0.11,20.37c1.38-3.13,2.75-6.26,4.13-9.39
		c-7.91-1.61-16.26-1.82-24.28-2.21c-29.77-1.43-59.68-0.57-89.44,0.76c-50.97,2.28-102.03,5.36-151.92,16.69
		c-37.18,8.44-73.65,20.5-108.33,36.36c-15.99,7.31-32.2,15.18-46.82,25.03C1750.88,1774.98,1753.21,1793,1757.93,1789.82
		L1757.93,1789.82z"/>
</g>
<path class="st3" d="M2546.14,1674.13c-4.44-10.01-19.13-14.26-28.44-17.65c-18.99-6.9-38.91-11.65-58.86-14.73
	c-24.37-3.76-74.52-11.73-65.89,28.52c6.48,30.22,48.76,33.77,77.86,35.55c-1.1,4.66-2.21,9.31-3.31,13.97
	c-7.72-1.77-15.2-3.45-21.92-5.36c-20.67-5.9-96.74-35.1-90.58,11.43c2.84,21.48,20.49,33.15,38.92,40.43
	c-5.96-1.3-11.93-2.51-17.93-3.52c-8.36-1.39-20.11-4.43-28.37-1.09c-18.8,7.61-12.81,31.56-3.03,46.39
	c-0.91,0.32-1.79,0.69-2.63,1.18c-10.33,6.05-8.57,22.28-5.79,31.88c4.53,15.61,16.34,25.72,30.47,33.19
	c-5.56,15.39-11.13,30.77-16.69,46.16c-1.07,2.95-2.34,12.01,2.31,12.84c22.57,4.05,46.81,4.43,66.54-8.49
	c18.07-11.84,30.2-29.02,50.74-36.3c9.28-3.29,18.61-7.41,23.82-16.25c7.43-12.6,11.85-27.21,19.34-40.04
	c10.63-18.22,27.42-33.92,26.79-56.49c-0.38-13.59-5.25-23.58-12.84-31.15c5.26-10.54,10.11-21.34,14.16-32.38
	C2544.73,1701.54,2551.19,1685.51,2546.14,1674.13z"/>
<g>
	<path d="M2524.81,1750.77c9.47-18.3,19.19-38.23,22.77-58.64c1.69-9.65,1.52-20.18-6.85-26.52c-8.06-6.1-18.51-9.55-27.98-12.72
		c-27.88-9.33-58.05-15.87-87.56-15.94c-10.07-0.03-23.35-0.62-29.51,8.93c-7.09,11-5.29,27.24,1.84,37.74
		c10.19,15.01,30.55,17.61,47.05,20.3c12.74,2.07,25.62,3.61,38.5,4.57c5.52,0.41,6.05-18.33,0-18.78
		c-8.65-0.64-17.28-1.6-25.88-2.73c-7.81-1.02-15.6-2.22-23.33-3.77c-7.22-1.44-14.65-2.92-21.21-6.4
		c-4.73-2.51-9.21-5.99-11.79-10.78c-0.87-1.62-1.03-3.46-1.3-3.66c0.65,0.48-0.25,1.36,0.03,0.1c-0.52,2.31-0.05,0.34,0.02,0.18
		c-0.6,1.34-0.09,0.53,0.03,0.04c-0.31,1.23,0.07-0.2,0.22-0.49c1.23-2.47,4.46-4.64,8.01-5.26c5.33-0.93,10.8-1.18,16.21-1.21
		c26.17-0.13,52.74,5.19,77.76,12.54c10.15,2.98,20.38,6.42,29.81,11.29c2.74,1.42,6.64,3.64,8.34,5.35
		c-0.31-0.31,0.5,0.61,0.68,0.81c1.07,1.16-0.08-0.62,0.08,0.07c-0.18-0.75-0.43-1.49-0.6-2.26c0.11,0.48,0.19,1.89-0.01-0.66
		c0.18,2.33,0.27-0.61-0.09,1.44c-0.09,0.53-0.14,1.06-0.23,1.59c-0.25,1.5,0.46-2.03-0.15,0.71c-0.31,1.37-0.65,2.73-1.02,4.08
		c-0.73,2.68-1.58,5.32-2.51,7.94c-2.19,6.14-4.69,12.17-7.33,18.13c-3.09,7-6.34,13.94-9.86,20.73c-1.89,3.66-1.78,9.6,0,13.28
		C2520.63,1754.21,2523.1,1754.08,2524.81,1750.77L2524.81,1750.77z"/>
</g>
<g>
	<path d="M2472.6,1694.33c-2.35,9.9-4.7,19.81-7.04,29.71c-0.87,3.68-1.31,9.79,1.48,12.85c2.74,3,5-0.6,5.65-3.37
		c2.35-9.9,4.7-19.81,7.04-29.71c0.87-3.68,1.31-9.79-1.48-12.85C2475.51,1687.95,2473.26,1691.56,2472.6,1694.33L2472.6,1694.33z"
		/>
</g>
<g>
	<path d="M2397.74,1721.85c-1.55-2.65-0.1-0.1,0.23,0.59c0.49,1.05,0.72,2.33,1.23,3.18c1.26,2.12-0.81-0.31,0.28-0.68
		c-0.99,0.33-2.01,1.98-3.2,2.45c-8.61,3.41-20.35-1.9-27.62-6.11c-5.1-2.96-7.26,15.17-2.2,18.11c9.97,5.79,29.87,13.63,37.8,0.69
		c6.28-10.24,3.41-24.58-2.35-34.43c-2.21-3.77-5.11,1.34-5.65,3.37C2395.13,1713.23,2395.52,1718.06,2397.74,1721.85
		L2397.74,1721.85z"/>
</g>
<g>
	<path d="M2372.19,1784.04c3.2,0.47,6.38,1.44,9.27,2.91c0.75,0.38,5.25,3.42,4.91,3.63c0,0-0.63-5.33-0.11-5.01
		c0.01,0.01-0.44,1.03-0.46,1.04c-1.01,0.78-1.43,1.76-2.7,2.44c-5.77,3.1-14.01,1.21-19.97-0.34c-5.07-1.32-10.72-3.09-15.14-6.02
		c-4.71-3.12-7.14,14.84-2.2,18.11c6.3,4.17,14.88,6.46,22.21,7.77c9.02,1.62,18.79,0.89,23.35-8.16
		c4.67-9.27,4.34-22.74-4.38-29.52c-4.08-3.17-9.73-4.89-14.79-5.64C2366.99,1764.5,2366,1783.13,2372.19,1784.04L2372.19,1784.04z"
		/>
</g>
<g>
	<path d="M2401.72,1670.38c9.5,3.55,23.08,7.02,32.8,2.7c10.26-4.56,8.21-22.43,5.62-31.08c-0.82-2.74-2.81-6.33-5.65-3.37
		c-2.65,2.76-2.48,9.51-1.48,12.85c0.21,0.72,0.39,1.44,0.55,2.17c0.39,1.76-0.09-1.37,0.13,0.93c0.1,0.98,0.29,0.71,0.07,0.8
		c-1.03,0.46,1.74-0.44,0.39-1.55c0.13,0.1-0.88,0.76-0.96,0.77c-2.57,0.29-5.05,1.25-7.74,1.35c-7.18,0.27-14.8-1.17-21.53-3.69
		C2397.84,1650,2396.55,1668.45,2401.72,1670.38L2401.72,1670.38z"/>
</g>
<g>
	<path d="M2376.63,1813.01c-7.14-3.73-15.45-6.81-23.5-7.5c-13.33-1.14-19.44,8.48-19.78,20.77c-0.36,13.04,4.58,27,13.61,36.49
		c9.59,10.08,24.24,14.78,36.84,19.95c9.89,4.05,19.85,7.94,29.88,11.63c6.12,2.24,7.37-16.21,2.2-18.11
		c-17.62-6.47-35.29-13.25-52.2-21.41c-10.08-4.86-18.29-12.24-21.39-23.34c-0.11-0.41-0.64-2.9-0.53-2.28
		c-0.08-0.46-0.36-2.78-0.17-1.22c-0.21-1.7-0.03-0.56-0.07-0.03c0.01-0.13,0.16-1.44,0-0.4c-0.01,0.04-0.22,0.26,0.09-0.11
		c2.46-2.88,6.64-3.45,10.52-3.24c7.72,0.42,15.49,3.35,22.3,6.9C2379.82,1833.93,2381.75,1815.68,2376.63,1813.01L2376.63,1813.01z
		"/>
</g>
<g>
	<path d="M2370.03,1861.98c-6.89,19.06-13.78,38.12-20.68,57.17c-1.35,3.72-2.87,14.95,2.92,16.03c21.15,3.93,45.41,4.72,64.24-6.94
		c10.44-6.47,19.66-14.76,28.7-23.01c5.72-5.22,10.56-10.25,17.99-12.76c9.72-3.28,19.94-6.14,27.16-13.91
		c4.26-4.58,5.74-10.23,8.04-15.88c2.62-6.46,5.78-12.7,9.09-18.83c5-9.26,10.17-18.76,16.63-27.1
		c8.17-10.55,14.97-21.61,16.03-35.27c1.85-23.88-11.68-46.81-35.41-53.06c-8.4-2.21-16.95-3.76-25.34-6.11
		c-10.68-2.98-21.3-6.15-31.95-9.21c-20.91-6-42.42-12.68-64.18-14.61c-6.93-0.61-15.16-0.94-21.17,3.22
		c-9.21,6.39-9.53,20.13-6.79,29.91c3.11,11.1,10.87,20.56,19.86,27.53c9.73,7.54,20.96,10.06,32.42,13.73
		c20.88,6.7,41.42,14.49,61.81,22.53c1.33,0.53,2.67,1.05,4,1.59c-0.61-5.23-1.22-10.46-1.82-15.69c-1.06,2.19-2.12,4.39-3.18,6.58
		c1.34-0.8,2.68-1.61,4.02-2.41c-31.88-9.84-64.43-19.28-97.38-24.72c-7.37-1.22-15.16-2.55-22.66-1.9
		c-7.54,0.66-12.8,5.63-15.38,12.67c-4.39,12.01-1.56,25.86,5.2,36.41c7.84,12.22,20.44,18.65,33.55,23.71
		c24.55,9.47,49.19,18.7,73.87,27.84c6.1,2.26,7.37-16.19,2.2-18.11c-18.86-6.99-37.69-14.05-56.49-21.19
		c-12.92-4.91-27.26-8.85-38.43-17.25c-4.47-3.36-8.57-7.57-11.3-12.5c-1.01-1.82-1.7-3.49-2.19-5.4c-0.22-0.88-0.15-0.9-0.2-0.9
		c0.03,0-0.06-0.05-0.05-0.07c-0.21,0.2,0.27-1.09,1.05-2.17c1.03-1.44,2.36-2.49,3.92-3.33c1.34-0.72,3.18-0.91,5.58-1.02
		c7.11-0.32,14.34,0.82,21.33,1.98c19.7,3.26,39.12,8.27,58.38,13.48c8.79,2.38,17.55,4.86,26.29,7.42
		c2.75,0.81,5.49,1.62,8.23,2.45c0.77,0.23,1.53,0.46,2.3,0.7c-1.46-0.44-0.4-0.12-0.02-0.01c2.12,0.65,3.11-0.53,4.02-2.41
		c1.06-2.19,2.12-4.39,3.18-6.58c1.53-3.18,2.66-13.89-1.82-15.69c-14.08-5.64-28.28-11.02-42.55-16.15
		c-10.74-3.86-21.54-7.58-32.48-10.82c-10.69-3.17-20.34-7.34-28.36-15.4c-3.36-3.38-6.53-7.28-8.59-11.6
		c-0.67-1.41-1.34-3.67-1.57-4.36c0.5,1.49,0.05,0.02,0.05,0.58c0.01,1.38-0.73,1.34,0.04,0.8c2.15-1.5,4.24-3.69,7.32-4.37
		c2.97-0.66,6.1-0.68,9.13-0.59c19.15,0.58,38.41,6.41,56.75,11.48c18.96,5.25,37.72,11.36,56.84,16.01
		c9.25,2.25,18.27,3.52,26.19,9.32c6.96,5.09,12.49,13.67,13.56,21.21c0.06,0.44,0.23,2.75,0.15,1.26c0.03,0.53-0.08,2.69,0.05,1.1
		c-0.22,2.66-0.96,5.21-2.02,7.66c-2.24,5.19-5.63,9.69-9.07,14.13c-5.92,7.62-10.67,15.94-15.43,24.32
		c-3.21,5.64-6.31,11.35-9.13,17.2c-2.64,5.47-4.46,11.17-6.86,16.71c-3.76,8.7-14.81,12.42-23.09,15.18
		c-6.72,2.24-11.84,4.06-17.15,8.78c-7.85,6.99-15.44,14.25-23.72,20.75c-8.6,6.75-17.95,13.25-28.9,15.22
		c-12.35,2.22-25.22,1.67-37.62,0.11c-2.29-0.29-4.59-0.6-6.86-1.03c0.97,5.34,1.95,10.69,2.92,16.03
		c6.89-19.06,13.78-38.12,20.68-57.17c1.47-4.06,1.94-9.27,0-13.28C2374.4,1858.93,2371.38,1858.24,2370.03,1861.98L2370.03,1861.98
		z"/>
</g>
<path class="st3" d="M1837.6,1994.9c1.88-1.91,3.69-3.86,5.36-5.88c10.43-12.62,7.65-34.82-5.62-42.38
	c3.79-4.06,6.78-8.66,8.54-13.93c4.05-12.15,1.17-27.02-10.35-33.99c-12.56-7.6-30.4-3.47-44.07-1.87
	c-41.99,4.92-83.92,15.54-126.08,18.05c-23.27,1.38-48.28-1.05-71.05,4.7c-11.43,2.89-22.4,8.37-33.05,13.3
	c-30.56,14.13-60.45,29.76-90.18,45.54c-14.64,7.77-25.31,10.95-42.26,15.74c-27.56,7.79-55.13,15.58-82.69,23.37
	c-1.97,0.56-5.31,0.89-6.97,2.21c-4.19,3.34-7.7,13.4-9.87,17.8c-3.7,7.49-6.98,15.15-9.83,23.01c-8.9,24.54-13.49,50.6-13.15,76.72
	c0.35,27.13,4.97,57.18,17.71,81.56c0.29,0.56,1.03,1.99,1.94,1.84c33.32-5.58,66.63-11.16,99.95-16.74
	c13.73-2.3,28.91-6.96,42.86-7.18c13.17-0.2,27.97,4.99,40.99,7.13c21.96,3.6,46.16,8.92,68.39,4.97
	c24.19-4.3,47.96-13.22,71.03-21.42c14.45-5.14,28.91-9.5,43.63-13.86c19.3-5.73,43.3-9.43,60.67-19.78
	c9.65-5.75,18.14-15.04,26.25-22.69c8.89-8.39,17.93-16.89,25.84-26.22c9.04-10.67,9.73-28.8-0.34-35.28
	c6.77-5.19,13.38-10.57,19.83-16.15c7.29-6.31,16.4-13.09,21.48-21.46C1855.1,2017.91,1849.99,2000.22,1837.6,1994.9z"/>
<g>
	<path d="M1641.79,2073.88c32.82-5.91,65.92-11.95,98.1-20.8c19.42-5.34,37.42-14.74,54.69-24.96
		c16.61-9.83,34.05-20.59,47.49-34.64c8.15-8.52,10.63-20.76,7.88-32.17c-2.93-12.16-13.35-23.06-26.73-20.1
		c-6.2,1.37-4.9,19.86,0,18.78c5.03-1.11,9.78-0.42,13.99,2.67c1.91,1.41,5.68,5.05,5.51,7.73c-0.04,0.62-0.67,1.72-0.88,2.15
		c0.75-1.54,0.01-0.05-0.19,0.25c-0.57,0.83-1.2,1.62-1.85,2.39c-2.15,2.54-4.61,4.79-7.13,6.96
		c-14.35,12.34-30.72,22.58-47.16,31.86c-15.45,8.73-31.37,16.55-48.58,21.11c-18.94,5.02-38.18,8.96-57.39,12.79
		c-12.56,2.51-25.14,4.94-37.75,7.21C1635.62,2056.21,1636.68,2074.8,1641.79,2073.88L1641.79,2073.88z"/>
</g>
<g>
	<path d="M1655.52,2131.81c28.82-6.07,57.85-12.6,85.85-21.78c21.09-6.92,39.89-19.36,57.67-32.44
		c15.65-11.51,31.79-23.95,44.9-38.4c8.83-9.72,10.98-25.78,4.99-37.53c-5.83-11.43-18.04-14.5-29.33-9.35
		c-5.1,2.33-3.57,20.74,2.2,18.11c4.2-1.92,9.06-2.82,13.57-1.35c3.01,0.98,8.22,4.17,8.62,7.83c0.04,0.4,0.09-1.06-0.22,0.14
		c-0.52,2.03-2.21,3.91-3.52,5.43c-1.56,1.79-3.3,3.46-5.01,5.11c-14.92,14.36-31.39,27.35-48.44,39.06
		c-15.67,10.77-31.79,20.26-49.94,26.03c-16.15,5.14-32.68,9.19-49.16,13.1c-10.69,2.54-21.4,4.99-32.16,7.26
		C1649.32,2114.33,1650.57,2132.85,1655.52,2131.81L1655.52,2131.81z"/>
</g>
<g>
	<path d="M1790.9,2083.41c5.79-1.8,10.03,0.55,14.89,3.1c0.23,0.12,0.92,1.45,1.09,1.43c6.1-0.79-0.37-3.93-0.23-2.65
		c-0.06-0.54-0.26,0.96-0.41,1.01c-0.41,0.14,0.81-1.11-0.14,0.13c-0.47,0.61-0.91,1.25-1.38,1.86
		c-5.95,7.62-13.07,14.44-19.96,21.19c-7.9,7.73-15.99,15.3-24.43,22.45c-5.4,4.58-10.07,8.01-16.76,10.29
		c-21.8,7.45-44.01,13.81-66.12,20.27c-12.51,3.65-24.58,8-36.89,12.3c-21.62,7.54-44.23,16.27-67.06,19.21
		c-9.52,1.22-19.37,0.15-28.86-0.86c-12.27-1.3-24.48-3.15-36.65-5.17c-10.02-1.66-20.01-3.47-29.99-5.4
		c-2.84-0.55-5.94-1.62-8.82-1.49c-4.13,0.19-8.46,1.42-12.53,2.1c-8.17,1.37-16.33,2.74-24.5,4.1
		c-34.65,5.8-69.3,11.6-103.95,17.41c-0.73,0.12-1.46,0.24-2.19,0.37c0.97,0.92,1.95,1.83,2.92,2.75
		c-5.74-10.9-8.3-20.29-11.09-32.3c-5.95-25.65-6.21-53.6-0.4-79.81c4.86-21.91,13.47-42.78,24.88-62.08
		c-0.7,0.43-1.39,0.85-2.09,1.28c36.01-10.18,72.01-20.36,108.02-30.53c3.28-0.93,6.85-1.59,9.98-2.96
		c5.21-2.28,10.19-5.47,15.22-8.13c22.26-11.82,44.64-23.43,67.26-34.55c11.29-5.55,22.63-11,34.17-16.02
		c7.72-3.36,15.46-6.86,23.47-8.29c18.71-3.34,38.11-2.63,57.03-3.37c17.72-0.69,34.79-3.12,52.21-6.2
		c30.54-5.4,61.33-10,92.18-13.26c10.83-1.15,23.92-3.65,33.79,2.17c2.44,1.44,4.68,3.3,6.18,5.75c0.57,0.94,0.68,1.7,1.06,2.59
		c-0.44-1.05-0.04,1.34,0.01,0.39c0.07-1.34,0.02-0.12-0.16,0.21c-1.23,2.34-2.33,5.14-4.24,7.5c-3.17,3.93-7.18,6.87-11.41,9.57
		c-33.04,21.05-72.05,32.54-110.13,40.31c-26.62,5.43-53.34,10.38-80.06,15.32c-2.03,0.38-4.06,0.75-6.09,1.12
		c-6.18,1.13-5.09,19.71,0,18.78c29.54-5.42,59.1-10.86,88.52-16.93c24-4.95,47.67-11.63,70.43-20.76
		c12.05-4.83,23.87-10.33,35.03-16.98c9.71-5.78,18.99-12.72,23.41-23.52c4.04-9.89,4.21-22.24-1.01-31.74
		c-4.54-8.27-12.98-12.77-22.19-13.77c-6.21-0.68-12.64,0.16-18.82,0.76c-8.8,0.86-17.58,1.94-26.35,3.07
		c-20.47,2.66-40.9,5.68-61.26,9.1c-8.59,1.44-17.13,3.21-25.72,4.64c-12.78,2.12-25.77,2.76-38.69,3.21
		c-13.09,0.46-26.21,0.54-39.28,1.54c-7.54,0.58-15.1,1.39-22.32,3.71c-12.32,3.94-24.14,9.67-35.8,15.19
		c-28.83,13.63-57.13,28.38-85.28,43.34c-3.73,1.98-7.46,3.97-11.18,5.97c-0.76,0.41-1.54,0.79-2.28,1.23
		c-0.97,0.57,1.75-0.47,0.13,0.02c-8.49,2.58-17.1,4.83-25.64,7.25c-27.24,7.7-54.48,15.4-81.72,23.1c-2.67,0.75-5.55,1.29-8.14,2.3
		c-3.29,1.29-4.52,4.96-6.21,7.96c-3.99,7.1-7.64,14.38-10.88,21.85c-10.27,23.74-16.48,49.18-18.06,75
		c-1.97,32.21,2.54,65.92,15.53,95.66c0.68,1.55,1.36,3.1,2.15,4.59c0.44,0.83,1.54,2.98,2.92,2.75
		c32.05-5.37,64.1-10.73,96.15-16.1c15.09-2.53,30.18-5.05,45.27-7.58c2.52-0.42,4.02-0.09,6.62,0.42
		c9.11,1.8,18.24,3.48,27.39,5.06c12.69,2.19,25.42,4.19,38.2,5.71c10.31,1.22,21.02,2.58,31.41,1.7
		c10.88-0.92,21.7-4.25,32.12-7.31c12.47-3.66,24.83-7.73,37.11-11.98c7.93-2.75,15.86-5.52,23.71-8.49c0.52-0.2,1.03-0.4,1.56-0.58
		c-1.73,0.61,1.06-0.28,1.79-0.49c3.95-1.13,7.9-2.28,11.85-3.43c22.86-6.68,45.88-13.19,68.37-21.04
		c6.82-2.39,11.96-7.04,17.38-11.74c9.07-7.86,17.8-16.12,26.32-24.57c6.55-6.49,13.81-13.1,19.03-20.76
		c6.98-10.27,7.18-29.69-5.14-36.17c-5.22-2.75-10.9-2.88-16.43-1.16C1783.64,2066.87,1784.49,2085.4,1790.9,2083.41L1790.9,2083.41
		z"/>
</g>
<g>
	<path d="M1557.13,1971.12c-1.08,9.66-1.61,19.45-1.63,29.16c-0.02,7.3,0.23,14.71,1.43,21.93c1.18,7.11,3.62,12.64,6.9,18.96
		c7.03,13.56,10.94,27.86,11.29,43.06c0.32,13.54,1.31,27.11,2.87,40.56c0.93,7.99,2.07,16,3.89,23.84
		c1.2,5.15,2.61,11.34,6.18,15.45c2.7,3.1,4.96-0.74,5.65-3.37c0.95-3.58,1.18-9.78-1.48-12.85c-0.72-0.82-0.78-1.01-0.67-0.8
		c-0.41-0.74-0.71-1.55-1.02-2.33c-0.44-1.12,0.33,1.05-0.08-0.19c-0.21-0.64-0.4-1.29-0.58-1.94c-0.36-1.29-0.68-2.6-0.98-3.91
		c-1.23-5.43-2.09-11.61-2.81-17.71c-1.52-12.73-2.4-24.25-2.7-36.37c-0.4-16.04-2.99-30.9-8.88-45.93
		c-1.44-3.67-3.03-7.29-4.84-10.79c-0.88-1.7-1.87-3.33-2.78-5.02c-0.21-0.38-1.18-2.42-1.03-1.98c-1.71-4.97-1.9-10.17-2.04-15.4
		c-0.29-11.05,0.12-18.96,1.28-29.37c0.34-3.04,0.51-9.89-2.89-11.55C1558.75,1962.87,1557.37,1969.01,1557.13,1971.12
		L1557.13,1971.12z"/>
</g>
<g>
	<path d="M1712.1,2013.16c3.37,10.08,6.73,20.16,10.1,30.24c0.9,2.68,2.77,6.38,5.65,3.37c2.59-2.7,2.57-9.58,1.48-12.85
		c-3.37-10.08-6.73-20.16-10.1-30.24c-0.9-2.68-2.77-6.38-5.65-3.37C1710.99,2003.02,1711.01,2009.9,1712.1,2013.16L1712.1,2013.16z
		"/>
</g>
<g>
	<path d="M1687.7,1925.44c-3.08,16.93-0.23,36.97,9.85,51.1c2.47,3.46,5.04-1.05,5.65-3.37c1.04-3.92,0.98-9.4-1.48-12.85
		c-4.24-5.94-6.39-13.23-6.65-20.12c-0.17-4.43-0.22-5.22,0.6-9.77c0.54-2.96,0.38-9.96-2.89-11.55
		C1689.23,1917.15,1688.08,1923.38,1687.7,1925.44L1687.7,1925.44z"/>
</g>
<g>
	<path d="M1728.48,2070.65c2.06,11.66,3.78,23.77,7.68,34.98c1.27,3.65,4.39,3,5.84,0c1.95-4.01,1.41-9.22,0-13.28
		c0.62,1.79-0.28-1.18-0.45-1.83c-0.36-1.4-0.69-2.8-1.01-4.21c-0.74-3.26-1.41-6.53-2.05-9.8c-0.96-4.85-1.29-6.6-2.04-10.85
		c-0.41-2.34-1.49-8.12-5.08-6.56C1728.14,2060.5,1728.01,2068.03,1728.48,2070.65L1728.48,2070.65z"/>
</g>
<g>
	<path d="M1825.5,1948.57c-3.98,1.75-7.74,4.67-11.22,7.23c-5.31,3.92-10.57,8.29-12.88,14.65c-5.37,14.8,1.02,35.76,19.55,34.31
		c6.01-0.47,5.56-19.21,0-18.78c-2.69,0.21-5.38,0.17-7.9-0.92c-1.01-0.44-2.12-1.08-2.97-1.79c-0.7-0.58-1.32-1.94-2.02-2.31
		c-1.26-0.66,0.25,0.8-0.12,0.87c0.4-0.08,2.31-2.77,2.83-3.27c4.66-4.5,10.94-9.25,16.92-11.88
		C1832.8,1964.43,1831.34,1946,1825.5,1948.57L1825.5,1948.57z"/>
</g>
<g>
	<path d="M1829.15,1900.65c-5.82,0.55-11.9,2.81-17.44,4.52c-6.67,2.06-14.94,4.12-19.04,10.27c-9.34,14.02-3.66,43.67,16.98,42.11
		c6-0.45,5.57-19.2,0-18.78c-6.12,0.46-10.06-1.81-12.8-6.85c0.17,0.31-0.38-1.44-0.14-0.67c0.38,1.22-0.57,0.45,0.07-0.1
		c-0.12,0.1,0,0.92-0.09,1.14c0.14-0.33,0.53-0.91,0.19-0.59c1.36-1.31,2.04-2.42,3.96-3.45c5.19-2.78,11.06-4.46,16.7-6.02
		c3.72-1.03,7.73-2.44,11.6-2.81C1835.19,1918.86,1834.65,1900.13,1829.15,1900.65L1829.15,1900.65z"/>
</g>
<g>
	<path d="M1827.08,1996.43c-9.4,6.01-21.61,14.26-24.75,25.57c-2.16,7.8-2.72,18.25,1.89,25.32c4.38,6.71,12.55,6.23,19.51,4.66
		c6.2-1.4,4.88-19.88,0-18.78c-3.08,0.69-6.26,1.29-9.43,1.02c-1.21-0.1-2.41-0.28-3.5-0.85c-0.25-0.13-1.27-0.99-1.52-1
		c-2.04-0.08,0.97-1.02-0.21,0.4c-0.24,0.29-0.62,1.68,0.09,0.11c1.05-2.31-0.63,0.43,0.4-1.34c0.41-0.71,1-1.37,1.52-2.01
		c4.86-6.04,11.7-10.84,18.19-15C1834.19,2011.4,1831.96,1993.31,1827.08,1996.43L1827.08,1996.43z"/>
</g>
<g>
	<path d="M1801.72,2091.2c-2.02,1.29-4.23,2.42-6.48,3.23c-1.53,0.55-3.14,0.97-4.78,0.98c-0.79,0.01-1.47-0.16-2.2-0.29
		c-0.33-0.43-0.53-0.51-0.59-0.24c-0.51-0.75-0.58-0.75-0.18,0.02c-0.34,0.34,1.37,4.36,0.24,5.2c0.43-0.32,1.09-1.99,1.41-2.44
		c1.14-1.57,2.47-3.02,3.9-4.33c1.85-1.69,3.9-3.26,6.03-4.58c4.93-3.07,2.77-21.2-2.2-18.11c-11.27,7.02-19.09,18.59-16.66,32.33
		c1.18,6.67,5.07,12.34,12.46,10.99c3.95-0.72,7.88-2.49,11.26-4.64C1808.83,2106.18,1806.61,2088.08,1801.72,2091.2L1801.72,2091.2
		z"/>
</g>
<g>
	<path d="M3296.48,2433.21c-41.22,32.11-88.76,56.17-140.56,65.03c-46.69,7.98-94.27,4.39-140.8-2.83
		c-50.89-7.89-101.11-19.57-151.95-27.79c-13.61-2.2-27.26-4.18-40.94-5.84c-13.49-1.64-27.08-1.87-40.65-2.55
		c-27.7-1.39-55.4-3-83.11-4.14c-56.49-2.33-113.39-2.92-169.56,4.44c-27.67,3.62-55.17,9.22-81.82,17.54
		c-12.96,4.04-25.71,8.76-38.14,14.21c-6.1,2.68-12.12,5.53-18.04,8.57c-6.35,3.25-12.57,6.19-17.44,11.48
		c-16.04,17.41-27.74,37.89-33.35,60.94c-5.01,20.56-4.37,42.67,1.08,63.08c11.21,42.03,40.02,78.01,75.8,102.1
		c18.25,12.29,38.29,21.96,59.58,27.66c10.68,2.86,21.68,4.82,32.7,5.69c12.37,0.97,24.92,0.3,37.31,0.12
		c32.49-0.45,64.61-5.92,96.18-13.31c15.83-3.71,31.53-7.96,47.17-12.44c7.93-2.27,16.04-4.29,23.83-6.98
		c7.45-2.58,14.61-6.21,22.01-8.99c57.52-21.64,119.15-26.15,180.05-21.7c61.11,4.47,121.22,17.03,181.54,27.22
		c54.54,9.21,110.91,18.06,166.38,14.06c34.42-2.48,68.95-10.55,99.84-26.21c26.08-13.22,49.29-31.63,67.69-54.37
		c16.57-20.49,29.22-44.18,36.71-69.47c7.09-23.95,10.21-49.34,7.72-74.25c-2.33-23.35-8.82-46.27-21.51-66.19
		c-11.12-17.44-27.34-31.74-46.7-39.3c-22.31-8.7-46.56-7.82-69.47-2.13c-13.75,3.41-26.96,8.72-39.61,15.05
		c-5.31,2.66-6.43,10.17-5.32,15.43c0.88,4.19,4.87,11.13,10.25,8.43c23.87-11.94,46.98-19.71,73.47-18.39
		c2.65,0.13,5.29,0.37,7.91,0.71c1.23,0.16,2.46,0.35,3.68,0.55c0.5,0.08-1.45-0.3,0.23,0.05c0.69,0.15,1.39,0.28,2.08,0.43
		c4.91,1.08,9.72,2.58,14.37,4.48c2.22,0.91,4.39,1.91,6.53,3c1.01,0.52,2.02,1.06,3.01,1.62c0.49,0.28,0.98,0.57,1.47,0.85
		c1.3,0.73-1.49-1.01,0.19,0.12c3.92,2.63,7.71,5.33,11.25,8.47c1.76,1.56,3.46,3.19,5.09,4.88c0.72,0.75,2.88,3.18,0.99,1.01
		c0.81,0.93,1.62,1.86,2.4,2.81c3.04,3.71,5.8,7.65,8.29,11.75c0.61,1,1.19,2.01,1.77,3.02c0.22,0.38,1.23,2.23,0.32,0.56
		c-0.92-1.69,0.22,0.42,0.43,0.84c1.12,2.21,2.19,4.44,3.18,6.72c1,2.3,1.94,4.64,2.8,7c0.42,1.15,0.82,2.3,1.21,3.45
		c0.19,0.58,0.38,1.17,0.57,1.75c0.76,2.31-0.15-0.57-0.08-0.3c1.24,5.09,2.67,10.07,3.6,15.24c0.47,2.63,0.85,5.27,1.21,7.92
		c0.27,2,0.28,0.53-0.07-0.73c0.16,0.59,0.14,1.32,0.2,1.94c0.13,1.41,0.25,2.82,0.35,4.23c0.39,5.52,0.49,11.06,0.33,16.59
		c-0.04,1.35-0.11,2.7-0.16,4.04c-0.1,2.48,0.12-1.42,0.05-0.6c-0.07,0.79-0.11,1.58-0.18,2.38c-0.23,2.85-0.53,5.69-0.9,8.52
		c-0.75,5.77-1.77,11.49-3.06,17.16c-0.16,0.69-0.33,1.37-0.48,2.06c-0.52,2.31,0.27-0.96,0.07-0.24c-0.42,1.48-0.78,2.98-1.2,4.47
		c-0.84,2.99-1.76,5.96-2.75,8.91c-1.93,5.75-4.14,11.42-6.61,16.96c-0.6,1.35-1.22,2.69-1.85,4.02c1.26-2.69-0.77,1.52-1.24,2.44
		c-1.42,2.78-2.9,5.52-4.45,8.22c-3.15,5.49-6.57,10.83-10.25,15.99c-1.87,2.62-3.83,5.18-5.81,7.72c-1.18,1.52-0.01,0.03-0.35,0.44
		c-0.5,0.6-1,1.21-1.5,1.81c-1.1,1.3-2.21,2.59-3.34,3.87c-8.98,10.13-19.04,19.3-29.93,27.35c-5.77,4.27-9.8,6.93-16.67,10.93
		c-6.44,3.75-13.07,7.15-19.86,10.22c-14.19,6.39-29.94,11.61-44.54,14.87c-44.12,9.85-89.75,7.56-134.36,2.65
		c-59.72-6.57-118.52-19.24-177.82-28.53c-58.23-9.12-117.63-15.01-176.4-7.61c-30.47,3.84-60.58,11.17-89.22,22.29
		c-7.4,2.87-14.55,6.48-22.15,8.73c-7.63,2.26-15.27,4.5-22.93,6.68c-15.23,4.34-30.53,8.47-45.97,12.02
		c-30.84,7.09-62.4,11.93-94.1,11.98c-11.59,0.02-23.19,0.74-34.76-0.26c-10.23-0.88-20.28-2.82-30.14-5.65
		c-39.51-11.34-75.81-36.13-99.66-69.48c-6.11-8.55-10.48-15.98-14.5-24.98c-4.35-9.76-6.34-15.78-8.28-25.79
		c-0.44-2.26-0.8-4.52-1.12-6.8c-0.08-0.57-0.15-1.14-0.22-1.71c0.02,0.21,0.19,1.92,0.07,0.45c-0.11-1.33-0.23-2.66-0.31-4
		c-0.14-2.29-0.2-4.58-0.2-6.87c0-1.15,0.02-2.3,0.06-3.44c0.02-0.57,0.05-1.15,0.07-1.72c0.09-2-0.17,1.86,0.01-0.14
		c0.44-4.83,1.1-9.62,2.14-14.36c0.11-0.48,0.8-3.26,0.36-1.59c0.3-1.15,0.63-2.29,0.97-3.43c0.75-2.5,1.59-4.97,2.52-7.41
		c3.52-9.27,8.5-17.94,14.82-26.47c3.18-4.29,6.66-9.01,10.71-12.51c4.55-3.94,11.43-6.45,16.83-9.09
		c23.96-11.7,49.3-20.43,75.18-26.79c52.97-13.02,108.15-15.92,162.5-15.63c54.85,0.29,109.57,4.27,164.35,6.67
		c26.71,1.17,53.44,6.06,79.74,10.68c24.86,4.37,49.6,9.38,74.39,14.16c46.49,8.96,93.51,17.56,141.02,17.73
		c47.61,0.18,94.87-9.34,137.91-29.97c24.44-11.71,47.25-26.61,68.61-43.24C3313.28,2448.22,3307.15,2424.9,3296.48,2433.21
		L3296.48,2433.21z"/>
</g>
<g>
	<path d="M4114.38,1500.98c-23.08,12.57-37.79,33.25-44.18,58.54c-6.42,25.42-5.6,52.02-4.86,78.02c0.37,13.15,0.79,26.3,0.45,39.46
		c-0.08,3.09-0.2,6.17-0.38,9.25c0.12-2.17-0.18,2.29-0.22,2.79c-0.15,1.81-0.33,3.63-0.52,5.44c-0.67,6.13-1.62,12.23-2.99,18.25
		c-0.17,0.76-0.35,1.53-0.54,2.29c0.45-1.78-0.05,0.14-0.13,0.41c-0.42,1.5-0.85,2.99-1.32,4.48c-0.93,2.95-1.99,5.86-3.17,8.72
		c-1.27,3.06-1.45,3.44-3.14,6.6c-2.25,4.21-4.65,8.34-7.19,12.37c-8.14,12.92-17.89,24.61-29.43,34.62
		c-20.36,17.65-45.38,28.18-71.18,35.14c-12.3,3.32-24.79,5.83-37.28,8.28c-11.98,2.35-24,4.23-34.47,10.92
		c-39.27,25.08-42.19,89.6-4.19,117.54c10.2,7.5,21.44,10.85,33.81,12.7c14.05,2.1,28.29,2.91,42.49,2.63
		c30.65-0.61,61.23-6.26,90.38-15.67c59.1-19.07,111.98-54.68,150.92-103.1c29.13-36.23,51.13-78.38,66.58-122.14
		c14.54-41.16,24.01-85.29,23.03-129.12c-0.76-34.01-8.18-71.76-33.44-96.46c-25.79-25.22-63.53-24.08-95.93-14.61
		C4136.13,1491.66,4125.12,1496.04,4114.38,1500.98c-9.5,4.38-5.89,28.84,4.93,23.86c19.26-8.87,38.88-15.96,59.62-17.74
		c8.02-0.69,16.13-0.55,24.08,0.77c1.29,0.21-1.3-0.26-0.03,0c0.35,0.07,0.71,0.14,1.06,0.21c0.93,0.21,1.86,0.41,2.78,0.64
		c1.81,0.45,3.6,0.97,5.36,1.56c3.2,1.07,6.33,2.37,9.34,3.91c0.79,0.4,1.55,0.84,2.33,1.25c0.29,0.15,0.57,0.33,0.86,0.49
		c1.1,0.62-1.36-0.86-0.29-0.19c1.48,0.93,2.92,1.9,4.32,2.94c2.62,1.94,5.1,4.08,7.41,6.39c0.54,0.54,1.06,1.1,1.6,1.65
		c1.89,1.92-0.54-0.73,0.5,0.55c1.12,1.38,2.26,2.74,3.32,4.17c2.03,2.74,3.85,5.62,5.56,8.57c1.46,2.52-0.38-0.9,0.32,0.58
		c0.35,0.74,0.75,1.47,1.11,2.21c0.84,1.72,1.62,3.46,2.36,5.22c1.43,3.42,2.64,6.92,3.78,10.44c0.49,1.5-0.65-2.3-0.24-0.76
		c0.1,0.37,0.22,0.73,0.32,1.1c0.27,0.99,0.55,1.98,0.8,2.98c0.52,2.03,1,4.07,1.44,6.12c0.84,3.98,1.53,7.98,2.08,12.01
		c0.15,1.1,0.27,2.21,0.42,3.31c-0.33-2.39-0.12-1.11,0.04,0.48c0.22,2.28,0.41,4.57,0.55,6.85c0.28,4.42,0.43,8.85,0.45,13.28
		c0.03,4.75-0.09,9.5-0.32,14.24c-0.03,0.62-0.21,3.77-0.11,2.1c0.11-1.83-0.12,1.62-0.16,2.12c-0.19,2.55-0.42,5.1-0.68,7.64
		c-1.02,10.05-2.52,20.04-4.43,29.96c-1,5.22-2.12,10.42-3.33,15.6c-0.28,1.18-0.56,2.36-0.85,3.55c-0.68,2.78,0.13-0.41-0.4,1.58
		c-0.72,2.72-1.43,5.44-2.18,8.14c-12.06,43.2-29.29,81.67-53.9,118.68c-29.84,44.85-70.95,81.52-120.59,105.52
		c-51.85,25.07-111.42,37.36-168.83,29.26c-10.53-1.48-20.82-4.61-28.62-10.68c-1.9-1.48-3.68-3.09-5.38-4.8
		c-1.23-1.24-1.96-2.11-3.73-4.6c-0.63-0.89-1.23-1.8-1.81-2.72c-0.37-0.6-1.73-2.98-0.75-1.14c-1.16-2.18-2.16-4.46-3.02-6.77
		c-0.22-0.58-1.31-4.31-0.55-1.45c-0.28-1.04-0.56-2.08-0.8-3.14c-0.24-1.05-0.45-2.11-0.64-3.18c-0.1-0.61-0.18-1.22-0.29-1.83
		c-0.44-2.37,0.09,1.65,0,0.08c-0.13-2.32-0.24-4.61-0.23-6.93c0-0.46,0.04-0.93,0.05-1.39c0.05-1.79-0.25,2.32-0.02,0.54
		c0.16-1.22,0.26-2.45,0.45-3.67c0.19-1.22,0.44-2.43,0.67-3.64c0.52-2.68-0.41,0.91,0.27-1.05c0.81-2.34,1.56-4.67,2.5-6.97
		c0.7-1.72-0.6,0.93,0.59-1.22c0.52-0.95,1.03-1.91,1.59-2.84c0.64-1.07,1.32-2.11,2.03-3.14c0.35-0.5,2.23-2.95,1.25-1.75
		c6.6-8.02,14.18-12.75,24.08-15.88c11.37-3.6,23.67-4.89,35.32-7.41c25.2-5.44,50.33-12.39,72.78-25.44
		c26.11-15.17,46.91-37.31,61.9-63.44c13.65-23.8,18.44-49.69,19.52-76.85c1.01-25.3-1.17-50.58-0.7-75.88
		c0.05-2.99,0.15-5.98,0.29-8.97c0.03-0.65,0.27-4.24,0.1-1.99c0.13-1.74,0.27-3.48,0.44-5.22c0.56-5.82,1.39-11.62,2.63-17.34
		c0.13-0.61,0.86-3.66,0.64-2.79c-0.2,0.78,0.57-2,0.78-2.71c0.82-2.75,1.76-5.46,2.83-8.12c0.46-1.15,0.95-2.3,1.46-3.43
		c0.74-1.64-0.65,1.28,0.16-0.33c0.24-0.47,0.48-0.95,0.73-1.42c1.32-2.5,2.78-4.94,4.37-7.27c5.41-7.93,14.18-15.48,23.63-20.62
		c5.24-2.86,6.46-10.02,5.32-15.43C4123.79,1505.39,4119.69,1498.09,4114.38,1500.98L4114.38,1500.98z"/>
</g>
<g>
	<path d="M2239.71,296.71c-41.99,3.93-83.84,9.42-125.33,17.01c-41.2,7.54-82.12,17.07-122.14,29.48
		c-37.56,11.65-74.44,25.87-109.43,43.9c-32.79,16.89-64.17,37.22-91.63,61.95c-25.81,23.24-48.26,50.67-64.44,81.47
		c-17.17,32.69-27.62,68.59-30.94,105.36c-3.93,43.52,0.9,87.38,11.46,129.69c6.28,25.13,14.41,49.82,23.89,73.92
		c8.64,21.97,17.89,44.22,32.92,62.7c21.31,26.22,52.24,42.47,86.55,38.46c32.47-3.8,62.03-22.45,83.6-46.42
		c23.66-26.28,40.01-60.1,42.82-95.59c1.55-19.64-0.63-39.04-6.91-57.74c-3.13-9.32-7.46-18.21-12.49-26.64
		c-5.63-9.43-11.35-19.04-13.62-28.77c-2.43-10.41-2.44-18.92-0.42-29.78c1.84-9.85,6.01-20.93,11.21-30.75
		c12.74-24.09,30.85-44.92,50.25-63.88c42.02-41.07,90.74-77.17,144.75-100.73c52.45-22.88,109.19-34.18,166.34-34.81
		c28.71-0.32,57.44,2,85.77,6.68c29.95,4.95,59.79,9.99,90,13.11c31.1,3.22,62.46,4.98,93.72,3.69c21.8-0.91,43.67-2.32,60.37-18.03
		c27.67-26.03,28.27-73.92,2.56-101.35c-15.65-16.7-39.39-20.1-60.81-24.09c-29.06-5.41-58.47-8.58-87.97-10.33
		c-59.73-3.53-119.59-1.58-179.35-0.33c-26.78,0.56-53.57,1-80.36,0.48c-10.92-0.21-10.54,24.64,0.61,24.86
		c55.83,1.08,111.67-1.65,167.5-2.08c58.1-0.44,116.88,0.79,174.2,11.18c20.47,3.71,44.16,6.41,58.48,21.98
		c0.77,0.84,0,0.01-0.13-0.14c0.3,0.36,0.61,0.72,0.9,1.09c0.57,0.75,1.15,1.47,1.7,2.24c1.17,1.63,2.25,3.33,3.23,5.09
		c-0.92-1.66,0.02,0.08,0.35,0.79c0.38,0.84,0.76,1.67,1.11,2.52c0.35,0.85,0.66,1.71,0.98,2.57c0.16,0.43,0.29,0.87,0.44,1.3
		c0.48,1.36-0.46-2.09,0.02,0.12c0.38,1.79,0.82,3.56,1.15,5.36c0.25,1.35,0.31,2.48,0.11,0.32c0.1,1.06,0.19,2.12,0.24,3.19
		c0.09,1.83,0.04,3.65,0.02,5.48c-0.02,1.44,0.07-0.99,0.07-1.03c-0.05,0.45-0.07,0.91-0.13,1.37c-0.13,1.06-0.25,2.12-0.41,3.17
		c-0.17,1.06-0.39,2.1-0.58,3.15c-0.08,0.45-0.2,0.89-0.3,1.34c0.02-0.09,0.58-2.06,0.18-0.77c-0.59,1.9-1.15,3.79-1.88,5.64
		c-0.33,0.85-0.69,1.69-1.06,2.53c-0.83,1.92,0.63-1.08-0.39,0.75c-0.97,1.74-1.94,3.47-3.06,5.13c-0.51,0.77-1.06,1.51-1.6,2.26
		c-0.27,0.37-0.55,0.74-0.84,1.1c0.12-0.15,0.88-1.05,0.13-0.2c-1.44,1.65-2.94,3.22-4.56,4.69c-3.26,2.96-4.99,4.2-8.67,6.17
		c-8.81,4.72-17.72,5.95-27.56,6.72c-14.69,1.15-29.43,1.48-44.16,1.26c-30.68-0.45-61.31-3.22-91.72-7.21
		c-28.55-3.75-56.77-9.68-85.35-13.12c-55.96-6.73-112.77-3.77-167.53,9.75c-55.94,13.81-107.57,39.36-153.62,73.83
		c-23.33,17.46-45.9,36.1-66.43,56.81c-18.97,19.13-36.88,40.34-49.33,64.37c-11.23,21.69-18.29,45.92-15.77,70.52
		c1.31,12.72,4.73,25.14,10.61,36.53c2.88,5.57,6.31,10.74,9.52,16.12c1.2,2.01,2.03,3.51,2.39,4.2c1.07,2.06,2.08,4.15,3.03,6.27
		c1.86,4.14,3.43,8.37,4.87,12.67c0.44,1.3-0.09-0.33-0.14-0.5c0.15,0.49,0.29,0.98,0.43,1.47c0.27,0.98,0.54,1.96,0.8,2.95
		c0.54,2.12,1.03,4.26,1.46,6.4c0.39,1.96,0.73,3.94,1.02,5.92c0.14,0.99,0.27,1.97,0.4,2.96c-0.36-2.82,0.05,0.72,0.12,1.63
		c0.33,4.09,0.45,8.19,0.37,12.29c-0.02,0.98-0.06,1.96-0.09,2.94c-0.02,0.49-0.05,0.98-0.07,1.47c0-0.09,0.18-2.32,0.05-0.87
		c-0.18,2.11-0.36,4.22-0.62,6.32c-0.52,4.19-1.24,8.36-2.14,12.48c-0.21,0.95-0.43,1.9-0.66,2.85c0.48-2.04,0.03-0.11-0.22,0.78
		c-0.56,2.03-1.15,4.06-1.8,6.07c-1.29,4.02-2.75,7.98-4.38,11.88c-0.75,1.8-1.54,3.58-2.35,5.35c-0.52,1.14,0.1-0.18,0.17-0.35
		c-0.21,0.44-0.42,0.88-0.64,1.31c-0.51,1.01-1.02,2.03-1.54,3.04c-1.95,3.74-4.05,7.39-6.29,10.96c-2.15,3.42-4.42,6.76-6.82,10.02
		c-2.89,3.92-3.6,4.8-6.53,8.18c-5.3,6.11-11.07,11.82-17.25,17.05c-6.42,5.43-11.37,9-18.08,12.95c-6.57,3.87-13.48,7.19-20.64,9.8
		c-7.49,2.73-12.61,4.04-20.11,5.02c-14.99,1.96-27.96,0.53-41.44-4.97c-14.2-5.79-26.76-16.24-36.03-28.06
		c-14.19-18.09-22.22-38.73-30.56-60.37c-8.84-22.94-16.04-45.21-21.69-68.96c-2.58-10.86-4.78-21.81-6.54-32.83
		c-0.82-5.16-1.53-10.34-2.16-15.52c-0.18-1.47-0.01-0.02,0.02,0.24c-0.07-0.61-0.13-1.22-0.2-1.83c-0.13-1.21-0.25-2.43-0.37-3.64
		c-0.27-2.8-0.51-5.61-0.71-8.42c-0.7-9.69-1.02-19.41-0.88-29.13c0.03-2.45,0.09-4.89,0.19-7.34c0.04-1.12,0.09-2.24,0.14-3.35
		c0.03-0.66,0.21-3.92,0.14-2.78c-0.08,1.28,0.12-1.7,0.16-2.2c0.08-1.1,0.17-2.19,0.27-3.28c0.2-2.35,0.44-4.7,0.7-7.05
		c1-8.97,2.41-17.9,4.28-26.74c0.43-2.03,0.88-4.06,1.36-6.09c0.11-0.46,0.76-3.17,0.48-2.02c-0.33,1.32,0.09-0.34,0.13-0.5
		c0.22-0.83,0.43-1.66,0.65-2.48c1.1-4.1,2.3-8.17,3.6-12.22c2.61-8.11,5.61-16.09,9.01-23.9c0.79-1.82,1.62-3.62,2.44-5.43
		c0.21-0.45,0.42-0.9,0.63-1.35c-0.08,0.17-0.7,1.45-0.15,0.32c0.5-1.04,1.01-2.07,1.52-3.1c1.91-3.82,3.91-7.59,6-11.31
		c4.09-7.27,8.53-14.35,13.29-21.21c2.33-3.36,4.74-6.67,7.22-9.93c2.94-3.86,3.97-5.14,6.7-8.4
		c21.89-26.12,48.98-48.87,76.94-66.97c31.19-20.19,64.84-36.41,99.42-49.89c37.21-14.49,75.62-25.83,114.47-35
		c39.68-9.36,79.94-16.31,120.35-21.66c19.85-2.63,39.76-4.84,59.7-6.71c5.86-0.55,7.98-7.64,7.85-12.63
		C2248.07,304.64,2245.56,296.16,2239.71,296.71L2239.71,296.71z"/>
</g>
</svg>
