<?xml version="1.0" encoding="utf-8"?>
<!-- Generator: Adobe Illustrator 24.1.2, SVG Export Plug-In . SVG Version: 6.00 Build 0)  -->
<svg version="1.1" id="Capa_1" xmlns="http://www.w3.org/2000/svg" xmlns:xlink="http://www.w3.org/1999/xlink" x="0px" y="0px"
	 viewBox="0 0 54 60" style="enable-background:new 0 0 54 60;" xml:space="preserve">
<style type="text/css">
	.st0{fill:#666666;}
</style>
<g>
	<path class="st0" d="M53.1,36.3c-3.3,0-6-2.4-6-5.3c0-0.5-0.4-0.8-0.9-0.8s-0.9,0.3-0.9,0.8c0,3.8,3.5,6.9,7.8,6.9
		c0.5,0,0.9-0.3,0.9-0.8S53.6,36.3,53.1,36.3z"/>
	<path class="st0" d="M52.5,34.5c0.5,0,0.9-0.3,0.9-0.8c0-0.5-0.4-0.8-0.9-0.8c-0.8,0-1.4-0.6-1.4-1.3c0-0.5-0.4-0.8-0.9-0.8
		s-0.9,0.3-0.9,0.8C49.2,33.2,50.7,34.5,52.5,34.5z"/>
	<path class="st0" d="M18,8.6c3.3,0,6,2.4,6,5.3c0,0.5,0.4,0.8,0.9,0.8s0.9-0.3,0.9-0.8c0-3.8-3.5-6.9-7.8-6.9
		c-0.5,0-0.9,0.3-0.9,0.8C17.1,8.3,17.5,8.6,18,8.6z"/>
	<path class="st0" d="M17.7,11.2c0,0.5,0.4,0.8,0.9,0.8c0.8,0,1.4,0.6,1.4,1.3c0,0.5,0.4,0.8,0.9,0.8s0.9-0.3,0.9-0.8
		c0-1.6-1.4-2.9-3.2-2.9C18.2,10.5,17.7,10.9,17.7,11.2z"/>
	<path class="st0" d="M39.7,36.3c-1.2-0.6-2.3-0.8-3.3-0.5c-0.7,0.2-1.3,0.6-1.8,1.2c-0.9,1-2.1,2.1-2.3,2.3
		c-2.2,1.3-3.9,1.1-5.7-0.5l-10.3-9.2c-1.8-1.6-2-3.1-0.5-5c0.2-0.2,1.4-1.3,2.6-2.1c0.7-0.4,1.2-1,1.3-1.6c0.3-0.9,0.1-1.9-0.6-2.9
		c-0.2-0.2-3.9-5.8-7.3-7.4c-1.7-0.8-3.9-0.6-5.2,0.7l-2.2,2.1c-3.6,3.2-4.9,6.8-3.9,10.7c0.9,3.2,3.3,6.7,7.5,10.4l13.2,11.6
		c5.2,4.6,10.2,6.9,14.7,6.9c3.3,0,6.5-1.3,9.3-3.7l2.2-2c1.3-1.2,1.7-3.1,0.8-4.6C46.3,39.7,40,36.4,39.7,36.3z M46,46.2l-2.2,2
		c-5.9,5.2-13.1,4.1-21.4-3.2L9.1,33.3c-3.9-3.3-6.2-6.6-7-9.6c-0.9-3.4,0.2-6.4,3.4-9.3l2.2-2c0.5-0.5,1.2-0.7,1.9-0.7
		c0.4,0,0.8,0.1,1.3,0.2c3,1.3,6.6,6.7,6.6,6.7c0.4,0.6,0.5,1.3,0.4,1.7c-0.1,0.3-0.3,0.5-0.6,0.6l-0.2,0.2c-0.8,0.6-2.6,1.9-3,2.5
		c-0.5,0.7-0.9,1.4-1.1,2.1c-0.6-1.1-1.2-2.5-1.3-3.9c-0.1-0.4-0.4-0.7-1-0.7c-0.4,0.1-0.8,0.4-0.8,0.9c0.6,5.5,5.5,9.1,5.8,9.3h0.1
		l9.5,8.4l0.1,0.1c0,0.1,0.1,0.1,0.1,0.2c0.2,0.2,4.2,3.6,10.4,4.2H36c0.4,0,0.8-0.3,0.9-0.7c0.1-0.4-0.3-0.8-0.8-0.9
		c-1.9-0.2-3.6-0.6-4.9-1.3c0.7-0.2,1.3-0.5,2.1-0.9c0.5-0.3,2.1-2,2.8-2.6l0.1-0.2c0.2-0.3,0.4-0.5,0.7-0.6c0.5-0.2,1.3,0,2,0.4
		c0.1,0,6.1,3.2,7.6,5.8C47,44.3,46.8,45.4,46,46.2z"/>
</g>
</svg>
