<?xml version="1.0" encoding="utf-8"?>
<!-- Generator: Adobe Illustrator 26.5.0, SVG Export Plug-In . SVG Version: 6.00 Build 0)  -->
<svg version="1.1" id="Calque_1" xmlns="http://www.w3.org/2000/svg" xmlns:xlink="http://www.w3.org/1999/xlink" x="0px" y="0px"
	 viewBox="0 0 44 50" style="enable-background:new 0 0 44 50;" xml:space="preserve">
<style type="text/css">
	.st0{fill-rule:evenodd;clip-rule:evenodd;fill:#F6C7B3;}
	.st1{opacity:0.7;fill-rule:evenodd;clip-rule:evenodd;fill:#F6C7B3;enable-background:new    ;}
	.st2{fill:none;stroke:#1B1B1B;stroke-linecap:round;stroke-linejoin:round;}
	.st3{fill:#1B1B1B;}
</style>
<path class="st0" d="M19.63,5.04c5,0.31,8.25,3.78,11.9,6.68c4.99,3.97,12.61,6.92,12.47,12.7c-0.15,6.54-6.28,11.94-13.11,15.03
	c-7.23,3.27-16.53,5.32-23.33,1.45c-6.33-3.6-4.95-11.37-5.41-17.8c-0.34-4.65-0.3-9.39,3.19-13C8.77,6.54,14.21,4.7,19.63,5.04z"/>
<path class="st1" d="M42.04,3.04c0.82,1.54,1.1,3.55-0.17,4.74c-1.27,1.19-3.21,0.71-4.72-0.17c-1.42-0.82-2.56-2.26-2.22-3.87
	c0.33-1.53,1.99-2.18,3.54-2.33C39.9,1.27,41.35,1.76,42.04,3.04z"/>
<path class="st2" d="M6,14c-2.76,0-5-2.24-5-5s2.24-5,5-5c2.76,0,5,2.24,5,5S8.76,14,6,14z"/>
<path class="st3" d="M34,50c-1.1,0-2-0.9-2-2c0-1.1,0.9-2,2-2s2,0.9,2,2C36,49.1,35.1,50,34,50z"/>
</svg>
