<?xml version="1.0" encoding="utf-8"?>
<!-- Generator: Adobe Illustrator 24.1.2, SVG Export Plug-In . SVG Version: 6.00 Build 0)  -->
<svg version="1.1" id="Layer_1" xmlns="http://www.w3.org/2000/svg" xmlns:xlink="http://www.w3.org/1999/xlink" x="0px" y="0px"
	 viewBox="0 0 52.67 39.28" style="enable-background:new 0 0 52.67 39.28;" xml:space="preserve">
<style type="text/css">
	.st0{fill:#3E8AAB;}
</style>
<g>
	<g>
		<path class="st0" d="M31.92,3.51C26.5,3.69,20.82,3.49,15.75,4.17c-2.54,0.34-4.93,0.91-6.99,1.86C7.01,6.83,5.89,8.28,5.5,10.36
			c-0.71,3.79,1.38,9.61,5.66,15.26c2.91,3.84,6.62,7.92,10.6,10.56c4.24,2.83,7.96,3.39,10.76,2.96c1.98-0.3,3.64-1.03,5.09-1.96
			c1.76-1.12,3.35-2.44,4.76-3.93c2.32-2.45,4.21-5.41,5.11-9.11c0.63-2.58,0.96-5.59-0.08-9.24c-0.67-2.35-2.05-5.38-4.75-7.76
			c-2.93-2.59-5.95-3.43-8.25-3.62C33.54,3.45,32.71,3.45,31.92,3.51c-0.63,0.04-1.02,0.69-0.62,1.56c0.41,0.91,1.32,1.29,1.86,1.25
			c0.34-0.02,0.69-0.04,1.04-0.03c0.05,0,0.41,0.01,0.08,0c0.08,0,0.17,0,0.25,0.01c0.18,0.01,0.37,0.02,0.55,0.04
			c0.65,0.06,1.32,0.2,2.02,0.35c0.31,0.07-0.31-0.1,0.02,0c0.06,0.02,0.12,0.04,0.18,0.05c0.15,0.05,0.3,0.09,0.45,0.15
			C38.06,7,38.37,7.12,38.7,7.27c0.14,0.06,0.28,0.13,0.42,0.2c0.08,0.04,0.16,0.08,0.25,0.12c-0.03-0.01-0.33-0.19-0.11-0.06
			c0.29,0.18,0.57,0.33,0.86,0.52c0.25,0.17,0.49,0.35,0.74,0.53c0.35,0.26-0.24-0.22,0.09,0.07c0.14,0.12,0.27,0.24,0.41,0.36
			c0.22,0.21,0.44,0.42,0.65,0.64c0.1,0.11,0.2,0.23,0.31,0.34c0.23,0.24-0.24-0.31-0.04-0.05c0.05,0.07,0.12,0.14,0.17,0.21
			c0.42,0.53,0.76,1.06,1.1,1.6c0.23,0.38-0.12-0.25,0.07,0.13c0.07,0.14,0.15,0.28,0.21,0.41c0.16,0.32,0.3,0.63,0.43,0.94
			c0.12,0.3,0.23,0.59,0.33,0.89c0.14,0.4-0.06-0.22,0.06,0.18c0.05,0.19,0.11,0.37,0.16,0.56c0.18,0.7,0.3,1.36,0.39,2.01
			c0.02,0.17,0.04,0.33,0.06,0.49c0.03,0.25,0-0.01,0-0.05c0.01,0.1,0.02,0.2,0.02,0.3c0.02,0.38,0.03,0.74,0.03,1.1
			c0,0.75-0.06,1.46-0.15,2.15c-0.05,0.35-0.1,0.69-0.17,1.03c0.05-0.27-0.05,0.23-0.07,0.31c-0.05,0.21-0.1,0.42-0.16,0.62
			c-0.2,0.76-0.45,1.48-0.74,2.17c-0.31,0.75-0.66,1.46-1.04,2.15c-0.04,0.07-0.08,0.13-0.12,0.2c0,0.01-0.2,0.34-0.08,0.14
			c-0.11,0.17-0.21,0.34-0.32,0.5c-0.23,0.36-0.47,0.7-0.73,1.04c-1.09,1.46-2.36,2.77-3.75,3.93c-1.31,1.09-2.77,2.12-4.52,2.81
			c-0.18,0.07-0.37,0.14-0.56,0.21c-0.11,0.04-0.22,0.07-0.34,0.11c0.19-0.06-0.04,0.01-0.09,0.02c-0.38,0.1-0.77,0.18-1.17,0.25
			c-0.36,0.05-0.73,0.09-1.12,0.11c-0.18,0.01-0.37,0.01-0.56,0.01c-0.37,0,0.27,0.02-0.11,0c-0.11-0.01-0.23-0.01-0.34-0.02
			c-0.36-0.03-0.74-0.07-1.13-0.14c-0.19-0.03-0.37-0.07-0.56-0.11c-0.11-0.02-0.23-0.05-0.34-0.08c-0.04-0.01-0.42-0.13-0.1-0.02
			c-0.77-0.23-1.55-0.53-2.38-0.93c-0.08-0.04-0.64-0.33-0.33-0.16c-0.19-0.1-0.38-0.21-0.57-0.32c-0.42-0.24-0.84-0.5-1.25-0.79
			c-0.38-0.26-0.76-0.53-1.14-0.81c-0.19-0.15-0.38-0.29-0.57-0.45c-0.38-0.3,0.26,0.22-0.12-0.1c-0.11-0.09-0.23-0.19-0.34-0.29
			c-1.73-1.47-3.34-3.15-4.83-4.86c-0.71-0.82-1.62-1.94-2.38-2.96c-0.93-1.24-1.79-2.51-2.48-3.75c-1.42-2.53-2.21-4.79-2.44-6.84
			c-0.04-0.37-0.05-0.74-0.04-1.2c0.01-0.22,0.03-0.44,0.05-0.65c0.01-0.08,0.02-0.17,0.04-0.25c0.03-0.15,0.03-0.16,0.01-0.05
			c0.02-0.08,0.04-0.16,0.05-0.24c0.1-0.39,0.24-0.75,0.41-1.09c0.04-0.06,0.07-0.13,0.11-0.2c-0.12,0.22,0.07-0.09,0.08-0.11
			C9,9.86,9.14,9.69,9.3,9.53C9.42,9.4,9.56,9.27,9.71,9.16C9.66,9.19,9.53,9.27,9.73,9.14c0.1-0.06,0.19-0.13,0.29-0.18
			c0.44-0.25,0.92-0.45,1.41-0.65c0.96-0.38,1.98-0.67,3.05-0.9c4.52-0.97,9.75-0.95,14.9-1.01c1.26-0.02,2.52-0.04,3.77-0.08
			c0.64-0.02,1.01-0.7,0.62-1.56C33.36,3.84,32.47,3.49,31.92,3.51L31.92,3.51z"/>
		<polyline class="st0" points="26.18,5.16 36.38,4.86 41.74,7.99 45.39,12.7 46.69,18.59 45.34,25.49 41.48,31.35 35.44,36.57 
			30.72,38.33 20.76,34.27 12.63,25.67 7.21,16.83 7.09,10.11 12.4,6.1 		"/>
	</g>
</g>
</svg>
