<?xml version="1.0" encoding="utf-8"?>
<!-- Generator: Adobe Illustrator 24.1.2, SVG Export Plug-In . SVG Version: 6.00 Build 0)  -->
<svg version="1.1" id="Layer_1" xmlns="http://www.w3.org/2000/svg" xmlns:xlink="http://www.w3.org/1999/xlink" x="0px" y="0px"
	 viewBox="0 0 69.8 55.9" style="enable-background:new 0 0 69.8 55.9;" xml:space="preserve">
<style type="text/css">
	.st0{fill:#3E8AAB;}
</style>
<g>
	<g>
		<path class="st0" d="M40.7,49.6c6.6-4.5,14.1-8.7,20-13.4c3-2.5,5.5-5,7.5-7.8c1.7-2.3,2-5,1-7.8C67.3,15.5,60.5,10.1,51,6.5
			C44.5,4.2,36.9,2.1,29.9,2c-7.5,0-12.5,2.2-15.8,5c-2.3,1.9-3.9,4.1-5.1,6.4c-1.4,2.8-2.5,5.6-3.2,8.5c-1.2,4.7-1.4,9.9,0.1,15
			c1.1,3.6,2.8,7.4,6.9,11.1c2.6,2.2,6.5,4.9,11.6,5.7c5.6,0.9,10-0.5,13.1-2.1C38.6,50.9,39.7,50.3,40.7,49.6
			c0.8-0.6,0.8-1.7-0.3-2.4c-1.2-0.7-2.6-0.5-3.2-0.1c-0.4,0.2-0.8,0.6-1.3,0.9c-0.1,0.1-0.5,0.3-0.1,0.1c-0.1,0.1-0.2,0.1-0.3,0.2
			c-0.2,0.1-0.5,0.3-0.8,0.4c-0.9,0.5-1.8,0.8-2.9,1.1c-0.5,0.1,0.5-0.1,0,0c-0.1,0.1-0.1,0.1-0.2,0.1c-0.2,0.1-0.5,0.1-0.7,0.2
			c-0.5,0.1-1,0.3-1.5,0.3c-0.3,0-0.4,0.1-0.7,0.1c-0.1,0.1-0.3,0-0.4,0.1c0,0,0.5,0,0.2,0.1c-0.5,0-0.9,0.1-1.5,0.1
			c-0.4,0-0.9-0.1-1.3-0.1c-0.6-0.1,0.4,0-0.2-0.1c-0.3,0-0.5-0.2-0.8-0.1c-0.4,0-0.9-0.2-1.3-0.3c-0.2-0.1-0.4,0-0.7-0.2
			c-0.5-0.2,0.5,0.2,0.2,0.1c-0.2-0.1-0.3-0.1-0.3-0.1c-0.9-0.4-1.8-0.7-2.5-1.1c-0.6-0.3,0.4,0.2-0.2-0.1c-0.2-0.2-0.4-0.2-0.6-0.4
			c-0.4-0.3-0.8-0.5-1.2-0.7c-0.4-0.2-0.7-0.6-1.1-0.8c-0.4-0.3,0.2,0.2-0.2-0.2c-0.2-0.2-0.4-0.3-0.6-0.5c-0.8-0.7-1.3-1.4-2-2.2
			c-0.1-0.2-0.3-0.4-0.5-0.6c-0.3-0.3,0,0,0.1,0.1c-0.1-0.1-0.1-0.2-0.2-0.3c-0.2-0.4-0.6-0.8-0.9-1.4c-0.5-1-1-1.9-1.3-2.8
			c-0.2-0.4-0.4-0.9-0.6-1.4c0.2,0.3-0.2-0.3-0.1-0.5c-0.1-0.2-0.2-0.6-0.2-0.9c-0.3-1.1-0.4-2.1-0.6-3.2c-0.2-1.2-0.2-2.3-0.3-3.4
			c-0.1-0.1,0-0.3,0-0.3s0-0.6,0-0.3c0-0.3,0-0.6,0.1-0.9c0.1-0.6,0.1-1.2,0.2-1.8c0.3-2.6,1-5.2,1.9-7.6c0.9-2.3,1.9-4.7,3.7-6.9
			c0.2-0.2,0.3-0.5,0.6-0.7c0-0.2,0.3-0.3,0.4-0.3c-0.2,0.2,0,0,0.1-0.1c0.5-0.4,0.8-0.9,1.3-1.3c0.4-0.3,0.9-0.6,1.4-1
			c0.2-0.1,0.4-0.2,0.8-0.4c0.5-0.3-0.3,0.2,0.1-0.1c0.1-0.1,0.3-0.2,0.4-0.2c0.4-0.2,1-0.5,1.6-0.7C22.4,7,22.8,6.9,23,6.8
			c0.1-0.1,0.3-0.2,0.5-0.1c0,0,0.6-0.2,0.1-0.1c1.2-0.4,2.3-0.6,3.7-0.8c0.1-0.1,1-0.1,0.5,0c0.3,0,0.7-0.1,0.9-0.1
			c0.7-0.1,1.5-0.1,2.2-0.1c0.7,0,1.4,0.1,2,0.2c0.3,0.1,0.7,0,1,0.1c0.7,0-0.4,0,0.3,0C34.5,6,34.7,6,34.9,6c3.3,0.5,6.6,1.2,9.7,2
			c1.5,0.5,3.5,1.1,5.2,1.7c2.1,0.8,4.1,1.7,5.8,2.6c3.7,1.9,6.3,4,8.1,6.4c0.3,0.4,0.6,0.8,0.9,1.5c0.2,0.3,0.3,0.5,0.4,0.8
			c0.1,0.1,0.1,0.2,0.2,0.3c0.1,0.2,0.1,0.2,0.1,0.1c0.1,0.1,0.1,0.2,0.2,0.3c0.2,0.6,0.3,1.1,0.3,1.7c0.1,0.1,0,0.3,0,0.3
			c-0.1-0.4,0,0.2,0,0.2c0,0.3,0,0.6-0.1,0.9c0,0.3-0.1,0.5-0.3,0.7c0.1-0.1,0.2-0.2,0,0c-0.6,0.2-0.6,0.4-0.8,0.4
			c-0.4,0.6-0.8,1.3-1.4,1.9c-0.9,1.2-2.1,2.4-3.3,3.5c-5,4.7-11.7,8.8-18.2,12.9c-1.6,1-3.2,2-4.8,3c-0.8,0.6-0.8,1.7,0.3,2.4
			C38.6,50.3,40,50,40.7,49.6L40.7,49.6z"/>
		<polyline class="st0" points="46.7,43.1 34.1,51.4 25,51.9 16.9,49 11,42.9 7.7,33.5 8.4,23.4 12.2,12.4 16.9,6.6 32.5,3.7 
			49.1,7.7 62.4,14.2 67.4,22.1 63.6,31.2 		"/>
	</g>
</g>
</svg>
