<?xml version="1.0" encoding="utf-8"?>
<!-- Generator: Adobe Illustrator 24.1.2, SVG Export Plug-In . SVG Version: 6.00 Build 0)  -->
<svg version="1.1" id="Layer_1" xmlns="http://www.w3.org/2000/svg" xmlns:xlink="http://www.w3.org/1999/xlink" x="0px" y="0px"
	 viewBox="0 0 52.67 51.34" style="enable-background:new 0 0 52.67 51.34;" xml:space="preserve">
<style type="text/css">
	.st0{fill:#3E8AAB;}
</style>
<g>
	<g>
		<path class="st0" d="M40.53,16.89c-3.96-3.7-7.83-7.86-11.9-10.96c-2.04-1.55-4.13-2.85-6.25-3.63C20.57,1.63,18.75,1.85,17,3.05
			c-3.18,2.18-5.82,7.78-6.78,14.79c-0.66,4.77-0.92,10.28,0.02,14.97c1,5,3.23,8.03,5.52,9.71c1.61,1.18,3.3,1.84,4.99,2.22
			c2.04,0.45,4.1,0.64,6.15,0.59c3.37-0.09,6.8-0.85,10.06-2.82c2.27-1.38,4.63-3.27,6.47-6.59c1.18-2.13,2.36-5.25,2.13-8.85
			c-0.24-3.9-1.79-6.63-3.27-8.4C41.71,17.99,41.12,17.41,40.53,16.89c-0.47-0.41-1.21-0.23-1.54,0.67
			c-0.35,0.93,0.02,1.84,0.43,2.2c0.26,0.23,0.51,0.46,0.76,0.71c0.04,0.04,0.28,0.3,0.05,0.05c0.06,0.06,0.12,0.12,0.17,0.19
			c0.12,0.13,0.24,0.27,0.36,0.42c0.41,0.5,0.79,1.08,1.18,1.67c0.17,0.27-0.15-0.29,0.01,0.01c0.03,0.06,0.06,0.11,0.09,0.17
			c0.07,0.14,0.14,0.28,0.21,0.42c0.14,0.3,0.28,0.61,0.41,0.94c0.05,0.14,0.1,0.29,0.16,0.44c0.03,0.08,0.06,0.18,0.09,0.26
			c-0.01-0.03-0.1-0.37-0.04-0.12c0.08,0.33,0.17,0.64,0.24,0.98c0.06,0.29,0.1,0.6,0.15,0.9c0.07,0.43-0.01-0.33,0.01,0.12
			c0.01,0.18,0.03,0.36,0.03,0.54c0.01,0.3,0.01,0.61,0,0.91c0,0.15-0.02,0.3-0.02,0.46c0,0.34,0.05-0.39,0.01-0.07
			c-0.01,0.09-0.02,0.18-0.03,0.28c-0.08,0.68-0.21,1.29-0.35,1.9c-0.1,0.43,0.09-0.26-0.04,0.14c-0.05,0.15-0.09,0.3-0.14,0.44
			c-0.11,0.34-0.24,0.66-0.36,0.97c-0.13,0.3-0.26,0.59-0.39,0.87c-0.19,0.39,0.11-0.2-0.09,0.17c-0.09,0.17-0.19,0.34-0.28,0.5
			c-0.37,0.62-0.75,1.18-1.15,1.69c-0.1,0.13-0.21,0.26-0.31,0.39c-0.15,0.2,0.01-0.01,0.03-0.04c-0.06,0.07-0.13,0.15-0.19,0.22
			c-0.25,0.28-0.5,0.55-0.76,0.8c-0.53,0.53-1.07,0.99-1.62,1.41c-0.28,0.21-0.57,0.42-0.85,0.61c0.23-0.16-0.2,0.13-0.27,0.17
			c-0.18,0.11-0.37,0.22-0.55,0.33c-0.68,0.39-1.37,0.72-2.06,1.01c-0.75,0.31-1.5,0.57-2.26,0.78c-0.08,0.02-0.15,0.04-0.22,0.06
			c-0.01,0-0.38,0.1-0.15,0.04c-0.19,0.04-0.39,0.09-0.58,0.13c-0.42,0.09-0.83,0.16-1.25,0.22c-1.81,0.26-3.62,0.29-5.43,0.12
			c-1.7-0.16-3.46-0.46-5.18-1.21c-0.18-0.08-0.36-0.16-0.54-0.25c-0.1-0.05-0.21-0.11-0.31-0.16c0.18,0.09-0.04-0.02-0.08-0.05
			c-0.34-0.2-0.67-0.41-1-0.66c-0.29-0.22-0.58-0.45-0.87-0.71c-0.14-0.13-0.27-0.25-0.41-0.39c-0.26-0.26,0.17,0.2-0.08-0.08
			c-0.08-0.09-0.15-0.17-0.22-0.25c-0.24-0.28-0.47-0.58-0.7-0.9c-0.11-0.15-0.22-0.31-0.32-0.48c-0.06-0.09-0.12-0.2-0.18-0.29
			c-0.02-0.04-0.21-0.39-0.05-0.09c-0.38-0.71-0.73-1.47-1.03-2.34c-0.03-0.09-0.22-0.68-0.12-0.34c-0.06-0.21-0.12-0.42-0.18-0.63
			c-0.12-0.47-0.23-0.95-0.33-1.44c-0.09-0.45-0.16-0.92-0.23-1.38c-0.03-0.24-0.06-0.48-0.09-0.72c-0.05-0.48,0.03,0.33-0.02-0.16
			c-0.01-0.14-0.02-0.29-0.04-0.45c-0.18-2.26-0.14-4.59,0.02-6.85c0.08-1.08,0.22-2.52,0.41-3.78c0.22-1.53,0.51-3.04,0.9-4.41
			c0.79-2.79,1.83-4.95,3.11-6.56c0.23-0.3,0.48-0.56,0.82-0.87c0.16-0.15,0.33-0.29,0.5-0.43c0.07-0.05,0.13-0.1,0.2-0.15
			C18.09,5.86,18.1,5.85,18,5.91c0.07-0.04,0.14-0.09,0.21-0.13c0.35-0.2,0.7-0.37,1.05-0.48c0.07-0.02,0.14-0.04,0.21-0.06
			c-0.24,0.07,0.11-0.02,0.13-0.02c0.22-0.04,0.44-0.06,0.66-0.06c0.18,0,0.37,0,0.55,0.02c-0.05,0-0.2-0.04,0.03,0.01
			c0.11,0.03,0.22,0.05,0.34,0.08c0.49,0.13,0.97,0.33,1.45,0.54c0.94,0.41,1.87,0.93,2.79,1.53c3.88,2.51,7.57,6.23,11.25,9.82
			c0.9,0.88,1.81,1.75,2.72,2.61c0.46,0.43,1.21,0.22,1.54-0.67C41.32,18.14,40.93,17.26,40.53,16.89L40.53,16.89z"/>
		<polyline class="st0" points="35.3,14 42.72,21 44.31,27 43.56,32.92 40.31,38 34.47,41.92 27.6,43.34 19.64,42.75 15.06,40.67 
			10.89,30.75 11.22,18.92 13.64,8.84 18.31,4 24.89,4.92 		"/>
	</g>
</g>
</svg>
