<?xml version="1.0" encoding="utf-8"?>
<!-- Generator: Adobe Illustrator 24.1.2, SVG Export Plug-In . SVG Version: 6.00 Build 0)  -->
<svg version="1.1" id="Layer_1" xmlns="http://www.w3.org/2000/svg" xmlns:xlink="http://www.w3.org/1999/xlink" x="0px" y="0px"
	 viewBox="0 0 59.33 202" style="enable-background:new 0 0 59.33 202;" xml:space="preserve">
<style type="text/css">
	.st0{fill:#3E8AAB;}
	.st1{fill:#F8EFE5;}
</style>
<g>
	<g>
		<path class="st0" d="M50.13,11.72c-2.53,2.53-4.82,5.35-7.03,8.16c-5.76,7.31-10.85,15.16-15.32,23.32
			c-6.22,11.36-11.16,23.44-14.6,35.93c-4.23,15.37-6.14,31.41-5.52,47.35c0.75,19.29,5.11,38.27,12.32,56.16
			c0.98,2.44,2.02,4.86,3.11,7.26c0.41,0.9,1.14,0.86,1.56,0c0.48-0.99,0.45-2.53,0-3.54c-7.84-17.37-13.04-35.89-14.5-54.93
			c-1.17-15.35,0.2-30.84,3.89-45.78c3.09-12.52,7.78-24.61,13.76-36.03c4.35-8.31,9.4-16.27,15.1-23.72
			c1.76-2.31,3.59-4.57,5.5-6.76c0.88-1.01,1.87-1.94,2.72-2.98c0.04-0.04,0.08-0.08,0.12-0.13C52.24,15.04,51.61,10.24,50.13,11.72
			L50.13,11.72z"/>
	</g>
</g>
<g id="tea_1_">
	<g>
		<g>
			<path d="M-451.57,268.97c1.36-1.9,3.7-3.44,6.09-3.36c1.87,0.07,2.96,0.89,2.41,2.63c-1.88,5.87-9.28,7.96-14.71,7.82
				c-0.73-0.02-0.76,2.38,0,2.4c5.62,0.15,11.81-1.84,14.74-6.99c1.77-3.1,2-8.38-2.78-8.27c-2.48,0.06-4.87,1.71-6.28,3.69
				C-452.5,267.45-452.12,269.73-451.57,268.97L-451.57,268.97z"/>
		</g>
	</g>
	<g>
		<g>
			<path class="st1" d="M-450.07,261.85c0,5.42-5.62,21.51-20.74,21.2c-15.55-0.31-20.74-15.78-20.74-21.2s9.28-4.07,20.74-4.07
				C-459.35,257.78-450.07,256.43-450.07,261.85z"/>
		</g>
		<g>
			<g>
				<path d="M-450.46,261.85c-0.02,2.29-0.78,4.63-1.64,6.73c-1.23,3-2.98,5.81-5.27,8.13c-5.66,5.73-14.57,7.02-21.79,3.51
					c-5.86-2.85-9.89-8.71-11.47-14.93c-0.53-2.1-1.14-4.52,1.19-5.69c1.49-0.75,3.3-0.88,4.94-0.98c2.29-0.13,4.59-0.08,6.88-0.03
					c5.89,0.12,11.77-0.07,17.66-0.05C-457.63,258.54-450.55,258.16-450.46,261.85c0.03,1.06,0.82,1.08,0.79,0
					c-0.09-3.58-3.03-4.61-6.16-4.94c-5.57-0.58-11.27,0.02-16.86-0.04c-2.86-0.03-5.72-0.14-8.58-0.14c-2.15,0-4.37,0.01-6.48,0.49
					c-1.35,0.31-2.75,0.83-3.52,2.04c-0.7,1.09-0.72,2.43-0.61,3.68c0.52,6.24,3.94,12.66,8.76,16.61
					c6.66,5.45,16.85,5.99,23.8,0.78c3.26-2.45,5.71-5.87,7.38-9.56c1.25-2.76,2.24-5.86,2.27-8.92
					C-449.66,260.78-450.45,260.77-450.46,261.85z"/>
			</g>
		</g>
	</g>
	<g>
		<g>
			<path class="st1" d="M-450.07,261.85c0,4.37-9.28,7.92-20.74,7.92c-11.45,0-20.74-3.55-20.74-7.92s9.28-7.92,20.74-7.92
				C-459.35,253.93-450.07,257.47-450.07,261.85z"/>
		</g>
		<g>
			<g>
				<path d="M-450.46,261.85c-0.06,2-2.86,3.43-4.39,4.14c-2.98,1.39-6.28,2.08-9.53,2.49c-7.08,0.88-15.11,0.62-21.77-2.22
					c-1.71-0.73-4.32-1.96-4.9-3.93c-0.55-1.88,2.12-3.49,3.46-4.21c6.08-3.27,13.94-3.65,20.68-3.16c3.78,0.27,7.63,0.9,11.15,2.34
					C-454.03,258.02-450.53,259.55-450.46,261.85c0.03,1.06,0.83,1.08,0.79,0c-0.07-2.32-1.58-3.94-3.48-5.09
					c-2.96-1.79-6.52-2.64-9.9-3.16c-4.6-0.71-9.32-0.76-13.94-0.21c-3.58,0.43-7.3,1.2-10.54,2.86c-1.94,0.99-3.96,2.5-4.33,4.8
					c-0.35,2.19,0.8,4.01,2.5,5.28c2.65,1.98,6.13,2.91,9.33,3.52c4.46,0.85,9.07,1.02,13.59,0.65c4.19-0.34,8.6-1.11,12.38-3.04
					c2.27-1.16,4.32-2.89,4.4-5.6C-449.64,260.78-450.43,260.78-450.46,261.85z"/>
			</g>
		</g>
	</g>
	<g>
		<path d="M-470.82,268.75c-12.31,0-18.33-3.96-18.1-4.12c3.55-2.42,10.33-4.06,18.11-4.06c7.76,0,14.53,1.63,18.08,4.04
			C-452.45,264.79-458.88,268.75-470.82,268.75z"/>
	</g>
</g>
</svg>
