<?xml version="1.0" encoding="utf-8"?>
<!-- Generator: Adobe Illustrator 24.1.2, SVG Export Plug-In . SVG Version: 6.00 Build 0)  -->
<svg version="1.1" id="Layer_1" xmlns="http://www.w3.org/2000/svg" xmlns:xlink="http://www.w3.org/1999/xlink" x="0px" y="0px"
	 viewBox="0 0 61.33 130.67" style="enable-background:new 0 0 61.33 130.67;" xml:space="preserve">
<style type="text/css">
	.st0{fill:#3E8AAB;}
</style>
<g>
	<g>
		<path class="st0" d="M49.73,8.59c-2.15,1.45-4.17,3.14-6.14,4.83c-4.95,4.26-9.53,8.95-13.65,14.01
			c-5.52,6.76-10.23,14.24-13.72,22.25c-4.17,9.57-6.5,19.87-6.77,30.3c-0.32,12.55,2.48,25.03,7.41,36.54
			c0.7,1.64,1.45,3.26,2.23,4.86c0.43,0.88,1.13,0.88,1.56,0c0.47-0.97,0.48-2.56,0-3.54c-5.27-10.82-8.79-22.71-9-34.67
			C11.46,73.6,13.32,64.06,17,55.02c3.19-7.83,7.6-15.1,12.81-21.74c4.01-5.11,8.48-9.85,13.3-14.12c2.28-2.01,4.78-3.72,7.09-5.67
			c0.03-0.03,0.07-0.05,0.1-0.07C51.6,12.54,50.98,7.75,49.73,8.59L49.73,8.59z"/>
	</g>
</g>
<rect x="165.58" y="278.05" style="fill:none;" width="92" height="46"/>
<text transform="matrix(1 0 0 1 165.5837 286.93)" style="fill:#FFFFFF; font-family:'NirmalaUI-Bold'; font-size:12px;">JE COMMENCE</text>
</svg>
