<?xml version="1.0" encoding="utf-8"?>
<!-- Generator: Adobe Illustrator 26.5.0, SVG Export Plug-In . SVG Version: 6.00 Build 0)  -->
<svg version="1.1" id="Calque_1" xmlns="http://www.w3.org/2000/svg" xmlns:xlink="http://www.w3.org/1999/xlink" x="0px" y="0px"
	 viewBox="0 0 5900 2178.99" style="enable-background:new 0 0 5900 2178.99;" xml:space="preserve">
<style type="text/css">
	.st0{fill:none;stroke:#000000;stroke-width:25;stroke-miterlimit:10;}
</style>
<g id="background">
</g>
<g id="team_communication">
	<g>
		<ellipse class="st0" cx="2929.79" cy="1147.47" rx="731.46" ry="731.67"/>
	</g>
	<g>
		<path d="M3550.06,1135.5c-37.61-84.12-138.41-133.3-240.85-124.12c0.16-15.46-2.96-31.2-9.83-46.55
			c-30.13-67.4-120.15-101.69-201.07-76.6c-10.12,3.14-19.62,7.06-28.44,11.65c-67.05-79.09-191.87-114.02-305.93-78.65
			c-102.71,31.85-167.22,111.59-170.76,197.49c-46.8-11.93-98.5-11.64-147.91,3.68c-119.46,37.05-180.25,147.76-135.76,247.27
			c34.6,77.39,122.68,125.19,216.32,125.2l-0.01,0.01h0.79c0.28,0,0.55,0,0.83,0l302.21-0.24v-153.65h-73.6l173.73-215.46
			l173.73,215.46h-73.6v153.49l286.04-0.22c11.86,0.77,23.86,0.77,35.9-0.03h0.8v-0.05c20.6-1.42,41.31-5.13,61.64-11.43
			C3533.76,1345.71,3594.55,1235.01,3550.06,1135.5z"/>
	</g>
</g>
</svg>
