<?xml version="1.0" encoding="utf-8"?>
<!-- Generator: Adobe Illustrator 26.5.0, SVG Export Plug-In . SVG Version: 6.00 Build 0)  -->
<svg version="1.1" id="Layer_1" xmlns="http://www.w3.org/2000/svg" xmlns:xlink="http://www.w3.org/1999/xlink" x="0px" y="0px"
	 viewBox="0 0 5200 3100" style="enable-background:new 0 0 5200 3100;" xml:space="preserve">
<style type="text/css">
	.st0{fill:none;}
	.st1{fill:none;stroke:#000000;stroke-width:12;stroke-miterlimit:10;}
	.st2{fill:#0F86A1;}
	.st3{fill:#FFFFFF;}
	.st4{fill:none;stroke:#000000;stroke-width:13;stroke-miterlimit:10;}
	
		.st5{clip-path:url(#SVGID_00000130604616158602577290000012787687500076347275_);fill:none;stroke:#000000;stroke-width:10;stroke-miterlimit:10;}
	.st6{clip-path:url(#SVGID_00000125561681337270681660000004934768958973514150_);}
	.st7{stroke:#000000;stroke-miterlimit:10;}
	.st8{clip-path:url(#SVGID_00000002376885619099590110000002894132067107917244_);}
	.st9{fill:#FFFFFF;stroke:#000000;stroke-width:10;stroke-miterlimit:10;}
	.st10{clip-path:url(#SVGID_00000168831880267737086360000014247413504515083656_);}
	
		.st11{clip-path:url(#SVGID_00000136375008659821356200000002715876673173579952_);fill:none;stroke:#000000;stroke-width:10;stroke-miterlimit:10;}
	.st12{clip-path:url(#SVGID_00000141438447209801962650000016965913046284964749_);}
	.st13{fill:none;stroke:#000000;stroke-width:10;stroke-miterlimit:10;}
	.st14{clip-path:url(#SVGID_00000029763776258111148610000013097858669308420282_);}
	
		.st15{clip-path:url(#SVGID_00000163768509781893432070000006038807379727670671_);fill:none;stroke:#000000;stroke-width:10;stroke-miterlimit:10;}
</style>
<g id="ready_project_2_">
	<g id="project_3_">
		<path class="st0" d="M3593.91,1795.65H1610.59c-10.66,0-19.3-8.02-19.3-17.91V469.65c0-9.89,8.64-17.91,19.3-17.91h1983.32
			c10.66,0,19.3,8.02,19.3,17.91v1308.08C3613.21,1787.63,3604.57,1795.65,3593.91,1795.65z"/>
		<path class="st1" d="M3613.21,1344.3l-294.93-154.44c0,0-85.82,35.23-99.86,41.57c-14.04,6.33-10.92,118.74-10.92,118.74
			l406.15,398.98L3613.21,1344.3z"/>
		<g>
			<rect x="2082.3" y="833.15" class="st2" width="1072.66" height="385.93"/>
			<rect x="2260.96" y="804.34" class="st3" width="18.43" height="450.88"/>
			<rect x="2475.64" y="804.34" class="st3" width="18.43" height="450.88"/>
			<rect x="2690.32" y="804.34" class="st3" width="18.43" height="450.88"/>
			<rect x="2023.26" y="1012.68" class="st3" width="1143.03" height="17.1"/>
			<rect x="2905" y="804.34" class="st3" width="18.43" height="450.88"/>
		</g>
		<g>
			<ellipse class="st4" cx="2568.04" cy="613.2" rx="371.86" ry="98.69"/>
			<g>
				<path d="M2319.29,632.64c38.48,26.6,88.96,34.26,135.41,39.89c52.07,6.32,104.85,6.53,157,0.9
					c12.28-1.33,11.23-26.82-0.68-25.54c-50.37,5.44-101.32,5.43-151.66-0.28c-23.92-2.71-47.84-6.48-71.15-12.21
					c-21.44-5.27-42.49-12.65-60.4-25.03C2315.89,602.13,2310.2,626.35,2319.29,632.64L2319.29,632.64z"/>
			</g>
			<g>
				<path d="M2746.47,655.22c27.85-8.69,54.59-20,79.94-33.8c5.73-3.12,7.18-10.15,5.89-15.85c-0.9-3.97-5.56-11.81-11.34-8.66
					c-25.35,13.8-52.09,25.1-79.94,33.8C2730.16,634.1,2733.71,659.21,2746.47,655.22L2746.47,655.22z"/>
			</g>
		</g>
		<g>
			<path d="M2611.37,748.53c-21.61,0-43.23,0-64.84,0c-51.89,0-103.78,0-155.68,0c-62.52,0-125.03,0-187.55,0
				c-54.07,0-108.14,0-162.21,0c-18.01,0-36.02,0-54.03,0c-8.3,0-16.98-0.68-25.25,0c-0.37,0.03-0.76,0-1.13,0
				c-8.54,0-8.63,25.72,0,25.72c21.61,0,43.23,0,64.84,0c51.89,0,103.78,0,155.68,0c62.52,0,125.03,0,187.55,0
				c54.07,0,108.14,0,162.21,0c18.01,0,36.02,0,54.03,0c8.3,0,16.98,0.68,25.25,0c0.37-0.03,0.76,0,1.13,0
				C2619.91,774.25,2620,748.53,2611.37,748.53L2611.37,748.53z"/>
		</g>
		<g>
			<path d="M1595.6,549.68c41.06,25.38,82.12,50.77,123.18,76.15c64.92,40.13,129.83,80.26,194.75,120.39
				c14.87,9.19,29.73,18.38,44.6,27.57c-1.49-4.13-2.98-8.27-4.48-12.4c0,19.77,0,39.53,0,59.3c0,47.24,0,94.47,0,141.71
				c0,57.11,0,114.22,0,171.33c0,49.54,0,99.08,0,148.62c0,23.95-0.41,47.92,0,71.87c0.01,0.33,0,0.67,0,1
				c0,3.19,0.79,12.86,6.1,12.86c21.59,0,43.18,0,64.77,0c51.85,0,103.7,0,155.55,0c62.74,0,125.48,0,188.22,0
				c54.25,0,108.51,0,162.76,0c17.89,0,35.78,0,53.67,0c8.39,0,17.15,0.69,25.52,0c0.37-0.03,0.76,0,1.13,0
				c8.54,0,8.63-25.72,0-25.72c-21.59,0-43.18,0-64.77,0c-51.85,0-103.7,0-155.55,0c-62.74,0-125.48,0-188.22,0
				c-54.25,0-108.51,0-162.76,0c-17.89,0-35.78,0-53.67,0c-8.27,0-17.3-0.96-25.52,0c-0.36,0.04-0.76,0-1.13,0
				c2.03,4.29,4.06,8.57,6.1,12.86c0-14.42,0-28.85,0-43.27c0-35.94,0-71.88,0-107.82c0-46.89,0-93.77,0-140.66
				c0-47.45,0-94.9,0-142.36c0-36.99,0-73.98,0-110.97c0-16.16,0.42-32.38,0-48.55c-0.29-11.14-5.19-13.05-13.41-18.14
				c-11.36-7.02-22.73-14.05-34.09-21.07c-38.38-23.73-76.77-47.46-115.15-71.18c-41.85-25.87-83.7-51.74-125.56-77.62
				c-25.03-15.47-50.06-30.94-75.09-46.42c-1.24-0.76-2.47-1.53-3.71-2.29C1591.91,520.59,1588.32,545.18,1595.6,549.68
				L1595.6,549.68z"/>
		</g>
		<g>
			<path d="M2608.37,774.25c21.61,0,43.23,0,64.84,0c51.89,0,103.78,0,155.68,0c62.52,0,125.03,0,187.55,0
				c54.07,0,108.14,0,162.21,0c18.01,0,36.02,0,54.03,0c8.3,0,16.98,0.68,25.25,0c0.37-0.03,0.76,0,1.13,0
				c8.54,0,8.63-25.72,0-25.72c-21.61,0-43.23,0-64.84,0c-51.89,0-103.78,0-155.68,0c-62.52,0-125.03,0-187.55,0
				c-54.07,0-108.14,0-162.21,0c-18.01,0-36.02,0-54.03,0c-8.3,0-16.98-0.68-25.25,0c-0.37,0.03-0.76,0-1.13,0
				C2599.83,748.53,2599.74,774.25,2608.37,774.25L2608.37,774.25z"/>
		</g>
		<g>
			<path d="M3611.59,530.63c-17.82,11.02-35.64,22.03-53.47,33.05c-39.51,24.42-79.01,48.84-118.52,73.26
				c-40.25,24.88-80.5,49.76-120.75,74.65c-13.91,8.6-27.82,17.19-41.72,25.79c-6,3.71-12.92,7.07-18.44,11.4
				c-5.71,4.48-4.79,12.89-4.79,19.38c0,9.01,0,18.01,0,27.02c0,33.49,0,66.98,0,100.47c0,45.62,0,91.23,0,136.85
				c0,47.45,0,94.89,0,142.34c0,38.98,0,77.96,0,116.95c0,20.22,0,40.44,0,60.67c0,0.92,0,1.84,0,2.76
				c2.03-4.29,4.06-8.57,6.1-12.86c-21.59,0-43.18,0-64.77,0c-51.85,0-103.7,0-155.55,0c-62.74,0-125.48,0-188.22,0
				c-54.25,0-108.51,0-162.76,0c-17.89,0-35.78,0-53.67,0c-8.39,0-17.15-0.69-25.52,0c-0.37,0.03-0.76,0-1.13,0
				c-8.54,0-8.63,25.72,0,25.72c21.59,0,43.18,0,64.77,0c51.85,0,103.7,0,155.55,0c62.74,0,125.48,0,188.22,0
				c54.25,0,108.51,0,162.76,0c17.89,0,35.78,0,53.67,0c8.39,0,17.15,0.69,25.52,0c0.37-0.03,0.76,0,1.13,0
				c5.32,0,6.1-9.9,6.1-12.86c0-19.77,0-39.53,0-59.3c0-47.24,0-94.47,0-141.71c0-57.11,0-114.22,0-171.33c0-49.54,0-99.08,0-148.62
				c0-23.84,1.32-48.05,0-71.87c-0.02-0.33,0-0.67,0-1c-1.49,4.13-2.98,8.27-4.48,12.4c39.9-24.66,79.79-49.33,119.69-73.99
				c63.33-39.15,126.65-78.29,189.98-117.44c14.52-8.98,29.04-17.95,43.56-26.93C3622.01,550.99,3618.61,526.29,3611.59,530.63
				L3611.59,530.63z"/>
		</g>
		<g>
			<g>
				<defs>
					<path id="SVGID_00000066477856946802422100000003302999738053742478_" d="M3599.35,1795.65h-1994.2
						c-7.65,0-13.86-6.2-13.86-13.86V465.6c0-7.65,6.2-13.86,13.86-13.86h1994.2c7.65,0,13.86,6.2,13.86,13.86v1316.2
						C3613.21,1789.45,3607,1795.65,3599.35,1795.65z"/>
				</defs>
				<clipPath id="SVGID_00000142142832681095999860000010456008575699025059_">
					<use xlink:href="#SVGID_00000066477856946802422100000003302999738053742478_"  style="overflow:visible;"/>
				</clipPath>
				
					<path style="clip-path:url(#SVGID_00000142142832681095999860000010456008575699025059_);fill:none;stroke:#000000;stroke-width:10;stroke-miterlimit:10;" d="
					M3723.97,956.32c0,0-313.77-61.34-335.94-48.02c-22.16,13.32-30.52,217.99-15.81,244.39s332.99,122.78,332.99,122.78
					L3723.97,956.32z"/>
			</g>
			<g>
				<defs>
					<path id="SVGID_00000111178565889746903260000012041176923769068980_" d="M3599.35,1795.65h-1994.2
						c-7.65,0-13.86-6.2-13.86-13.86V465.6c0-7.65,6.2-13.86,13.86-13.86h1994.2c7.65,0,13.86,6.2,13.86,13.86v1316.2
						C3613.21,1789.45,3607,1795.65,3599.35,1795.65z"/>
				</defs>
				<clipPath id="SVGID_00000118380760836569684860000007488612485554332322_">
					<use xlink:href="#SVGID_00000111178565889746903260000012041176923769068980_"  style="overflow:visible;"/>
				</clipPath>
				<g style="clip-path:url(#SVGID_00000118380760836569684860000007488612485554332322_);">
					<path class="st7" d="M1444.24,827.15c65.03-6.21,129.17-20.91,189.68-43.93c30.03-11.42,59.06-25.52,90.45-33.61
						c20.4-5.26,57.01-11.43,65.47,13.61c4.23,12.52,3.17,27.05,3.4,39.98c0.28,16.04,0.06,32.08-0.67,48.11
						c-1.22,26.85-2.44,55.22-13.2,80.5c-10.53,24.73-32.39,40.41-57.53,51.67c-28.61,12.81-59.03,22.48-88.57,33.25
						c-73.74,26.89-147.48,53.79-221.22,80.68c-10.73,3.91-6.97,29.05,5.45,24.51c69.43-25.32,138.86-50.64,208.28-75.96
						c32.14-11.72,65.03-22.42,96.44-35.76c27.23-11.56,52.48-27.72,66.66-52.92c14.59-25.93,18.36-55.23,20.41-84.01
						c2.36-33.17,4.03-67.28,0.7-100.45c-1.42-14.11-4.84-28.61-15.45-39.37c-9.37-9.49-22.55-13.48-36.15-14.01
						c-15-0.58-30.14,2.99-44.39,6.97c-16.37,4.57-32.16,10.72-47.79,17.08c-35.55,14.47-71.1,28.05-108.5,37.93
						c-37.33,9.86-75.55,16.51-114.15,20.19C1431.29,802.78,1432.27,828.29,1444.24,827.15L1444.24,827.15z"/>
				</g>
			</g>
			<g>
				<defs>
					<path id="SVGID_00000179609104426599430090000014315739648376423831_" d="M3599.35,1795.65h-1994.2
						c-7.65,0-13.86-6.2-13.86-13.86V465.6c0-7.65,6.2-13.86,13.86-13.86h1994.2c7.65,0,13.86,6.2,13.86,13.86v1316.2
						C3613.21,1789.45,3607,1795.65,3599.35,1795.65z"/>
				</defs>
				<clipPath id="SVGID_00000183220098976489106520000007659544871484831923_">
					<use xlink:href="#SVGID_00000179609104426599430090000014315739648376423831_"  style="overflow:visible;"/>
				</clipPath>
				<g style="clip-path:url(#SVGID_00000183220098976489106520000007659544871484831923_);">
					<path class="st9" d="M3229.43,1273.35c122.58,67.2,245.15,134.4,367.73,201.6c35.02,19.2,70.04,38.4,105.07,57.6
						c5.73,3.14,10.21-5.31,10.87-9.17c1.03-6.03-0.94-12.39-6.72-15.56c-122.58-67.2-245.15-134.4-367.73-201.6
						c-35.02-19.2-70.04-38.4-105.07-57.6c-5.73-3.14-10.21,5.31-10.87,9.17C3221.67,1263.82,3223.64,1270.18,3229.43,1273.35
						L3229.43,1273.35z"/>
				</g>
			</g>
			<g>
				<defs>
					<path id="SVGID_00000165926835171628770720000000521704506317612680_" d="M3599.35,1795.65h-1994.2
						c-7.65,0-13.86-6.2-13.86-13.86V465.6c0-7.65,6.2-13.86,13.86-13.86h1994.2c7.65,0,13.86,6.2,13.86,13.86v1316.2
						C3613.21,1789.45,3607,1795.65,3599.35,1795.65z"/>
				</defs>
				<clipPath id="SVGID_00000031915743344572889310000000726349360190022041_">
					<use xlink:href="#SVGID_00000165926835171628770720000000521704506317612680_"  style="overflow:visible;"/>
				</clipPath>
				<g style="clip-path:url(#SVGID_00000031915743344572889310000000726349360190022041_);">
					<path class="st9" d="M3705.31,992.86c-51.06-10.9-102.26-21.23-153.6-30.95c-25.89-4.91-51.81-9.66-77.77-14.27
						c-10.78-1.91-23.05-5.67-34.1-4.55c-11.58,1.17-18.86,8.34-22.99,18.05c-4.38,10.3-6.31,22.06-8.45,32.91
						c-2.31,11.72-4,23.55-5.05,35.43c-1.05,11.78-1.63,23.6-1.55,35.42c0.08,11.47-0.88,25.08,3.59,35.93
						c4.39,10.66,14.66,14.23,25.19,18.3c11.79,4.57,23.64,9.03,35.53,13.37c23.37,8.55,46.92,16.66,70.64,24.35
						c54.09,17.54,109.02,32.79,164.57,45.8c13.05,3.06,15.26-22.13,4.15-24.73c-90.17-21.12-178.68-48.21-264.63-81.18
						c-5.07-1.94-10.18-3.82-15.19-5.91c-4.33-1.8-4.8-2.32-5.08-6.65c-0.69-10.67-0.89-21.36-0.57-32.04
						c0.65-21.45,3.67-42.85,8.61-63.81c1.46-6.2,2.03-17.32,9.99-19.39c9.78-2.54,22.95,1.95,32.53,3.65
						c23.72,4.21,47.41,8.55,71.07,13.01c53.13,10.02,106.12,20.69,158.96,31.97C3714.31,1020.4,3716.43,995.23,3705.31,992.86
						L3705.31,992.86z"/>
				</g>
			</g>
			<g>
				<defs>
					<path id="SVGID_00000023969015535704521620000005404109450644053156_" d="M3599.35,1795.65h-1994.2
						c-7.65,0-13.86-6.2-13.86-13.86V465.6c0-7.65,6.2-13.86,13.86-13.86h1994.2c7.65,0,13.86,6.2,13.86,13.86v1316.2
						C3613.21,1789.45,3607,1795.65,3599.35,1795.65z"/>
				</defs>
				<clipPath id="SVGID_00000144300894718330920480000007492785685672521130_">
					<use xlink:href="#SVGID_00000023969015535704521620000005404109450644053156_"  style="overflow:visible;"/>
				</clipPath>
				
					<path style="clip-path:url(#SVGID_00000144300894718330920480000007492785685672521130_);fill:none;stroke:#000000;stroke-width:10;stroke-miterlimit:10;" d="
					M1335.73,1234c0,0,368.43-227.22,461.81-186.32c93.38,40.9,30.68,132.5,96.45,137.35c65.77,4.85,147.61-5.87,149.72,72.32
					c2.11,78.18,13.29,156.57-29.17,195.6c-42.46,39.02-516.83,495.09-646.52,377.86C1238.33,1713.57,1202.32,1382.05,1335.73,1234z
					"/>
			</g>
			<g>
				<defs>
					<path id="SVGID_00000101080562123682558520000005756729357789571506_" d="M3599.35,1795.65h-1994.2
						c-7.65,0-13.86-6.2-13.86-13.86V465.6c0-7.65,6.2-13.86,13.86-13.86h1994.2c7.65,0,13.86,6.2,13.86,13.86v1316.2
						C3613.21,1789.45,3607,1795.65,3599.35,1795.65z"/>
				</defs>
				<clipPath id="SVGID_00000171685429387640718160000010446888867427311009_">
					<use xlink:href="#SVGID_00000101080562123682558520000005756729357789571506_"  style="overflow:visible;"/>
				</clipPath>
				<g style="clip-path:url(#SVGID_00000171685429387640718160000010446888867427311009_);">
					<path class="st13" d="M1868.34,1190.29c-138.18,70.57-272.98,146.82-403.83,228.53c-37.26,23.27-74.21,46.96-110.84,71.08
						c-9.18,6.05-2.56,29.92,9.7,21.84c127.94-84.24,259.92-163.17,395.43-236.49c38.06-20.59,76.4-40.73,115-60.45
						C1883.94,1209.61,1879.64,1184.51,1868.34,1190.29L1868.34,1190.29z"/>
				</g>
			</g>
			<g>
				<defs>
					<path id="SVGID_00000125592721536076480050000017478029361679321530_" d="M3599.35,1795.65h-1994.2
						c-7.65,0-13.86-6.2-13.86-13.86V465.6c0-7.65,6.2-13.86,13.86-13.86h1994.2c7.65,0,13.86,6.2,13.86,13.86v1316.2
						C3613.21,1789.45,3607,1795.65,3599.35,1795.65z"/>
				</defs>
				<clipPath id="SVGID_00000011724308732422692320000004472084942198082488_">
					<use xlink:href="#SVGID_00000125592721536076480050000017478029361679321530_"  style="overflow:visible;"/>
				</clipPath>
				<g style="clip-path:url(#SVGID_00000011724308732422692320000004472084942198082488_);">
					<path class="st13" d="M1419.07,1661.92c141.81-96.82,280.52-197.55,415.84-302.06c38.47-29.71,76.66-59.73,114.58-90.04
						c8.53-6.82,1.57-30.85-9.7-21.84c-133.4,106.62-270.2,209.57-410.23,308.6c-39.8,28.15-79.87,55.98-120.18,83.5
						C1400.3,1646.28,1406.97,1670.18,1419.07,1661.92L1419.07,1661.92z"/>
				</g>
			</g>
			<g>
				<defs>
					<path id="SVGID_00000049219402192999189750000005541538101245529991_" d="M3599.35,1795.65h-1994.2
						c-7.65,0-13.86-6.2-13.86-13.86V465.6c0-7.65,6.2-13.86,13.86-13.86h1994.2c7.65,0,13.86,6.2,13.86,13.86v1316.2
						C3613.21,1789.45,3607,1795.65,3599.35,1795.65z"/>
				</defs>
				<clipPath id="SVGID_00000020382492624338521840000000292353296933275301_">
					<use xlink:href="#SVGID_00000049219402192999189750000005541538101245529991_"  style="overflow:visible;"/>
				</clipPath>
				
					<path style="clip-path:url(#SVGID_00000020382492624338521840000000292353296933275301_);fill:none;stroke:#000000;stroke-width:10;stroke-miterlimit:10;" d="
					M1712.94,1947.76c0,0,431.05-502.27,859.58-525.29c428.53-23.02,763.78,648.18,763.78,648.18L1712.94,1947.76z"/>
			</g>
			<g>
				<path id="SVGID_1_" class="st13" d="M3599.35,1795.65h-1994.2c-7.65,0-13.86-6.2-13.86-13.86V465.6
					c0-7.65,6.2-13.86,13.86-13.86h1994.2c7.65,0,13.86,6.2,13.86,13.86v1316.2C3613.21,1789.45,3607,1795.65,3599.35,1795.65z"/>
			</g>
		</g>
		<g>
			<path d="M3593.91,1782.79c-13.18,0-26.36,0-39.54,0c-36.42,0-72.83,0-109.25,0c-54.97,0-109.94,0-164.9,0
				c-68.83,0-137.67,0-206.5,0c-78.34,0-156.68,0-235.03,0c-82.18,0-164.36,0-246.55,0c-82.65,0-165.29,0-247.94,0
				c-77.12,0-154.24,0-231.36,0c-68.13,0-136.27,0-204.4,0c-53.57,0-107.14,0-160.72,0c-34.62,0-69.25,0-103.87,0
				c-8.72,0-17.44,0-26.16,0c-1.98,0-3.99,0.09-5.97,0c-0.36-0.02-0.72,0.02-1.08,0c-2.5-0.16-4.77-0.43-7.07-1.47
				c-2.87-1.29-4.83-3.18-6.47-5.71c-0.18-0.28,0.39,2.64,0.27,2.05c-0.93-4.61,0-10.23,0-14.89c0-13,0-26,0-39
				c0-45.51,0-91.02,0-136.53c0-64.44,0-128.88,0-193.33c0-74.76,0-149.53,0-224.29c0-76.47,0-152.94,0-229.41
				c0-69.57,0-139.14,0-208.7c0-54.05,0-108.11,0-162.16c0-29.92,0-59.85,0-89.77c0-2.69,0.19-5.44,0-8.13
				c-0.03-0.49-0.09-1.13,0-1.62c0.19-0.98-0.47,2.27-0.27,1.95c3.04-4.79,7.64-6.8,13.48-7.17c3.6-0.23,7.3,0,10.91,0
				c25.81,0,51.61,0,77.42,0c46.61,0,93.23,0,139.84,0c62.74,0,125.48,0,188.21,0c74.18,0,148.35,0,222.53,0
				c80.93,0,161.86,0,242.79,0c83,0,165.99,0,248.99,0c80.38,0,160.76,0,241.14,0c73.08,0,146.15,0,219.23,0
				c61.3,0,122.61,0,183.91,0c44.2,0,88.4,0,132.59,0c23.1,0,46.2,0,69.3,0c1.83,0,3.69-0.08,5.51,0c0.3,0.01,0.61-0.02,0.91,0
				c4.77,0.3,7.54,1.54,11.21,4.24c2.14,1.57,2.58,3.88,2.02,0.96c0.95,4.9,0,10.77,0,15.71c0,33.39,0,66.78,0,100.17
				c0,56.4,0,112.79,0,169.19c0,70.87,0,141.73,0,212.6c0,76.72,0,153.45,0,230.17c0,73.97,0,147.94,0,221.91
				c0,62.6,0,125.2,0,187.81c0,42.62,0,85.25,0,127.87c0,10.8,0,21.6,0,32.4c0,2.67-0.16,5.39,0,8.06c0.03,0.53,0.09,1.19,0,1.71
				c-0.02,0.1,0.02,0.21,0,0.31c0.84-4.05-1.37,0.47-3.03,1.79C3601.23,1781.8,3597.57,1782.56,3593.91,1782.79
				c-8.82,0.55-8.27,26.24,0,25.72c32.42-2.02,25.39-47.78,25.39-69.04c0-41.86,0-83.73,0-125.59c0-62.52,0-125.04,0-187.57
				c0-74.67,0-149.33,0-224c0-77.36,0-154.73,0-232.09c0-71.52,0-143.03,0-214.55c0-57.03,0-114.07,0-171.1c0-33.24,0-66.49,0-99.73
				c0-5.04,0.15-10.1,0-15.13c-0.44-14.78-7.81-29.96-25.61-30.83c-1.39-0.07-2.81,0-4.2,0c-21.58,0-43.17,0-64.75,0
				c-43.81,0-87.62,0-131.43,0c-60.87,0-121.74,0-182.62,0c-73.27,0-146.53,0-219.8,0c-81.2,0-162.39,0-243.59,0
				c-83.66,0-167.32,0-250.98,0c-81.63,0-163.27,0-244.9,0c-75.09,0-150.18,0-225.27,0c-63.13,0-126.26,0-189.39,0
				c-46.69,0-93.37,0-140.06,0c-25.5,0-50.99,0-76.49,0c-4.83,0-10.02-0.41-14.75,0.64c-18.63,4.15-20.26,22.88-20.26,37.66
				c0,28.81,0,57.62,0,86.44c0,53.67,0,107.34,0,161c0,70.06,0,140.11,0,210.17c0,77.03,0,154.06,0,231.09
				c0,75.44,0,150.87,0,226.31c0,65.25,0,130.49,0,195.74c0,45.68,0,91.37,0,137.05c0,17.56-0.49,35.19,0,52.75
				c0.41,14.91,7.93,29.9,25.76,30.79c1.49,0.07,3.01,0,4.5,0c7.99,0,15.98,0,23.97,0c33.59,0,67.18,0,100.76,0
				c53.12,0,106.23,0,159.35,0c68.14,0,136.28,0,204.42,0c77.8,0,155.6,0,233.4,0c83.25,0,166.49,0,249.74,0
				c83.21,0,166.42,0,249.63,0c79,0,158,0,237,0c69.34,0,138.68,0,208.02,0c55.21,0,110.42,0,165.63,0c36.38,0,72.76,0,109.15,0
				c12.46,0,24.93,0,37.39,0C3602.45,1808.51,3602.54,1782.79,3593.91,1782.79z"/>
		</g>
	</g>
</g>
</svg>
